<svg width="120" height="120" viewBox="0 0 120 120" fill="none" xmlns="http://www.w3.org/2000/svg">
<rect width="120" height="120" rx="60" fill="url(#paint0_linear_5855_225072)"/>
<g clip-path="url(#clip0_5855_225072)">
<path d="M98.5167 66.2206L97.1157 64.9806C97.1189 64.2454 97.1788 63.507 97.2766 62.8129C98.1191 62.084 98.6713 61.0585 98.7849 59.9352C98.9269 58.5343 98.381 57.1365 97.3271 56.2025L65.897 28.382C63.8334 26.5551 60.8769 26.1102 58.3652 27.2524L26.5375 41.729C24.2089 42.1266 22.0601 43.881 20.8769 46.3737C19.6021 49.062 19.7252 51.9586 21.2145 54.3251C21.2776 54.426 21.3502 54.5175 21.4354 54.5996L58.3526 91.4916C59.4002 92.6654 60.7696 93.3722 62.2904 93.3722C64.4392 93.3722 66.3671 91.9365 67.4399 89.5889L97.7594 73.339C97.7594 73.339 97.7878 73.3232 97.8004 73.3138C99.0215 72.6101 99.8356 71.3512 99.9776 69.9502C100.12 68.5492 99.5737 67.1514 98.5198 66.2175L98.5167 66.2206ZM59.6747 30.1269C61.0536 29.499 62.6754 29.7451 63.8082 30.7454L95.232 58.5627C95.5349 58.8309 95.6832 59.2127 95.6422 59.6134C95.6012 60.0078 95.3866 60.3486 95.0458 60.5505L63.4642 77.4851L29.7275 43.7453L59.6747 30.1269ZM59.2992 78.7378L26.1999 45.1115C26.3009 45.0642 26.405 45.0232 26.506 44.9853L59.8798 78.3623C59.681 78.4727 59.4885 78.5989 59.2992 78.7378ZM23.7261 47.7273C23.7924 47.5853 23.865 47.4496 23.9407 47.3171L57.283 81.1895C56.7276 82.2844 56.3805 83.5812 56.308 84.9916L23.7987 52.5044C22.9783 51.094 22.9499 49.3617 23.7261 47.7273ZM62.2873 90.2168C60.7727 90.2168 59.4443 88.0365 59.4443 85.5501C59.4443 83.0637 60.7727 80.8834 62.2873 80.8834C62.4387 80.8834 62.5902 80.9055 62.7385 80.9497C62.7606 80.956 62.7827 80.956 62.8048 80.9623C62.8584 80.9749 62.9089 80.9844 62.9625 80.9907C63.0162 80.997 63.0667 81.0033 63.1171 81.0065C63.1361 81.0065 63.155 81.0128 63.1739 81.0128C63.2276 81.0128 63.2812 81.0096 63.3349 81.0033C63.3443 81.0033 63.3569 81.0033 63.3664 81.0033C63.4516 80.9938 63.5368 80.9717 63.6188 80.9465C63.6409 80.9402 63.663 80.9339 63.6851 80.9244C63.764 80.896 63.8429 80.8645 63.9186 80.8266L63.9344 80.8171L93.9636 64.7124C93.9604 64.9711 93.9604 65.2362 93.9667 65.5075C93.9478 65.6621 93.9572 65.8199 93.9856 65.9745C94.0771 67.6468 94.4368 69.4895 95.3708 71.0356L65.4458 87.0741C65.4174 87.0899 65.3953 87.1088 65.37 87.1246C65.3227 87.153 65.2722 87.1846 65.228 87.2193C65.1902 87.2508 65.1523 87.2824 65.1176 87.3139C65.0797 87.3486 65.0419 87.3865 65.0072 87.4275C64.9725 87.4654 64.9441 87.5064 64.9125 87.5506C64.8841 87.5916 64.8557 87.6326 64.8305 87.6768C64.8021 87.7241 64.78 87.7746 64.7579 87.8283C64.7453 87.8567 64.7263 87.8819 64.7169 87.9134C64.1931 89.3144 63.237 90.22 62.2841 90.22L62.2873 90.2168Z" fill="#E0E3FF"/>
</g>
<defs>
<linearGradient id="paint0_linear_5855_225072" x1="60" y1="-19" x2="60" y2="137.5" gradientUnits="userSpaceOnUse">
<stop offset="0.207668" stop-color="#1F1D5D"/>
<stop offset="1" stop-color="#5865F2"/>
</linearGradient>
<clipPath id="clip0_5855_225072">
<rect width="80" height="66.7445" fill="white" transform="translate(20 26.6279)"/>
</clipPath>
</defs>
</svg>
