<svg width="120" height="120" viewBox="0 0 120 120" fill="none" xmlns="http://www.w3.org/2000/svg">
<rect width="120" height="120" rx="60" fill="url(#paint0_linear_5855_225062)"/>
<g clip-path="url(#clip0_5855_225062)">
<path d="M49.0567 63.6753C48.9842 63.636 47.2941 62.729 45.5949 61.2596C43.1369 59.1311 41.8942 56.93 41.9063 54.7169C41.9184 52.6337 43.3394 49.701 46.4596 49.701H46.4657C47.8262 49.701 48.9418 50.3359 49.7642 51.0978C50.5866 50.3359 51.7053 49.701 53.0628 49.701H53.0688C56.189 49.701 57.61 52.6337 57.6221 54.7169C57.6342 56.93 56.3946 59.1311 53.9335 61.2596C52.2344 62.729 50.5443 63.636 50.4717 63.6753C50.251 63.7932 50.0061 63.8537 49.7612 63.8537C49.5163 63.8537 49.2714 63.7932 49.0507 63.6753H49.0567ZM73.5344 49.698H73.5284C72.1678 49.698 71.0522 50.3329 70.2298 51.0948C69.4075 50.3329 68.2888 49.698 66.9313 49.698H66.9252C63.805 49.698 62.384 52.6307 62.3719 54.7139C62.3598 56.927 63.5994 59.1281 66.0605 61.2566C67.7597 62.7259 69.4498 63.633 69.5223 63.6723C69.7431 63.7902 69.988 63.8507 70.2328 63.8507C70.4777 63.8507 70.7226 63.7902 70.9434 63.6723C71.0159 63.633 72.706 62.7259 74.4052 61.2566C76.8632 59.1281 78.1059 56.927 78.0907 54.7139C78.0787 52.6307 76.6576 49.698 73.5375 49.698H73.5344ZM72.5458 69.2535C72.0167 68.8151 71.2578 68.7879 70.6985 69.19C69.5768 69.9973 68.3886 70.4085 67.1641 70.4085C64.966 70.4085 62.8678 69.0782 61.2563 66.6594C61.1384 66.4841 60.9842 66.3389 60.8118 66.2271C60.9842 66.1152 61.1384 65.9701 61.2563 65.7947C61.6705 65.1749 62.1875 64.8182 62.6712 64.8182C62.9252 64.8182 63.1822 64.9119 63.4362 65.0933C63.9955 65.4954 64.7544 65.4712 65.2835 65.0298C65.8126 64.5914 65.9789 63.8476 65.6886 63.2248C64.5911 60.8817 62.4112 59.4274 59.9955 59.4274C57.5798 59.4274 55.3999 60.8817 54.3024 63.2248C54.0091 63.8476 54.1754 64.5914 54.7075 65.0298C55.2366 65.4682 55.9985 65.4954 56.5548 65.0933C56.8088 64.9089 57.0658 64.8182 57.3198 64.8182C58.0121 64.8182 58.5412 65.5015 58.7378 65.7947C58.8557 65.9701 59.0099 66.1152 59.1822 66.2271C59.0099 66.3389 58.8557 66.4841 58.7378 66.6594C57.1263 69.0751 55.028 70.4085 52.83 70.4085C51.6055 70.4085 50.4173 70.0003 49.2956 69.19C48.7363 68.7879 47.9774 68.8121 47.4483 69.2535C46.9192 69.6919 46.7529 70.4357 47.0431 71.0585C49.5586 76.4342 54.5231 79.7721 59.9955 79.7721C65.4679 79.7721 70.4324 76.4342 72.9479 71.0585C73.2412 70.4357 73.0749 69.6919 72.5428 69.2535H72.5458ZM89.5133 72.1137C89.1928 73.6829 88.6637 75.1643 87.9622 76.5219L98.2359 80.0351C99.025 80.3042 99.4483 81.1659 99.1762 81.955C98.9615 82.5838 98.375 82.9769 97.7461 82.9769C97.5828 82.9769 97.4195 82.9497 97.2563 82.8953L86.2752 79.1402C83.5994 82.5234 79.672 84.67 75.2941 84.67C75.1459 84.67 74.9917 84.667 74.8315 84.6609C70.5231 87.4213 65.1656 88.9361 59.6841 88.9361C54.2026 88.9361 48.8572 87.4244 44.5518 84.67C40.2072 84.6549 36.3039 82.5234 33.6403 79.1674L22.7347 82.8983C22.5715 82.9527 22.4082 82.9799 22.2449 82.9799C21.6161 82.9799 21.0295 82.5838 20.8149 81.958C20.5458 81.1689 20.966 80.3072 21.7551 80.0381L31.9471 76.5521C31.2366 75.1855 30.7045 73.695 30.381 72.1137H21.5103C20.6758 72.1137 19.9985 71.4365 19.9985 70.602C19.9985 69.7675 20.6758 69.0903 21.5103 69.0903H30.0363C30.0303 68.9149 30.0242 68.7426 30.0242 68.5672C30.0242 67.0646 30.2117 65.5922 30.5715 64.1832L21.7582 61.1689C20.9691 60.8998 20.5458 60.0381 20.8179 59.249C21.087 58.4599 21.9456 58.0366 22.7378 58.3087L31.5753 61.3321C32.0741 60.2407 32.6849 59.2067 33.4044 58.2543C29.1716 52.2709 28.4309 39.7962 31.152 34.2694C32.6183 31.2792 34.7226 30.986 35.8443 31.0797C38.5412 31.2974 43.6267 33.4107 52.6062 42.1364C54.9041 41.5317 57.2805 41.2233 59.6841 41.2233C62.2722 41.2233 64.8149 41.574 67.2548 42.2664C72.4188 37.2354 79.3152 31.4697 84.1527 31.0797C85.2805 30.986 87.3999 31.2853 88.8663 34.3057C91.5813 39.893 90.8043 52.3828 86.5443 58.3178C87.2517 59.2611 87.8474 60.28 88.3372 61.3563L97.2593 58.3057C98.0514 58.0336 98.9101 58.4569 99.1792 59.246C99.4483 60.0351 99.028 60.8968 98.2389 61.1659L89.3349 64.2104C89.6886 65.6103 89.8761 67.0736 89.8761 68.5642C89.8761 68.7395 89.87 68.9149 89.864 69.0872H98.4868C99.3213 69.0872 99.9985 69.7645 99.9985 70.599C99.9985 71.4334 99.3213 72.1107 98.4868 72.1107H89.5133V72.1137ZM86.4143 72.1137H78.9796C78.1452 72.1137 77.4679 71.4365 77.4679 70.602C77.4679 69.7675 78.1452 69.0903 78.9796 69.0903H86.8375C86.8436 68.9149 86.8496 68.7426 86.8496 68.5672C86.8496 67.4123 86.7166 66.2815 86.4596 65.1961L79.4694 67.5876C79.3062 67.642 79.1429 67.6693 78.9796 67.6693C78.3508 67.6693 77.7642 67.2732 77.5496 66.6473C77.2805 65.8582 77.7007 64.9965 78.4898 64.7275L85.4558 62.345C84.9297 61.2505 84.2616 60.2316 83.4604 59.3246C82.9464 58.7441 82.9554 57.8673 83.4846 57.2959C87.4936 52.9663 88.5065 40.4977 86.1422 35.6299C85.3591 34.0154 84.6304 34.0789 84.3916 34.094C81.2623 34.348 75.409 38.4417 68.7363 45.0479C68.3341 45.444 67.7476 45.5861 67.2094 45.4138C64.8028 44.6398 62.2691 44.2498 59.6811 44.2498C57.2684 44.2498 54.8859 44.5974 52.6032 45.2807C52.0741 45.438 51.5027 45.2959 51.1096 44.9089C44.5034 38.3873 38.7045 34.345 35.6025 34.091C35.3666 34.0729 34.644 34.0154 33.867 35.5967C31.4997 40.41 32.4823 52.8635 36.4702 57.2475C36.9902 57.8189 36.9932 58.6927 36.4793 59.2702C35.666 60.1832 34.9887 61.2052 34.4536 62.3087L41.5072 64.7214C42.2963 64.9905 42.7196 65.8522 42.4475 66.6413C42.2329 67.2702 41.6463 67.6632 41.0174 67.6632C40.8542 67.6632 40.6909 67.636 40.5276 67.5816L33.4468 65.1598C33.1867 66.2573 33.0507 67.3971 33.0507 68.5612C33.0507 68.7365 33.0567 68.9119 33.0628 69.0842H41.0174C41.8519 69.0842 42.5291 69.7615 42.5291 70.5959C42.5291 71.4304 41.8519 72.1077 41.0174 72.1077H33.4861C33.7945 73.3412 34.257 74.4992 34.8496 75.5544L40.5276 73.6133C41.3198 73.3442 42.1784 73.7645 42.4475 74.5536C42.7166 75.3427 42.2963 76.2044 41.5072 76.4735L36.7211 78.1092C38.7861 80.2981 41.5586 81.6405 44.6062 81.6405C44.6788 81.6405 44.7514 81.6375 44.8239 81.6345H44.9418C44.957 81.6284 44.9751 81.6284 44.9902 81.6284C45.2895 81.6284 45.5828 81.7161 45.8307 81.8824C49.7098 84.4765 54.6319 85.9036 59.6901 85.9036C64.7483 85.9036 69.6977 84.4674 73.5858 81.8582C73.867 81.6708 74.1996 81.5801 74.5382 81.6073C74.8345 81.6284 75.0764 81.6405 75.3001 81.6405C78.3568 81.6405 81.1384 80.286 83.2094 78.085L78.4989 76.4735C77.7098 76.2044 77.2865 75.3427 77.5586 74.5536C77.8277 73.7645 78.6864 73.3412 79.4785 73.6133L85.0749 75.5272C85.6614 74.478 86.118 73.3291 86.4233 72.1077L86.4143 72.1137Z" fill="#F5C9FF"/>
</g>
<defs>
<linearGradient id="paint0_linear_5855_225062" x1="60" y1="-11" x2="60" y2="133.5" gradientUnits="userSpaceOnUse">
<stop offset="0.17301" stop-color="#381F2C"/>
<stop offset="1" stop-color="#FF4CD2"/>
</linearGradient>
<clipPath id="clip0_5855_225062">
<rect width="80" height="57.8715" fill="white" transform="translate(20 31.0645)"/>
</clipPath>
</defs>
</svg>
