<svg width="120" height="120" viewBox="0 0 120 120" fill="none" xmlns="http://www.w3.org/2000/svg">
<rect width="120" height="120" rx="60" fill="url(#paint0_linear_5855_225053)"/>
<g clip-path="url(#clip0_5855_225053)">
<path d="M99.8559 76.8032L82.7645 41.4794C82.5253 40.981 82.0211 40.6669 81.4679 40.6669C80.9147 40.6669 80.4105 40.9839 80.1714 41.4794L75.9677 50.1692L61.2302 25.9698C60.968 25.5405 60.5013 25.2783 59.9999 25.2783C59.4986 25.2783 59.0319 25.5405 58.7697 25.9698L44.0351 50.1692L39.8314 41.4794C39.5923 40.981 39.088 40.6669 38.5348 40.6669C37.9816 40.6669 37.4774 40.9839 37.2383 41.4794L20.144 76.8032C19.9279 77.2498 19.9567 77.7771 20.2189 78.1948C20.484 78.6155 20.9421 78.869 21.4406 78.869H29.8566L27.0676 84.6315C27.0301 84.7064 27.0042 84.7842 26.9811 84.862C26.9783 84.8764 26.9725 84.8908 26.9696 84.9052C26.9495 84.983 26.9379 85.0637 26.9293 85.1415C26.9293 85.1587 26.9293 85.176 26.9264 85.1933C26.9235 85.274 26.9264 85.3518 26.935 85.4325C26.935 85.4469 26.9379 85.4584 26.9408 85.4699C26.9523 85.5506 26.9696 85.6313 26.9956 85.7091V85.7148C27.0128 85.7667 27.033 85.8185 27.0561 85.8675C27.0676 85.8935 27.082 85.9165 27.0964 85.9396C27.1022 85.9511 27.1108 85.9655 27.1166 85.977C27.1569 86.0462 27.203 86.1124 27.2549 86.1729C27.2664 86.1845 27.275 86.196 27.2866 86.2104C27.3413 86.2709 27.3989 86.3285 27.4623 86.3804C27.471 86.3862 27.4796 86.3948 27.4911 86.4006C27.5632 86.4553 27.6381 86.5043 27.7187 86.5446C27.7274 86.5504 27.736 86.5504 27.7447 86.5561C27.785 86.5763 27.8253 86.5936 27.8686 86.608C27.8916 86.6166 27.9175 86.6224 27.9406 86.6311C27.9636 86.6397 27.9896 86.6483 28.0126 86.6541L60.1498 94.6725C60.265 94.7014 60.3803 94.7158 60.4984 94.7158C60.6309 94.7158 60.7635 94.6985 60.8931 94.661L71.1474 91.7452L91.6703 85.9107C92.0795 85.7955 92.4166 85.5016 92.5923 85.1155C92.7681 84.7294 92.7594 84.2829 92.575 83.8997L92.0593 82.8365L90.2326 78.869H98.5536C99.0491 78.869 99.5101 78.6126 99.7752 78.1948C100.037 77.7742 100.066 77.2498 99.8501 76.8032H99.8559ZM81.4679 45.4152L84.8706 52.4454L82.3035 51.7222C81.9116 51.6098 81.4881 51.6732 81.1423 51.8922C80.7966 52.1111 80.5603 52.4655 80.4912 52.8689L79.8746 56.5021L77.754 53.0936L81.4679 45.4181V45.4152ZM59.9999 29.4878L71.7352 48.7603L70.891 48.2359C70.4818 47.9823 69.9719 47.9478 69.531 48.1495C69.0931 48.3511 68.7819 48.7574 68.707 49.2328L67.7821 55.0356L62.1407 49.2097C61.6048 48.6566 60.726 48.622 60.1498 49.1348L53.4567 55.073L53.0187 48.2417C52.987 47.7346 52.6903 47.2822 52.2379 47.0517C51.7856 46.8212 51.2439 46.8443 50.8146 47.1151L48.3051 48.694L59.9999 29.4878ZM38.532 45.4152L42.266 53.1311L39.8372 57.476L37.6935 53.425C37.5005 53.0591 37.1547 52.794 36.7514 52.696C36.348 52.6009 35.9216 52.6845 35.5845 52.9236L34.5415 53.667L38.5348 45.4152H38.532ZM88.9101 75.9907L83.3436 63.8953C83.0123 63.1721 82.1565 62.8552 81.4334 63.1894C80.7102 63.5237 80.3932 64.3765 80.7275 65.0997L86.4092 77.4428C86.4092 77.6532 86.4553 77.8635 86.5504 78.0565L89.2386 83.6115L71.7755 88.5759L66.1312 67.9982C65.9209 67.2318 65.1285 66.7794 64.3621 66.9898C63.5957 67.2001 63.1434 67.9924 63.3537 68.7588L69.0038 89.3624L60.4782 91.7856L36.1002 85.7033L47.87 61.1063C48.2129 60.3889 47.9103 59.5274 47.1929 59.1845C46.4755 58.8417 45.614 59.1442 45.2711 59.8616L33.2478 84.9888L30.4559 84.2915L39.7133 65.7624C40.0677 65.0507 39.7795 64.1863 39.0679 63.8291C38.3562 63.4747 37.4918 63.7628 37.1346 64.4745L31.3837 75.9849H23.7369L31.9253 59.0606L35.9158 56.2198L38.5291 61.1582C38.7769 61.6249 39.258 61.9188 39.7853 61.9246C40.3126 61.9246 40.8024 61.648 41.0588 61.187L44.9657 54.1971L50.2989 50.8376L50.7714 58.1934C50.806 58.7437 51.1517 59.2249 51.6617 59.4323C52.1717 59.6427 52.7537 59.5418 53.1657 59.1788L61.0314 52.2005L67.7159 59.1039C68.0962 59.4957 68.6638 59.6398 69.1853 59.4755C69.7068 59.3113 70.09 58.8676 70.1735 58.3288L71.2108 51.823L75.063 54.2173L79.4338 61.2417C79.6989 61.671 80.1656 61.9217 80.6583 61.9217C80.7505 61.9217 80.8427 61.9131 80.9378 61.8958C81.5256 61.7805 81.9808 61.3138 82.0787 60.7231L83.0641 54.9261L86.5475 55.9086L96.263 75.9878H88.913L88.9101 75.9907ZM56.943 63.1203L51.679 77.2815C51.4629 77.8606 50.9126 78.2208 50.3277 78.2208C50.1606 78.2208 49.9906 78.192 49.8263 78.1314C49.0801 77.8549 48.6998 77.0251 48.9793 76.2788L54.2433 62.1176C54.5199 61.3714 55.3497 60.9911 56.0959 61.2705C56.8421 61.5471 57.2224 62.3769 56.943 63.1232V63.1203ZM59.6571 37.1201C59.4064 36.3653 59.8127 35.5499 60.5704 35.2992C61.3224 35.0485 62.1407 35.4548 62.3914 36.2126L65.5665 45.7494C65.8171 46.5043 65.4109 47.3197 64.6531 47.5703C64.5033 47.6193 64.3477 47.6452 64.1979 47.6452C63.5957 47.6452 63.0339 47.262 62.8322 46.6599L59.6571 37.123V37.1201Z" fill="#C8FFEF"/>
</g>
<defs>
<linearGradient id="paint0_linear_5855_225053" x1="60" y1="-16" x2="60" y2="139" gradientUnits="userSpaceOnUse">
<stop offset="0.125806" stop-color="#002920"/>
<stop offset="1" stop-color="#35ED7E"/>
</linearGradient>
<clipPath id="clip0_5855_225053">
<rect width="80" height="69.4432" fill="white" transform="translate(20 25.2783)"/>
</clipPath>
</defs>
</svg>
