<svg width="122" height="91" viewBox="0 0 122 91" fill="none" xmlns="http://www.w3.org/2000/svg">
<path d="M74.0454 21.6994C67.5269 19.4758 59.4797 18.0637 50.6575 17.0625L49.9037 22.3318C46.2836 21.8681 42.4086 21.7838 38.385 22.0051C34.3614 22.2264 30.72 22.7111 27.6306 23.5331L22.6091 18.5695C14.9865 20.4664 8.44685 22.6795 4.04106 25.4828C-0.3435 43.1875 -0.789387 58.4788 8.9352 78.9446L12.566 82.338C21.4731 86.4269 31.8984 87.681 41.3045 89.3883L42.5466 88.8192L43.8524 81.2947C40.4552 80.4305 37.1853 79.2818 34.0111 77.9224L35.508 76.036C42.7165 78.8287 49.5003 81.0839 62.792 80.3673C76.0943 79.6507 80.7124 76.7737 85.3199 73.3487L88.3031 74.9821C86.3816 76.6156 84.1946 78.0594 81.6467 79.2502L88.7809 86.037L91.3288 86.5007C98.8239 83.8239 104.928 80.0828 110.035 75.1929C110.396 74.8451 110.555 72.5477 110.555 72.5477C103.07 51.5972 92.8682 38.3081 74.0135 21.6784V21.71C74.0241 21.71 74.0241 21.71 74.0241 21.71L74.0454 21.6994Z" fill="#1D0066"/>
<path d="M62.0793 0L50.6561 17.0513L49.9023 22.3206L61.3255 5.26925L62.0793 0Z" fill="white"/>
<path d="M85.3217 73.3485L88.3049 74.9819C86.3833 76.6154 84.1964 78.0592 81.6484 79.25L88.7826 86.0368L91.3306 86.49C98.8257 83.8132 104.93 80.072 110.037 75.1822L121.46 58.1309L105.726 60.8709L85.3111 73.3379H85.3217C85.3217 73.3485 85.3217 73.3485 85.3217 73.3485Z" fill="#7F41CF"/>
<path d="M55.2645 73.3682L43.8413 90.4195L42.5886 90.9992C33.1931 89.3025 21.4832 86.4465 12.5761 82.3681L8.94531 78.9536L20.3685 61.9023L55.2645 73.3682Z" fill="#3E1689"/>
<path d="M93.0795 62.209L81.6562 79.2708L88.7904 86.0576L100.235 69.0063L93.0901 62.2195L93.0795 62.209Z" fill="#3E1689"/>
<path d="M102.774 69.4598L100.226 68.9961L88.7812 86.0474L91.3398 86.5111L102.763 69.4598H102.774Z" fill="#1D0066"/>
<path d="M13.8617 9.39062L2.43854 26.4525C-1.94602 44.1572 -0.788837 58.4895 8.95698 78.9658L20.3802 61.9145L13.8617 9.40116V9.39062Z" fill="#A056F2"/>
<path d="M19.4687 54.5691L6.6017 73.7597C4.69076 69.2703 3.2257 65.076 2.16406 61.0608L17.441 38.2871L19.4687 54.5796V54.5691Z" fill="#7F41CF"/>
<path d="M49.6613 71.5136L37.2932 89.956C34.2676 89.3237 31.1251 88.5966 28.0039 87.7324L40.5843 68.5312L49.6613 71.5031V71.5136Z" fill="#F3E6FF"/>
<path d="M114.58 63.6523L103.136 80.7036C100.259 82.6006 97.1055 84.2551 93.6445 85.6251L105.068 68.5738C108.539 67.1827 111.703 65.5493 114.569 63.6523H114.58Z" fill="#F3E6FF"/>
<path d="M55.2868 64.2635L41.9526 61.0492L15.4648 8.41992L13.8405 9.37893C9.32856 27.6316 10.3265 40.8048 20.359 61.8923L24.9452 65.2857C34.1284 69.4906 43.6619 72.357 53.344 74.117L55.2443 73.3477L56.4546 65.5702L55.2656 64.2424H55.2868C55.2868 64.2529 55.2868 64.2529 55.2868 64.2529V64.2635Z" fill="#F3E6FF"/>
<path d="M55.2872 64.264L41.9531 61.0498L21.8669 60.291L20.3594 61.9034L24.797 65.634C33.9802 69.8389 43.6729 72.3787 53.3444 74.1281L55.2447 73.3588L56.455 65.5813L55.266 64.2535H55.2872V64.264Z" fill="#A056F2"/>
<path d="M33.288 30.4675L39.4773 56.329L99.3642 50.2167L88.9814 24.4922L33.2773 30.4675H33.288Z" fill="#1D0066"/>
<path d="M85.4684 4.63694C78.9499 2.42386 70.9134 1.0117 62.0805 0L61.3268 5.26925C57.7066 4.80556 53.8316 4.72125 49.808 4.94256C45.7844 5.16387 42.143 5.64864 39.0537 6.47064L34.0321 1.50701C26.4096 3.40394 19.8699 5.61702 15.4641 8.42027C11.0795 26.125 12.1412 39.8039 21.8658 60.2803L25.4966 63.6737C34.4037 67.7626 43.3214 70.6291 52.7275 72.3363L53.959 71.7672L55.2648 64.2427C51.8676 63.3786 48.5978 62.2299 45.4235 60.8704L46.9204 58.984C54.1289 61.7767 60.9128 64.032 74.2044 63.3153C87.4855 62.5987 92.1249 59.7217 96.7324 56.2967L99.7156 57.9302C97.794 59.5636 95.607 61.0074 93.0591 62.1983L100.193 68.9851L102.741 69.4488C110.236 66.772 116.341 63.0308 121.447 58.1409C121.808 57.7932 121.967 55.4958 121.967 55.4958C114.483 34.5452 104.281 21.2562 85.4259 4.6264V4.64748C85.4365 4.64748 85.4365 4.64748 85.4365 4.64748L85.4684 4.63694ZM51.5703 49.2254C46.7399 49.4888 41.1345 45.6633 39.043 40.6892C36.9516 35.715 39.2023 31.468 44.0433 31.2151C48.8844 30.9621 54.4686 34.7771 56.56 39.7512C58.6515 44.7254 56.4114 48.9724 51.581 49.2254H51.5703ZM84.3749 47.4549C79.5445 47.7184 73.939 43.8929 71.8476 38.9187C69.7562 33.9445 72.0069 29.6975 76.8479 29.4446C81.689 29.1917 87.2732 33.0066 89.3646 37.9808C91.456 42.955 89.216 47.202 84.3855 47.4549H84.3749Z" fill="#5969F4"/>
<path d="M112.213 34.7244L54.6719 4.84771C56.9756 4.86879 59.1944 4.99525 61.3283 5.26925L62.0821 0C70.8937 1.00116 78.9515 2.42386 85.4593 4.63694C97.2966 15.0701 105.726 24.1859 112.213 34.7244Z" fill="#7C89F7"/>
<path d="M121.799 54.9268L90.003 40.2256C90.6612 44.1564 88.453 47.2231 84.3657 47.4444C79.5353 47.7184 73.9298 43.8929 71.8384 38.9188C70.7025 36.1893 70.8617 33.6811 72.0507 31.9212L18.0559 6.97656C17.1323 7.44026 16.2724 7.93557 15.4868 8.43088C11.1128 26.1461 12.1638 39.8251 21.8884 60.2909L25.5086 63.6843C34.4263 67.7732 43.3335 70.6397 52.7396 72.3469L53.9817 71.7778L55.2875 64.2533C51.8903 63.3892 48.6204 62.23 45.4461 60.881L46.943 58.9946C54.1515 61.7873 60.9354 64.0426 74.2271 63.326C87.5082 62.6199 92.1475 59.7323 96.755 56.3073L99.7276 57.9619C97.806 59.5848 95.6191 61.0391 93.0711 62.2194L100.205 69.0168L102.753 69.4804C110.259 66.8037 116.353 63.0625 121.459 58.1832C121.831 57.8354 122.001 55.538 122.001 55.538C121.937 55.3378 121.863 55.1481 121.788 54.9689H121.799C121.799 54.9584 121.799 54.9584 121.799 54.9584V54.9268ZM51.5505 49.2254C46.7307 49.4889 41.1147 45.6634 39.0232 40.6892C36.953 35.7256 39.1825 31.4681 44.0235 31.2151C48.854 30.9517 54.4488 34.7771 56.5402 39.7513C58.6104 44.715 56.3916 48.9725 51.5612 49.2254H51.5505Z" fill="#434FD1"/>
</svg>
