<svg viewBox="0 0 59 45" fill="none" xmlns="http://www.w3.org/2000/svg">
<path d="M37.4242 0.261719C36.857 1.26882 36.3477 2.31065 35.8846 3.37564C31.4858 2.71581 27.0059 2.71581 22.5955 3.37564C22.144 2.31065 21.6231 1.26882 21.0559 0.261719C16.9233 0.967849 12.8949 2.20647 9.07483 3.95443C1.50419 15.1715 -0.544745 26.0991 0.473934 36.8763C4.9075 40.1523 9.87357 42.6527 15.1638 44.2501C16.3561 42.6527 17.4095 40.951 18.3124 39.1799C16.5992 38.5432 14.9438 37.7445 13.3579 36.8184C13.7746 36.5174 14.1798 36.2049 14.5734 35.9039C23.8688 40.2796 34.6344 40.2796 43.9414 35.9039C44.335 36.228 44.7402 36.5406 45.1569 36.8184C43.571 37.7561 41.9157 38.5432 40.1909 39.1915C41.0938 40.9626 42.1472 42.6642 43.3395 44.2617C48.6297 42.6642 53.5957 40.1754 58.0293 36.8994C59.2332 24.3975 55.9688 13.5624 49.4053 3.96601C45.5968 2.21805 41.5684 0.979425 37.4358 0.284871L37.4242 0.261719ZM19.6089 30.2433C16.7497 30.2433 14.3766 27.6503 14.3766 24.4438C14.3766 21.2373 16.657 18.6327 19.5973 18.6327C22.5376 18.6327 24.8759 21.2488 24.8296 24.4438C24.7833 27.6387 22.526 30.2433 19.6089 30.2433ZM38.8944 30.2433C36.0235 30.2433 33.6736 27.6503 33.6736 24.4438C33.6736 21.2373 35.9541 18.6327 38.8944 18.6327C41.8346 18.6327 44.1614 21.2488 44.1151 24.4438C44.0688 27.6387 41.8115 30.2433 38.8944 30.2433Z" fill="white"/>
</svg>