<svg width="120" height="120" viewBox="0 0 120 120" fill="none" xmlns="http://www.w3.org/2000/svg">
<rect width="120" height="120" rx="60" fill="url(#paint0_linear_5855_225100)"/>
<g clip-path="url(#clip0_5855_225100)">
<path d="M60.0181 25C60.0181 25 60.0063 25 60.0005 25C40.7025 25 25.0005 40.702 25.0005 60C25.0005 74.8879 34.3479 87.6351 47.4787 92.6807C47.549 92.7129 47.6222 92.7422 47.6984 92.7656C51.5258 94.2064 55.6723 95 59.9976 95C79.2956 95 94.9976 79.298 94.9976 60C94.9976 40.702 79.3073 25.0088 60.0181 25ZM66.8822 87.5561H53.0661L46.2927 80.5924L53.1129 72.7502H65.0666L71.9951 80.7154L66.8792 87.5531L66.8822 87.5561ZM72.3582 34.2273L64.7093 28.2739C70.6451 29.1524 76.0539 31.6591 80.4669 35.3284L72.3553 34.2244L72.3582 34.2273ZM64.9494 69.8247H53.4585L47.2152 59.0102L53.4585 48.1957H65.9451L72.1562 58.9546L64.9494 69.8218V69.8247ZM47.0161 34.2595L39.455 35.3928C43.8241 31.7382 49.1743 29.2257 55.0486 28.3091L47.019 34.2566L47.0161 34.2595ZM35.8765 38.8922L46.8491 37.2465L51.4935 45.7944C51.4408 45.8589 51.3881 45.9262 51.3471 45.9994L44.6558 57.5899C44.5064 57.5519 44.3483 57.5372 44.1902 57.5519L33.1472 58.445L30.2774 47.9614C31.6333 44.6231 33.5367 41.5629 35.8765 38.8922ZM85.2636 58.4597L74.7624 57.6104L68.0594 45.9994C68.0155 45.9262 67.9657 45.8589 67.913 45.7944L72.575 37.2113L84.0132 38.7663C86.6077 41.6976 88.6781 45.1092 90.0691 48.8458L85.2636 58.4626V58.4597ZM28.6639 53.1652L30.5966 60.2226L31.0476 72.6711L30.6318 72.879C28.8952 68.9345 27.9289 64.5771 27.9289 59.9971C27.9289 57.6514 28.1836 55.3644 28.6639 53.1622V53.1652ZM31.9349 75.5028L32.4825 75.2276L43.3907 81.8047L50.0499 88.6513L48.0234 89.7465C41.171 86.9792 35.4899 81.9101 31.9349 75.5028ZM71.9249 89.7699L69.7871 88.5634L74.8796 81.7549L85.5916 75.2949L87.4541 76.56C83.8668 82.4841 78.4171 87.1578 71.9249 89.767V89.7699ZM88.8597 73.9772L87.1319 72.8029L87.5829 60.369L91.2873 52.9543C91.7968 55.2209 92.0692 57.5812 92.0692 60C92.0692 65.0075 90.9154 69.7515 88.8597 73.9801V73.9772Z" fill="#C8FFEF"/>
</g>
<defs>
<linearGradient id="paint0_linear_5855_225100" x1="60" y1="-16" x2="60" y2="139" gradientUnits="userSpaceOnUse">
<stop offset="0.125806" stop-color="#002920"/>
<stop offset="1" stop-color="#35ED7E"/>
</linearGradient>
<clipPath id="clip0_5855_225100">
<rect width="70" height="70" fill="white" transform="translate(25 25)"/>
</clipPath>
</defs>
</svg>
