<svg width="122" height="91" viewBox="0 0 122 91" fill="none" xmlns="http://www.w3.org/2000/svg">
<path d="M37.9963 15.8789L27.707 66.3501L32.0204 77.8699L48.2136 81.3193L69.4533 80.835L83.0742 76.3514L84.3701 70.6635L78.5644 41.5105L74.4081 18.9159L37.9963 15.8789Z" fill="#1A1A1A"/>
<path d="M29.2183 61.7686C29.3426 61.7686 29.3426 61.5723 29.2183 61.5723C29.0939 61.5723 29.0939 61.7686 29.2183 61.7686Z" fill="#6773F1"/>
<path d="M30.9259 74.9375C29.9703 75.2451 25.5391 76.6916 25.5391 76.6916L26.4685 80.2458L48.0354 84.4151L55.7 84.8471L51.871 87.3016L54.6004 89.6972L64.4512 90.9998L69.8053 88.5518V86.0515L66.2315 84.5853L74.4132 82.9555L84.3752 78.9498L88.4333 75.5724L83.8123 73.1113L30.9259 74.9375Z" fill="black"/>
<path d="M75.9737 27.8576L81.7009 24.814L88.1154 23.8584L93.1487 27.7463L93.9996 35.2211L91.1655 43.429L86.7997 51.4274L78.4479 61.6185L81.9431 64.577L90.3015 54.3794L90.6026 54.0259L90.8251 53.6201L95.1843 45.6217L95.3676 45.2879L95.492 44.9213L98.3261 36.7135L98.6665 35.7317L98.5486 34.704L97.6977 27.2292L97.4818 25.3049L95.9501 24.1202L90.9168 20.2323L89.3721 19.041L87.4412 19.329L81.0267 20.2781L80.2413 20.3959L79.5475 20.769L73.8203 23.8126L75.9737 27.8576Z" fill="#2E318C"/>
<path d="M89.3732 19.0389L83.3122 16.1328L74.1814 17.4877L67.7539 20.9044L73.8215 23.8105L80.2424 20.3938L89.3732 19.0389Z" fill="#838DF4"/>
<mask id="mask0_5136_28041" style="mask-type:luminance" maskUnits="userSpaceOnUse" x="67" y="16" width="23" height="8">
<path d="M89.3732 19.0389L83.3122 16.1328L74.1814 17.4877L67.7539 20.9044L73.8215 23.8105L80.2424 20.3938L89.3732 19.0389Z" fill="white"/>
</mask>
<g mask="url(#mask0_5136_28041)">
<path d="M74.1797 17.4877L80.2407 20.3938L89.3714 19.0389L83.3105 16.1328L74.1797 17.4877Z" fill="white"/>
</g>
<path d="M72.3789 58.7114L78.4464 61.6175L86.7983 51.4264L91.1641 43.428L93.9982 35.2202L93.1473 27.7454L88.1139 23.8574L85.9998 24.1716L87.0798 24.8458L87.9307 32.314L85.0965 40.5219L80.7308 48.5203L72.3789 58.7114Z" fill="black"/>
<mask id="mask1_5136_28041" style="mask-type:luminance" maskUnits="userSpaceOnUse" x="72" y="23" width="22" height="39">
<path d="M72.3789 58.7114L78.4464 61.6175L86.7983 51.4264L91.1641 43.428L93.9982 35.2202L93.1473 27.7454L88.1139 23.8574L85.9998 24.1716L87.0798 24.8458L87.9307 32.314L85.0965 40.5219L80.7308 48.5203L72.3789 58.7114Z" fill="white"/>
</mask>
<g mask="url(#mask1_5136_28041)">
<path d="M80.3047 48.1873L86.7977 51.4272L91.1634 43.4288L84.3693 40.1758L80.3047 48.1873Z" fill="#3B1850"/>
<path d="M85.0977 40.5223L91.1652 43.4285L93.9993 35.2206L87.9318 32.3145L85.0977 40.5223Z" fill="#5E2381"/>
<path d="M87.8505 32.5365L93.9966 35.2201L93.1457 27.7453L87.0781 24.8457L87.8505 32.5365Z" fill="#3B1850"/>
</g>
<path d="M53.2191 7.37592L53.1929 12.8347L50.2148 13.018L43.2309 14.0653L42.7531 8.97299L42.668 6.98975L45.2796 5.37305L53.2191 7.37592Z" fill="black"/>
<path d="M3.12109 32.7718L8.68464 25.1399L19.1703 18.8564L26.2458 18.5684L27.4763 22.1814L21.9652 29.9965L11.5515 35.4423L4.13562 35.9201L3.12109 32.7718Z" fill="#838DF4"/>
<path d="M37.9963 15.8789L27.707 66.3501L32.0204 77.8699L48.2136 81.3193L70.1405 75.579L83.0742 76.3514L84.3701 70.6635L70.1405 74.8983L74.4081 18.9159L37.9963 15.8789Z" fill="#DEE1FF"/>
<path d="M39.4829 20.0156L29.9922 72.4373L47.6319 76.3515L50.5446 22.601L39.4829 20.0156Z" fill="#838DF4"/>
<path d="M74.4079 18.9166L65.7418 21.8947L50.5435 22.6016L39.4819 20.0162L37.9961 15.8795L43.2324 14.0665L48.1741 13.2221L50.4192 12.8359H63.4968L73.1184 15.1661L74.4079 18.9166Z" fill="#5865F0"/>
<path d="M65.7399 21.8945L70.1384 75.5795L47.6289 76.3519L50.5416 22.6014L65.7399 21.8945Z" fill="#2E318C"/>
<path d="M68.2352 18.511L67.7509 18.6812L62.508 20.4812L52.4609 20.9459L45.1498 19.2376L44.672 17.9089L44.168 16.5016L50.2813 14.4922H61.0222L67.3843 16.0303L68.2352 18.511Z" fill="#19175C"/>
<mask id="mask2_5136_28041" style="mask-type:luminance" maskUnits="userSpaceOnUse" x="44" y="14" width="25" height="7">
<path d="M68.2352 18.511L67.7509 18.6812L62.508 20.4812L52.4609 20.9459L45.1498 19.2376L44.672 17.9089L44.168 16.5016L50.2813 14.4922H61.0222L67.3843 16.0303L68.2352 18.511Z" fill="white"/>
</mask>
<g mask="url(#mask2_5136_28041)">
<path d="M68.2352 20.8079L67.7509 20.9715L62.508 22.7715L52.4609 23.2428L45.1498 21.5344L44.672 20.2057L44.168 18.7985L50.2813 16.7891H61.0222L67.3843 18.3272L68.2352 20.8079Z" fill="black"/>
</g>
<path d="M61.1382 14.4919H50.2795L48.1719 13.2221L50.4169 12.8359H59.8422L61.1382 14.4919Z" fill="#2E318C"/>
<path d="M74.4082 18.916L65.7422 21.8942L70.1407 75.5791L84.3703 70.6636L74.4082 18.916Z" fill="#19175C"/>
<path d="M21.3281 44.0957L30.8843 67.4692L35.9832 68.0713L38.7518 65.1063L39.4326 60.8256L38.3984 50.3923L29.6014 36.5293L21.3281 44.0957Z" fill="#515CDF"/>
<mask id="mask3_5136_28041" style="mask-type:luminance" maskUnits="userSpaceOnUse" x="21" y="36" width="19" height="33">
<path d="M21.3281 44.0957L30.8843 67.4692L35.9832 68.0713L38.7518 65.1063L39.4326 60.8256L38.3984 50.3923L29.6014 36.5293L21.3281 44.0957Z" fill="white"/>
</mask>
<g mask="url(#mask3_5136_28041)">
<path d="M24.3455 43.5781L35.9832 68.0708L30.8843 67.4687L21.3281 44.0952L24.3455 43.5781Z" fill="#19175C"/>
<path d="M26.3342 42.1504L38.7965 65.3537L35.982 68.07L24.2266 43.3678L26.3342 42.1504Z" fill="#515CDF"/>
<path d="M39.4324 60.8242L27.7031 41.162L29.5162 38.0137L38.3982 50.3909L39.4324 60.8242Z" fill="#5E2381"/>
</g>
<path d="M47.4193 3.30469L49.8019 4.52212L47.4062 3.30469H47.4193Z" fill="#5865F0"/>
<path d="M70.1404 75.5796L69.4531 80.8355L83.3031 76.352L84.37 70.6641L70.1404 75.5796Z" fill="#2E318C"/>
<path d="M47.6289 76.3524L48.2114 81.3203L69.4511 80.836L70.1384 75.5801L47.6289 76.3524Z" fill="#3B1850"/>
<path d="M30.4091 19.6562L23.0522 31.739L12.272 38.016L4.25391 39.0174L21.3307 44.0966L24.3481 43.5795L27.7059 41.1643L29.519 38.016L30.4091 19.6562Z" fill="#515CDF"/>
<mask id="mask4_5136_28041" style="mask-type:luminance" maskUnits="userSpaceOnUse" x="4" y="19" width="27" height="26">
<path d="M30.4091 19.6562L23.0522 31.739L12.272 38.016L4.25391 39.0174L21.3307 44.0966L24.3481 43.5795L27.7059 41.1643L29.519 38.016L30.4091 19.6562Z" fill="white"/>
</mask>
<g mask="url(#mask4_5136_28041)">
<path d="M23.5156 32.6882L27.7046 41.1644L29.5177 38.0161L28.045 28.041L23.5156 32.6882Z" fill="#A339E7"/>
<path d="M12.2261 38.9785L24.3481 43.5799L21.3307 44.097L4.25391 39.0178L12.2261 38.9785Z" fill="#353A9D"/>
<path d="M12.2261 38.9785L24.3481 43.5799L21.3307 44.097L4.25391 39.0178L12.2261 38.9785Z" fill="#353A9D"/>
<path d="M18.051 36.4531L26.1607 42.2785L24.2363 43.6006L12.4023 38.9207L18.051 36.4531Z" fill="#838DF4"/>
<path d="M29.5157 38.0172L28.043 28.042L30.2095 24.6777L29.6008 36.5314L29.5157 38.0172Z" fill="#838DF4"/>
<path d="M28.3118 27.6884C33.2928 20.9925 31.8986 15.5664 25.2027 15.5664C18.5068 15.5664 9.04224 20.9925 4.06123 27.6884C0.487466 32.4927 -1.14233 38.7369 0.926004 40.694C1.73763 41.4664 7.17027 39.8104 7.17027 39.8104L12.4 38.9202L18.0945 36.4199L23.5206 32.6825L28.0499 28.0353C28.0499 28.0353 28.2267 27.7997 28.3183 27.6819L28.3118 27.6884Z" fill="#5865F0"/>
<mask id="mask5_5136_28041" style="mask-type:luminance" maskUnits="userSpaceOnUse" x="0" y="15" width="32" height="26">
<path d="M28.3118 27.6884C33.2928 20.9925 31.8986 15.5664 25.2027 15.5664C18.5068 15.5664 9.04224 20.9925 4.06123 27.6884C0.487466 32.4927 -1.14233 38.7369 0.926004 40.694C1.73763 41.4664 7.17027 39.8104 7.17027 39.8104L12.4 38.9202L18.0945 36.4199L23.5206 32.6825L28.0499 28.0353C28.0499 28.0353 28.2267 27.7997 28.3183 27.6819L28.3118 27.6884Z" fill="white"/>
</mask>
<g mask="url(#mask5_5136_28041)">
<path d="M14.5349 39.0638L9.42294 36.3867L1.66016 38.5532L9.95966 41.9241L14.5349 39.0638Z" fill="#515CDF"/>
<path d="M18.1546 36.5302L17.5459 35.8691L11.6289 38.5266L13.3503 39.4036L18.1546 36.5302Z" fill="#838DF4"/>
<path d="M28.5994 29.4998L27.4736 24.7871L23.1406 31.9215L23.5137 32.6873L28.5994 29.4998Z" fill="#AF58EC"/>
<path d="M40.8997 20.448L38.6284 14.8125L27.0039 24.4669L28.0446 28.0407L40.8997 20.448Z" fill="#515CDF"/>
</g>
</g>
<path d="M45.1487 19.2363L39.4805 20.0152L50.5421 22.6006L52.4599 20.9447L45.1487 19.2363Z" fill="white"/>
<path d="M47.6319 76.3516L48.2144 81.3195L32.0212 77.8701L29.9922 72.4375L47.6319 76.3516Z" fill="#5865F0"/>
<path d="M54.1777 56.4859L51.8672 55.707L54.0468 60.7077L56.246 61.7484" fill="#FF4CD0"/>
<path d="M54.1777 45.3596L51.8672 43.9785V55.7078L54.1777 56.4867V45.3596Z" fill="#FF4CD0"/>
<path d="M71.8545 42.6879L69.0727 41.5098L65.2109 46.445L67.456 49.0042L71.8545 42.6879Z" fill="#FF4CD0"/>
<path d="M63.0598 43.9789L60.1471 42.6895L56.2461 47.4283L58.8315 50.0202L63.0598 43.9789Z" fill="#FF4CD0"/>
<path d="M59.957 62.455V87.2946L60.5985 87.7986H62.7323L63.5897 87.2161V61.4863L59.957 62.455Z" fill="#35EB7E"/>
<path d="M54.1758 56.4871V45.36L58.8295 50.0202L63.0578 43.9789L67.4563 49.0057L71.8548 42.6895V54.2682L69.9501 59.9365L65.2112 62.7837L61.3298 63.3859L56.2441 61.7495L54.1758 56.4871Z" fill="#A339E7"/>
<path d="M54.1758 56.4871V45.36L58.8295 50.0202L63.0578 43.9789L67.4563 49.0057L71.8548 42.6895V54.2682L69.9501 59.9365L65.2112 62.7837L61.3298 63.3859L56.2441 61.7495L54.1758 56.4871Z" fill="#A339E7"/>
<mask id="mask6_5136_28041" style="mask-type:luminance" maskUnits="userSpaceOnUse" x="54" y="42" width="18" height="22">
<path d="M54.1758 56.4871V45.36L58.8295 50.0202L63.0578 43.9789L67.4563 49.0057L71.8548 42.6895V54.2682L69.9501 59.9365L65.2112 62.7837L61.3298 63.3859L56.2441 61.7495L54.1758 56.4871Z" fill="white"/>
</mask>
<g mask="url(#mask6_5136_28041)">
<path d="M79.5779 35.732L56.1586 66.8355L49.6133 62.2734L73.0325 31.1699L79.5779 35.732Z" fill="#9735D6"/>
<path d="M78.6289 42.273L55.1992 73.3652L60.2802 77.194L83.7099 46.1018L78.6289 42.273Z" fill="#9735D6"/>
</g>
<path d="M73.6239 65.7161L72.5046 65.1074L67.1963 65.4085L64.0938 66.4034L63.5898 68.6485V71.0571" fill="#35EB7E"/>
<path d="M63.5898 71.0558L64.6567 67.0894L68.5381 65.9308L73.6239 65.7148L69.8734 72.3191L66.0313 73.602L63.5898 71.0558Z" fill="#126A3F"/>
<path d="M60.2939 70.6432L59.6459 67.7109H55.9412L50.8555 68.66L54.907 74.3086L58.6117 74.7799L59.9928 72.8818L60.2939 70.6432Z" fill="#126A3F"/>
<path d="M59.6485 67.7108L59.007 67.1348H55.466L50.125 68.1035L53.9933 74.1187L55.0275 74.3347L51.1592 68.5551L55.9438 67.7108H59.6485Z" fill="#35EB7E"/>
<path d="M59.957 64.5038L61.3316 65.106L63.5897 64.8049V63.0311L61.3316 63.3845L59.957 62.9395V64.5038Z" fill="black"/>
<path d="M61.3281 65.1058V87.7985H62.7288L63.5863 87.3927V64.8047L62.4539 64.9552L61.3281 65.1058Z" fill="#126A3F"/>
<path d="M72.1816 13.0187C72.1816 13.0187 72.0965 23.3931 71.9525 26.849C71.8544 29.0941 71.874 32.5042 67.1221 33.3158C63.0574 34.0096 62.4487 29.2119 62.2916 28.2301C61.7614 24.8003 62.2916 14.3474 62.2916 14.3474L60.2429 9.86384L43.7617 1.40071L52.6045 0C53.1216 0.399266 69.8122 8.41732 69.8122 8.41732L72.1816 13.0252V13.0187Z" fill="#20206D"/>
<mask id="mask7_5136_28041" style="mask-type:luminance" maskUnits="userSpaceOnUse" x="43" y="0" width="30" height="34">
<path d="M72.1816 13.0187C72.1816 13.0187 72.0965 23.3931 71.9525 26.849C71.8544 29.0941 71.874 32.5042 67.1221 33.3158C63.0574 34.0096 62.4487 29.2119 62.2916 28.2301C61.7614 24.8003 62.2916 14.3474 62.2916 14.3474L60.2429 9.86384L43.7617 1.40071L52.6045 0C53.1216 0.399266 69.8122 8.41732 69.8122 8.41732L72.1816 13.0252V13.0187Z" fill="white"/>
</mask>
<g mask="url(#mask7_5136_28041)">
<path d="M56.5712 9.42433L72.7578 6.66874L56.4141 -1.89258L40.7969 0.764834L56.5712 9.42433Z" fill="#838DF4"/>
<path d="M44.3711 4.32637L60.5512 1.57078L49.9739 -2.66406L34.3633 -0.000104904L44.3711 4.32637Z" fill="#5865F0"/>
<path d="M58.3251 9.64732L70.0609 7.65099L67.5344 6.80664L56.2109 8.73097L58.3251 9.64732Z" fill="white"/>
<path d="M59.8129 14.3482L76.6868 11.3243L71.817 7.16797L55.3555 10.1265L59.8129 14.3482Z" fill="#5865F0"/>
<path d="M62.2909 14.348L74.3867 12.0899L70.1388 8.30664L60.2422 9.86443L62.2909 14.348Z" fill="#2E318C"/>
</g>
<path d="M43.2311 14.0644V7.19176L45.234 5.59469L57.9713 12.1859L59.8498 15.6353V26.1602C59.8498 31.3637 63.345 32.7055 65.2693 33.2226C63.6133 32.483 62.2912 30.7877 62.2912 26.9718V14.3393L60.2425 9.85572L43.7548 1.39258L41.1562 3.97145V14.8367L43.2246 14.0578L43.2311 14.0644Z" fill="#A339E7"/>
<mask id="mask8_5136_28041" style="mask-type:luminance" maskUnits="userSpaceOnUse" x="41" y="1" width="25" height="33">
<path d="M43.2311 14.0644V7.19176L45.234 5.59469L57.9713 12.1859L59.8498 15.6353V26.1602C59.8498 31.3637 63.345 32.7055 65.2693 33.2226C63.6133 32.483 62.2912 30.7877 62.2912 26.9718V14.3393L60.2425 9.85572L43.7548 1.39258L41.1562 3.97145V14.8367L43.2246 14.0578L43.2311 14.0644Z" fill="white"/>
</mask>
<g mask="url(#mask8_5136_28041)">
<path d="M56.8984 24.5176L65.9572 29.1779L66.8932 36.3254L57.8344 31.5407L56.8984 24.5176Z" fill="#BB76F2"/>
</g>
<path d="M64.5964 27.1442C64.544 26.974 65.336 24.5915 65.336 24.5915L67.5549 23.3086L68.9098 23.7471L69.8065 26.326L69.0276 28.702L66.6255 29.9587L65.2706 29.5201L64.5898 27.1507L64.5964 27.1442Z" fill="#5865F0"/>
<path d="M65.9519 27.5836C65.8995 27.4134 66.6915 25.0309 66.6915 25.0309L68.9104 23.748L70.8151 25.0833L71.162 26.7589L70.3831 29.1349L68.5504 30.6468L66.626 29.9596L65.9453 27.5902L65.9519 27.5836Z" fill="#19175C"/>
<path d="M65.3438 24.5915L66.6921 25.03L68.911 23.7471L67.5626 23.3086L65.3438 24.5915Z" fill="#A2A9F7"/>
<path d="M64.5977 27.1445L65.9525 27.5831L66.6333 29.9525L65.2849 29.5205L64.5977 27.1445Z" fill="#A339E7"/>
<path d="M27.713 27.0897L30.3312 22.2592L30.6061 18.3189L28.6359 15.6549L24.532 14.6797L18.975 15.6549L13.0514 18.3189L7.45515 22.2592L2.89304 27.0897L0.274905 31.9201L0 35.867L1.96361 38.5244L6.07409 39.4997L11.6311 38.5244L17.5481 35.867L23.1444 31.9201L27.713 27.0897Z" fill="#A2A9F7"/>
<mask id="mask9_5136_28041" style="mask-type:luminance" maskUnits="userSpaceOnUse" x="0" y="14" width="31" height="26">
<path d="M27.713 27.0897L30.3312 22.2592L30.6061 18.3189L28.6359 15.6549L24.532 14.6797L18.975 15.6549L13.0514 18.3189L7.45515 22.2592L2.89304 27.0897L0.274905 31.9201L0 35.867L1.96361 38.5244L6.07409 39.4997L11.6311 38.5244L17.5481 35.867L23.1444 31.9201L27.713 27.0897Z" fill="white"/>
</mask>
<g mask="url(#mask9_5136_28041)">
<path d="M2.89174 27.0899L7.6633 22.5998L13.2792 19.013L18.9344 16.3752L24.367 15.2821L28.2615 16.2836L30.6048 18.3192L29.9895 11.9898C29.9895 11.9898 13.8683 11.2633 13.2596 11.296C12.6509 11.3287 4.02409 14.693 4.02409 14.693L1.98848 22.9533L1.70703 26.6645" fill="#DEE1FF"/>
</g>
<path d="M12.4177 26.5601L10.8141 28.8313L8.05193 30.2713L6.78868 30.3564L5.64325 30.4284L5.15234 28.8968L6.75595 26.6975L9.52464 25.035L11.8679 24.9434L12.3064 26.2328L12.4177 26.5601Z" fill="#2E318C"/>
<mask id="mask10_5136_28041" style="mask-type:luminance" maskUnits="userSpaceOnUse" x="5" y="24" width="8" height="7">
<path d="M12.4177 26.5601L10.8141 28.8313L8.05193 30.2713L6.78868 30.3564L5.64325 30.4284L5.15234 28.8968L6.75595 26.6975L9.52464 25.035L11.8679 24.9434L12.3064 26.2328L12.4177 26.5601Z" fill="white"/>
</mask>
<g mask="url(#mask10_5136_28041)">
<path d="M13.4567 28.2495L11.8531 30.5208L9.091 31.9673L7.82774 32.0458L6.68231 32.1178L6.19141 30.5862L7.79502 28.387L10.5637 26.7244L12.9069 26.6328L13.3455 27.9222L13.4567 28.2495Z" fill="black"/>
</g>
<path d="M18.9294 30.2463L17.3323 32.511L14.5702 33.9575L13.3069 34.0361L12.1615 34.1146L11.6641 32.583L13.2677 30.3772L16.0429 28.7147L18.3796 28.623L18.8181 29.919L18.9294 30.2463Z" fill="#2E318C"/>
<mask id="mask11_5136_28041" style="mask-type:luminance" maskUnits="userSpaceOnUse" x="11" y="28" width="8" height="7">
<path d="M18.9294 30.2463L17.3323 32.511L14.5702 33.9575L13.3069 34.0361L12.1615 34.1146L11.6641 32.583L13.2677 30.3772L16.0429 28.7147L18.3796 28.623L18.8181 29.919L18.9294 30.2463Z" fill="white"/>
</mask>
<g mask="url(#mask11_5136_28041)">
<path d="M19.9685 31.9357L18.3714 34.207L15.6093 35.647L14.346 35.7321L13.194 35.804L12.7031 34.2724L14.3067 32.0732L17.082 30.4041L19.4187 30.3125L19.8572 31.6085L19.9685 31.9357Z" fill="black"/>
</g>
<path d="M23.6794 21.4826L22.0823 23.7473L19.3202 25.1938L18.0569 25.2724L16.9115 25.3509L16.4141 23.8193L18.0177 21.6135L20.7929 19.951L23.1296 19.8594L23.5681 21.1554L23.6794 21.4826Z" fill="#2E318C"/>
<mask id="mask12_5136_28041" style="mask-type:luminance" maskUnits="userSpaceOnUse" x="16" y="19" width="8" height="7">
<path d="M23.6794 21.4826L22.0823 23.7473L19.3202 25.1938L18.0569 25.2724L16.9115 25.3509L16.4141 23.8193L18.0177 21.6135L20.7929 19.951L23.1296 19.8594L23.5681 21.1554L23.6794 21.4826Z" fill="white"/>
</mask>
<g mask="url(#mask12_5136_28041)">
<path d="M24.7185 23.1721L23.1214 25.4368L20.3593 26.8833L19.096 26.9618L17.944 27.0404L17.4531 25.5088L19.0567 23.303L21.832 21.6405L24.1687 21.5488L24.6072 22.8448L24.7185 23.1721Z" fill="black"/>
</g>
</svg>
