<svg width="120" height="120" viewBox="0 0 120 120" fill="none" xmlns="http://www.w3.org/2000/svg">
<rect width="120" height="120" rx="60" fill="url(#paint0_linear_5855_225166)"/>
<g clip-path="url(#clip0_5855_225166)">
<path d="M90.1351 29.877C83.6454 23.3873 73.0873 23.3873 66.5976 29.877C63.5357 32.939 61.9196 36.9054 61.7467 40.9256L59.7592 43.1087C59.4417 43.4574 59.3595 43.9621 59.5466 44.3959C59.5523 44.41 59.558 44.4242 59.5636 44.4355L25.7005 84.0285C25.193 84.5672 24.5438 85.758 25.4624 87.9382C25.9954 89.2027 26.9678 90.5806 28.1983 91.811C30.4806 94.0933 32.5417 94.9921 34.0642 94.9921C34.8694 94.9921 35.5243 94.7426 35.9808 94.3116L75.7183 60.3209C75.7183 60.3209 75.7439 60.3323 75.7552 60.3379C76.1833 60.5109 76.6738 60.423 77.014 60.114L79.044 58.2654C83.0756 58.101 87.059 56.485 90.1323 53.4145C96.6219 46.9248 96.6219 36.3667 90.1323 29.877H90.1351ZM79.9824 55.3509C77.5385 54.8065 73.9379 52.975 70.3259 49.3659C67.1533 46.1933 65.3615 43.0321 64.6017 40.6506C64.7066 39.1962 65.0355 37.7559 65.5968 36.3865C67.3376 39.6838 69.9403 43.1767 73.2943 46.5336C76.6483 49.8904 80.3368 52.6348 83.7135 54.3756C82.5114 54.8774 81.2554 55.2035 79.9796 55.3537L79.9824 55.3509ZM88.1307 31.8815C93.0468 36.7976 93.4721 44.5234 89.4121 49.9301C86.7102 49.2978 82.2534 46.922 77.581 42.2496C73.0618 37.7304 70.6916 33.4125 69.9658 30.6907C72.4352 28.7968 75.398 27.8442 78.3635 27.8442C81.899 27.8442 85.4373 29.1909 88.1278 31.8815H88.1307ZM34.1153 92.1767C33.6503 92.2193 32.0371 91.6381 30.2056 89.8066C28.3741 87.975 27.7957 86.3533 27.8354 85.8969L50.372 59.5469C51.2765 61.5797 52.6543 63.5955 54.4944 65.4327C56.3684 67.3068 58.4267 68.7073 60.5021 69.6089L34.1181 92.1767H34.1153ZM65.6422 65.2116C63.6491 64.7551 61.1456 63.519 58.7754 61.1488C56.4648 58.8381 55.2287 56.3971 54.7467 54.4295L60.9585 47.1658C62.2428 49.3489 63.9468 51.549 66.042 53.647C68.2704 55.8754 70.6179 57.6616 72.9371 58.9714L65.6422 65.2116Z" fill="#E0E3FF"/>
</g>
<defs>
<linearGradient id="paint0_linear_5855_225166" x1="60" y1="-19" x2="60" y2="137.5" gradientUnits="userSpaceOnUse">
<stop offset="0.207668" stop-color="#1F1D5D"/>
<stop offset="1" stop-color="#5865F2"/>
</linearGradient>
<clipPath id="clip0_5855_225166">
<rect width="70" height="69.983" fill="white" transform="translate(25 25.0088)"/>
</clipPath>
</defs>
</svg>
