<svg width="122" height="91" viewBox="0 0 122 91" fill="none" xmlns="http://www.w3.org/2000/svg">
<path d="M49.6493 80.8913L47.7188 84.9994L50.48 88.3892L59.1901 91.0007L74.358 90.7014L84.2879 87.0273L84.4749 81.1307L91.1722 81.5573L97.0463 79.1702L95.1157 77.0151L72.839 73.0566L49.6493 80.8913Z" fill="black"/>
<path d="M82.6939 75.0009L86.7721 76.1907L89.1517 78.5777L83.5395 80.9573L56.2717 84.3246L6.29315 80.7852L0 75.0009L10.7156 72.4492L82.6939 75.0009Z" fill="black"/>
<path d="M40.629 30.2754L12.5006 44.8073L5.24219 54.5575L7.28503 65.5649L19.7591 77.6948L56.2833 80.6505L78.5151 79.5131L93.264 67.9445V56.8249L84.4192 46.8426L85.3246 41.4175L76.9287 32.3257L40.629 30.2754Z" fill="#5865F0"/>
<mask id="mask0_5136_28035" style="mask-type:luminance" maskUnits="userSpaceOnUse" x="5" y="30" width="89" height="51">
<path d="M40.629 30.2754L12.5006 44.8073L5.24219 54.5575L7.28503 65.5649L19.7591 77.6948L56.2833 80.6505L78.5151 79.5131L93.264 67.9445V56.8249L84.4192 46.8426L85.3246 41.4175L76.9287 32.3257L40.629 30.2754Z" fill="white"/>
</mask>
<g mask="url(#mask0_5136_28035)">
<path d="M81.8638 55.2012L71.4626 59.3243L68.9483 66.0963L53.1743 69.2541L43.3492 77.1486L46.2825 88.0213L37.0859 89.9669L80.8686 100.196L99.1794 87.0785L100.249 64.2406L86.2638 55.4182L81.8638 55.2012Z" fill="#19175C"/>
<path d="M12.1019 44.8069L40.3051 29.6465L46.6955 41.6267L65.4103 45.0314L46.6955 43.6171C46.6955 43.6171 41.4799 44.6722 38.3221 47.5307C32.4779 52.8211 33.1589 57.0565 25.0324 62.5564C25.182 62.7959 33.2112 70.7727 33.2112 70.7727L22.6753 74.3645L40.4173 80.1713L19.3528 77.7019L6.87878 65.5646L4.83594 54.5572L12.0944 44.7994L12.1019 44.8069Z" fill="#3B1850"/>
</g>
<path d="M85.1562 25.9217L88.0745 18.8503L65.4237 5.65039L33.943 13.8367L29.0117 20.8183L60.1482 29.6482L76.6481 29.3189L85.1562 25.9217Z" fill="black"/>
<path d="M85.2614 18.8952L86.6084 19.2768L88.075 18.8428L73.6329 10.4395L73.2812 12.1381L85.2614 18.8952Z" fill="#DEE1FF"/>
<path d="M69.5166 1.23468L62.7595 0L56.5712 2.97821L53.3086 9.02442L54.229 15.8339L58.9732 20.8026L65.7303 22.0298L71.9187 19.059L75.1812 13.0053L74.2608 6.20336L69.5166 1.23468Z" fill="#35EB7E"/>
<mask id="mask1_5136_28035" style="mask-type:luminance" maskUnits="userSpaceOnUse" x="53" y="0" width="23" height="23">
<path d="M69.5166 1.23468L62.7595 0L56.5712 2.97821L53.3086 9.02442L54.229 15.8339L58.9732 20.8026L65.7303 22.0298L71.9187 19.059L75.1812 13.0053L74.2608 6.20336L69.5166 1.23468Z" fill="white"/>
</mask>
<g mask="url(#mask1_5136_28035)">
<path d="M75.5629 -3.28913L49.875 3.73828L52.2425 12.3923L77.9304 5.36492L75.5629 -3.28913Z" fill="#86F6BC"/>
<path d="M77.2699 10.9355L51.582 17.9629L53.9495 26.6169L79.6374 19.5895L77.2699 10.9355Z" fill="#18804A"/>
</g>
<path d="M67.2184 5.49312L63.4021 4.80469L59.915 6.48087L58.0742 9.89309L58.5905 13.7318L61.2694 16.5379L65.0783 17.2338L68.5728 15.5502L70.4136 12.138L69.8973 8.29922L67.2184 5.49312Z" fill="#18804A"/>
<mask id="mask2_5136_28035" style="mask-type:luminance" maskUnits="userSpaceOnUse" x="58" y="4" width="13" height="14">
<path d="M67.2184 5.49312L63.4021 4.80469L59.915 6.48087L58.0742 9.89309L58.5905 13.7318L61.2694 16.5379L65.0783 17.2338L68.5728 15.5502L70.4136 12.138L69.8973 8.29922L67.2184 5.49312Z" fill="white"/>
</mask>
<g mask="url(#mask2_5136_28035)">
<path d="M67.2188 5.49414L66.7773 7.91861L69.8603 13.6505L72.4569 11.4131L71.7385 7.58936L67.2188 5.49414Z" fill="#126A3F"/>
<path d="M66.777 7.91857L62.9607 7.22266L59.4736 8.90632L57.6328 12.3185L58.1491 16.1573L60.828 18.9634L64.6368 19.6518L68.1314 17.9756L69.9722 14.5634L69.4559 10.7247L66.777 7.91857Z" fill="#35EB7E"/>
<mask id="mask3_5136_28035" style="mask-type:luminance" maskUnits="userSpaceOnUse" x="57" y="7" width="13" height="13">
<path d="M66.777 7.91857L62.9607 7.22266L59.4736 8.90632L57.6328 12.3185L58.1491 16.1573L60.828 18.9634L64.6368 19.6518L68.1314 17.9756L69.9722 14.5634L69.4559 10.7247L66.777 7.91857Z" fill="white"/>
</mask>
<g mask="url(#mask3_5136_28035)">
<path d="M74.8558 -1.79499L49.168 5.23242L51.5354 13.8865L77.2233 6.85906L74.8558 -1.79499Z" fill="#86F6BC"/>
</g>
</g>
<path d="M69.5156 1.23438L73.5489 6.41257L75.1802 13.005L74.2598 6.20305L69.5156 1.23438Z" fill="white"/>
<path d="M58.0742 9.89309L59.4885 5.95706L63.4021 4.80469L59.915 6.48087L58.0742 9.89309Z" fill="white"/>
<path d="M36.9565 26.1538L32.4219 18.0049V10.5294L37.0164 5.91995L42.3068 3.57031L43.766 7.38661L48.3905 11.2703L54.7135 21.3348L53.5238 34.5572L36.9565 26.1538Z" fill="#126A3F"/>
<mask id="mask4_5136_28035" style="mask-type:luminance" maskUnits="userSpaceOnUse" x="32" y="3" width="23" height="32">
<path d="M36.9565 26.1538L32.4219 18.0049V10.5294L37.0164 5.91995L42.3068 3.57031L43.766 7.38661L48.3905 11.2703L54.7135 21.3348L53.5238 34.5572L36.9565 26.1538Z" fill="white"/>
</mask>
<g mask="url(#mask4_5136_28035)">
<path d="M32.4219 10.529L37.7123 8.17188V15.6473L32.4219 16.6276V10.529Z" fill="#0C5535"/>
</g>
<path d="M41.3327 22.7192L37.7109 15.6478V8.17232L42.3055 3.57031L49.0551 5.02949L53.6795 8.92061L57.7128 15.7525L58.1468 21.9783L54.7122 26.4457L47.5136 25.7348L41.3327 22.7192Z" fill="#35EB7E"/>
<mask id="mask5_5136_28035" style="mask-type:luminance" maskUnits="userSpaceOnUse" x="37" y="3" width="22" height="24">
<path d="M41.3327 22.7192L37.7109 15.6478V8.17232L42.3055 3.57031L49.0551 5.02949L53.6795 8.92061L57.7128 15.7525L58.1468 21.9783L54.7122 26.4457L47.5136 25.7348L41.3327 22.7192Z" fill="white"/>
</mask>
<g mask="url(#mask5_5136_28035)">
<path d="M28.4688 18.917L34.2082 27.5074L60.144 7.58032L54.4046 -1.01758L28.4688 18.917Z" fill="#86F6BC"/>
<path d="M60.6872 11.3914L34.7383 31.3027L39.2344 37.1622L65.1833 17.2509L60.6872 11.3914Z" fill="#18804A"/>
<path d="M33.8125 21.4014L38.8261 28.0462L65.6749 9.35383L60.6538 2.70898L33.8125 21.4014Z" fill="white"/>
</g>
<path d="M44.899 20.706L42.1079 16.0366L41.8086 11.1129L44.3977 7.91016L48.5432 8.62104L51.499 11.0156L54.2153 15.3632L54.7241 19.4488L52.8235 22.5243L49.1194 22.8461L44.899 20.706Z" fill="#18804A"/>
<mask id="mask6_5136_28035" style="mask-type:luminance" maskUnits="userSpaceOnUse" x="41" y="7" width="14" height="16">
<path d="M44.899 20.706L42.1079 16.0366L41.8086 11.1129L44.3977 7.91016L48.5432 8.62104L51.499 11.0156L54.2153 15.3632L54.7241 19.4488L52.8235 22.5243L49.1194 22.8461L44.899 20.706Z" fill="white"/>
</mask>
<g mask="url(#mask6_5136_28035)">
<path d="M51.5035 11.0156L48.9219 12.5421L50.9946 22.8461L59.8619 27.6427L57.43 17.7802L51.5035 11.0156Z" fill="#126A3F"/>
<path d="M42.3209 22.2333L39.5298 17.564L39.2305 12.6402L41.827 9.4375L45.9651 10.1484L48.9209 12.5429L51.6372 16.8905L52.1535 20.9762L50.2528 24.0517L46.5488 24.3734L42.3209 22.2333Z" fill="#35EB7E"/>
<mask id="mask7_5136_28035" style="mask-type:luminance" maskUnits="userSpaceOnUse" x="39" y="9" width="14" height="16">
<path d="M42.3209 22.2333L39.5298 17.564L39.2305 12.6402L41.827 9.4375L45.9651 10.1484L48.9209 12.5429L51.6372 16.8905L52.1535 20.9762L50.2528 24.0517L46.5488 24.3734L42.3209 22.2333Z" fill="white"/>
</mask>
<g mask="url(#mask7_5136_28035)">
<path d="M59.5271 7.61602L33.5781 27.5273L38.0742 33.3868L64.0232 13.4755L59.5271 7.61602Z" fill="#86F6BC"/>
</g>
</g>
<path d="M40.3094 29.6465L39.9727 35.4981L46.7073 41.6267L65.4221 45.0314L76.0853 38.2219L77.5969 33.4703L68.4826 38.9927L48.8624 36.3213L40.3094 29.6465Z" fill="#A339E7"/>
<path d="M69.9578 32.8792L64.7422 12.3086L74.4925 14.8603L76.0863 16.4467L78.189 22.201L76.8196 33.3207" fill="#C6FFED"/>
<path d="M51.5586 32.8792L53.8559 20.1283L58.7871 14.0072L64.7435 12.3086L70.5278 15.5412L73.0795 21.6623L71.4707 36.1717L51.5586 32.8792Z" fill="#35EB7E"/>
<mask id="mask8_5136_28035" style="mask-type:luminance" maskUnits="userSpaceOnUse" x="51" y="12" width="23" height="25">
<path d="M51.5586 32.8792L53.8559 20.1283L58.7871 14.0072L64.7435 12.3086L70.5278 15.5412L73.0795 21.6623L71.4707 36.1717L51.5586 32.8792Z" fill="white"/>
</mask>
<g mask="url(#mask8_5136_28035)">
<path d="M69.4349 5.12747L46.3711 18.4434L50.8571 26.2134L73.9209 12.8975L69.4349 5.12747Z" fill="#86F6BC"/>
<path d="M74.0247 18.3247L50.9609 31.6406L55.447 39.4106L78.5108 26.0948L74.0247 18.3247Z" fill="#18804A"/>
</g>
<path d="M68.6774 22.2914L67.6896 31.1811L58.5754 30.2757L56.5625 29.3403L57.8945 21.9771L61.2768 17.7717L64.2026 16.9336L66.6196 18.288L67.1209 18.5724L68.6774 22.2914Z" fill="#18804A"/>
<mask id="mask9_5136_28035" style="mask-type:luminance" maskUnits="userSpaceOnUse" x="56" y="16" width="13" height="16">
<path d="M68.6774 22.2914L67.6896 31.1811L58.5754 30.2757L56.5625 29.3403L57.8945 21.9771L61.2768 17.7717L64.2026 16.9336L66.6196 18.288L67.1209 18.5724L68.6774 22.2914Z" fill="white"/>
</mask>
<g mask="url(#mask9_5136_28035)">
<path d="M61.2768 17.7715L63.1476 18.9164L60.0197 23.0245L57.8945 21.9769L61.2768 17.7715Z" fill="#1D9454"/>
</g>
<path d="M68.6754 22.2913L67.6877 31.181L59 30.5674L60.0177 23.0246L63.1455 18.9165L67.119 18.5723L68.6754 22.2913Z" fill="#35EB7E"/>
<mask id="mask10_5136_28035" style="mask-type:luminance" maskUnits="userSpaceOnUse" x="59" y="18" width="10" height="14">
<path d="M68.6754 22.2913L67.6877 31.181L59 30.5674L60.0177 23.0246L63.1455 18.9165L67.119 18.5723L68.6754 22.2913Z" fill="white"/>
</mask>
<g mask="url(#mask10_5136_28035)">
<path d="M69.8646 22.2915L46.8008 35.6074L51.2868 43.3774L74.3506 30.0616L69.8646 22.2915Z" fill="#18804A"/>
</g>
<path d="M76.0872 16.4465L70.5273 15.541L73.079 21.6621L78.1899 22.2008L76.0872 16.4465Z" fill="white"/>
<path d="M73.0768 21.6621L78.1877 22.2009L77.6714 26.3764L72.5156 26.6981L73.0768 21.6621Z" fill="#1D9454"/>
<path d="M48.864 36.323L29.0117 20.8184L60.1482 29.6482L85.1562 25.9217L77.5984 33.472L68.4842 38.9944L48.864 36.323Z" fill="#5865F0"/>
<path d="M60.1482 29.6482L54.9251 37.1386L48.864 36.323L29.0117 20.8184L60.1482 29.6482Z" fill="#3B1850"/>
<path d="M90.0657 66.7556L78.5195 79.5141L93.2684 67.9454V56.7285L84.4236 46.8435L85.329 41.4184L79.9712 35.6191L83.7426 41.4858L82.7698 50.368L90.4548 57.6863" fill="#DEE1FF"/>
<path d="M12.1061 44.8086L34.7345 33.3223L13.0115 46.5072L8.38709 56.3996L9.72653 65.6785L19.3646 77.6961L6.8905 65.5662L4.84766 54.5588L12.1061 44.8086Z" fill="#FF4CD0"/>
<path d="M54.9248 37.1373L57.4241 42.1734L53.75 42.9067L65.4234 45.0318L76.0866 38.2224L77.5981 33.4707L68.4839 38.9931L54.9248 37.1373Z" fill="#FF4CD0"/>
<path d="M29.0117 20.8176L34.9906 25.4869L41.2613 30.3882L34.7586 23.3543L37.7144 23.2869L60.1482 29.6474V27.4624L34.2573 20.2414L32.192 16.3203L29.0117 20.8176Z" fill="#FF4CD0"/>
<path d="M88.0755 18.8418L85.1572 25.9207L83.1144 27.956L60.1492 29.6472L59.1914 28.4499L59.356 27.2451L81.513 25.4492L85.262 18.8942L88.0755 18.8418Z" fill="#DEE1FF"/>
<path d="M76.3125 34.2564L72.0547 40.7965L76.088 38.2224L77.5995 33.4707L76.3125 34.2564Z" fill="#DEE1FF"/>
<path d="M83.7431 41.4863C83.7431 41.4863 80.937 45.0332 75.9683 48.5353C72.4214 51.042 67.8867 53.1747 67.8867 53.1747L82.7703 50.3611L83.7431 41.4863Z" fill="#19175C"/>
<path d="M34.2556 20.2414L31.457 19.2536L32.1904 16.3203L34.2556 20.2414Z" fill="black"/>
<path d="M42.6673 37.3398C36.6809 38.0208 31.8919 39.0909 28.0307 43.4684C24.5885 47.3745 20.6749 52.6724 11.875 53.7724C12.1219 54.4009 12.1893 54.9622 12.4287 55.673C12.4287 55.673 16.4022 59.3846 18.243 61.0907C25.6735 57.207 29.2354 51.6098 32.8646 47.3894C37.1898 42.3609 42.0836 41.9344 46.7081 41.5228" fill="#FF4CD0"/>
<path d="M41.8068 35.9414C35.798 36.8468 30.6497 38.0217 26.8558 41.7706C22.7402 45.8339 20.3681 50.1889 11.875 53.7732C11.875 53.7732 15.4668 57.1032 18.0559 59.1161C25.4865 55.2324 28.0905 50.1291 31.7198 45.9087C36.0449 40.8801 43.019 40.7978 46.7006 41.5237" fill="#A339E7"/>
<path d="M83.4853 56.9767L82.0711 54.8066L76.5337 57.2985L73.0766 61.1896L72.5977 67.9991L75.9949 74.8085L82.737 79.433L89.0152 79.882L93.7819 78.333L92.3601 74.8085L92.839 67.9991L89.4418 61.1896L83.4853 56.9767Z" fill="#0C5535"/>
<mask id="mask11_5136_28035" style="mask-type:luminance" maskUnits="userSpaceOnUse" x="72" y="54" width="22" height="26">
<path d="M83.4853 56.9767L82.0711 54.8066L76.5337 57.2985L73.0766 61.1896L72.5977 67.9991L75.9949 74.8085L82.737 79.433L89.0152 79.882L93.7819 78.333L92.3601 74.8085L92.839 67.9991L89.4418 61.1896L83.4853 56.9767Z" fill="white"/>
</mask>
<g mask="url(#mask11_5136_28035)">
<path d="M73.0766 61.1901L77.6337 59.2969L77.1248 66.5703L72.5977 67.9995L73.0766 61.1901Z" fill="#063F2A"/>
</g>
<path d="M88.746 54.8066H82.0712L77.6338 59.2964L77.125 66.5698L80.7467 73.8432L87.1072 78.333H93.782L98.2269 73.8432L98.7282 66.5698L95.1065 59.2964L88.746 54.8066Z" fill="#35EB7E"/>
<mask id="mask12_5136_28035" style="mask-type:luminance" maskUnits="userSpaceOnUse" x="77" y="54" width="22" height="25">
<path d="M88.746 54.8066H82.0712L77.6338 59.2964L77.125 66.5698L80.7467 73.8432L87.1072 78.333H93.782L98.2269 73.8432L98.7282 66.5698L95.1065 59.2964L88.746 54.8066Z" fill="white"/>
</mask>
<g mask="url(#mask12_5136_28035)">
<path d="M100.427 39.2824L83.7539 77.6289L90.3898 80.5143L107.063 42.1677L100.427 39.2824Z" fill="white"/>
<path d="M88.9978 41.0714L72.3242 79.418L77.416 81.632L94.0896 43.2854L88.9978 41.0714Z" fill="#86F6BC"/>
</g>
<path d="M88.478 74.0232L84.1229 70.9477L81.5039 65.7022L81.8182 61.19L83.8685 59.1172H87.378L91.7406 62.1927L94.3521 67.4382L94.0378 71.9504L91.9875 74.0232H88.478Z" fill="#126A3F"/>
<mask id="mask13_5136_28035" style="mask-type:luminance" maskUnits="userSpaceOnUse" x="81" y="59" width="14" height="16">
<path d="M88.478 74.0232L84.1229 70.9477L81.5039 65.7022L81.8182 61.19L83.8685 59.1172H87.378L91.7406 62.1927L94.3521 67.4382L94.0378 71.9504L91.9875 74.0232H88.478Z" fill="white"/>
</mask>
<g mask="url(#mask13_5136_28035)">
<path d="M85.9627 75.4233L81.6076 72.3478L78.9961 67.1022L79.3029 62.59L81.3532 60.5098H84.8627L89.2253 63.5927L91.8368 68.8383L91.5225 73.3505L89.4722 75.4233H85.9627Z" fill="#35EB7E"/>
<mask id="mask14_5136_28035" style="mask-type:luminance" maskUnits="userSpaceOnUse" x="78" y="60" width="14" height="16">
<path d="M85.9627 75.4233L81.6076 72.3478L78.9961 67.1022L79.3029 62.59L81.3532 60.5098H84.8627L89.2253 63.5927L91.8368 68.8383L91.5225 73.3505L89.4722 75.4233H85.9627Z" fill="white"/>
</mask>
<g mask="url(#mask14_5136_28035)">
<path d="M88.5446 45.4347L71.8711 83.7812L76.9629 85.9952L93.6365 47.6487L88.5446 45.4347Z" fill="#86F6BC"/>
</g>
</g>
<path d="M70.9049 76.8727H62.7485L50.918 73.2734V81.4972L52.0928 85.4407L60.6458 88.5012H73.0076L81.5606 85.4407L82.7354 81.4972V73.2884L70.9049 76.8727Z" fill="#126A3F"/>
<mask id="mask15_5136_28035" style="mask-type:luminance" maskUnits="userSpaceOnUse" x="50" y="73" width="33" height="16">
<path d="M70.9049 76.8727H62.7485L50.918 73.2734V81.4972L52.0928 85.4407L60.6458 88.5012H73.0076L81.5606 85.4407L82.7354 81.4972V73.2884L70.9049 76.8727Z" fill="white"/>
</mask>
<g mask="url(#mask15_5136_28035)">
<path d="M73.0078 80.2907V88.4994L81.5608 85.4389V77.2227L73.0078 80.2907Z" fill="#18804A"/>
<path d="M81.5625 77.2231V85.4394L82.7373 81.4959V73.2871" fill="#23AA5F"/>
<path d="M52.0936 69.957H46.9453V85.4392H52.0936V69.957Z" fill="#531F72"/>
<path d="M51.9453 75.6133L60.648 80.2901V88.4989L51.9453 91.0955V75.6133Z" fill="#0C5535"/>
</g>
<path d="M70.9049 68.6641H62.7485L55.4003 70.228L50.918 73.2885L52.0928 77.2245L60.6458 80.2925H73.0076L81.5606 77.2245L82.7354 73.2885L78.2531 70.228L70.9049 68.6641Z" fill="#35EB7E"/>
<mask id="mask16_5136_28035" style="mask-type:luminance" maskUnits="userSpaceOnUse" x="50" y="68" width="33" height="13">
<path d="M70.9049 68.6641H62.7485L55.4003 70.228L50.918 73.2885L52.0928 77.2245L60.6458 80.2925H73.0076L81.5606 77.2245L82.7354 73.2885L78.2531 70.228L70.9049 68.6641Z" fill="white"/>
</mask>
<g mask="url(#mask16_5136_28035)">
<path d="M45.3359 82.6198L61.6862 66.2695H73.15L56.5678 82.8442L45.3359 82.6198Z" fill="#86F6BC"/>
<path d="M57.2031 85.0963L73.5533 68.7461H80.5125L63.9378 85.3208L57.2031 85.0963Z" fill="white"/>
</g>
<path d="M69.5209 70.8711H64.1406L59.2917 71.784L56.3359 73.5575L57.1067 75.8547L62.7488 77.6357H70.9052L76.5473 75.8547L77.3181 73.5575L74.3623 71.784L69.5209 70.8711Z" fill="#126A3F"/>
<mask id="mask17_5136_28035" style="mask-type:luminance" maskUnits="userSpaceOnUse" x="56" y="70" width="22" height="8">
<path d="M69.5209 70.8711H64.1406L59.2917 71.784L56.3359 73.5575L57.1067 75.8547L62.7488 77.6357H70.9052L76.5473 75.8547L77.3181 73.5575L74.3623 71.784L69.5209 70.8711Z" fill="white"/>
</mask>
<g mask="url(#mask17_5136_28035)">
<path d="M69.517 73.5332H64.1367L59.2878 74.4386L56.332 76.2196L57.1028 78.5094L62.7449 80.2903H70.9013L76.5434 78.5094L77.3142 76.2196L74.3584 74.4386L69.517 73.5332Z" fill="#35EB7E"/>
<mask id="mask18_5136_28035" style="mask-type:luminance" maskUnits="userSpaceOnUse" x="56" y="73" width="22" height="8">
<path d="M69.517 73.5332H64.1367L59.2878 74.4386L56.332 76.2196L57.1028 78.5094L62.7449 80.2903H70.9013L76.5434 78.5094L77.3142 76.2196L74.3584 74.4386L69.517 73.5332Z" fill="white"/>
</mask>
<g mask="url(#mask18_5136_28035)">
<path d="M48.0625 81.2493L60.1849 69.127H68.678L56.391 81.4214L48.0625 81.2493Z" fill="#86F6BC"/>
<path d="M63.0078 82.4388L75.1302 70.3164H83.5485L71.2615 82.6034L63.0078 82.4388Z" fill="white"/>
</g>
</g>
<path d="M39.082 61.3823L65.6764 60.5293L46.1684 68.0496L39.082 61.3823Z" fill="#19175C"/>
<path d="M61.2778 17.7715L57.222 21.7823L57.207 25.7932L57.8955 21.9769L61.2778 17.7715Z" fill="white"/>
<path d="M57.1083 75.8547L55.6641 73.2731L59.0015 71.2378L64.1422 70.8711L59.2933 71.784L56.562 73.4228L57.1083 75.8547Z" fill="white"/>
<path d="M81.5024 65.6999L81.2031 60.9632L83.4854 58.5762L87.3765 59.1149H83.8671L81.8167 61.1877L81.5024 65.6999Z" fill="white"/>
<path d="M48.5434 8.62011L44.121 7.40039L41.457 10.9997L41.9285 13.1248L41.8087 11.1119L44.3978 7.90923L48.5434 8.62011Z" fill="white"/>
</svg>
