<svg width="122" height="91" viewBox="0 0 122 91" fill="none" xmlns="http://www.w3.org/2000/svg">
<path d="M59.7322 88.1241L68.1089 91.0002L74.1054 88.4063C74.1054 88.4063 74.9141 84.485 75.2422 83.8517C75.3032 83.7373 76.0737 83.0049 77.3173 81.8834C83.0925 76.6346 98.9153 62.7878 98.9153 62.7878H104.591L107.513 61.2162V60.026L92.9188 51.6035L22.2199 56.0437L4.116 73.1329L0.00390625 76.9856L5.19933 78.191L12.5538 77.0008L14.2856 75.2614L25.6377 78.6258L33.9534 75.6123L43.4059 79.7778L41.224 82.7608L60.251 86.4838L59.7398 88.1317L59.7322 88.1241Z" fill="black"/>
<path d="M71.8398 0.580078L73.7319 1.19041L106.27 58.3019V60.6822L104.592 61.2239L78.706 15.1822L71.8398 0.580078Z" fill="#471C61"/>
<path d="M95.3758 86.9481L85.3359 89.7023L78.4926 88.4053L76.3259 86.8413L75.7461 82.7216L78.1111 79.7539L88.7156 79.9752L91.958 81.4552L95.2995 83.8507L95.3758 86.9481Z" fill="black"/>
<path d="M78.7965 86.4152L77.3164 85.3624L78.5828 84.3553L84.7548 83.4551L91.3158 84.0501L93.2078 85.2555L92.7348 85.7972L85.5787 87.8418L78.7965 86.4152Z" fill="#2E318C"/>
<path d="M46.2971 81.1124L41.5136 36.8407L23.8446 75.7568L11.5312 71.3701L42.9784 19.6523L62.5318 84.5455L46.2971 81.1124Z" fill="#5865F0"/>
<path d="M77.3164 85.3616L79.4297 76.6797H90.7131L93.2078 85.2548L77.3164 85.3616Z" fill="#2E318C"/>
<path d="M46.2969 81.1124L56.1842 70.9123L52.774 67.1816L46.2969 81.1124Z" fill="#2E318C"/>
<path d="M67.9467 88.4067L63.2472 86.9495L39.4062 8.4689L41.3517 5.875L43.9456 7.01174L72.1656 85.1643L71.0289 86.9495L67.9467 88.4067Z" fill="#7680F3"/>
<path d="M28.1016 66.3741L43.6268 56.3876L41.5135 36.8418L28.1016 66.3741Z" fill="black"/>
<path d="M41.5117 36.8418C41.5117 36.8418 46.5774 56.3342 54.9924 67.0531C54.0921 68.8154 46.2952 81.1059 46.2952 81.1059L41.5117 36.8418Z" fill="#7680F3"/>
<path d="M41.5128 36.8418C36.1648 45.0965 28.6653 55.0067 20.5938 61.2168C22.1119 68.0448 23.8438 75.7579 23.8438 75.7579C23.8438 75.7579 37.2481 46.3095 41.5204 36.8418H41.5128Z" fill="#7680F3"/>
<mask id="mask0_5136_28038" style="mask-type:luminance" maskUnits="userSpaceOnUse" x="20" y="36" width="22" height="40">
<path d="M41.5128 36.8418C36.1648 45.0965 28.6653 55.0067 20.5938 61.2168C22.1119 68.0448 23.8438 75.7579 23.8438 75.7579C23.8438 75.7579 37.2481 46.3095 41.5204 36.8418H41.5128Z" fill="white"/>
</mask>
<g mask="url(#mask0_5136_28038)">
<path d="M20.0289 61.5076C21.9514 61.4084 35.4931 50.1402 41.5201 36.1484L37.5453 36.8961L19.2812 61.4771L20.0365 61.5076H20.0289Z" fill="white"/>
</g>
<path d="M49.0596 4.6543L48.2891 7.08798L49.0596 9.20124L51.8976 10.1701L53.1946 7.82038L52.7063 5.87495L49.0596 4.6543Z" fill="#6A2792"/>
<path d="M49.7131 6.16406L49.3164 7.09481L49.7131 8.57486L51.3 9.04786L52.1621 7.60596L51.6204 6.44634L49.7131 6.16406Z" fill="black"/>
<path d="M49.7131 6.16406L49.3164 7.09481L49.7131 8.57486L51.3 9.04786L52.1621 7.60596L51.6204 6.44634L49.7131 6.16406Z" fill="black"/>
<path d="M50.3189 7.98751L50.0977 7.15594L50.1739 6.98047L51.12 7.11779L51.3259 7.56028L50.9597 8.17061L50.3189 7.98751Z" fill="#6A2792"/>
<path d="M49.0587 4.6543L21.3879 43.6314C21.3879 43.6314 -0.316909 75.3609 0.00351314 75.2617C0.323936 75.1625 4.10797 76.4595 4.10797 76.4595L23.3486 48.4377L33.831 32.3022L49.0434 9.19362L48.2729 7.08798L49.0434 4.6543H49.0587Z" fill="#7680F3"/>
<mask id="mask1_5136_28038" style="mask-type:luminance" maskUnits="userSpaceOnUse" x="0" y="4" width="50" height="73">
<path d="M49.0587 4.6543L21.3879 43.6314C21.3879 43.6314 -0.316909 75.3609 0.00351314 75.2617C0.323936 75.1625 4.10797 76.4595 4.10797 76.4595L23.3486 48.4377L33.831 32.3022L49.0434 9.19362L48.2729 7.08798L49.0434 4.6543H49.0587Z" fill="white"/>
</mask>
<g mask="url(#mask1_5136_28038)">
<path d="M48.2878 7.08798L49.0584 4.6543L19.4956 41.4876L-1.8125 74.8345L1.47565 75.605L22.4633 43.6543" fill="white"/>
</g>
<path d="M51.8983 10.1701L43.224 21.0263L10.1671 75.2616L4.11719 76.4594L25.8373 41.9911L49.0603 9.20117L51.8983 10.1701Z" fill="#2E318C"/>
<path d="M47.5467 16.9756C47.5467 16.9756 59.2421 15.7779 64.1781 13.9011C70.2738 11.5895 73.8366 8.56836 73.8366 8.56836L98.9135 56.9979L71.113 82.2579L50.9951 30.8911L47.5391 16.968L47.5467 16.9756Z" fill="#6A2792"/>
<mask id="mask2_5136_28038" style="mask-type:luminance" maskUnits="userSpaceOnUse" x="47" y="8" width="52" height="75">
<path d="M47.5467 16.9756C47.5467 16.9756 59.2421 15.7779 64.1781 13.9011C70.2738 11.5895 73.8366 8.56836 73.8366 8.56836L98.9135 56.9979L71.113 82.2579L50.9951 30.8911L47.5391 16.968L47.5467 16.9756Z" fill="white"/>
</mask>
<g mask="url(#mask2_5136_28038)">
<path d="M68.0009 73.9201L64.0109 62.6595L57.3125 44.0369L58.4645 39.6883L60.2421 37.1478L67.3753 31.0979L76.5607 29.5645H81.5807L86.7532 31.1437L99.5701 56.3426L68.0009 73.9201Z" fill="#802EB4"/>
<path d="M71.0206 84.8908L66.3516 69.4953L68.3656 65.5739L73.0194 59.0053L78.4895 55.3357L86.5382 53.375H92.4812L98.6837 54.6033L100.217 56.3427L71.0206 84.8908Z" fill="#A339E7"/>
</g>
<path d="M64.0117 36.4064L69.1614 53.6711C69.1614 53.6711 80.7576 46.2174 80.7576 45.9733C80.7576 45.7292 73.098 31.9434 73.098 31.9434L64.0193 36.3988L64.0117 36.4064Z" fill="black"/>
<path d="M73.8362 8.57538L70.4336 1.22855L71.8373 0.580078L85.4019 25.7638L104.589 61.2239H100.973L73.8362 8.57538Z" fill="#3B1850"/>
<path d="M68.1992 12.1227L77.1558 0L78.7045 3.53228L73.8371 8.57512C73.8371 8.57512 72.0672 9.9331 71.4416 10.3374C70.6329 10.8638 68.1992 12.1227 68.1992 12.1227Z" fill="#3B1850"/>
<path d="M77.1567 0L76.3633 2.73885L78.7054 3.53228L79.4607 0.900235L77.1567 0Z" fill="#6A2792"/>
<path d="M77.5442 0.892578L77.2695 2.30396L78.0782 2.68542L78.7038 1.46476L77.5442 0.892578Z" fill="black"/>
<path d="M84.9769 71.3086L80.5749 71.98L78.4922 73.7118L80.7809 75.4131L86.045 75.8098L90.714 74.9324L92.0415 73.3608L89.6002 71.7435L84.9769 71.3086Z" fill="black"/>
<path d="M80.202 61.3296L79.0195 60.4523L80.0266 59.6207L84.9321 58.873L90.1428 59.3689L91.6457 60.3607L89.891 61.0702L86.1375 61.7721L80.202 61.3296Z" fill="white"/>
<path d="M81.7965 55.7841L79.0195 60.4531L80.202 61.3304L86.1375 61.7729L89.891 61.071L91.6457 60.3615L88.8687 55.7383L81.7965 55.7841Z" fill="#7680F3"/>
<path d="M84.9062 73.918L79.5048 74.7343L76.9414 76.8704L79.7565 78.9608L86.2184 79.4414L91.9555 78.3734L93.5881 76.4432L90.5823 74.452L84.9062 73.918Z" fill="#5865F0"/>
<path d="M92.0423 73.3613L93.591 76.4435L91.9584 78.3737L90.7148 74.9329L92.0423 73.3613Z" fill="#2E318C"/>
<path d="M78.4901 73.7129L76.9414 76.8713L79.7565 78.9617L80.7789 75.4142L78.4901 73.7129Z" fill="#5865F0"/>
<path d="M84.9769 71.3086L80.5749 71.98L78.4922 73.7118L80.7809 75.4131L86.045 75.8098L90.714 74.9324L92.0415 73.3608L89.6002 71.7435L84.9769 71.3086Z" fill="#2E318C"/>
<path d="M80.2173 73.6665L79.0195 60.4529L80.202 61.3302L86.1375 61.7727L89.891 61.0708L91.6457 60.3613L90.4556 73.5902L90.1428 73.9564L85.9849 74.7346L81.1709 74.3684L80.2173 73.6665Z" fill="#F3C7FF"/>
<path d="M85.145 71.3926L82.2918 71.8274L80.9414 72.9489L82.4291 74.0551L85.8393 74.3145L88.8681 73.7423L89.7301 72.7277L88.1433 71.6749L85.145 71.3926Z" fill="black"/>
<path d="M82.175 66.5111L83.8916 69.105L84.8605 64.1309L86.8822 67.1978L87.874 65.6109L88.8658 68.4566L88.3241 71.2717L86.455 72.5687L85.3716 72.8509L82.6328 71.9202L81.6562 69.7535L82.175 66.5111Z" fill="#FF4CD0"/>
<path d="M84.7031 70.3321C84.7413 70.2253 85.5423 68.3027 85.5423 68.3027L86.8698 70.7288L86.0382 71.4841H85.2067L84.7031 70.3321Z" fill="white"/>
<path d="M82.4606 56.2722L81.7969 55.7839L82.3614 55.3185L85.1384 55.082L87.389 55.227L88.8691 55.7381L87.8849 56.1348L85.7869 56.5239L82.4606 56.2722Z" fill="#2E318C"/>
<path d="M83.3532 56.8987L82.8954 57.6159L84.1542 57.799L84.7646 56.8987L84.4594 52.0009L85.8174 50.9557L86.6642 51.7644L86.4735 55.0296L87.6865 55.3272L88.0298 51.2608L85.5809 48.9492L82.4453 50.5742L83.3532 56.8987Z" fill="#7680F3"/>
<path d="M41.077 13.9847L40.5964 8.5757L41.3517 5.875L39.4062 8.4689L41.077 13.9847Z" fill="white"/>
<path d="M68.1992 12.1227L76.3624 2.73885L77.1558 0L68.1992 12.1227Z" fill="white"/>
<path d="M85.7852 56.5241L86.1361 61.7729L89.8896 61.071L91.6443 60.3615L88.8673 55.7383L85.7852 56.5241Z" fill="#2E318C"/>
<path d="M72.1654 4.95919L71.433 1.25144L71.8373 0.580078L70.4336 1.22855L72.1654 4.95919Z" fill="white"/>
<path d="M78.8117 79.2207L79.6128 81.8527L85.8229 84.6526L85.5787 87.8416L78.7965 86.4149L77.3164 85.3621L78.8117 79.2207Z" fill="#7680F3"/>
<path d="M85.8146 50.9557L86.219 50.1394L85.5781 48.9492L88.2178 50.6658L87.6838 55.3272L86.4097 55.2585L86.6615 51.7644L85.8146 50.9557Z" fill="#2E318C"/>
<path d="M72.1599 85.1645L71.0308 86.9497L67.9486 88.4068L47.3042 20.79L45.519 21.3851L44.2984 24.5817L43.2227 21.0265L44.1458 17.0213L47.2051 16.0371L49.0589 21.1562L72.1599 85.1645Z" fill="#2E318C"/>
<path d="M86.043 75.8109L86.2184 79.4424L91.9555 78.3743L90.712 74.9336L86.043 75.8109Z" fill="#3C42AD"/>
<path d="M80.7801 75.4141L79.7578 78.9616L83.2748 79.221L80.658 78.2826L80.7801 75.4141Z" fill="white"/>
<path d="M83.2769 56.3418V50.8946L85.5809 48.9492L82.4453 50.5742L83.2769 56.3418Z" fill="white"/>
<path d="M51.8971 10.17L50.7146 9.76562L45.5039 18.1729L51.8971 10.17Z" fill="#FF4CD0"/>
<path d="M57.8398 45.4238L63.0582 62.6351L71.0306 86.9491L72.1673 85.1639L57.8398 45.4238Z" fill="#FF4CD0"/>
<path d="M83.2734 21.7578L106.268 60.6815L104.589 61.2232L83.2734 21.7578Z" fill="#FF4CD0"/>
<path d="M72.3828 32.3021L72.6346 32.798L79.7602 46.7288L80.9427 45.9735L73.0923 31.9512" fill="#FF4CD0"/>
<path d="M41.75 39.0684L47.304 79.4416L46.2969 81.1124L41.75 39.0684Z" fill="white"/>
<path d="M73.8398 8.57548L77.9138 3.26562L78.7072 3.53264L73.8398 8.57548Z" fill="#FF4CD0"/>
<path d="M81.7965 55.7832L82.4603 56.2715L80.202 61.3296L79.0195 60.4522L81.7965 55.7832Z" fill="white"/>
<path d="M63.0573 34.6813L62.3173 31.9043L60.2422 32.7893L61.6612 36.1537L62.6225 35.6807L63.0573 34.6813Z" fill="#3B1850"/>
<path d="M62.3164 31.9045L75.4842 27.0371L76.2166 28.7079L63.2472 35.391L62.3164 31.9045Z" fill="#9735D6"/>
<path d="M63.0599 34.6826L76.2201 28.709L75.9988 29.6321L62.625 35.682L63.0599 34.6826Z" fill="#FF4CD0"/>
<path d="M33.8406 6.89692C33.5736 6.46207 32.1622 2.09059 32.1622 2.09059L26.3259 0.740234L21.1915 5.11934L20.8711 13.5495L26.0055 18.3558L32.597 14.732L32.9785 11.2226L30.0031 12.6264L27.1422 11.3294L27.3558 7.40807L29.9497 5.05831L33.8406 6.89692Z" fill="white"/>
</svg>
