<svg width="120" height="120" viewBox="0 0 120 120" fill="none" xmlns="http://www.w3.org/2000/svg">
<rect width="120" height="120" rx="60" fill="url(#paint0_linear_5855_225157)"/>
<g clip-path="url(#clip0_5855_225157)">
<path d="M99.9771 67.2639C99.974 67.2017 99.9678 67.1426 99.9615 67.0805C99.9491 66.9343 99.9336 66.7851 99.9118 66.639C99.9025 66.5675 99.8932 66.496 99.8807 66.4276C99.8589 66.2908 99.831 66.1541 99.803 66.0173C99.7875 65.9427 99.775 65.8649 99.7564 65.7903C99.7564 65.7903 99.7564 65.7841 99.7564 65.781C99.7097 65.5758 99.6569 65.3707 99.5947 65.1655C99.5854 65.1313 99.5698 65.1033 99.5574 65.0691C98.8144 62.7158 97.145 60.4806 94.6518 58.4693C95.0808 58.0558 95.4943 57.5429 95.8767 56.8963C97.2041 54.6549 97.6922 51.9565 97.2974 49.6654C97.2974 49.6529 97.2974 49.6467 97.2974 49.6343C96.9678 46.8644 95.1399 44.4427 94.686 43.8738C93.7379 42.4966 92.3141 41.7412 90.626 41.7412C89.0282 41.7412 87.6448 42.1236 86.5598 42.8479C84.8842 36.789 72.0887 33.5342 59.9988 33.5342C47.0355 33.5342 33.2607 37.2771 33.2607 44.2127V53.9616C26.3033 56.8248 21.8112 60.748 20.4434 65.066C20.431 65.1002 20.4154 65.1313 20.4061 65.1655C20.319 65.4484 20.2538 65.7375 20.1947 66.0235C20.1667 66.1572 20.1418 66.2908 20.1201 66.4276C20.1076 66.4991 20.0983 66.5706 20.089 66.6421C20.0703 66.7882 20.0517 66.9343 20.0393 67.0805C20.033 67.1426 20.0268 67.2017 20.0237 67.2639C20.0082 67.4691 20.002 67.6742 20.002 67.8825C20.002 78.303 37.5725 86.4665 60.002 86.4665C82.4314 86.4665 100.002 78.303 100.002 67.8825C100.002 67.6742 99.9926 67.4691 99.9802 67.2639H99.9771ZM61.1335 71.7404C60.7574 71.7529 60.3812 71.7591 60.002 71.7591C46.9702 71.7591 36.3694 64.7831 36.3694 56.2092V54.8445C41.1662 58.4289 50.7877 60.319 60.002 60.319C69.2162 60.319 78.7289 58.4506 83.5537 54.9067C83.5537 54.9595 83.5537 55.0124 83.563 55.0683C83.563 55.0932 83.5661 55.115 83.5692 55.1398C83.5692 55.1461 83.5692 55.1523 83.5692 55.1585C83.6003 55.4631 83.6221 55.7274 83.6283 55.973C83.6283 56.0538 83.6314 56.1346 83.6314 56.2155C83.6314 56.6258 83.6003 57.0548 83.5412 57.5273C83.5412 57.5398 83.5412 57.5522 83.5381 57.5646C83.2086 60.0547 81.9713 62.3738 80.0564 64.3883C79.8667 64.5873 79.6709 64.7862 79.4657 64.979C79.4657 64.979 79.4657 64.979 79.4626 64.9821C75.3653 68.8835 68.6504 71.5073 61.1335 71.7467V71.7404ZM91.6581 52.2954C90.8716 53.6259 90.3369 53.7129 89.2768 53.8839C88.7546 53.9678 88.167 54.0642 87.5297 54.2974C87.2437 54.173 86.9577 54.0518 86.6624 53.9305V53.5046C86.7588 53.5233 86.8551 53.5326 86.9546 53.5326H86.9764C87.8344 53.5202 88.5214 52.8176 88.5121 51.9596C88.4934 50.483 88.8074 49.4073 89.4447 48.7638C90.0229 48.1763 90.9369 47.8778 92.1618 47.8778C92.3825 47.8778 92.5814 47.9089 92.7648 47.968C92.8146 49.3016 92.4913 50.8871 91.6612 52.2922L91.6581 52.2954ZM59.9988 36.6429C74.6378 36.6429 83.6283 41.0511 83.6283 44.2127C83.6283 44.2686 83.619 44.3277 83.6127 44.3836C83.6065 44.4334 83.6065 44.48 83.5972 44.5297C83.5879 44.5826 83.5692 44.6354 83.5568 44.6914C83.5444 44.7411 83.535 44.7878 83.5164 44.8375C83.4977 44.8935 83.4697 44.9494 83.448 45.0054C83.4262 45.052 83.4107 45.1018 83.3858 45.1484C83.3578 45.2043 83.3205 45.2634 83.2863 45.3194C83.2584 45.366 83.2335 45.4157 83.2024 45.4624C83.1651 45.5214 83.1185 45.5805 83.0749 45.6396C83.0407 45.6862 83.0097 45.7328 82.9692 45.7795C82.9195 45.8385 82.8667 45.9007 82.8107 45.9598C82.7703 46.0064 82.7299 46.053 82.6863 46.0997C82.6273 46.1618 82.562 46.2209 82.4998 46.2831C82.4532 46.3297 82.4066 46.3763 82.3568 46.423C82.2884 46.4851 82.2138 46.5442 82.1423 46.6064C82.0864 46.653 82.0366 46.6996 81.9807 46.7432C81.9029 46.8053 81.819 46.8675 81.7351 46.9297C81.676 46.9763 81.6169 47.0198 81.5548 47.0665C81.4677 47.1286 81.3745 47.1877 81.2812 47.2499C81.2128 47.2934 81.1506 47.34 81.0791 47.3836C80.9828 47.4457 80.8802 47.5048 80.7807 47.5639C80.7061 47.6074 80.6377 47.654 80.56 47.6975C80.4574 47.7566 80.3455 47.8157 80.2367 47.8778C80.1558 47.9214 80.0781 47.968 79.9942 48.0115C79.9569 48.0302 79.9165 48.0519 79.8761 48.0706C73.7861 46.3546 67.2919 45.4251 60.5429 45.4251C53.7938 45.4251 46.8054 46.4292 40.5164 48.2727C37.8212 46.9639 36.3632 45.4903 36.3632 44.2189C36.3632 41.0573 45.3536 36.6491 59.9957 36.6491L59.9988 36.6429ZM36.3694 49.4198C36.3881 49.4322 36.4067 49.4446 36.4223 49.4571C36.5466 49.5503 36.6741 49.6405 36.8077 49.7306C36.8171 49.7369 36.8295 49.7462 36.8388 49.7524C36.9818 49.8488 37.1279 49.9452 37.2772 50.0384C37.3145 50.0633 37.3549 50.0882 37.3953 50.1099C37.5196 50.1845 37.644 50.2622 37.7714 50.3369C37.8056 50.3555 37.8398 50.3773 37.874 50.3959C38.0295 50.4861 38.1911 50.5731 38.3528 50.6633C38.3901 50.6819 38.4274 50.7037 38.4647 50.7223C38.5984 50.7938 38.7351 50.8622 38.8719 50.9306C38.9186 50.9524 38.9652 50.9773 39.0118 50.999C39.1828 51.0829 39.3569 51.1669 39.5341 51.2477C39.5527 51.257 39.5714 51.2633 39.5869 51.2726C39.7486 51.3472 39.9134 51.4187 40.0812 51.4902C40.1341 51.512 40.1869 51.5368 40.2398 51.5586C40.3983 51.6239 40.5569 51.6891 40.7154 51.7544C40.7465 51.7669 40.7776 51.7793 40.8118 51.7917C41.0014 51.8663 41.1942 51.941 41.3869 52.0125C41.4397 52.0311 41.4926 52.0529 41.5485 52.0715C41.704 52.1275 41.8594 52.1834 42.018 52.2394C42.0708 52.258 42.1206 52.2767 42.1734 52.2922C42.3724 52.3606 42.5744 52.429 42.7796 52.4943C42.8231 52.5099 42.8698 52.5223 42.9133 52.5347C43.0811 52.5876 43.2521 52.6404 43.4231 52.6933C43.4853 52.7119 43.5475 52.7306 43.6096 52.7492C43.8179 52.8114 44.0262 52.8705 44.2345 52.9295C44.2469 52.9326 44.2562 52.9357 44.2687 52.9389C44.4801 52.9979 44.6946 53.0539 44.9122 53.1098C44.9775 53.1254 45.0428 53.144 45.108 53.1596C45.2852 53.2062 45.4655 53.2497 45.6458 53.2933C45.6956 53.3057 45.7453 53.3181 45.7982 53.3306C46.0189 53.3834 46.2458 53.4363 46.4697 53.486C46.5318 53.4984 46.594 53.514 46.6562 53.5264C46.8334 53.5668 47.0137 53.6041 47.194 53.6414C47.2593 53.6539 47.3246 53.6694 47.393 53.6818C47.623 53.7285 47.8562 53.7751 48.0893 53.8186C48.1328 53.828 48.1732 53.8342 48.2168 53.8435C48.4157 53.8808 48.6178 53.9181 48.8168 53.9523C48.8883 53.9647 48.9598 53.9772 49.0281 53.9896C49.2395 54.0269 49.454 54.0611 49.6685 54.0953C49.6996 54.1015 49.7307 54.1046 49.7618 54.1108C50.0012 54.1482 50.2437 54.1855 50.4861 54.2197C50.5576 54.229 50.626 54.2383 50.6975 54.2507C50.8934 54.2787 51.0861 54.3036 51.282 54.3316C51.341 54.3409 51.4001 54.3471 51.4592 54.3564C51.7048 54.3875 51.9503 54.4186 52.1959 54.4466C52.255 54.4528 52.3172 54.459 52.3762 54.4684C52.5752 54.4901 52.7742 54.5119 52.9731 54.5336C53.0446 54.5399 53.1161 54.5492 53.1876 54.5554C53.4394 54.5803 53.6881 54.6051 53.9399 54.6269C53.9648 54.6269 53.9928 54.63 54.0177 54.6331C54.2477 54.6549 54.4809 54.6735 54.7109 54.6891C54.7824 54.6953 54.8539 54.7015 54.9254 54.7046C55.143 54.7202 55.3637 54.7357 55.5813 54.7512C55.6218 54.7512 55.6622 54.7575 55.7026 54.7606C55.9575 54.7761 56.2124 54.7917 56.4673 54.8041C56.5326 54.8072 56.601 54.8103 56.6663 54.8134C56.8715 54.8227 57.0766 54.8321 57.2818 54.8414C57.344 54.8414 57.4062 54.8476 57.4715 54.8476C57.7264 54.8569 57.9813 54.8663 58.2362 54.8725C58.2859 54.8725 58.3357 54.8725 58.3885 54.8756C58.5999 54.8818 58.8113 54.8849 59.0227 54.888C59.0942 54.888 59.1657 54.888 59.2372 54.888C59.4952 54.888 59.7501 54.8942 60.0082 54.8942C60.2662 54.8942 60.5211 54.8942 60.7791 54.888C60.8475 54.888 60.919 54.888 60.9905 54.888C61.2019 54.888 61.4133 54.8818 61.6247 54.8756C61.6744 54.8756 61.7273 54.8756 61.777 54.8725C62.032 54.8663 62.2869 54.8569 62.5418 54.8476C62.604 54.8476 62.663 54.8414 62.7252 54.8414C62.9304 54.8321 63.1356 54.8227 63.3407 54.8134C63.4091 54.8103 63.4775 54.8072 63.5428 54.8041C63.7977 54.7917 64.0526 54.7761 64.3044 54.7606C64.3386 54.7606 64.3759 54.7544 64.4101 54.7544C64.634 54.7388 64.8547 54.7233 65.0754 54.7077C65.1469 54.7015 65.2215 54.6953 65.293 54.6922C65.5137 54.6735 65.7345 54.658 65.9552 54.6362C65.9894 54.6331 66.0267 54.63 66.0609 54.6269C66.3127 54.6051 66.5614 54.5803 66.8101 54.5554C66.8816 54.5492 66.95 54.5399 67.0215 54.5336C67.2173 54.5119 67.4132 54.4932 67.6059 54.4684C67.6712 54.4621 67.7365 54.4528 67.7986 54.4466C68.0442 54.4186 68.2898 54.3875 68.5323 54.3564C68.5883 54.3502 68.6442 54.3409 68.7002 54.3347C68.896 54.3098 69.0919 54.2818 69.2877 54.2538C69.3623 54.2445 69.4338 54.2321 69.5084 54.2228C69.7447 54.1886 69.981 54.1544 70.2172 54.1171C70.2359 54.1171 70.2545 54.1108 70.2763 54.1077C70.5063 54.0704 70.7333 54.0331 70.9602 53.9958C71.0317 53.9834 71.1032 53.971 71.1778 53.9585C71.3675 53.9243 71.5571 53.8901 71.7467 53.8559C71.7996 53.8466 71.8555 53.8373 71.9084 53.8248C72.1384 53.7813 72.3685 53.7347 72.5985 53.6912C72.6638 53.6787 72.7291 53.6632 72.7913 53.6508C72.9685 53.6135 73.1426 53.5761 73.3197 53.5388C73.3881 53.5233 73.4534 53.5109 73.5218 53.4953C73.7456 53.4456 73.9695 53.3958 74.1933 53.343C74.2337 53.3337 74.2741 53.3243 74.3145 53.315C74.5011 53.2715 74.6876 53.2249 74.871 53.1782C74.9394 53.1596 75.0078 53.144 75.0731 53.1254C75.2627 53.0756 75.4492 53.0259 75.6357 52.9762C75.6699 52.9668 75.7041 52.9575 75.7352 52.9482C75.9497 52.8891 76.1611 52.8269 76.3694 52.7679C76.4316 52.7492 76.4907 52.7306 76.5528 52.7119C76.7176 52.6622 76.8792 52.6124 77.0409 52.5627C77.0937 52.5472 77.1497 52.5285 77.2025 52.513C77.4077 52.4477 77.6098 52.3824 77.8088 52.314C77.8554 52.2985 77.8989 52.2829 77.9455 52.2674C78.1072 52.2114 78.2657 52.1555 78.4243 52.0995C78.4802 52.0777 78.5393 52.0591 78.5953 52.0373C78.7911 51.9658 78.9839 51.8912 79.1735 51.8166C79.1828 51.8135 79.1921 51.8104 79.2015 51.8042C79.3849 51.7327 79.5621 51.6581 79.7393 51.5835C79.7921 51.5617 79.845 51.5399 79.8978 51.5182C80.0501 51.4529 80.1994 51.3876 80.3486 51.3192C80.3828 51.3037 80.4201 51.2881 80.4543 51.2726C80.6315 51.1918 80.8056 51.1078 80.9765 51.027C81.017 51.0052 81.0605 50.9866 81.1009 50.9648C81.2377 50.8964 81.3714 50.828 81.505 50.7596C81.5486 50.7379 81.589 50.7161 81.6325 50.6944C81.7972 50.6073 81.9589 50.5172 82.1175 50.427C82.1361 50.4146 82.1548 50.4052 82.1765 50.3928C82.3164 50.312 82.4532 50.2312 82.5869 50.1472C82.6273 50.1224 82.6646 50.0975 82.705 50.0757C82.8449 49.9887 82.9817 49.8985 83.1153 49.8084C83.1247 49.8022 83.1371 49.7928 83.1464 49.7866C83.2894 49.6902 83.4293 49.5908 83.5661 49.4882C83.5785 49.4788 83.5941 49.4695 83.6065 49.4602V50.0198C82.9413 53.144 74.0938 57.2196 60.0144 57.2196C45.935 57.2196 36.3818 52.8114 36.3818 49.6498V49.4291L36.3694 49.4198ZM33.3042 57.3222C33.3166 57.4869 33.3415 57.6486 33.3602 57.8133C33.3726 57.9253 33.3819 58.0372 33.3975 58.146C33.4317 58.3822 33.4752 58.6185 33.5218 58.8517C33.5342 58.9169 33.5436 58.9822 33.556 59.0444C33.6213 59.3428 33.6928 59.6382 33.7767 59.9304C33.8016 60.0174 33.8327 60.1014 33.8576 60.1853C33.9197 60.3936 33.985 60.6019 34.0596 60.807C34.1 60.919 34.1467 61.0278 34.1871 61.1397C34.2555 61.3169 34.3239 61.4941 34.3985 61.6713C34.4513 61.7894 34.5073 61.9075 34.5601 62.0257C34.6378 62.1904 34.7125 62.3552 34.7964 62.52C34.8586 62.6412 34.9238 62.7624 34.9891 62.8806C35.0762 63.0391 35.1601 63.1946 35.2534 63.35C35.3249 63.4712 35.3995 63.5925 35.4741 63.7106C35.5705 63.8629 35.6668 64.0153 35.7663 64.1645C35.8471 64.2826 35.928 64.4038 36.015 64.522C36.1207 64.6712 36.2295 64.8173 36.3383 64.9634C36.4285 65.0815 36.5186 65.1966 36.6088 65.3116C36.7238 65.4577 36.845 65.6007 36.9663 65.7437C37.0627 65.8556 37.159 65.9706 37.2585 66.0826C37.386 66.2256 37.5196 66.3655 37.6533 66.5085C37.7559 66.6173 37.8585 66.7261 37.9642 66.8318C38.1041 66.9748 38.2502 67.1115 38.3994 67.2514C38.5082 67.354 38.6108 67.4566 38.7227 67.5561C38.8813 67.6991 39.046 67.8421 39.2108 67.982C39.3196 68.0753 39.4222 68.1685 39.5341 68.2587C39.7206 68.411 39.9134 68.5633 40.1092 68.7125C40.2056 68.7872 40.2988 68.8618 40.3952 68.9364C40.6905 69.1571 40.9952 69.3747 41.3092 69.5892C46.3204 72.9933 52.9545 74.8678 59.9926 74.8678C62.1563 74.8678 64.2609 74.6906 66.2754 74.358C67.0805 74.2243 67.8733 74.0658 68.6504 73.8824C69.8131 73.6088 70.9416 73.2793 72.0265 72.9031C77.4512 71.013 81.819 67.8701 84.3433 63.9779C84.3495 63.9811 84.3557 63.9873 84.3619 63.9904C84.6169 64.1489 84.8998 64.2235 85.1764 64.2235C85.6987 64.2235 86.2054 63.9624 86.5008 63.4868C87.9587 61.1272 89.3173 60.7635 90.8872 60.3438C91.1483 60.2723 91.4219 60.2008 91.7017 60.1138C94.1171 61.8143 95.7399 63.6826 96.458 65.61C93.6819 73.0523 77.8709 78.8221 59.9926 78.8221C42.1143 78.8221 26.3096 73.0523 23.5335 65.61C24.6744 62.5573 28.0784 59.6537 33.3042 57.3222ZM58.6124 83.3453C58.5253 83.3453 58.4383 83.3453 58.3512 83.3422C57.9067 83.3329 57.4652 83.3205 57.0269 83.3049C56.943 83.3049 56.859 83.2987 56.7782 83.2956C56.3399 83.28 55.9047 83.2583 55.4725 83.2365C55.4508 83.2365 55.429 83.2365 55.4073 83.2334C54.9596 83.2085 54.515 83.1806 54.0736 83.1495C53.9866 83.1433 53.8995 83.137 53.8125 83.1308C53.3804 83.0997 52.9514 83.0624 52.5255 83.0251C52.454 83.0189 52.3825 83.0127 52.3079 83.0034C51.8913 82.9661 51.4778 82.9225 51.0675 82.879C51.0333 82.8759 50.9991 82.8728 50.9618 82.8666C50.5328 82.82 50.1069 82.7671 49.6841 82.7142C49.6033 82.7049 49.5193 82.6925 49.4385 82.6832C49.0219 82.6303 48.6054 82.5713 48.195 82.5122C48.1359 82.5029 48.08 82.4935 48.0209 82.4873C47.623 82.4282 47.2282 82.3661 46.8365 82.3008C46.7961 82.2946 46.7526 82.2884 46.7121 82.2821C46.3018 82.2137 45.8977 82.1422 45.4935 82.0676C45.4189 82.0552 45.3474 82.0397 45.2728 82.0272C44.8718 81.9526 44.4739 81.8718 44.0791 81.791C44.0386 81.7816 43.9982 81.7723 43.9578 81.7661C43.5754 81.6853 43.1993 81.6044 42.8231 81.5174C42.7796 81.5081 42.7361 81.4987 42.6926 81.4863C42.3071 81.3961 41.9247 81.306 41.5454 81.2127C41.4802 81.1972 41.4149 81.1785 41.3465 81.163C40.9672 81.0666 40.5879 80.9671 40.2149 80.8677C40.1931 80.8614 40.1683 80.8552 40.1465 80.849C39.7828 80.7495 39.4222 80.6469 39.0678 80.5413C39.0243 80.5288 38.9776 80.5164 38.9341 80.5008C38.5766 80.3951 38.2222 80.2832 37.8709 80.1713C37.815 80.1527 37.7559 80.134 37.6999 80.1154C37.3455 80.0003 36.9912 79.8822 36.6461 79.761C36.6399 79.761 36.6336 79.7578 36.6305 79.7547C36.2855 79.6335 35.9497 79.5123 35.614 79.3848C35.5705 79.3693 35.5238 79.3506 35.4803 79.3351C35.1539 79.2107 34.8306 79.0864 34.5135 78.9558C34.4638 78.9371 34.4171 78.9154 34.3705 78.8967C33.7239 78.6325 33.099 78.3558 32.499 78.0729C32.4555 78.0543 32.4151 78.0325 32.3716 78.0139C32.0794 77.874 31.7965 77.7341 31.5167 77.5911C31.4763 77.5693 31.4359 77.5507 31.3954 77.5289C30.8265 77.2336 30.2825 76.932 29.7634 76.6211C29.7229 76.5963 29.6825 76.5745 29.6452 76.5496C29.3965 76.3973 29.1509 76.245 28.9147 76.0896C28.8805 76.0678 28.8494 76.046 28.8183 76.0243C28.582 75.8688 28.3489 75.7103 28.1251 75.5486C28.1188 75.5424 28.1095 75.5393 28.1033 75.5331C27.8764 75.3714 27.6619 75.2067 27.4474 75.0419C27.4132 75.0139 27.3759 74.986 27.3417 74.958C27.1365 74.7963 26.9375 74.6316 26.7448 74.4668C26.7199 74.445 26.695 74.4233 26.6702 74.4015C26.4837 74.2399 26.3065 74.0751 26.1324 73.9103C26.1168 73.8979 26.1013 73.8824 26.0888 73.8699C25.9116 73.6989 25.7469 73.528 25.5852 73.357C25.5541 73.3259 25.5262 73.2917 25.4951 73.2606C25.3396 73.0896 25.1873 72.9155 25.0443 72.7415C25.0257 72.7197 25.0101 72.6979 24.9915 72.6731C24.8578 72.5052 24.7303 72.3404 24.6091 72.1694C24.5998 72.1539 24.5873 72.1415 24.578 72.1259C31.268 78.048 44.6044 81.9309 59.9957 81.9309C75.3871 81.9309 88.7235 78.048 95.4135 72.1259C95.4042 72.1415 95.3917 72.1539 95.3824 72.1694C95.2612 72.3373 95.1337 72.5052 95 72.6731C94.9814 72.6948 94.9658 72.7166 94.9472 72.7383C94.8042 72.9124 94.6549 73.0865 94.4964 73.2575C94.4684 73.2886 94.4373 73.3228 94.4062 73.3539C94.2446 73.528 94.0767 73.6989 93.9026 73.8699C93.8902 73.8824 93.8747 73.8948 93.8622 73.9072C93.6881 74.072 93.5078 74.2368 93.3213 74.4015C93.2964 74.4233 93.2747 74.445 93.2498 74.4668C93.0571 74.6347 92.8581 74.7963 92.6498 74.9611C92.6156 74.9891 92.5814 75.017 92.5472 75.0419C92.3358 75.2067 92.1151 75.3714 91.8913 75.5362C91.8851 75.5393 91.8789 75.5455 91.8726 75.5486C91.6457 75.7103 91.4125 75.8688 91.1732 76.0274C91.1421 76.0491 91.111 76.0678 91.0799 76.0896C90.8405 76.245 90.5949 76.4004 90.3462 76.5528C90.3089 76.5745 90.2685 76.5994 90.2312 76.6211C89.7121 76.932 89.1649 77.2367 88.5929 77.532C88.5556 77.5507 88.5183 77.5724 88.481 77.5911C88.2012 77.7341 87.9121 77.8771 87.6199 78.017C87.5795 78.0356 87.5391 78.0543 87.4987 78.0729C86.8956 78.3589 86.2707 78.6325 85.621 78.8998C85.5743 78.9185 85.5308 78.9371 85.4842 78.9558C85.1671 79.0864 84.8407 79.2107 84.5112 79.3382C84.4708 79.3537 84.4272 79.3693 84.3868 79.3848C84.048 79.5123 83.706 79.6366 83.3578 79.7579C83.3578 79.7579 83.3547 79.7579 83.3516 79.7579C83.0034 79.8791 82.649 79.9972 82.2915 80.1122C82.2387 80.1309 82.1827 80.1464 82.1299 80.1651C81.7786 80.277 81.4211 80.3889 81.0605 80.4946C81.0201 80.5071 80.9765 80.5195 80.933 80.5319C80.5724 80.6376 80.2087 80.7433 79.8419 80.8428C79.8232 80.849 79.8046 80.8552 79.7828 80.8583C79.4097 80.9609 79.0274 81.0604 78.645 81.1568C78.5828 81.1723 78.5175 81.1879 78.4554 81.2034C78.0761 81.2967 77.6906 81.3899 77.302 81.4801C77.2616 81.4894 77.2212 81.4987 77.1777 81.5081C76.7984 81.5951 76.416 81.6759 76.0306 81.7568C75.9933 81.7661 75.9559 81.7723 75.9155 81.7816C75.5207 81.8625 75.1197 81.9433 74.7156 82.0179C74.6441 82.0303 74.5726 82.0459 74.5011 82.0583C74.0969 82.1329 73.6897 82.2044 73.2793 82.2759C73.2389 82.2821 73.2016 82.2884 73.1612 82.2946C72.7664 82.3599 72.3685 82.422 71.9674 82.4811C71.9115 82.4904 71.8555 82.4997 71.7996 82.506C71.3861 82.5681 70.9695 82.6241 70.553 82.6769C70.4722 82.6863 70.3913 82.6987 70.3105 82.708C69.8846 82.7609 69.4587 82.8137 69.0297 82.8604C68.9955 82.8635 68.9613 82.8666 68.9302 82.8697C68.5168 82.9132 68.1033 82.9567 67.6867 82.994C67.6152 83.0003 67.5437 83.0065 67.4722 83.0127C67.0463 83.05 66.6173 83.0873 66.1852 83.1184C66.0982 83.1246 66.0111 83.1308 65.9241 83.137C65.4826 83.1681 65.0381 83.1961 64.5904 83.221C64.5687 83.221 64.5469 83.221 64.5252 83.2241C64.093 83.249 63.6547 83.2676 63.2195 83.2831C63.1356 83.2863 63.0516 83.2894 62.9708 83.2925C62.5294 83.308 62.0879 83.3204 61.6465 83.3298C61.5594 83.3298 61.4724 83.3298 61.3853 83.3329C60.9253 83.3391 60.462 83.3453 59.9988 83.3453C59.5356 83.3453 59.0724 83.3391 58.6124 83.3329V83.3453Z" fill="#F5C9FF"/>
</g>
<defs>
<linearGradient id="paint0_linear_5855_225157" x1="60" y1="-11" x2="60" y2="133.5" gradientUnits="userSpaceOnUse">
<stop offset="0.17301" stop-color="#381F2C"/>
<stop offset="1" stop-color="#FF4CD2"/>
</linearGradient>
<clipPath id="clip0_5855_225157">
<rect width="80" height="52.9323" fill="white" transform="translate(20 33.5342)"/>
</clipPath>
</defs>
</svg>
