<svg width="120" height="120" viewBox="0 0 120 120" fill="none" xmlns="http://www.w3.org/2000/svg">
<rect width="120" height="120" rx="60" fill="url(#paint0_linear_5855_225118)"/>
<g clip-path="url(#clip0_5855_225118)">
<path d="M87.3486 38.1884C80.9296 30.1559 71.0551 25.002 60.0005 25.002C40.7025 25.002 25.0005 40.7039 25.0005 60.002C25.0005 79.3 40.7025 95.002 60.0005 95.002C79.2985 95.002 95.0005 79.3 95.0005 60.002C95.0005 51.7586 92.1336 44.1741 87.3516 38.1884H87.3486ZM56.3693 91.4615C55.2741 91.4615 54.1701 91.4059 53.0895 91.2946V91.3181C51.8479 91.0457 50.6326 90.7002 49.4525 90.2873C63.5526 89.1218 74.8679 78.3453 81.4128 67.2556C83.1698 67.7153 84.88 68.3273 86.5345 69.0799C83.4802 76.3101 79.1023 81.9677 73.5033 85.9035C68.3347 89.5376 62.4076 91.4586 56.3693 91.4586V91.4615ZM37.5193 82.8521C49.4525 82.8375 60.387 76.8665 66.8675 66.8544C68.9643 66.4297 71.1137 66.216 73.269 66.216C74.9938 66.216 76.6981 66.3565 78.3761 66.6259C71.1869 78.3219 58.4748 89.356 43.0042 87.192C41.0187 85.9474 39.1797 84.492 37.5193 82.855V82.8521ZM45.2532 31.5293C47.306 30.4605 49.4905 29.6083 51.7717 29.0021C54.0412 31.254 63.0958 41.6849 64.2261 65.5424C62.7297 67.8032 60.9815 69.8355 59.0341 71.6101C45.8652 59.6652 43.5489 41.5122 45.2532 31.5293ZM85.2314 40.2237C87.9167 43.644 89.9256 47.6208 91.0472 51.9518C88.2711 50.1128 84.7599 48.675 80.9179 47.8492C75.3598 46.6544 69.6436 46.8242 64.7298 48.3119C63.617 43.9105 62.2466 40.2705 60.8409 37.3012C70.2381 33.0609 81.284 36.7155 85.2314 40.2237ZM73.269 63.2847C71.184 63.2847 69.1048 63.4721 67.0637 63.8352C66.768 59.1029 66.1735 54.8949 65.3887 51.1729C75.1988 48.0981 86.7717 51.2959 91.8583 56.3503C91.996 57.548 92.0663 58.7662 92.0663 60.002C92.0663 62.8073 91.7031 65.5307 91.0238 68.1253C85.656 64.9568 79.5621 63.2847 73.2661 63.2847H73.269ZM78.1447 33.5733C77.0788 33.2834 75.9836 33.0433 74.8737 32.8676C70.9204 32.2409 65.1632 32.0945 59.5056 34.6861C57.8891 31.746 56.3195 29.661 55.1335 28.2964C56.7207 28.0533 58.343 27.9274 59.9976 27.9274C66.727 27.9274 72.9791 30.0124 78.1447 33.5704V33.5733ZM42.0407 33.4445C41.4433 39.2222 42.0759 45.8345 43.8739 52.0807C46.3191 60.5701 50.7614 67.9379 56.7617 73.4959C53.4526 75.9909 49.6897 77.8212 45.6573 78.8754C39.6102 73.6248 35.7389 67.5835 33.8501 60.4236C32.1838 54.1101 32.4034 48.3031 32.5821 43.6352L32.5909 43.3658C34.9951 39.4184 38.2251 36.0302 42.0407 33.4415V33.4445ZM29.5453 49.943C29.721 58.5378 31.6303 69.6246 42.0876 79.5899C40.5736 79.8066 39.0362 79.9208 37.4754 79.9208C36.5822 79.9208 35.6861 79.8827 34.7959 79.8095C30.4971 74.351 27.9289 67.4693 27.9289 59.999C27.9289 56.4879 28.497 53.1056 29.5453 49.943ZM75.5238 88.0558C81.2869 83.9005 85.9723 77.8358 89.1525 70.4153C89.4805 70.6027 89.8055 70.7989 90.1277 70.998C87.4628 78.2809 82.224 84.3339 75.5238 88.0558Z" fill="#E0E3FF"/>
</g>
<defs>
<linearGradient id="paint0_linear_5855_225118" x1="60" y1="-19" x2="60" y2="137.5" gradientUnits="userSpaceOnUse">
<stop offset="0.207668" stop-color="#1F1D5D"/>
<stop offset="1" stop-color="#5865F2"/>
</linearGradient>
<clipPath id="clip0_5855_225118">
<rect width="70" height="69.9971" fill="white" transform="translate(25 25.002)"/>
</clipPath>
</defs>
</svg>
