<svg viewBox="0 0 137 141" fill="none" xmlns="http://www.w3.org/2000/svg">
<path d="M59.4596 0.462891L53.2122 1.66838L35.8792 18.5208L34.9262 21.616L34.3479 24.4913L34.071 27.0978L34.0384 29.3947L34.1117 29.859L34.1361 30.3151L34.1199 30.7631L34.0628 31.1948L33.9651 31.6102L33.8185 32.0093L33.6311 32.384L33.4112 32.7261L33.1587 33.0519L32.8573 33.337L32.5315 33.5976L32.2627 33.7605L31.9777 33.9072L29.2816 35.4303L28.744 35.7968L23.1238 23.8315L5.79078 40.6758L4.30021 43.3556L2.97254 46.1331L4.60158 49.3586L6.28764 52.1362L7.95741 54.4738L9.55387 56.3798L9.92856 56.7138L10.2707 57.064L10.572 57.4468L10.8408 57.846L11.077 58.2532L11.2725 58.6849L11.4273 59.1248L11.5413 59.5727L11.6146 60.0207L11.6472 60.4687L11.639 60.9167L11.5983 61.2425L11.5332 61.5683L11.02 64.7531L10.7431 68.003L10.6861 71.2937L10.849 74.6251L10.8815 75.0894L10.8734 75.5374L10.8164 75.9691L0.895508 85.9877L1.90552 89.2784L3.08657 92.5446L6.32837 94.0352L9.28508 95.1266L11.9323 95.8597L14.2374 96.2832L14.6854 96.2914L15.1415 96.3402L15.5895 96.4298L16.0293 96.5683L16.461 96.7475L16.8764 96.9593L17.2837 97.2118L17.6665 97.4969L18.0249 97.8145L18.367 98.1648L18.6765 98.5476L18.8883 98.849L19.0838 99.1666L21.0386 102.18L23.1808 105.08L25.4941 107.866L27.9621 110.521L28.3123 110.879L28.6218 111.262L28.8988 111.661L29.1431 112.085L29.3386 112.517L29.5015 112.956L29.6237 113.396L29.697 113.852L29.7377 114.3L29.7296 114.74L29.6726 115.18L29.6074 115.506L29.5097 115.815L29.306 118.072V120.735L29.5748 123.798L30.1776 127.235L33.1261 129.247L36.1562 131.12L39.1455 130.013L41.6705 128.766L43.7556 127.455L45.4254 126.144L45.6942 125.818L45.9956 125.533L46.3214 125.28L46.6798 125.077L47.0626 124.906L47.4617 124.783L47.8853 124.702L48.317 124.661H48.7568L49.2048 124.71L49.6609 124.8L50.003 124.897L50.3451 125.028L53.6602 126.119L57.0079 126.991L60.3637 127.642L63.7277 128.066L64.192 128.115L64.6481 128.204L65.1043 128.343L65.5441 128.514L65.9677 128.734L66.3831 128.986L66.774 129.271L67.1406 129.589L67.4827 129.939L67.8003 130.322L68.0854 130.721L68.2728 131.047L68.4438 131.381L69.9425 133.417L71.8648 135.649L74.2269 138.019L77.0533 140.463L80.2462 140.007L83.3821 139.371L100.715 122.519L93.8406 119.815L95.1275 118.813L97.4082 116.728L97.7096 116.426L98.0435 116.174L98.4101 115.954L98.7929 115.783L99.2001 115.653L99.6237 115.563L100.064 115.522H100.512L100.968 115.563L101.424 115.653L101.88 115.783L102.246 115.864L102.564 116.068L104.918 116.679L107.655 117.151L110.758 117.412L114.187 117.404L131.52 100.551L134.445 95.0289L108.298 98.3114L108.258 98.1648L93.9139 104.217L73.95 101.912L49.1885 86.6393L35.6837 62.8716L42.5827 35.6828L59.4596 0.462891Z" fill="#A056F2"/>
<mask id="mask0_3282_122325" style="mask-type:luminance" maskUnits="userSpaceOnUse" x="0" y="0" width="135" height="141">
<path d="M59.4596 0.462891L53.2122 1.66838L35.8792 18.5208L34.9262 21.616L34.3479 24.4913L34.071 27.0978L34.0384 29.3947L34.1117 29.859L34.1361 30.3151L34.1199 30.7631L34.0628 31.1948L33.9651 31.6102L33.8185 32.0093L33.6311 32.384L33.4112 32.7261L33.1587 33.0519L32.8573 33.337L32.5315 33.5976L32.2627 33.7605L31.9777 33.9072L29.2816 35.4303L28.744 35.7968L23.1238 23.8315L5.79078 40.6758L4.30021 43.3556L2.97254 46.1331L4.60158 49.3586L6.28764 52.1362L7.95741 54.4738L9.55387 56.3798L9.92856 56.7138L10.2707 57.064L10.572 57.4468L10.8408 57.846L11.077 58.2532L11.2725 58.6849L11.4273 59.1248L11.5413 59.5727L11.6146 60.0207L11.6472 60.4687L11.639 60.9167L11.5983 61.2425L11.5332 61.5683L11.02 64.7531L10.7431 68.003L10.6861 71.2937L10.849 74.6251L10.8815 75.0894L10.8734 75.5374L10.8164 75.9691L0.895508 85.9877L1.90552 89.2784L3.08657 92.5446L6.32837 94.0352L9.28508 95.1266L11.9323 95.8597L14.2374 96.2832L14.6854 96.2914L15.1415 96.3402L15.5895 96.4298L16.0293 96.5683L16.461 96.7475L16.8764 96.9593L17.2837 97.2118L17.6665 97.4969L18.0249 97.8145L18.367 98.1648L18.6765 98.5476L18.8883 98.849L19.0838 99.1666L21.0386 102.18L23.1808 105.08L25.4941 107.866L27.9621 110.521L28.3123 110.879L28.6218 111.262L28.8988 111.661L29.1431 112.085L29.3386 112.517L29.5015 112.956L29.6237 113.396L29.697 113.852L29.7377 114.3L29.7296 114.74L29.6726 115.18L29.6074 115.506L29.5097 115.815L29.306 118.072V120.735L29.5748 123.798L30.1776 127.235L33.1261 129.247L36.1562 131.12L39.1455 130.013L41.6705 128.766L43.7556 127.455L45.4254 126.144L45.6942 125.818L45.9956 125.533L46.3214 125.28L46.6798 125.077L47.0626 124.906L47.4617 124.783L47.8853 124.702L48.317 124.661H48.7568L49.2048 124.71L49.6609 124.8L50.003 124.897L50.3451 125.028L53.6602 126.119L57.0079 126.991L60.3637 127.642L63.7277 128.066L64.192 128.115L64.6481 128.204L65.1043 128.343L65.5441 128.514L65.9677 128.734L66.3831 128.986L66.774 129.271L67.1406 129.589L67.4827 129.939L67.8003 130.322L68.0854 130.721L68.2728 131.047L68.4438 131.381L69.9425 133.417L71.8648 135.649L74.2269 138.019L77.0533 140.463L80.2462 140.007L83.3821 139.371L100.715 122.519L93.8406 119.815L95.1275 118.813L97.4082 116.728L97.7096 116.426L98.0435 116.174L98.4101 115.954L98.7929 115.783L99.2001 115.653L99.6237 115.563L100.064 115.522H100.512L100.968 115.563L101.424 115.653L101.88 115.783L102.246 115.864L102.564 116.068L104.918 116.679L107.655 117.151L110.758 117.412L114.187 117.404L131.52 100.551L134.445 95.0289L108.298 98.3114L108.258 98.1648L93.9139 104.217L73.95 101.912L49.1885 86.6393L35.6837 62.8716L42.5827 35.6828L59.4596 0.462891Z" fill="white"/>
</mask>
<g mask="url(#mask0_3282_122325)">
<path d="M84.1071 112.42L108.266 121.07L68.0692 158.489L63.7522 134.559L84.1071 112.42Z" fill="#5865F2"/>
<path d="M53.489 114.268L36.156 131.121L66.3748 133.426L86.1351 110.79L62.4243 102.278L53.489 114.268Z" fill="#2D35AD"/>
<path d="M30.1367 127.275L35.5533 131.975L53.4891 114.267L47.5268 110.374L30.1367 127.275Z" fill="#5865F2"/>
<path d="M109.056 98.6932L90.2727 117.012L121.225 117.851L140.985 95.2152L117.266 86.6953" fill="#2D35AD"/>
<path d="M21.1361 75.6924L0.895264 95.3712L16.8517 98.7841L35.3251 80.3596L21.1361 75.6924Z" fill="#612CAF"/>
<path d="M10.8161 75.9686L0.895264 85.9872L3.08633 92.5441L3.07004 85.9302L18.2283 69.1348L10.8161 75.9686Z" fill="#FF4CD2"/>
<path d="M24.1418 31.1299L29.8353 42.1992L11.362 60.6319L3.89282 50.8087L24.1418 31.1299Z" fill="#612CAF"/>
<path d="M33.1589 7.31348L-10.5972 39.8129L2.45147 46.0521L20.3058 29.2893L33.1589 7.31348Z" fill="#FF4CD2"/>
<path d="M46.9568 96.5518L28.3286 114.325L26.9114 130.411L47.5106 110.382L46.9568 96.5518Z" fill="#CA9EF9"/>
<path d="M94.3863 123.611L76.2144 141.066L89.2711 147.306L105.407 119.84L93.5474 124.214" fill="#2D35AD"/>
<path d="M53.2124 1.66797L36.9952 19.8318L35.1381 28.6124L29.8682 29.2721L32.0592 13.6007L53.2124 1.66797Z" fill="#FF4CD2"/>
</g>
<path d="M107.077 26.8778L107.199 27.334L107.362 27.7738L107.565 28.2055L107.81 28.6291L108.095 29.0282L108.412 29.411L108.763 29.7694L111.288 32.4247L113.65 35.2185L115.833 38.1427L117.845 41.1808L118.04 41.4985L118.26 41.808L118.578 42.1908L118.928 42.5411L119.294 42.8587L119.694 43.152L120.101 43.4045L120.532 43.6163L120.98 43.7954L121.428 43.9258L121.893 44.0154L122.357 44.0642H122.821L125.183 44.4878L127.912 45.2209L130.966 46.3123L134.322 47.811L135.544 51.1261L136.595 54.4738L134.599 56.9663L132.604 58.9781L130.665 60.5664L128.841 61.7556L128.531 61.8778L128.238 62.0163L127.879 62.2362L127.546 62.4969L127.252 62.7901L126.992 63.1078L126.764 63.4661L126.584 63.8408L126.438 64.2481L126.34 64.6635L126.283 65.1115L126.267 65.5595L126.307 66.0319L126.478 69.4122L126.413 72.7598L126.128 76.0505L125.599 79.2842L125.534 79.61L125.493 79.9439L125.477 80.4001L125.509 80.8562L125.591 81.3123L125.705 81.7684L125.868 82.2083L126.071 82.6481L126.307 83.0717L126.584 83.4789L126.902 83.8618L127.252 84.2202L127.635 84.5623L129.289 86.509L131.015 88.9037L132.758 91.7382L134.444 95.0289L133.068 97.8471L131.52 100.551L128.091 100.559L124.996 100.299L122.251 99.8264L119.897 99.2155L119.579 99.0119L119.213 98.9304L118.757 98.8001L118.301 98.7105L117.845 98.6698H117.397L116.957 98.7105L116.533 98.8001L116.134 98.9304L115.743 99.1096L115.385 99.3214L115.043 99.5739L114.741 99.8753L112.461 101.969L110.017 103.866L107.419 105.569L104.682 107.067L104.389 107.214L104.112 107.377L103.778 107.63L103.485 107.915L103.216 108.24L102.996 108.582L102.808 108.957L102.662 109.356L102.556 109.772L102.499 110.212L102.483 110.66L102.507 111.116L102.589 111.588L102.548 113.901L102.271 116.524L101.676 119.408L100.715 122.519L97.5792 123.154L94.3863 123.61L91.5599 121.167L89.1978 118.797L87.2755 116.565L85.7768 114.529L85.6058 114.195L85.4184 113.877L85.1333 113.47L84.8157 113.087L84.4736 112.737L84.107 112.419L83.7161 112.134L83.3007 111.881L82.8771 111.661L82.4373 111.49L81.9811 111.352L81.525 111.262L81.0607 111.213L77.6968 110.79L74.3409 110.146L70.9932 109.267L67.6781 108.175L67.336 108.053L66.9939 107.947L66.5378 107.858L66.0898 107.809H65.65L65.2183 107.849L64.7947 107.931L64.3956 108.053L64.0128 108.224L63.6544 108.428L63.3286 108.68L63.0272 108.965L62.7584 109.291L61.0887 110.603L59.0035 111.914L56.4785 113.16L53.4892 114.268L50.4591 112.394L47.5106 110.383L46.9078 106.945L46.639 103.883V101.219L46.8427 98.9712L46.9404 98.6535L47.0056 98.3277L47.0626 97.896L47.0707 97.448L47.03 97L46.9567 96.552L46.8345 96.104L46.6716 95.6642L46.4761 95.2325L46.2318 94.8171L45.963 94.4098L45.6453 94.027L45.2951 93.6686L42.8271 91.0214L40.5138 88.2358L38.3716 85.3279L36.4168 82.3142L36.2213 81.9965L36.0095 81.6951L35.7 81.3123L35.3661 80.9621L34.9995 80.6444L34.6167 80.3593L34.2094 80.1068L33.794 79.8951L33.3623 79.7159L32.9225 79.5855L32.4745 79.4878L32.0184 79.4389H31.5704L29.2653 79.0072L26.6262 78.2741L23.6614 77.1908L20.4196 75.6921L19.2385 72.434L18.2285 69.1352L20.1508 66.6998L22.0812 64.7205L23.9627 63.1648L25.7221 61.9919L26.0235 61.8778L26.3004 61.7394L26.6588 61.5194L26.9765 61.2588L27.2697 60.9737L27.5222 60.656L27.734 60.3058L27.9132 59.9311L28.0517 59.5401L28.1494 59.1247L28.2064 58.6849L28.2146 58.2369L28.182 57.7808L28.0191 54.4494L28.0761 51.1506L28.3612 47.9006L28.8662 44.724L28.9313 44.3982L28.9721 44.0642L28.9802 43.6163L28.9558 43.1683L28.8743 42.7203L28.7603 42.2723L28.6055 41.8325L28.41 41.4089L28.1738 40.9935L27.905 40.5944L27.6037 40.2197L27.2616 39.8613L26.895 39.5355L25.2904 37.6214L23.6206 35.2837L21.9346 32.5062L20.3055 29.2888L21.6332 26.5031L23.1238 23.8315L26.447 23.7745L29.4608 24.0026L32.1161 24.4343L34.4131 25.0126L34.7226 25.2162L35.081 25.2895L35.529 25.4117L35.9688 25.4931L36.4168 25.5339L36.8485 25.5257L37.2802 25.4769L37.6956 25.3873L38.0866 25.2488L38.4694 25.0777L38.8196 24.8578L39.1454 24.6053L39.4468 24.3039L41.6786 22.2106L44.0733 20.2965L46.6227 18.5779L49.3107 17.0547L49.5958 16.9081L49.8645 16.7452L50.1904 16.4845L50.4917 16.1995L50.7442 15.8818L50.9723 15.5315L51.1515 15.1569L51.2981 14.7577L51.3958 14.3423L51.461 13.9106L51.4773 13.4708L51.4447 13.0147L51.3714 12.5504L51.404 10.2534L51.6809 7.64697L52.2674 4.77171L53.2122 1.66838L56.3074 0.976039L59.4596 0.462891L62.2616 2.84129L64.6074 5.16268L66.5134 7.35375L68.0039 9.36561L68.175 9.69142L68.3623 10.0091L68.6474 10.4082L68.9569 10.7829L69.299 11.125L69.6656 11.4426L70.0565 11.7196L70.4638 11.9639L70.8955 12.1757L71.3353 12.3386L71.7833 12.4689L72.2395 12.5585L72.7037 12.5993L76.0596 12.9658L79.4235 13.5685L82.7712 14.3912L86.1026 15.4419L86.4447 15.5641L86.795 15.6619L87.2511 15.7433L87.6991 15.784H88.1471L88.5869 15.7352L89.0023 15.6456L89.4096 15.5153L89.7924 15.3442L90.1508 15.1324L90.4847 14.8799L90.7943 14.5867L91.0631 14.2527L92.741 12.9088L94.8506 11.5567L97.4082 10.2697L100.43 9.10497L103.509 10.9376L106.506 12.9332L107.125 16.3949L107.394 19.4738L107.402 22.1617L107.191 24.4424L107.093 24.7601L107.02 25.0859L106.971 25.5257L106.963 25.9737L106.995 26.4298L107.077 26.8778Z" fill="#CA9EF9"/>
<path d="M107.077 26.8778L107.199 27.334L107.362 27.7738L107.565 28.2055L107.81 28.6291L108.095 29.0282L108.412 29.411L108.763 29.7694L111.288 32.4247L113.65 35.2185L115.833 38.1427L117.845 41.1808L118.04 41.4985L118.26 41.808L118.578 42.1908L118.928 42.5411L119.294 42.8587L119.694 43.152L120.101 43.4045L120.532 43.6163L120.98 43.7954L121.428 43.9258L121.893 44.0154L122.357 44.0642H122.821L125.183 44.4878L127.912 45.2209L130.966 46.3123L134.322 47.811L135.544 51.1261L136.595 54.4738L134.599 56.9663L132.604 58.9781L130.665 60.5664L128.841 61.7556L128.531 61.8778L128.238 62.0163L127.879 62.2362L127.546 62.4969L127.252 62.7901L126.992 63.1078L126.764 63.4661L126.584 63.8408L126.438 64.2481L126.34 64.6635L126.283 65.1115L126.267 65.5595L126.307 66.0319L126.478 69.4122L126.413 72.7598L126.128 76.0505L125.599 79.2842L125.534 79.61L125.493 79.9439L125.477 80.4001L125.509 80.8562L125.591 81.3123L125.705 81.7684L125.868 82.2083L126.071 82.6481L126.307 83.0717L126.584 83.4789L126.902 83.8618L127.252 84.2202L127.635 84.5623L129.289 86.509L131.015 88.9037L132.758 91.7382L134.444 95.0289L133.068 97.8471L131.52 100.551L128.091 100.559L124.996 100.299L122.251 99.8264L119.897 99.2155L119.579 99.0119L119.213 98.9304L118.757 98.8001L118.301 98.7105L117.845 98.6698H117.397L116.957 98.7105L116.533 98.8001L116.134 98.9304L115.743 99.1096L115.385 99.3214L115.043 99.5739L114.741 99.8753L112.461 101.969L110.017 103.866L107.419 105.569L104.682 107.067L104.389 107.214L104.112 107.377L103.778 107.63L103.485 107.915L103.216 108.24L102.996 108.582L102.808 108.957L102.662 109.356L102.556 109.772L102.499 110.212L102.483 110.66L102.507 111.116L102.589 111.588L102.548 113.901L102.271 116.524L101.676 119.408L100.715 122.519L97.5792 123.154L94.3863 123.61L91.5599 121.167L89.1978 118.797L87.2755 116.565L85.7768 114.529L85.6058 114.195L85.4184 113.877L85.1333 113.47L84.8157 113.087L84.4736 112.737L84.107 112.419L83.7161 112.134L83.3007 111.881L82.8771 111.661L82.4373 111.49L81.9811 111.352L81.525 111.262L81.0607 111.213L77.6968 110.79L74.3409 110.146L70.9932 109.267L67.6781 108.175L67.336 108.053L66.9939 107.947L66.5378 107.858L66.0898 107.809H65.65L65.2183 107.849L64.7947 107.931L64.3956 108.053L64.0128 108.224L63.6544 108.428L63.3286 108.68L63.0272 108.965L62.7584 109.291L61.0887 110.603L59.0035 111.914L56.4785 113.16L53.4892 114.268L50.4591 112.394L47.5106 110.383L46.9078 106.945L46.639 103.883V101.219L46.8427 98.9712L46.9404 98.6535L47.0056 98.3277L47.0626 97.896L47.0707 97.448L47.03 97L46.9567 96.552L46.8345 96.104L46.6716 95.6642L46.4761 95.2325L46.2318 94.8171L45.963 94.4098L45.6453 94.027L45.2951 93.6686L42.8271 91.0214L40.5138 88.2358L38.3716 85.3279L36.4168 82.3142L36.2213 81.9965L36.0095 81.6951L35.7 81.3123L35.3661 80.9621L34.9995 80.6444L34.6167 80.3593L34.2094 80.1068L33.794 79.8951L33.3623 79.7159L32.9225 79.5855L32.4745 79.4878L32.0184 79.4389H31.5704L29.2653 79.0072L26.6262 78.2741L23.6614 77.1908L20.4196 75.6921L19.2385 72.434L18.2285 69.1352L20.1508 66.6998L22.0812 64.7205L23.9627 63.1648L25.7221 61.9919L26.0235 61.8778L26.3004 61.7394L26.6588 61.5194L26.9765 61.2588L27.2697 60.9737L27.5222 60.656L27.734 60.3058L27.9132 59.9311L28.0517 59.5401L28.1494 59.1247L28.2064 58.6849L28.2146 58.2369L28.182 57.7808L28.0191 54.4494L28.0761 51.1506L28.3612 47.9006L28.8662 44.724L28.9313 44.3982L28.9721 44.0642L28.9802 43.6163L28.9558 43.1683L28.8743 42.7203L28.7603 42.2723L28.6055 41.8325L28.41 41.4089L28.1738 40.9935L27.905 40.5944L27.6037 40.2197L27.2616 39.8613L26.895 39.5355L25.2904 37.6214L23.6206 35.2837L21.9346 32.5062L20.3055 29.2888L21.6332 26.5031L23.1238 23.8315L26.447 23.7745L29.4608 24.0026L32.1161 24.4343L34.4131 25.0126L34.7226 25.2162L35.081 25.2895L35.529 25.4117L35.9688 25.4931L36.4168 25.5339L36.8485 25.5257L37.2802 25.4769L37.6956 25.3873L38.0866 25.2488L38.4694 25.0777L38.8196 24.8578L39.1454 24.6053L39.4468 24.3039L41.6786 22.2106L44.0733 20.2965L46.6227 18.5779L49.3107 17.0547L49.5958 16.9081L49.8645 16.7452L50.1904 16.4845L50.4917 16.1995L50.7442 15.8818L50.9723 15.5315L51.1515 15.1569L51.2981 14.7577L51.3958 14.3423L51.461 13.9106L51.4773 13.4708L51.4447 13.0147L51.3714 12.5504L51.404 10.2534L51.6809 7.64697L52.2674 4.77171L53.2122 1.66838L56.3074 0.976039L59.4596 0.462891L62.2616 2.84129L64.6074 5.16268L66.5134 7.35375L68.0039 9.36561L68.175 9.69142L68.3623 10.0091L68.6474 10.4082L68.9569 10.7829L69.299 11.125L69.6656 11.4426L70.0565 11.7196L70.4638 11.9639L70.8955 12.1757L71.3353 12.3386L71.7833 12.4689L72.2395 12.5585L72.7037 12.5993L76.0596 12.9658L79.4235 13.5685L82.7712 14.3912L86.1026 15.4419L86.4447 15.5641L86.795 15.6619L87.2511 15.7433L87.6991 15.784H88.1471L88.5869 15.7352L89.0023 15.6456L89.4096 15.5153L89.7924 15.3442L90.1508 15.1324L90.4847 14.8799L90.7943 14.5867L91.0631 14.2527L92.741 12.9088L94.8506 11.5567L97.4082 10.2697L100.43 9.10497L103.509 10.9376L106.506 12.9332L107.125 16.3949L107.394 19.4738L107.402 22.1617L107.191 24.4424L107.093 24.7601L107.02 25.0859L106.971 25.5257L106.963 25.9737L106.995 26.4298L107.077 26.8778Z" fill="#E6E8FF"/>
<mask id="mask1_3282_122325" style="mask-type:luminance" maskUnits="userSpaceOnUse" x="18" y="0" width="119" height="124">
<path d="M56.3078 0.976039L53.2121 1.66806L52.2671 4.77114L51.6807 7.64697L51.4043 10.253L51.3713 12.5505L51.4446 13.0145L51.4776 13.4705L51.4608 13.9103L51.3963 14.3421L51.298 14.7577L51.1514 15.1565L50.9725 15.5311L50.7446 15.8815L50.4916 16.199L50.1904 16.4841L49.8649 16.7451L49.5958 16.9078L49.3107 17.0545L46.6225 18.5778L44.0736 20.2961L41.6787 22.2101L39.4472 24.3038L39.1452 24.6051L38.8197 24.8572L38.4693 25.0772L38.0866 25.2487L37.6959 25.3873L37.2803 25.4767L36.8485 25.5258L36.4167 25.5339L35.9688 25.4928L35.529 25.4114L35.0811 25.289L34.7226 25.2157L34.4132 25.0127L32.1165 24.4343L29.4606 24.0025L26.447 23.7745L23.124 23.831L21.6336 26.503L20.3053 29.2887L21.9349 32.5061L23.621 35.2837L25.2902 37.6215L26.8949 39.5355L27.2614 39.861L27.6037 40.2195L27.905 40.5941L28.1741 40.9936L28.4101 41.4085L28.6058 41.8322L28.7605 42.272L28.8742 42.72L28.9555 43.1679L28.9804 43.6158L28.9724 44.0637L28.9313 44.398L28.8661 44.7234L28.361 47.9006L28.0758 51.1503L28.0194 54.4491L28.1821 57.7809L28.2144 58.2368L28.2063 58.6847L28.1491 59.1246L28.0517 59.5402L27.9131 59.931L27.7342 60.3056L27.5224 60.656L27.2695 60.9734L26.9762 61.2585L26.6588 61.5195L26.3003 61.7394L26.0232 61.8773L25.722 61.9916L23.9626 63.1645L22.0815 64.7201L20.1506 66.6994L18.2285 69.1347L19.2387 72.4335L20.4197 75.692L23.6613 77.1904L26.6266 78.2738L29.2656 79.0069L31.5704 79.4387H32.0183L32.4743 79.4878L32.9229 79.5853L33.3627 79.7158L33.7938 79.8946L34.2094 80.1065L34.617 80.3594L34.9997 80.6438L35.3662 80.962L35.6998 81.3124L36.0099 81.6951L36.2217 81.9964L36.4167 82.3138L38.3718 85.3274L40.5138 88.2355L42.8274 91.0212L45.2949 93.6683L45.6453 94.0268L45.9627 94.4094L46.2318 94.817L46.4759 95.2319L46.6716 95.6637L46.8344 96.1035L46.9568 96.5522L47.0301 97.0001L47.0711 97.448L47.0623 97.8959L47.0059 98.3277L46.9407 98.6532L46.8424 98.9706L46.6394 101.219V103.882L46.9077 106.945L47.511 110.382L50.4594 112.395L53.4892 114.268L56.4786 113.16L59.0033 111.914L61.0889 110.602L62.7588 109.291L63.0271 108.965L63.3284 108.68L63.6546 108.427L64.0131 108.224L64.3958 108.053L64.7946 107.931L65.2183 107.85L65.6501 107.808H66.0899L66.5378 107.858L66.9938 107.947L67.3361 108.053L67.6785 108.175L70.9934 109.267L74.3413 110.146L77.6966 110.79L81.0606 111.213L81.5254 111.262L81.9814 111.351L82.4374 111.49L82.8772 111.661L83.3009 111.881L83.7158 112.134L84.1073 112.419L84.4738 112.736L84.8154 113.087L85.1336 113.469L85.4187 113.877L85.6057 114.194L85.7772 114.529L87.2756 116.564L89.1977 118.796L91.5597 121.166L94.3864 123.611L97.5796 123.154L100.715 122.519L101.676 119.407L102.271 116.524L102.548 113.901L102.589 111.588L102.507 111.115L102.482 110.659L102.499 110.211L102.556 109.772L102.662 109.356L102.809 108.957L102.996 108.583L103.215 108.24L103.485 107.914L103.778 107.63L104.112 107.377L104.388 107.214L104.682 107.067L107.419 105.568L110.017 103.866L112.461 101.968L114.742 99.8752L115.043 99.5739L115.384 99.321L115.743 99.1091L116.134 98.9303L116.533 98.7998L116.957 98.7103L117.397 98.6693H117.845L118.301 98.7103L118.757 98.7998L119.213 98.9303L119.58 99.0116L119.897 99.2154L122.251 99.8261L124.996 100.299L128.091 100.559L131.521 100.551L133.068 97.8468L134.444 95.0289L132.758 91.7381L131.016 88.9033L129.289 86.5084L127.635 84.5621L127.252 84.2198L126.902 83.8613L126.584 83.4786L126.307 83.0718L126.071 82.6481L125.867 82.2082L125.705 81.7684L125.591 81.3124L125.51 80.8557L125.477 80.3997L125.493 79.9438L125.534 79.6095L125.599 79.284L126.128 76.0504L126.413 72.7597L126.479 69.4118L126.307 66.0316L126.267 65.5595L126.283 65.1116L126.34 64.6629L126.438 64.248L126.584 63.8404L126.764 63.4658L126.992 63.1074L127.252 62.7899L127.545 62.4967L127.88 62.2357L128.238 62.0158L128.531 61.8773L128.841 61.7556L130.665 60.5665L132.604 58.978L134.6 56.9657L136.595 54.4733L135.544 51.1261L134.323 47.8111L130.967 46.312L127.912 45.2205L125.183 44.4874L122.821 44.0637H122.357L121.893 44.0153L121.429 43.9259L120.981 43.7954L120.533 43.6158L120.101 43.4046L119.693 43.1517L119.295 42.8585L118.928 42.5411L118.578 42.1907L118.26 41.808L118.04 41.4979L117.845 41.1805L115.833 38.1427L113.65 35.2185L111.288 32.4247L108.763 29.7688L108.412 29.4111L108.095 29.0277L107.81 28.6289L107.566 28.2052L107.362 27.7734L107.199 27.3336L107.077 26.8776L106.995 26.4297L106.963 25.9737L106.971 25.5258L107.019 25.086L107.093 24.7598L107.191 24.4423L107.403 22.1618L107.394 19.4736L107.126 16.3947L106.506 12.9331L103.509 10.9377L100.43 9.10505L97.4081 10.2692L94.8504 11.5564L92.7414 12.9082L91.0634 14.2527L90.7943 14.5862L90.485 14.8794L90.1507 15.1323L89.7922 15.3442L89.4096 15.515L89.0027 15.6455L88.5871 15.7349L88.1472 15.784H87.6993L87.2514 15.743L86.7947 15.6616L86.445 15.5641L86.1027 15.4417L82.7716 14.3912L79.4237 13.568L76.0596 12.9654L72.7037 12.5989L72.2396 12.5585L71.7836 12.4684L71.3357 12.3386L70.8959 12.1751L70.4641 11.964L70.0565 11.7192L69.6658 11.4421L69.2993 11.1247L68.9569 10.7823L68.6476 10.4077L68.3624 10.0089L68.1748 9.6915L68.0039 9.36529L66.5136 7.35374L64.6076 5.1626L62.2618 2.84097L59.46 0.462891L56.3078 0.976039Z" fill="white"/>
</mask>
<g mask="url(#mask1_3282_122325)">
<path d="M23.1234 23.8311L25.7299 25.4927L24.2963 28.2865L20.3052 29.2884L23.1234 23.8311Z" fill="white"/>
<path d="M53.2117 1.66797L56.3313 2.95491L56.2743 15.9302L48.6992 15.6044L53.2117 1.66797Z" fill="white"/>
<path d="M18.228 69.1351L22.211 68.7197L23.5713 72.776L20.4191 75.692L18.228 69.1351Z" fill="#C3C8FC"/>
<path d="M43.6739 99.6794L51.6644 91.5342L50.9721 107.849L47.5103 110.382L43.6414 94.6619" fill="#C3C8FC"/>
<path d="M134.664 52.9512L136.594 54.4743L138.794 97.7336L134.444 95.0294L132.497 94.0927L120.784 83.96L121.664 55.8509L134.664 52.9512Z" fill="#A0A9FA"/>
<path d="M94.386 123.61L62.53 114.504L67.914 101.911L99.4767 103.5L119.025 92.0801L116.826 100.429L105.626 113.388L103.215 125.239L94.386 123.61Z" fill="#A0A9FA"/>
<path d="M18.5298 77.4436L23.5717 72.7764L37.0683 74.3158L29.8679 83.6258L20.4195 75.6924" fill="#8892F7"/>
<path d="M116.305 62.9938C113.845 39.8288 93.9056 21.0459 71.7669 21.0459C49.6281 21.0459 36.213 38.0694 38.6728 61.2344C41.1327 84.3994 62.1636 100.592 82.0054 100.771C104.144 100.967 118.765 86.1669 116.305 62.9938Z" fill="#1D0066"/>
<mask id="mask2_3282_122325" style="mask-type:luminance" maskUnits="userSpaceOnUse" x="38" y="21" width="79" height="80">
<path d="M116.305 62.9938C113.845 39.8288 93.9056 21.0459 71.7669 21.0459C49.6281 21.0459 36.213 38.0694 38.6728 61.2344C41.1327 84.3994 62.1636 100.592 82.0054 100.771C104.144 100.967 118.765 86.1669 116.305 62.9938Z" fill="white"/>
</mask>
<g mask="url(#mask2_3282_122325)">
<path d="M109.104 37.9069L46.2393 85.7193L20.2153 44.9769L67.5472 5.13867L109.104 37.9069Z" fill="black"/>
<path d="M160.362 97.2692L97.5054 145.082L71.4814 104.347L118.805 64.501L160.362 97.2692Z" fill="#3E1689"/>
</g>
</g>
<path d="M75.3592 90.8184L71.9382 93.7995L72.9564 91.2012L75.3592 90.8184Z" fill="#2D35AD"/>
<path d="M102.081 67.4025C103.396 66.1288 103.196 63.7891 101.635 62.1765C100.073 60.564 97.7411 60.2893 96.4259 61.563C95.1106 62.8366 95.3103 65.1764 96.8719 66.7889C98.4335 68.4015 100.766 68.6762 102.081 67.4025Z" fill="#2D35AD"/>
<path d="M93.7917 58.9227L91.0142 61.3581L91.4621 58.7109L93.7917 58.9227Z" fill="#612CAF"/>
<path d="M74.8213 62.4584H67.7349C65.2343 62.4584 62.7826 60.3732 62.2613 57.7993L61.6016 54.5087C61.0803 51.9348 62.693 49.8496 65.1936 49.8496H72.28C74.7805 49.8496 77.2322 51.9348 77.7535 54.5087L78.4133 57.7993C78.9346 60.3732 77.3218 62.4584 74.8213 62.4584Z" fill="#612CAF"/>
<path d="M74.9435 65.5935H61.8215C60.2902 65.5935 59.101 65.3003 56.8041 66.522C55.4031 67.2632 54.7922 66.6361 54.0265 67.6135C53.2609 68.5909 51.9251 69.715 51.5667 70.0082C50.6463 70.7657 50.0598 71.7513 51.249 72.916C52.4382 74.0808 54.5397 76.3452 55.4194 77.0457C56.2991 77.7462 57.4394 78.0882 58.5879 77.0457C59.7363 76.0031 62.9863 73.0382 65.9023 73.2093C66.057 76.5162 65.7964 77.1597 66.277 78.7317C66.7575 80.3037 67.792 82.3401 69.7142 82.3401H85.4427C87.1939 82.3401 88.6519 81.4115 88.0573 78.7317C87.4627 76.0519 86.4527 73.2093 86.4527 73.2093C86.4527 73.2093 89.6619 74.0808 92.1136 73.6165C94.5653 73.1522 97.5302 71.0019 98.304 70.4236C99.5665 69.4869 103.354 66.7664 102.727 65.6505C102.1 64.5346 96.2351 63.1825 95.5997 62.5553C94.9644 61.9281 94.1255 61.6349 92.9688 62.873C91.8122 64.1111 90.6556 64.95 89.4012 65.1862C88.1469 65.4224 74.9435 65.5935 74.9435 65.5935Z" fill="#C3C8FC"/>
<path d="M83.0837 54.5617C83.7074 53.9578 83.6117 52.8473 82.8701 52.0814C82.1284 51.3155 81.0215 51.1843 80.3979 51.7882C79.7742 52.3922 79.8698 53.5027 80.6115 54.2686C81.3531 55.0345 82.46 55.1657 83.0837 54.5617Z" fill="#612CAF"/>
<path d="M83.0837 54.5617C83.7074 53.9578 83.6117 52.8473 82.8701 52.0814C82.1284 51.3155 81.0215 51.1843 80.3979 51.7882C79.7742 52.3922 79.8698 53.5027 80.6115 54.2686C81.3531 55.0345 82.46 55.1657 83.0837 54.5617Z" fill="#612CAF"/>
<path d="M58.4235 54.5666C59.0472 53.9626 58.9516 52.8522 58.2099 52.0863C57.4682 51.3204 56.3614 51.1891 55.7377 51.7931C55.114 52.3971 55.2096 53.5076 55.9513 54.2735C56.693 55.0394 57.7998 55.1706 58.4235 54.5666Z" fill="#612CAF"/>
<path d="M89.4337 59.0608H88.2771L86.8843 52.1455H88.0409C89.0835 52.1455 90.1098 53.017 90.3216 54.0922L90.9325 57.1222C91.1524 58.1974 90.4763 59.0689 89.4337 59.0689V59.0608Z" fill="#612CAF"/>
<path d="M67.2786 57.8135H66.0242C65.4296 57.8135 65.0468 58.3103 65.169 58.9212C65.2911 59.5321 65.8776 60.029 66.4722 60.029H67.7266C68.3212 60.029 68.704 59.5321 68.5818 58.9212C68.4596 58.3103 67.8732 57.8135 67.2786 57.8135Z" fill="#612CAF"/>
<path d="M74.6746 57.8135H73.4202C72.8256 57.8135 72.4428 58.3103 72.565 58.9212C72.6871 59.5321 73.2736 60.029 73.8682 60.029H75.1226C75.7172 60.029 76.1 59.5321 75.9778 58.9212C75.8556 58.3103 75.2692 57.8135 74.6746 57.8135Z" fill="#612CAF"/>
<path d="M92.9282 59.1677H90.5906L88.1226 46.9092H90.4602C92.0404 46.9092 93.5962 48.2287 93.922 49.8578L95.2008 56.2192C95.5266 57.8482 94.5084 59.1677 92.9282 59.1677Z" fill="#161A8A"/>
<path d="M90.9164 57.1633H89.7598L88.3669 50.248H89.5236C90.5662 50.248 91.5925 51.1196 91.8042 52.1948L92.4151 55.2248C92.635 56.2999 91.959 57.1715 90.9164 57.1715V57.1633Z" fill="#612CAF"/>
<path d="M54.4508 79.8576C55.766 78.5839 55.5663 76.2442 54.0047 74.6316C52.4432 73.0191 50.111 72.7444 48.7958 74.018C47.4805 75.2917 47.6802 77.6315 49.2418 79.244C50.8034 80.8566 53.1355 81.1313 54.4508 79.8576Z" fill="#2D35AD"/>
<path d="M69.0386 81.9974C68.1508 84.0337 67.5888 85.1984 67.4503 85.4509C67.3118 85.7034 67.1815 86.07 66.2204 85.6057C65.2592 85.1414 60.8608 83.1458 60.5268 82.9911C60.1929 82.8363 59.8915 82.82 59.3784 83.382C58.8652 83.9441 55.9329 88.0737 55.6804 88.6357C55.4279 89.1977 55.5501 90.5906 56.4135 91.2503C57.2769 91.9101 59.9241 90.9978 61.1052 91.4051C62.2862 91.8123 67.2222 93.9138 68.3381 94.2722C69.454 94.6306 71.8894 94.9483 72.9646 92.3499C74.0398 89.7516 76.4345 84.9622 76.4345 84.9622L79.2283 84.9867C79.2283 84.9867 93.4254 98.2715 93.9956 98.7765C94.5657 99.2815 95.4047 100.153 96.4798 99.2408C97.555 98.3285 100.748 94.8587 101.22 94.2966C101.693 93.7346 101.025 92.13 99.8438 91.8531C98.6628 91.5761 97.498 91.8123 96.0156 90.9245C94.5331 90.0367 85.9236 81.9892 85.9236 81.9892L72.3537 79.0977L69.0223 81.9892L69.0386 81.9974Z" fill="#2D35AD"/>
<mask id="mask3_3282_122325" style="mask-type:luminance" maskUnits="userSpaceOnUse" x="55" y="79" width="47" height="21">
<path d="M69.0384 81.9974C68.1505 84.0337 67.5885 85.1984 67.45 85.451C67.3116 85.7034 67.1812 86.07 66.2201 85.6057C65.259 85.1415 60.8606 83.1458 60.5266 82.9911C60.1926 82.8363 59.8913 82.82 59.3781 83.382C58.865 83.9441 55.9327 88.0737 55.6802 88.6357C55.4277 89.1977 55.5499 90.5906 56.4133 91.2503C57.2767 91.9101 59.9239 90.9978 61.1049 91.4051C62.286 91.8123 67.222 93.9138 68.3379 94.2722C69.4538 94.6307 71.8892 94.9483 72.9643 92.3499C74.0395 89.7516 76.4342 84.9622 76.4342 84.9622L79.228 84.9867C79.228 84.9867 93.4251 98.2715 93.9953 98.7765C94.5655 99.2815 95.4044 100.153 96.4796 99.2408C97.5548 98.3285 100.748 94.8587 101.22 94.2966C101.693 93.7346 101.025 92.13 99.8436 91.8531C98.6625 91.5761 97.4977 91.8123 96.0153 90.9245C94.5329 90.0367 85.9234 81.9892 85.9234 81.9892L72.3535 79.0977L69.0221 81.9892L69.0384 81.9974Z" fill="white"/>
</mask>
<g mask="url(#mask3_3282_122325)">
<path d="M82.5673 82.0938L79.2359 84.9853L77.0042 84.969L79.7654 82.0693L82.5673 82.0938Z" fill="#161A8A"/>
</g>
<path d="M85.5325 65.3077H63.4589C59.7936 65.3077 56.2016 62.2532 55.4359 58.482L53.0575 46.6714C52.3 42.9002 54.654 39.8457 58.3275 39.8457H80.401C84.0663 39.8457 87.6584 42.9002 88.424 46.6714L90.8024 58.482C91.5599 62.2532 89.206 65.3077 85.5325 65.3077Z" fill="#612CAF"/>
<path d="M90.8021 58.4824L88.4236 46.6718C87.6661 42.9006 84.0741 39.8461 80.4006 39.8461H58.5633L58.0583 37.875L54.6862 41.1494C54.564 41.2553 54.4418 41.3774 54.3278 41.4915L54.3033 41.5159C53.1549 42.7703 52.6336 44.6111 53.049 46.6718L55.4274 58.4824C56.1849 62.2536 59.7769 65.3081 63.4504 65.3081H85.524C89.1893 65.3081 91.5514 62.2536 90.7939 58.4824H90.8021Z" fill="#2D35AD"/>
<mask id="mask4_3282_122325" style="mask-type:luminance" maskUnits="userSpaceOnUse" x="52" y="37" width="39" height="29">
<path d="M90.8021 58.4834L88.4236 46.6728C87.6661 42.9016 84.0741 39.8471 80.4006 39.8471H58.5633L58.0583 37.876L54.6862 41.1504C54.564 41.2562 54.4418 41.3784 54.3278 41.4925L54.3033 41.5169C53.1549 42.7713 52.6336 44.6121 53.049 46.6728L55.4274 58.4834C56.1849 62.2546 59.7769 65.3091 63.4504 65.3091H85.524C89.1893 65.3091 91.5514 62.2546 90.7939 58.4834H90.8021Z" fill="white"/>
</mask>
<g mask="url(#mask4_3282_122325)">
<path d="M57.8385 38.0723C56.4375 39.7013 54.7677 41.4688 54.1568 42.5929C53.4726 43.8635 53.6193 46.584 53.6193 46.584L52.0146 46.356C52.0146 46.356 52.3812 41.5014 53.0328 40.6543C53.6844 39.8072 57.8385 38.0723 57.8385 38.0723Z" fill="#A056F2"/>
</g>
<path d="M76.8496 59.4359H69.7632C67.2627 59.4359 64.8109 57.3508 64.2897 54.7769L63.6299 51.4862C63.1086 48.9123 64.7214 46.8271 67.2219 46.8271H74.3083C76.8089 46.8271 79.2606 48.9123 79.7819 51.4862L80.4416 54.7769C80.9629 57.3508 79.3502 59.4359 76.8496 59.4359Z" fill="#612CAF"/>
<path d="M85.1039 51.5354C85.7276 50.9314 85.632 49.8209 84.8903 49.055C84.1487 48.2891 83.0418 48.1579 82.4181 48.7619C81.7944 49.3659 81.8901 50.4763 82.6317 51.2422C83.3734 52.0081 84.4803 52.1394 85.1039 51.5354Z" fill="#612CAF"/>
<path d="M85.1039 51.5354C85.7276 50.9314 85.632 49.8209 84.8903 49.055C84.1487 48.2891 83.0418 48.1579 82.4181 48.7619C81.7944 49.3659 81.8901 50.4763 82.6317 51.2422C83.3734 52.0081 84.4803 52.1394 85.1039 51.5354Z" fill="#612CAF"/>
<path d="M60.4528 51.5324C61.0765 50.9285 60.9809 49.818 60.2392 49.0521C59.4975 48.2862 58.3907 48.155 57.767 48.7589C57.1433 49.3629 57.2389 50.4734 57.9806 51.2393C58.7223 52.0052 59.8291 52.1364 60.4528 51.5324Z" fill="#612CAF"/>
<path d="M62.8073 80.3271L59.761 83.0314L62.8643 83.74L62.8073 80.3271Z" fill="#2D35AD"/>
<path d="M52.0558 70.8389L48.8547 73.9503L52.0558 74.1703V70.8389Z" fill="#2D35AD"/>
<path d="M57.6185 76.7605C57.6185 76.7605 54.4419 79.8557 54.4907 79.815C54.5396 79.7743 54.0183 76.2637 54.0183 76.2637L57.6103 76.7605H57.6185Z" fill="#2D35AD"/>
<path d="M69.3066 54.7852H68.0523C67.4577 54.7852 67.0749 55.282 67.197 55.8929C67.3192 56.5038 67.9057 57.0007 68.5003 57.0007H69.7546C70.3492 57.0007 70.7321 56.5038 70.6099 55.8929C70.4877 55.282 69.9012 54.7852 69.3066 54.7852Z" fill="#612CAF"/>
<path d="M76.6946 54.7852H75.4402C74.8456 54.7852 74.4628 55.282 74.585 55.8929C74.7072 56.5038 75.2936 57.0007 75.8882 57.0007H77.1426C77.7372 57.0007 78.12 56.5038 77.9978 55.8929C77.8756 55.282 77.2892 54.7852 76.6946 54.7852Z" fill="#612CAF"/>
<path d="M77.9406 57.9525H70.8543C68.3537 57.9525 65.902 55.8674 65.3807 53.2935L64.721 50.0028C64.1997 47.4289 65.8124 45.3438 68.313 45.3438H75.3993C77.8999 45.3438 80.3516 47.4289 80.8729 50.0028L81.5327 53.2935C82.054 55.8674 80.4412 57.9525 77.9406 57.9525Z" fill="#612CAF"/>
<path d="M70.3984 53.3018H69.1441C68.5495 53.3018 68.1667 53.7986 68.2888 54.4095C68.411 55.0204 68.9975 55.5173 69.5921 55.5173H70.8464C71.441 55.5173 71.8239 55.0204 71.7017 54.4095C71.5795 53.7986 70.993 53.3018 70.3984 53.3018Z" fill="#612CAF"/>
<path d="M77.7861 53.3018H76.5318C75.9372 53.3018 75.5543 53.7986 75.6765 54.4095C75.7987 55.0204 76.3852 55.5173 76.9798 55.5173H78.2341C78.8287 55.5173 79.2116 55.0204 79.0894 54.4095C78.9672 53.7986 78.3807 53.3018 77.7861 53.3018Z" fill="#612CAF"/>
<path d="M97.685 55.8177L94.5898 58.53L93.8975 55.4756L97.685 55.8177Z" fill="#161A8A"/>
<path d="M53.4405 47.4372H53.1473L52.5364 45.1484L49.653 47.8934C48.9606 48.4228 48.6185 49.3432 48.8303 50.3858L50.1091 56.7472C50.4349 58.3763 51.9906 59.6958 53.5708 59.6958H55.9085L53.4405 47.4372Z" fill="#2D35AD"/>
<mask id="mask5_3282_122325" style="mask-type:luminance" maskUnits="userSpaceOnUse" x="48" y="45" width="8" height="15">
<path d="M53.4405 47.4382H53.1473L52.5364 45.1494L49.653 47.8944C48.9606 48.4238 48.6185 49.3442 48.8303 50.3868L50.1091 56.7482C50.4349 58.3772 51.9906 59.6969 53.5708 59.6969H55.9085L53.4405 47.4382Z" fill="white"/>
</mask>
<g mask="url(#mask5_3282_122325)">
<path d="M52.544 46.2812C52.544 46.2812 51.8435 46.8432 50.3204 48.0731C49.3185 48.8876 49.4651 50.0606 49.7339 52.1539C50.0027 54.2472 50.581 58.3605 50.581 58.3605L49.5466 58.7759L47.1274 47.6088L53.7006 43.4141L52.5033 46.3871" fill="#A056F2"/>
</g>
<path d="M79.0898 58.4574H72.0035C69.5029 58.4574 67.0512 56.3723 66.5299 53.7984L65.8701 50.5077C65.3488 47.9338 66.9616 45.8486 69.4622 45.8486H76.5485C79.0491 45.8486 81.5008 47.9338 82.0221 50.5077L82.6819 53.7984C83.2031 56.3723 81.5904 58.4574 79.0898 58.4574Z" fill="#A0A9FA"/>
<path d="M87.3422 50.5598C87.9659 49.9558 87.8703 48.8453 87.1286 48.0794C86.3869 47.3136 85.2801 47.1823 84.6564 47.7863C84.0327 48.3903 84.1283 49.5008 84.87 50.2666C85.6117 51.0325 86.7185 51.1638 87.3422 50.5598Z" stroke="#1E1E1E" stroke-width="0.179195" stroke-miterlimit="10"/>
<path d="M87.3422 50.5598C87.9659 49.9558 87.8703 48.8453 87.1286 48.0794C86.3869 47.3136 85.2801 47.1823 84.6564 47.7863C84.0327 48.3903 84.1283 49.5008 84.87 50.2666C85.6117 51.0325 86.7185 51.1638 87.3422 50.5598Z" fill="black"/>
<path d="M62.6904 50.5647C63.3141 49.9607 63.2184 48.8502 62.4768 48.0843C61.7351 47.3184 60.6282 47.1872 60.0045 47.7912C59.3808 48.3951 59.4765 49.5056 60.2182 50.2715C60.9598 51.0374 62.0667 51.1686 62.6904 50.5647Z" fill="black"/>
<path d="M93.702 55.0608H92.5454L91.1526 48.1455H92.3092C93.3518 48.1455 94.3781 49.017 94.5899 50.0922L95.2008 53.1222C95.4207 54.1974 94.7446 55.0689 93.702 55.0689V55.0608Z" fill="#A0A9FA"/>
<path d="M71.5388 53.8145H70.2845C69.6899 53.8145 69.307 54.3113 69.4292 54.9222C69.5514 55.5331 70.1378 56.03 70.7324 56.03H71.9868C72.5814 56.03 72.9642 55.5331 72.8421 54.9222C72.7199 54.3113 72.1334 53.8145 71.5388 53.8145Z" fill="#5865F2"/>
<path d="M78.9346 53.8145H77.6802C77.0856 53.8145 76.7028 54.3113 76.825 54.9222C76.9471 55.5331 77.5336 56.03 78.1282 56.03H79.3826C79.9772 56.03 80.36 55.5331 80.2378 54.9222C80.1156 54.3113 79.5292 53.8145 78.9346 53.8145Z" fill="#5865F2"/>
<path d="M105.268 64.2813L101.823 67.6127L102.914 63.8008L105.268 64.2813Z" fill="#2D35AD"/>
<path d="M95.9666 56.6003H93.6289L91.1609 44.3418H93.4986C95.0787 44.3418 96.6345 45.6613 96.9603 47.2904L98.2391 53.6518C98.5649 55.2808 97.5467 56.6003 95.9666 56.6003Z" fill="url(#paint0_linear_3282_122325)"/>
<path d="M94.2475 53.928H93.0908L91.698 47.0127H92.8546C93.8972 47.0127 94.9235 47.8842 95.1353 48.9594L95.7462 51.9894C95.9661 53.0646 95.29 53.9361 94.2475 53.9361V53.928Z" fill="#A0A9FA"/>
<path d="M105.398 64.1623C106.713 62.8886 106.513 60.5489 104.952 58.9363C103.39 57.3238 101.058 57.049 99.7428 58.3227C98.4275 59.5964 98.6272 61.9361 100.189 63.5487C101.75 65.1612 104.083 65.436 105.398 64.1623Z" fill="#E6E8FF"/>
<mask id="mask6_3282_122325" style="mask-type:luminance" maskUnits="userSpaceOnUse" x="98" y="57" width="9" height="8">
<path d="M99.7427 58.3245C101.058 57.0508 103.39 57.3256 104.952 58.9382C106.513 60.5507 106.713 62.8905 105.398 64.1641C104.082 65.4378 101.75 65.1631 100.189 63.5505C98.6271 61.938 98.4274 59.5982 99.7427 58.3245Z" fill="white"/>
</mask>
<g mask="url(#mask6_3282_122325)">
<path d="M104.691 64.8674C106.007 63.5937 105.807 61.2539 104.245 59.6414C102.684 58.0288 100.352 57.7541 99.0365 59.0278C97.7212 60.3015 97.9209 62.6412 99.4825 64.2538C101.044 65.8663 103.376 66.141 104.691 64.8674Z" fill="#5865F2"/>
</g>
<path d="M57.7733 76.6232C59.0885 75.3495 58.8888 73.0098 57.3272 71.3972C55.7657 69.7847 53.4335 69.51 52.1183 70.7837C50.803 72.0573 51.0027 74.3971 52.5643 76.0096C54.1259 77.6222 56.458 77.8969 57.7733 76.6232Z" fill="#5865F2"/>
<path d="M72.3616 79.1058C71.4738 81.1421 70.9118 82.3069 70.7733 82.5594C70.6348 82.8119 70.5045 83.1784 69.5434 82.7141C68.5822 82.2499 64.1838 80.2543 63.8499 80.0995C63.5159 79.9448 63.2145 79.9285 62.7014 80.4905C62.1882 81.0525 59.2559 85.1821 59.0034 85.7442C58.7509 86.3062 58.8731 87.699 59.7365 88.3588C60.5999 89.0185 63.2471 88.1063 64.4282 88.5135C65.6092 88.9208 70.5697 91.0304 71.6611 91.3806C72.7526 91.7309 75.2124 92.0567 76.2876 89.4584C77.3709 86.86 79.7575 82.0707 79.7575 82.0707L82.5513 82.0951C82.5513 82.0951 96.7484 95.3799 97.3186 95.885C97.8887 96.39 98.7277 97.2615 99.8028 96.3492C100.878 95.437 104.071 91.9671 104.543 91.4051C105.016 90.8431 104.348 89.2385 103.167 88.9615C101.986 88.6846 100.821 88.9208 99.3386 88.033C97.8561 87.1451 89.2466 79.0977 89.2466 79.0977H72.3535L72.3616 79.1058Z" fill="#5865F2"/>
<mask id="mask7_3282_122325" style="mask-type:luminance" maskUnits="userSpaceOnUse" x="58" y="79" width="47" height="18">
<path d="M72.3614 79.1057C71.4735 81.142 70.9115 82.3068 70.773 82.5593C70.6346 82.8118 70.5042 83.1783 69.5431 82.7141C68.582 82.2498 64.1836 80.2542 63.8496 80.0994C63.5157 79.9447 63.2143 79.9284 62.7011 80.4904C62.188 81.0524 59.2557 85.1821 59.0032 85.7441C58.7507 86.3061 58.8729 87.6989 59.7363 88.3587C60.5997 89.0185 63.2469 88.1063 64.4279 88.5135C65.609 88.9208 70.5694 91.0304 71.6609 91.3806C72.7523 91.7309 75.2122 92.0567 76.2874 89.4584C77.3707 86.86 79.7572 82.0707 79.7572 82.0707L82.551 82.0951C82.551 82.0951 96.7481 95.3799 97.3183 95.885C97.8885 96.39 98.7274 97.2615 99.8026 96.3492C100.878 95.437 104.071 91.9671 104.543 91.4051C105.016 90.8431 104.348 89.2385 103.167 88.9615C101.986 88.6846 100.821 88.9208 99.3383 88.033C97.8559 87.1451 89.2464 79.0977 89.2464 79.0977H72.3532L72.3614 79.1057Z" fill="white"/>
</mask>
<g mask="url(#mask7_3282_122325)">
<path d="M87.4546 79.1052C87.4546 79.1052 97.685 87.8939 98.695 88.8225C99.705 89.751 102.491 89.2704 103.167 89.7184C103.843 90.1664 104.413 89.9465 104.25 91.9095C104.714 92.6996 107.296 90.7936 107.296 90.7936L100.976 85.3607L89.3443 77.916L88.1306 79.1052" fill="#E6E8FF"/>
<path d="M79.7654 82.071L78.5355 82.0547C78.5355 82.0547 76.4666 87.6342 75.6521 89.0677C74.8375 90.5013 74.4221 91.5683 70.6265 91.161C70.6265 92.8634 76.8738 92.7819 76.8738 92.7819L79.7735 82.071" fill="#5865F2"/>
</g>
<path d="M77.697 32.0352L78.1695 34.2018L76.9558 32.923L77.697 32.0352Z" fill="#8AF7B5"/>
<path d="M59.6304 37.4024C60.4042 36.71 65.0388 32.2627 66.6027 31.2527C68.1666 30.2427 69.9422 30.0146 72.8745 30.0146C75.8068 30.0146 78.4947 31.4401 77.4847 32.6374C76.4747 33.8348 73.0293 37.3942 73.0293 37.3942H59.6385L59.6304 37.4024Z" fill="#35ED7E"/>
<mask id="mask8_3282_122325" style="mask-type:luminance" maskUnits="userSpaceOnUse" x="59" y="30" width="19" height="8">
<path d="M59.6304 37.4033C60.4042 36.711 65.0388 32.2637 66.6027 31.2537C68.1666 30.2437 69.9422 30.0156 72.8745 30.0156C75.8068 30.0156 78.4947 31.441 77.4847 32.6384C76.4747 33.8357 73.0293 37.3952 73.0293 37.3952H59.6385L59.6304 37.4033Z" fill="white"/>
</mask>
<g mask="url(#mask8_3282_122325)">
<path d="M68.3621 30.2835L68.6634 33.3787L78.4377 34.2014L77.9001 29.3142L69.8526 28.8174" fill="#8AF7B5"/>
<path d="M71.8892 29.6477L72.1905 32.7429L76.5727 32.7836L76.2469 28.9961L72.5408 29.1427" fill="#E6FFF0"/>
</g>
<path d="M62.1718 37.4031C62.0008 37.4031 65.5113 34.3975 67.0671 33.3875C68.6228 32.3775 70.4066 32.1494 73.3389 32.1494C76.2712 32.1494 78.9591 33.5748 77.9491 34.7722C76.9391 35.9695 74.7725 37.3949 74.7725 37.3949H62.1718V37.4031Z" fill="#006638"/>
<path d="M73.1678 35.0488C73.7298 34.5763 73.6565 34.0713 73.0212 33.9492C72.0437 33.7618 71.2618 34.2017 70.6102 34.7474L62.7908 41.3369H65.5601L73.1596 35.0488H73.1678Z" fill="#108E4D"/>
<path d="M65.4055 62.017C63.8742 62.017 62.4243 62.0659 60.1274 63.2877C57.8304 64.5094 55.8023 66.0163 54.8819 66.7738C53.9615 67.5313 53.375 68.5169 54.5642 69.6817C55.7534 70.8464 57.8549 73.1108 58.7346 73.8113C59.6143 74.5118 60.7546 74.8539 61.9031 73.8113C63.0515 72.7687 66.3015 69.8038 69.2175 69.9749C69.3722 73.2818 69.1116 73.9253 69.5921 75.4973C70.0727 77.0694 71.1071 79.1057 73.0294 79.1057H88.7578C90.5091 79.1057 91.9671 78.1771 91.3725 75.4973C90.7779 72.8176 89.7678 69.9749 89.7678 69.9749C89.7678 69.9749 92.9771 70.8464 95.4288 70.3821C97.8805 69.9179 100.845 67.7675 101.619 67.1892C102.882 66.2525 102.971 65.4299 102.352 64.314C101.733 63.1981 99.5503 59.9481 98.9149 59.3209C98.2796 58.6938 97.4406 58.4005 96.284 59.6386C95.1274 60.8767 93.9708 61.7156 92.7164 61.9518C91.4621 62.1881 66.9287 62.017 65.3974 62.017H65.4055Z" fill="#E6E8FF"/>
<mask id="mask9_3282_122325" style="mask-type:luminance" maskUnits="userSpaceOnUse" x="53" y="58" width="50" height="22">
<path d="M65.4055 62.018C63.8742 62.018 62.4243 62.0669 60.1274 63.2886C57.8304 64.5104 55.8023 66.0173 54.8819 66.7748C53.9615 67.5324 53.375 68.5179 54.5642 69.6826C55.7534 70.8474 57.8549 73.1118 58.7346 73.8123C59.6143 74.5128 60.7546 74.8549 61.9031 73.8123C63.0515 72.7697 66.3015 69.8048 69.2175 69.9759C69.3722 73.2827 69.1116 73.9263 69.5921 75.4983C70.0727 77.0704 71.1071 79.1067 73.0294 79.1067H88.7578C90.5091 79.1067 91.9671 78.1781 91.3725 75.4983C90.7779 72.8185 89.7678 69.9759 89.7678 69.9759C89.7678 69.9759 92.9771 70.8473 95.4288 70.3831C97.8805 69.9188 100.845 67.7685 101.619 67.1902C102.882 66.2535 102.971 65.4308 102.352 64.3149C101.733 63.199 99.5503 59.9491 98.9149 59.3219C98.2796 58.6947 97.4406 58.4015 96.284 59.6396C95.1274 60.8777 93.9708 61.7166 92.7164 61.9528C91.4621 62.189 66.9287 62.018 65.3974 62.018H65.4055Z" fill="white"/>
</mask>
<g mask="url(#mask9_3282_122325)">
<path d="M77.3872 57.8145L81.5087 81.0528" stroke="#ACB3FB" stroke-width="1.80009" stroke-miterlimit="10"/>
</g>
<path d="M88.8555 62.0752H66.7819C63.1166 62.0752 59.5246 59.0208 58.7589 55.2495L56.3805 43.439C55.623 39.6677 57.977 36.6133 61.6505 36.6133H83.724C87.3893 36.6133 90.9814 39.6677 91.747 43.439L94.1254 55.2495C94.883 59.0208 92.529 62.0752 88.8555 62.0752Z" fill="url(#paint1_linear_3282_122325)"/>
<mask id="mask10_3282_122325" style="mask-type:luminance" maskUnits="userSpaceOnUse" x="56" y="36" width="39" height="27">
<path d="M88.8555 62.0743H66.7819C63.1166 62.0743 59.5246 59.0198 58.7589 55.2486L56.3805 43.438C55.623 39.6668 57.977 36.6123 61.6505 36.6123H83.724C87.3893 36.6123 90.9814 39.6668 91.747 43.438L94.1254 55.2486C94.883 59.0198 92.529 62.0743 88.8555 62.0743Z" fill="white"/>
</mask>
<g mask="url(#mask10_3282_122325)">
<path d="M88.8555 62.0752H66.7819C63.1166 62.0752 59.5246 59.0208 58.7589 55.2495L56.3805 43.439C55.623 39.6677 57.977 36.6133 61.6505 36.6133H83.724C87.3893 36.6133 90.9814 39.6677 91.747 43.439L94.1254 55.2495C94.883 59.0208 92.529 62.0752 88.8555 62.0752Z" fill="url(#paint2_linear_3282_122325)"/>
<path d="M77.8918 36.6042C81.1662 36.9707 85.9963 36.3598 88.8472 39.8379C91.5025 43.0878 93.0338 49.1723 93.0338 49.1723L92.4555 36.5635L77.8918 36.6042Z" fill="#E6E8FF"/>
</g>
<path d="M80.1806 56.1947H73.0943C70.5937 56.1947 68.142 54.1096 67.6207 51.5357L66.9609 48.245C66.4396 45.6711 68.0524 43.5859 70.553 43.5859H77.6393C80.1399 43.5859 82.5916 45.6711 83.1129 48.245L83.7727 51.5357C84.294 54.1096 82.6812 56.1947 80.1806 56.1947Z" fill="#A0A9FA"/>
<path d="M88.4411 48.2951C89.0648 47.6912 88.9692 46.5807 88.2275 45.8148C87.4858 45.0489 86.379 44.9177 85.7553 45.5216C85.1316 46.1256 85.2272 47.2361 85.9689 48.002C86.7106 48.7679 87.8174 48.8991 88.4411 48.2951Z" stroke="#1E1E1E" stroke-width="0.179195" stroke-miterlimit="10"/>
<path d="M88.4411 48.2951C89.0648 47.6912 88.9692 46.5807 88.2275 45.8148C87.4858 45.0489 86.379 44.9177 85.7553 45.5216C85.1316 46.1256 85.2272 47.2361 85.9689 48.002C86.7106 48.7679 87.8174 48.8991 88.4411 48.2951Z" fill="black"/>
<path d="M63.7807 48.2942C64.4044 47.6902 64.3088 46.5797 63.5671 45.8138C62.8254 45.0479 61.7186 44.9167 61.0949 45.5207C60.4712 46.1246 60.5668 47.2351 61.3085 48.001C62.0502 48.7669 63.157 48.8981 63.7807 48.2942Z" fill="black"/>
<path d="M54.3364 44.3418H56.6741L59.1421 56.6003H56.8044C55.2242 56.6003 53.6685 55.2808 53.3427 53.6518L52.0639 47.2904C51.7381 45.6613 52.7562 44.3418 54.3364 44.3418Z" fill="url(#paint3_linear_3282_122325)"/>
<path d="M56.0551 47.014H57.2118L58.6046 53.9293H57.448C56.4054 53.9293 55.3791 53.0578 55.1673 51.9826L54.5564 48.9526C54.3365 47.8774 55.0125 47.0059 56.0551 47.0059V47.014Z" fill="#A0A9FA"/>
<path d="M84.3596 53.1309L83.04 54.9228L83.2763 53.1716L84.3596 53.1309Z" fill="#A0A9FA"/>
<path d="M72.6304 51.5508H71.376C70.7814 51.5508 70.3986 52.0476 70.5208 52.6585C70.6429 53.2694 71.2294 53.7663 71.824 53.7663H73.0784C73.673 53.7663 74.0558 53.2694 73.9336 52.6585C73.8114 52.0476 73.225 51.5508 72.6304 51.5508Z" fill="#5865F2"/>
<path d="M80.0264 51.5508H78.772C78.1774 51.5508 77.7946 52.0476 77.9168 52.6585C78.0389 53.2694 78.6254 53.7663 79.22 53.7663H80.4744C81.069 53.7663 81.4518 53.2694 81.3296 52.6585C81.2074 52.0476 80.621 51.5508 80.0264 51.5508Z" fill="#5865F2"/>
<path d="M81.2724 54.7113H74.1861C71.6855 54.7113 69.2338 52.6262 68.7125 50.0523L68.0527 46.7616C67.5314 44.1877 69.1442 42.1025 71.6448 42.1025H78.7311C81.2317 42.1025 83.6834 44.1877 84.2047 46.7616L84.8645 50.0523C85.3858 52.6262 83.773 54.7113 81.2724 54.7113Z" fill="#E6E8FF"/>
<path d="M73.7222 50.0684H72.4678C71.8732 50.0684 71.4904 50.5652 71.6126 51.1761C71.7347 51.787 72.3212 52.2839 72.9158 52.2839H74.1702C74.7648 52.2839 75.1476 51.787 75.0254 51.1761C74.9032 50.5652 74.3168 50.0684 73.7222 50.0684Z" fill="#5865F2"/>
<path d="M81.1174 50.0684H79.8631C79.2685 50.0684 78.8856 50.5652 79.0078 51.1761C79.13 51.787 79.7165 52.2839 80.3111 52.2839H81.5654C82.16 52.2839 82.5428 51.787 82.4207 51.1761C82.2985 50.5652 81.712 50.0684 81.1174 50.0684Z" fill="#5865F2"/>
<path d="M59.1418 56.6016L55.7778 59.6886L53.6682 59.6805L56.8041 56.6016H59.1418Z" fill="#161A8A"/>
<mask id="mask11_3282_122325" style="mask-type:luminance" maskUnits="userSpaceOnUse" x="37" y="20" width="83" height="82">
<path d="M119.319 61.308C115.719 38.8842 94.4921 20.7041 71.9055 20.7041C49.3188 20.7041 33.9243 38.8842 37.5245 61.308C41.1247 83.7318 62.3511 101.912 84.9378 101.912C107.524 101.912 122.919 83.7318 119.319 61.308ZM106.726 88.6434C101.033 95.3224 92.5862 98.9959 82.9422 98.9959C77.9411 98.9959 72.9236 98.0185 68.0283 96.0962C63.2634 94.2228 58.8161 91.5348 54.8168 88.1058C50.8093 84.6766 47.4617 80.6936 44.8633 76.2545C42.1917 71.6932 40.4323 66.863 39.6341 61.8945C38.0865 52.2261 40.3916 43.2012 46.134 36.4651C51.8275 29.786 60.2741 26.1125 69.918 26.1125C74.9192 26.1125 79.9366 27.09 84.8319 29.0122C89.5969 30.8856 94.0442 33.5735 98.0435 37.0027C102.043 40.4318 105.399 44.4148 107.997 48.854C110.669 53.4153 112.428 58.2454 113.226 63.2139C114.423 70.6913 110.603 84.0983 106.726 88.6434Z" fill="white"/>
</mask>
<g mask="url(#mask11_3282_122325)">
<mask id="mask12_3282_122325" style="mask-type:luminance" maskUnits="userSpaceOnUse" x="36" y="20" width="84" height="82">
<path d="M111.522 90.5095C125.263 74.9234 121.579 49.2196 103.293 33.0987C85.0076 16.9777 59.0448 16.5441 45.3037 32.1303C31.5627 47.7165 35.2468 73.4202 53.5324 89.5412C71.8181 105.662 97.7809 106.096 111.522 90.5095Z" fill="white"/>
</mask>
<g mask="url(#mask12_3282_122325)">
<path d="M128.857 59.1827L78.4133 61.3086L61.8134 95.4859L18.8311 63.3368L63.4994 7.51758L110.131 18.4729" fill="#E6E8FF"/>
<path d="M98.4098 115.956L78.4377 61.5456L146.157 57.7744" fill="#E6E8FF"/>
<path d="M123.847 96.2606L78.4377 61.5456L146.157 57.7744" fill="white"/>
<path d="M50.5405 113.715L78.4379 61.5449L105.309 125.355" fill="#A0A9FA"/>
<path d="M98.2469 29.1676L78.4133 61.3086L56.9751 102.955L18.8311 63.3368L63.4994 7.51758L99.5094 30.0554" fill="#A0A9FA"/>
<path d="M58.3518 -1.85742L78.4379 61.545L21.5842 91.0388L5.82324 23.1647L58.3518 -1.85742Z" fill="#8892F7"/>
</g>
</g>
<path d="M124.654 64.0676V63.9291L124.678 63.7907L124.735 63.3508L124.751 63.2124L124.784 63.0739L124.882 62.6503L124.914 62.5119L124.963 62.3734L125.11 61.9743L125.159 61.8358L125.224 61.7055L125.411 61.3308L125.476 61.2005L125.558 61.0783L125.778 60.7281L125.859 60.5977L125.957 60.4837L126.218 60.1579L126.315 60.0357L126.429 59.9298L126.723 59.6366L126.828 59.5307L126.951 59.4411L127.285 59.1805L127.407 59.0827L127.537 59.0013L127.904 58.7814L128.018 58.7081L128.14 58.651L128.433 58.5126L128.539 58.4637L128.645 58.423L128.677 58.4067L130.135 57.4537L131.862 56.0446L133.662 54.2282L134.68 52.9575L134.078 51.0271L133.263 48.8198L131.023 47.8179L128.172 46.7998L125.656 46.1237L123.627 45.7572H123.261L123.13 45.7409L122.666 45.692L122.536 45.6757L122.414 45.6513L121.949 45.5617L121.827 45.5372L121.713 45.5047L121.257 45.3662L121.143 45.3336L121.037 45.2929L120.597 45.1137L120.491 45.073L120.386 45.0241L119.954 44.8123L119.856 44.7634L119.758 44.7064L119.343 44.4539L119.253 44.3969L119.164 44.3317L118.773 44.0467L118.683 43.9815L118.602 43.9082L118.227 43.5905L118.146 43.5172L118.072 43.4358L117.722 43.0855L117.649 43.0041L117.575 42.9226L117.258 42.5398L117.193 42.4584L117.136 42.3769L116.916 42.0674L116.867 42.0022L116.826 41.9289L116.647 41.6438L114.7 38.7116L112.607 35.9177L110.342 33.238L107.891 30.6559L107.557 30.3138L107.475 30.2324L107.402 30.1428L107.084 29.76L107.011 29.6704L106.946 29.5808L106.661 29.1816L106.596 29.092L106.539 28.9943L106.294 28.5708L106.237 28.473L106.188 28.3671L105.985 27.9354L105.936 27.8295L105.895 27.7236L105.732 27.2838L105.692 27.1698L105.659 27.0557L105.537 26.6078L105.504 26.4937L105.48 26.3715L105.398 25.9154L105.374 25.7932V25.6711L105.325 25.2149V24.3678L105.341 24.2294L105.398 23.7895L105.415 23.6673L105.439 23.5452L105.512 23.2193L105.537 23.1135L105.569 23.0076L105.586 22.9506L105.757 21.069V18.6173L105.504 15.7665L105.113 13.5428L103.118 12.2152L101.204 11.0748L99.5093 11.7264L97.1961 12.8994L95.3227 14.1048L93.9706 15.1882L93.8729 15.3022L93.7751 15.4244L93.6611 15.5303L93.3597 15.8235L93.2457 15.9294L93.1235 16.019L92.7895 16.2715L92.6674 16.3611L92.537 16.4344L92.1786 16.6462L92.0483 16.7195L91.9099 16.7765L91.527 16.9475L91.3967 17.0045L91.2582 17.0534L90.851 17.1837L90.7207 17.2245L90.5822 17.257L90.1586 17.3466L90.0283 17.3711L89.8898 17.3874L89.4581 17.4362L89.3278 17.4525H88.4889L88.0327 17.4037H87.9106L87.7884 17.3711L87.3323 17.2815L87.2264 17.2652L87.1205 17.2326L86.7784 17.1349L86.6888 17.1104L86.5992 17.0778L86.2978 16.972L83.0886 15.962L79.9038 15.18L76.7109 14.6098L73.4772 14.2515L73.0455 14.2107H72.9152L72.7849 14.1782L72.3288 14.0967L72.2066 14.0723L72.0844 14.0397L71.6364 13.9094L71.5224 13.8768L71.4083 13.8361L70.9685 13.665L70.8626 13.6243L70.7567 13.5754L70.3332 13.3636L70.2354 13.3148L70.1377 13.2577L69.7304 13.0134L69.6327 12.9564L69.5431 12.8912L69.1521 12.6143L69.0625 12.5491L68.9811 12.4758L68.6145 12.1663L68.5331 12.093L68.4516 12.0115L68.1095 11.6694L68.0362 11.588L67.9629 11.5065L67.6453 11.1318L67.5719 11.0422L67.5068 10.9526L67.2217 10.5535L67.1647 10.4721L67.1158 10.3825L66.9285 10.0648L66.8877 9.99151L66.847 9.91006L66.7819 9.77973L65.4786 8.02851L63.703 5.98406L61.5038 3.80929L59.7118 2.28613L57.8466 2.58751L56.3397 2.92146L55.8836 4.42018L55.3541 7.05108L55.1016 9.4132L55.069 11.3518L55.1098 11.588L55.1342 11.7183V11.8486L55.1749 12.3048V12.5735L55.1586 13.0215V13.16L55.1342 13.2903L55.0772 13.722L55.0609 13.8605L55.0283 13.9908L54.9224 14.4062L54.8898 14.5447L54.841 14.675L54.6944 15.0741L54.6455 15.2126L54.5803 15.3429L54.4011 15.7176L54.336 15.8479L54.2545 15.9701L54.0346 16.3203L53.9531 16.4507L53.8554 16.5647L53.5947 16.8824L53.497 17.0045L53.3911 17.1104L53.0979 17.4037L52.992 17.5095L52.8698 17.6073L52.544 17.8598L52.4381 17.9412L52.3241 18.0145L52.0553 18.1856L51.9576 18.2426L51.8598 18.2915L51.6236 18.4137L49.0742 19.8554L46.7039 21.46L44.4803 23.2356L42.3544 25.2312L42.0774 25.5L41.9634 25.614L41.8412 25.7118L41.5154 25.9724L41.3932 26.0702L41.2629 26.1516L40.9045 26.3715L40.7742 26.453L40.6357 26.5182L40.261 26.6974L40.1307 26.7625L39.9922 26.8114L39.5931 26.9417L39.4628 26.9906L39.3243 27.0232L38.9089 27.1128L38.7705 27.1453L38.632 27.1616L38.2084 27.2105L38.0781 27.2268H37.2473L36.8075 27.1861H36.6771L36.555 27.1535L36.107 27.072L35.9848 27.0476L35.8626 27.015L35.5042 26.9173L35.2354 26.8603L34.7549 26.7625L34.3965 26.5344L32.6371 26.0865L30.2017 25.6873L27.4323 25.4837L25.7625 25.5082L25.0621 26.7707L24.329 28.2938L25.3227 30.2568L26.9029 32.8551L28.4586 35.0299L29.8677 36.7078L30.0877 36.9033L30.1691 36.9766L30.2506 37.0581L30.5927 37.4165L30.666 37.4979L30.7393 37.5875L31.0406 37.9622L31.1139 38.0518L31.1791 38.1414L31.4479 38.5405L31.5131 38.6301L31.5701 38.7278L31.8063 39.1432L31.8633 39.241L31.9122 39.3469L32.1077 39.7786L32.1565 39.8845L32.1973 39.9903L32.352 40.4302L32.3927 40.5361L32.4253 40.6501L32.5394 41.0981L32.5719 41.2121L32.5882 41.3343L32.6615 41.7823L32.686 41.9045V42.0267L32.7267 42.4746V43.2973L32.7023 43.4113L32.6615 43.7453L32.6453 43.8512L32.6208 43.9571L32.5638 44.234L32.0751 47.2722L31.8063 50.3348L31.7493 53.4463L31.9122 56.6555L31.9448 57.0872V57.9343L31.9203 58.0727L31.8633 58.5044L31.847 58.6429L31.8144 58.7732L31.7167 59.1886L31.6841 59.3271L31.6352 59.4656L31.4968 59.8647L31.4479 60.0032L31.3827 60.1335L31.2035 60.5082L31.1384 60.6385L31.0569 60.7607L30.837 61.1109L30.7556 61.2412L30.666 61.3553L30.4135 61.6729L30.3157 61.7951L30.2098 61.901L29.9247 62.1861L29.8189 62.292L29.6967 62.3897L29.379 62.6422L29.2568 62.7399L29.1265 62.8214L28.7763 63.0413L28.6622 63.1146L28.5401 63.1716L28.255 63.3101L28.1491 63.359L28.0432 63.3997H28.0188L26.6178 64.3364L24.9562 65.7129L23.2212 67.4967L22.252 68.7267L22.8384 70.6245L23.6203 72.783L25.7544 73.7686L28.5156 74.7786L30.951 75.4546L32.9059 75.8212H33.2561L33.3865 75.8375L33.8345 75.8863L33.9648 75.9026L34.0951 75.9271L34.5431 76.0167L34.6653 76.0411L34.7793 76.0737L35.2191 76.2121L35.3332 76.2447L35.4391 76.2854L35.8708 76.4646L35.9766 76.5054L36.0825 76.5542L36.4979 76.766L36.5957 76.8149L36.6934 76.8719L37.1007 77.1244L37.1903 77.1814L37.2799 77.2466L37.6627 77.5317L37.7523 77.5968L37.8338 77.6701L38.2003 77.9878L38.2817 78.0611L38.355 78.1426L38.689 78.4928L38.7623 78.5742L38.8275 78.6557L39.137 79.0385L39.2022 79.12L39.2592 79.2014L39.4709 79.5028L39.5198 79.568L39.5605 79.6413L39.7316 79.9264L41.6294 82.8423L43.682 85.6199L45.8975 88.2833L48.3004 90.8572L48.6262 91.1993L48.7076 91.2808L48.7809 91.3704L49.0904 91.7532L49.1638 91.8428L49.2289 91.9324L49.5059 92.3315L49.571 92.4211L49.628 92.5189L49.8642 92.9343L49.9213 93.032L49.9701 93.1379L50.1738 93.5696L50.2226 93.6755L50.2634 93.7814L50.4263 94.2212L50.467 94.3271L50.4996 94.4411L50.6217 94.8891L50.6543 95.0032L50.6788 95.1253L50.7602 95.5733L50.7847 95.6955V95.8177L50.8335 96.2657V97.1046L50.8172 97.2349L50.7684 97.6748L50.7521 97.797L50.7276 97.9191L50.6543 98.2449L50.6299 98.3508L50.5973 98.4567L50.581 98.5137L50.41 100.379V102.806L50.6625 105.633L51.0534 107.856L53.0246 109.208L54.898 110.365L56.5352 109.754L58.8158 108.63L60.6648 107.465L62.0006 106.415L62.0902 106.309L62.188 106.187L62.302 106.081L62.6034 105.796L62.7174 105.69L62.8396 105.592L63.1735 105.348L63.2957 105.258L63.426 105.185L63.7844 104.973L63.9147 104.9L64.0532 104.843L64.436 104.672L64.5745 104.615L64.713 104.574L65.1121 104.452L65.2506 104.411L65.389 104.386L65.8044 104.305L65.9348 104.281L66.0732 104.264L66.5049 104.224L66.6434 104.207H67.352L67.4823 104.224L67.9303 104.272L68.0525 104.289L68.1747 104.313L68.6308 104.403L68.7367 104.427L68.8426 104.46L69.1847 104.557L69.2743 104.582L69.3639 104.615L69.6653 104.729L72.8582 105.779L76.043 106.61L79.2359 107.229L82.4777 107.636L82.9094 107.677L83.0397 107.693L83.17 107.718L83.6262 107.807L83.7484 107.832L83.8705 107.864L84.3185 108.003L84.4325 108.036L84.5384 108.076L84.9783 108.255L85.0842 108.296L85.1901 108.345L85.6217 108.557L85.7195 108.606L85.8172 108.663L86.2245 108.915L86.3141 108.972L86.4037 109.037L86.7947 109.322L86.8843 109.388L86.9657 109.461L87.3323 109.779L87.4137 109.852L87.487 109.933L87.8291 110.284L87.9024 110.357L87.9676 110.438L88.2852 110.813L88.3585 110.894L88.4237 110.984L88.7088 111.391L88.7658 111.473L88.8147 111.554L89.002 111.872L89.0427 111.945L89.0835 112.019L89.1568 112.157L90.4682 113.941L92.2601 116.026L94.4837 118.258L96.3246 119.846L98.2387 119.569L99.7537 119.26L100.21 117.785L100.747 115.146L101 112.768L101.033 110.813L100.992 110.577L100.967 110.446V110.316L100.927 109.852V109.583L100.943 109.135V108.997L100.967 108.858L101.024 108.426L101.041 108.288L101.073 108.15L101.179 107.734L101.212 107.596L101.261 107.457L101.407 107.058L101.456 106.92L101.521 106.789L101.709 106.415L101.774 106.284L101.855 106.162L102.083 105.812L102.165 105.682L102.262 105.559L102.523 105.242L102.621 105.12L102.735 105.014L103.036 104.729L103.15 104.623L103.272 104.533L103.606 104.281L103.72 104.199L103.843 104.126L104.12 103.963L104.217 103.906L104.323 103.857L104.568 103.735L107.166 102.318L109.585 100.729L111.857 98.9617L114.032 96.9662L114.309 96.6974L114.423 96.5833L114.545 96.4856L114.879 96.2249L115.002 96.1272L115.132 96.0457L115.498 95.834L115.629 95.7607L115.767 95.6955L116.15 95.5245L116.288 95.4674L116.427 95.4186L116.834 95.2882L116.965 95.2475L117.103 95.2149L117.527 95.1253L117.657 95.1009L117.795 95.0846L118.235 95.0357L118.366 95.0194H119.204L119.661 95.0765H119.783L119.905 95.109L120.361 95.1986L120.483 95.2231L120.597 95.2557L120.972 95.3615L121.249 95.4186L121.721 95.5245L122.088 95.7607L123.921 96.2412L126.437 96.6729L129.305 96.9173H131.08L131.821 95.614L132.579 94.0746L131.544 92.0546L129.907 89.3911L128.295 87.1675L126.837 85.4407L126.6 85.237L126.519 85.1637L126.437 85.0823L126.087 84.7239L126.014 84.6424L125.941 84.5528L125.623 84.17L125.55 84.0886L125.484 83.999L125.208 83.5917L125.142 83.5021L125.085 83.4044L124.849 82.9808L124.792 82.8831L124.743 82.7772L124.54 82.3373L124.491 82.2314L124.45 82.1256L124.287 81.6776L124.246 81.5717L124.214 81.4577L124.092 81.0015L124.059 80.8793L124.043 80.7572L123.969 80.301L123.945 80.1789V80.0485L123.904 79.5924V78.7534L123.929 78.6313L123.969 78.2973L123.986 78.1914L124.01 78.0855L124.067 77.8086L124.564 74.7297L124.841 71.6264L124.898 68.466L124.727 65.2079L124.694 64.7681V64.0432L124.654 64.0676ZM84.9376 101.91C62.3509 101.91 41.1244 83.7302 37.5242 61.3145C33.9241 38.8907 49.3185 20.7188 71.9052 20.7188C94.4919 20.7188 115.718 38.8989 119.319 61.3145C122.919 83.7383 107.524 101.91 84.9376 101.91Z" fill="url(#paint4_linear_3282_122325)"/>
<defs>
<linearGradient id="paint0_linear_3282_122325" x1="94.2089" y1="53.6194" x2="97.0597" y2="30.4463" gradientUnits="userSpaceOnUse">
<stop stop-color="#5865F2"/>
<stop offset="1" stop-color="#A0A9FA"/>
</linearGradient>
<linearGradient id="paint1_linear_3282_122325" x1="68.8182" y1="63.8183" x2="84.1393" y2="29.3559" gradientUnits="userSpaceOnUse">
<stop stop-color="#5865F2"/>
<stop offset="1" stop-color="#A0A9FA"/>
</linearGradient>
<linearGradient id="paint2_linear_3282_122325" x1="75.0175" y1="51.2585" x2="77.8683" y2="28.0853" gradientUnits="userSpaceOnUse">
<stop stop-color="#5865F2"/>
<stop offset="1" stop-color="#A0A9FA"/>
</linearGradient>
<linearGradient id="paint3_linear_3282_122325" x1="55.8997" y1="48.903" x2="58.7505" y2="25.7299" gradientUnits="userSpaceOnUse">
<stop stop-color="#5865F2"/>
<stop offset="1" stop-color="#A0A9FA"/>
</linearGradient>
<linearGradient id="paint4_linear_3282_122325" x1="92.7616" y1="87.4657" x2="48.1828" y2="4.45781" gradientUnits="userSpaceOnUse">
<stop stop-color="#C3C8FC"/>
<stop offset="1" stop-color="#E6E8FF"/>
</linearGradient>
</defs>
</svg>