<svg viewBox="0 0 191 141" fill="none" xmlns="http://www.w3.org/2000/svg">
<path d="M189.351 62.9726C189.351 62.9726 189.725 62.8295 189.846 62.3672C190.661 59.0431 190.518 56.2032 189.67 52.2847C188.823 48.3661 187.304 46.1427 185.939 45.042C182.967 48.5092 189.362 62.9726 189.362 62.9726H189.351Z" fill="#E3E3E3"/>
<path d="M174.315 31.7236L177.628 32.5822L182.823 36.1045L185.069 40.4963L188.228 51.4154L190.418 66.286V70.953L189.086 74.1121L186.841 77.9646L183.781 80.6944L174.315 31.7236Z" fill="#612CAF"/>
<mask id="mask0_3282_122106" style="mask-type:luminance" maskUnits="userSpaceOnUse" x="174" y="31" width="17" height="50">
<path d="M174.315 31.7227L177.628 32.5812L182.823 36.1035L185.069 40.4953L188.228 51.4144L190.418 66.285V70.9521L189.087 74.1111L186.841 77.9636L183.781 80.6934L174.315 31.7227Z" fill="white"/>
</mask>
<g mask="url(#mask0_3282_122106)">
<path d="M175.063 35.6199L180.094 36.5335L182.372 43.2258L184.75 51.7674L188.481 51.6023L183.902 34.178L173.192 27.5957" fill="#FD99E9"/>
</g>
<path d="M53.4127 22.191L55.1739 17.0506L57.9587 13.1431L62.1304 8.9714L82.3064 3.24769L102.758 0.462891L105.917 0.947204L111.046 3.45683L114.26 9.34564L53.4127 22.191Z" fill="#6A6ADD"/>
<mask id="mask1_3282_122106" style="mask-type:luminance" maskUnits="userSpaceOnUse" x="53" y="0" width="62" height="23">
<path d="M53.4127 22.191L55.1739 17.0506L57.9587 13.1431L62.1304 8.9714L82.3064 3.24769L102.758 0.462891L105.917 0.947204L111.046 3.45683L114.26 9.34564L53.4127 22.191Z" fill="white"/>
</mask>
<g mask="url(#mask1_3282_122106)">
<path d="M62.1304 8.97254L65.3995 9.73204L85.7187 4.16243L105.917 0.948346L102.857 -5.95312L62.7248 3.51301L62.1304 8.97254Z" fill="#FF4CD2"/>
<path d="M65.3996 9.73193L63.2863 13.0671L63.6055 20.3758L88.4926 12.8249L115.867 10.0181L111.696 2.46723L105.917 0.948242L85.7188 4.16232L65.3996 9.73193Z" fill="#612CAF"/>
</g>
<path d="M26.5996 32.9014L13.5891 45.7467L3.95789 62.1693L19.533 129.522L35.1081 140.463L72.5213 138.999L102.219 134.464L134.007 125.868L164.519 113.176L177.364 100.21L26.5996 32.9014Z" fill="#F4B02D"/>
<mask id="mask2_3282_122106" style="mask-type:luminance" maskUnits="userSpaceOnUse" x="3" y="32" width="175" height="109">
<path d="M26.5994 32.9014L13.589 45.7467L3.95776 62.1693L19.5329 129.522L35.1079 140.463L72.5212 138.999L102.218 134.464L134.007 125.868L164.519 113.176L177.364 100.21L26.5994 32.9014Z" fill="white"/>
</mask>
<g mask="url(#mask2_3282_122106)">
<path d="M48.5915 126.735L35.1078 140.461L114.26 145.194L181.051 119.922L177.364 90.2793L48.5915 126.735Z" fill="#BC8220"/>
</g>
<path d="M26.5993 32.9012L17.4414 48.2452L32.6973 116.225L48.5916 126.737L82.4715 126.022L115.064 121.277L145.818 112.934L177.364 100.21L186.841 84.0404L171.508 16.4456L155.768 5.8457L120.93 6.72627L89.5381 11.1401L58.0687 19.8138L26.5993 32.9012Z" fill="#E3E3E3"/>
<mask id="mask3_3282_122106" style="mask-type:luminance" maskUnits="userSpaceOnUse" x="17" y="5" width="170" height="122">
<path d="M26.5993 32.9022L17.4414 48.2462L32.6973 116.226L48.5916 126.738L82.4715 126.023L115.064 121.278L145.818 112.935L177.364 100.211L186.841 84.0413L171.508 16.4465L155.768 5.84668L120.93 6.72725L89.5381 11.1411L58.0687 19.8147L26.5993 32.9022Z" fill="white"/>
</mask>
<g mask="url(#mask3_3282_122106)">
<path d="M37.6945 39.8705L32.8184 48.0378L46.2691 107.322L54.4144 112.903L81.7781 111.945L113.732 106.915L144.772 98.6816L170.22 88.8192L175.075 80.696L161.503 21.3345L153.6 15.875L125.664 16.5354L94.1501 21.2575L62.8788 29.3697L37.6945 39.8705Z" fill="#B0B1B0"/>
<mask id="mask4_3282_122106" style="mask-type:luminance" maskUnits="userSpaceOnUse" x="32" y="15" width="144" height="98">
<path d="M37.6945 39.8705L32.8184 48.0378L46.2691 107.322L54.4144 112.903L81.7781 111.945L113.732 106.915L144.772 98.6816L170.22 88.8192L175.075 80.696L161.503 21.3345L153.6 15.875L125.664 16.5354L94.1501 21.2575L62.8788 29.3697L37.6945 39.8705Z" fill="white"/>
</mask>
<g mask="url(#mask4_3282_122106)">
<path d="M43.2862 49.8547L41.2499 49.2383L53.4128 103.305L57.1442 105.672H81.4259L112.213 100.653L142.361 92.8926L164.783 83.4374L161.305 82.9531L43.2862 49.8547Z" fill="#FCC0F4"/>
<path d="M41.2499 49.2383L43.2862 45.4298L65.4546 36.0297L95.6581 28.2477L126.621 23.4265L150.628 23.0303L154.425 25.4849L151.916 27.0149L150.947 27.9505L150.672 28.4458L148.624 27.202H125.498L94.9977 32.4194L65.3665 40.0473L44.2548 48.4788L43.2862 49.8547L41.2499 49.2383Z" fill="#909193"/>
</g>
<path d="M54.4143 112.902L48.5916 126.738L82.9118 126.188L115.064 121.279L146.071 112.836L177.364 100.211L186.841 84.0415L175.074 80.6953L144.926 94.9606L113.159 102.225L54.4143 112.902Z" fill="#B2B2B2"/>
<mask id="mask5_3282_122106" style="mask-type:luminance" maskUnits="userSpaceOnUse" x="48" y="80" width="139" height="47">
<path d="M54.4142 112.905L48.5914 126.741L82.9117 126.191L115.063 121.282L146.071 112.839L177.364 100.214L186.841 84.0444L175.074 80.6982L144.926 94.9635L113.159 102.228L54.4142 112.905Z" fill="white"/>
</mask>
<g mask="url(#mask5_3282_122106)">
<path d="M175.075 80.6982L170.22 88.8215L178.773 101.59L186.841 84.0444L175.075 80.6982Z" fill="#FD99E9"/>
</g>
<path d="M26.5994 32.9028L37.6946 39.8703L62.8789 29.3695L94.1501 21.2572L125.664 16.5352L153.6 15.8747L161.503 21.3343L175.075 80.6957L186.841 84.0419L168.173 -3.75098L68.2173 9.50161L26.5994 32.9028Z" fill="#FCC0F4"/>
<mask id="mask6_3282_122106" style="mask-type:luminance" maskUnits="userSpaceOnUse" x="26" y="-4" width="161" height="89">
<path d="M26.5995 32.9037L37.6947 39.8713L62.879 29.3705L94.1502 21.2582L125.664 16.5361L153.6 15.8757L161.503 21.3353L175.075 80.6967L186.841 84.0429L168.173 -3.75L68.2174 9.50258L26.5995 32.9037Z" fill="white"/>
</mask>
<g mask="url(#mask6_3282_122106)">
<path d="M155.768 5.84961L153.599 15.8771L161.502 21.3366L171.508 16.4495L155.768 5.84961Z" fill="#FBE6FF"/>
</g>
<path d="M47.2158 106.695L32.6974 116.227" stroke="#B0B1B0" stroke-width="1.08971" stroke-miterlimit="10"/>
<path d="M33.8751 48.0156L17.0122 48.2468" stroke="#B0B1B0" stroke-width="1.08971" stroke-miterlimit="10"/>
<path d="M150.672 28.4453L150.947 27.95L151.915 27.0144L154.425 25.4844L166.764 79.6725L164.783 83.4369L160.259 83.1397L149.637 29.0947L150.672 28.4453Z" fill="#E3E3E3"/>
<path d="M170.22 88.8193L144.772 98.6817L145.928 110.966L176.825 98.6817L170.22 88.8193Z" fill="#909193"/>
<path d="M81.778 111.945L54.4143 112.903L49.373 124.879L82.7247 124.482L81.778 111.945Z" fill="#909193"/>
</g>
<path d="M43.2863 49.8519L44.2549 48.476L65.3666 40.0445L94.9978 32.4166L125.499 27.1992H148.624L150.672 28.443L162.427 80.7049L161.305 82.9503L141.36 91.1066L111.453 98.7676L80.8206 103.501L57.6285 104.106L55.174 102.257L43.2863 49.8519Z" fill="#0B0A09"/>
<path d="M12.6754 63.93L8.07439 65.1187L4.16686 67.7935L1.11788 73.1429L0.314361 75.9497V82.6201L0.765654 83.7538L0.314361 84.4803C0.314361 84.4803 -0.10391 88.696 0.985796 93.33C2.0755 97.964 3.19823 99.9123 3.73758 100.43C4.12283 100.815 4.25491 100.892 4.25491 100.892L6.45634 106.869L8.32755 110.204L13.2037 113.638L19.2026 114.926L23.8036 113.979L24.6841 110.622V104.095L23.7045 95.1242L21.7783 85.3058L19.3677 76.1369L16.5389 68.8061L14.4145 64.8766L12.6864 63.9189L12.6754 63.93Z" fill="#6465DD"/>
<mask id="mask7_3282_122106" style="mask-type:luminance" maskUnits="userSpaceOnUse" x="0" y="63" width="25" height="52">
<path d="M12.6752 63.9301L8.07427 65.1188L4.16673 67.7936L1.11776 73.143L0.314239 75.9499V82.6202L0.765531 83.7539L0.314239 84.4804C0.314239 84.4804 -0.104032 88.6961 0.985674 93.3301C2.07538 97.9641 3.19811 99.9124 3.73746 100.43C4.12271 100.815 4.25479 100.892 4.25479 100.892L6.45622 106.869L8.32743 110.204L13.2036 113.638L19.2025 114.926L23.8035 113.979L24.684 110.622V104.095L23.7044 95.1242L21.7781 85.3058L19.3676 76.1369L16.5387 68.8061L14.4144 64.8766L12.6863 63.9189L12.6752 63.9301Z" fill="white"/>
</mask>
<g mask="url(#mask7_3282_122106)">
<path d="M12.2239 69.665L8.2063 72.0756L10.6499 79.1532L12.9504 87.5736L17.4413 86.1647L14.8326 77.0178L12.2239 69.665Z" fill="#C9DDFF"/>
<path d="M-0.302155 84.9982C-0.302155 84.9982 1.13978 83.2041 1.38194 82.9069C1.62409 82.6097 2.29553 82.1804 2.85689 83.4132C3.41825 84.646 4.89321 88.5205 5.50961 91.7676C6.12601 95.0147 6.4232 99.0984 6.36817 100.012C6.31313 100.926 6.12601 101.773 5.08033 101.432C4.03465 101.091 2.48265 99.5827 2.48265 99.5827C2.48265 99.5827 0.391294 96.2916 -0.434241 91.9878C-1.25978 87.684 -0.302155 84.9982 -0.302155 84.9982Z" fill="#6B6F75"/>
<mask id="mask8_3282_122106" style="mask-type:luminance" maskUnits="userSpaceOnUse" x="-1" y="82" width="8" height="20">
<path d="M-0.302155 84.9983C-0.302155 84.9983 1.13978 83.2042 1.38194 82.9069C1.62409 82.6096 2.29553 82.1805 2.85689 83.4133C3.41825 84.6461 4.89321 88.5206 5.50961 91.7677C6.12601 95.0148 6.4232 99.0984 6.36817 100.012C6.31313 100.926 6.12601 101.773 5.08033 101.432C4.03465 101.091 2.48265 99.5826 2.48265 99.5826C2.48265 99.5826 0.391294 96.2915 -0.434241 91.9877C-1.25978 87.6839 -0.302155 84.9983 -0.302155 84.9983Z" fill="white"/>
</mask>
<g mask="url(#mask8_3282_122106)">
<path d="M0.314176 84.4821C0.391225 84.361 1.04065 84.361 1.04065 84.361L1.84417 85.858L2.64769 88.0814L3.45121 91.1854L5.99385 90.492C5.99385 90.492 3.77041 83.5575 3.42919 83.1062C3.08797 82.6549 1.44791 81.5762 1.44791 81.5762L0.138062 83.7996L0.325183 84.4821" fill="white"/>
<path d="M3.45105 91.185L4.19953 94.3551L4.47471 97.1289L6.27988 97.8113L5.90564 94.267L5.27823 90.6787L3.45105 91.185Z" fill="#B0B1B0"/>
</g>
<path d="M14.7557 96.4456L19.0925 96.3245L23.7045 95.1357L24.6842 104.107V110.634L23.8036 113.98L19.2136 114.927L14.7667 113.969L15.7134 110.37L15.4712 104.635L14.7557 96.4456Z" fill="#313897"/>
</g>
<path d="M155.691 88.1135L154.15 89.2143L153.853 91.0194L154.778 92.5824L156.748 92.8796C156.748 92.8796 158.212 91.878 158.278 91.878C158.344 91.878 158.619 89.9958 158.619 89.9958L157.595 88.4658L155.713 88.1025L155.691 88.1135Z" fill="white"/>
<path d="M97.265 15.4328L87.3806 17.7553L90.8479 13.1543L97.265 15.4328Z" fill="#A056F2"/>
<path d="M81.778 111.944C81.8881 112.263 82.8457 125.967 82.8457 125.967L76.1094 132.813L76.3185 133.562L108.481 129.115L139.202 120.551L145.84 113.914L146.071 112.824L145.146 99.5168L144.772 98.6582L113.732 106.903L81.778 111.933V111.944Z" fill="#6A6ADD"/>
<mask id="mask9_3282_122106" style="mask-type:luminance" maskUnits="userSpaceOnUse" x="76" y="98" width="71" height="36">
<path d="M81.778 111.943C81.8881 112.262 82.8457 125.966 82.8457 125.966L76.1094 132.812L76.3185 133.561L108.481 129.114L139.202 120.55L145.84 113.913L146.071 112.823L145.146 99.5158L144.772 98.6572L113.732 106.902L81.778 111.932V111.943Z" fill="white"/>
</mask>
<g mask="url(#mask9_3282_122106)">
<path d="M79.2574 127.683L114.855 122.763L147.392 113.341L139.742 121.684L107.094 130.468L72.9944 134.585L79.2574 127.683Z" fill="#313897"/>
</g>
<path d="M79.0125 45.7265L74.1661 46.8018L75.2414 51.6481L80.0878 50.5728L79.0125 45.7265Z" fill="#FEFFA1"/>
<path d="M122.577 36.0683L117.73 37.1436L118.806 41.9899L123.652 40.9146L122.577 36.0683Z" fill="#FEFFA1"/>
<path d="M84.9294 49.5087L80.083 50.584L81.1583 55.4303L86.0047 54.355L84.9294 49.5087Z" fill="#FEFFA1"/>
<path d="M118.82 41.9833L113.974 43.0586L115.049 47.9049L119.895 46.8296L118.82 41.9833Z" fill="#FEFFA1"/>
<path d="M90.8439 53.2655L85.9976 54.3408L87.0729 59.1872L91.9192 58.1119L90.8439 53.2655Z" fill="#FEFFA1"/>
<path d="M115.049 47.8964L110.203 48.9717L111.278 53.818L116.125 52.7427L115.049 47.8964Z" fill="#FEFFA1"/>
<path d="M94.0621 67.8051L92.9834 62.9619L88.1512 64.0296L83.3081 65.1083L78.465 66.176L73.6218 67.2547L68.7787 68.3334L69.8574 73.1765L74.7005 72.0978L79.5437 71.0191L84.3758 69.9514L89.2189 68.8727L94.0621 67.8051Z" fill="#FEFFA1"/>
<path d="M132.796 59.208L137.629 58.1293L136.561 53.2861L131.718 54.3648L126.875 55.4435L122.031 56.5112L117.188 57.5899L112.345 58.6576L113.424 63.5007L118.267 62.4331L123.11 61.3544L127.953 60.2867L132.796 59.208Z" fill="#FEFFA1"/>
<path d="M95.1362 72.6464L90.2898 73.7217L91.3651 78.568L96.2115 77.4927L95.1362 72.6464Z" fill="#FEFFA1"/>
<path d="M110.738 74.2652L109.659 69.4221L108.581 64.579L107.513 59.7358L106.434 54.8927L105.367 50.0496L104.288 45.2064L103.209 40.3633L98.3661 41.442L93.5339 42.5097L94.6016 47.3528L95.6803 52.1959L96.748 57.0391L97.8267 61.8822L98.9054 66.7254L99.9731 71.5685L101.052 76.4116L105.895 75.3439L110.738 74.2652Z" fill="#FEFFA1"/>
<path d="M119.342 67.2655L114.495 68.3408L115.571 73.1872L120.417 72.1119L119.342 67.2655Z" fill="#FEFFA1"/>
<path d="M91.3791 78.5604L86.5327 79.6357L87.608 84.4821L92.4544 83.4068L91.3791 78.5604Z" fill="#FEFFA1"/>
<path d="M125.269 71.0458L120.423 72.1211L121.498 76.9675L126.345 75.8922L125.269 71.0458Z" fill="#FEFFA1"/>
<path d="M87.6083 84.4755L82.762 85.5508L83.8373 90.3971L88.6836 89.3218L87.6083 84.4755Z" fill="#FEFFA1"/>
<path d="M131.173 74.8163L126.326 75.8916L127.401 80.738L132.248 79.6627L131.173 74.8163Z" fill="#FEFFA1"/>
<path d="M113.963 88.7947L112.884 83.9515L111.806 79.1084L106.963 80.1761L102.13 81.2548L103.198 86.0979L104.277 90.9411L109.12 89.8624L113.963 88.7947Z" fill="#FEFFA1"/>
<path d="M65.3994 9.73193L85.7186 4.05225L105.917 0.948242L106.929 1.44356L86.1589 4.99887L64.6069 10.9867L65.3994 9.73193Z" fill="#DEC2FC"/>
</svg>