<svg viewBox="0 0 137 141" fill="none" xmlns="http://www.w3.org/2000/svg">
<g clip-path="url(#clip0_3282_123549)">
<path d="M118.673 106.449C142.11 74.5311 139.169 32.5457 112.104 12.6717C85.0387 -7.20233 44.0985 2.56094 20.6613 34.4785C-2.77599 66.3962 0.164969 108.382 27.2301 128.256C54.2952 148.13 95.2354 138.366 118.673 106.449Z" fill="#5865F2"/>
<mask id="mask0_3282_123549" style="mask-type:luminance" maskUnits="userSpaceOnUse" x="4" y="2" width="131" height="137">
<path d="M118.672 106.448C142.11 74.5302 139.169 32.5447 112.104 12.6707C85.0385 -7.2033 44.0983 2.55996 20.661 34.4776C-2.77624 66.3952 0.164725 108.381 27.2298 128.255C54.2949 148.129 95.2352 138.365 118.672 106.448Z" fill="white"/>
</mask>
<g mask="url(#mask0_3282_123549)">
<path d="M111.653 88.3379C117.746 89.0247 140.313 89.6763 140.313 89.6763C140.313 89.6763 153.802 19.1039 103.323 18.3379L109.672 86.7442" fill="#A056F2"/>
<path d="M113.255 85.2479C109.046 91.5083 62.5559 124.562 62.5559 124.562L104.882 130.154L139.75 78.7586C139.75 78.7586 136.483 69.2315 134.123 67.0215C133.736 69.8039 132.899 76.5221 132.556 77.9397C131.913 80.5812 126.938 79.2869 124.253 78.6617C122.782 78.3183 123.302 78.4592 121.779 78.0982C119.322 77.5171 116.531 77.7548 115.298 80.6605C114.479 82.58 114.101 83.9624 113.246 85.2303L113.255 85.2479Z" fill="#612CAF"/>
<path d="M73.8438 122.334L7.29541 87.8359C7.29541 87.8359 12.235 106.106 14.4627 110.659C26.5872 135.489 54.0237 138.289 67.0728 137.84C84.6828 137.241 139.23 135.172 139.23 135.172C139.23 135.172 115.236 123.611 107.69 115.95C103.684 119.957 100.215 120.899 96.9658 119.376C94.069 118.02 93.0828 117.298 91.4363 116.532C88.7508 115.29 85.9596 116.496 83.6702 117.87C81.064 119.428 73.8526 122.325 73.8526 122.325" fill="#1D0066"/>
<mask id="mask1_3282_123549" style="mask-type:luminance" maskUnits="userSpaceOnUse" x="7" y="87" width="133" height="51">
<path d="M73.8438 122.335L7.29541 87.8369C7.29541 87.8369 12.235 106.107 14.4627 110.66C26.5872 135.49 54.0237 138.29 67.0728 137.841C84.6828 137.242 139.23 135.173 139.23 135.173C139.23 135.173 115.236 123.612 107.69 115.951C103.684 119.958 100.215 120.9 96.9658 119.377C94.069 118.021 93.0828 117.299 91.4363 116.533C88.7508 115.291 85.9596 116.497 83.6702 117.871C81.064 119.429 73.8526 122.326 73.8526 122.326L73.8438 122.335Z" fill="white"/>
</mask>
<g mask="url(#mask1_3282_123549)">
<path d="M51.5142 126.702C58.4262 133.808 61.0765 135.542 69.3532 137.77C66.3331 146.619 55.6174 152.131 55.6174 152.131L-3.27947 128.912L-15.5713 107.798L1.33437 97.1699L51.5142 126.702Z" fill="black"/>
</g>
<path d="M109.654 20.0114C111.987 22.4504 114.056 22.6617 116.874 23.1371C124.376 24.4051 130.997 25.4353 130.997 25.4353C130.997 25.4353 114.312 -11.3345 63.8323 -12.1006L107.761 18.2151" fill="#612CAF"/>
<path d="M84.2515 2.55957C76.0452 2.55957 67.8389 4.42624 60.0288 7.73693C66.1659 5.67655 72.4967 4.47026 78.8804 4.30297C113.731 3.37844 136.721 33.2891 130.231 71.1068C124.314 105.561 95.9709 134.679 64.6162 140.288C97.8024 138.773 128.752 106.054 134.009 70.6753C139.397 34.4426 118.327 2.55957 84.2515 2.55957Z" fill="#FF4CD2"/>
</g>
<path d="M106.071 97.0908C127.695 67.6425 124.984 28.9072 100.016 10.573C75.0475 -7.76115 37.2772 1.24857 15.6532 30.6968C-5.97079 60.1451 -3.25985 98.8804 21.7083 117.215C46.6763 135.549 84.4467 126.539 106.071 97.0908Z" fill="#C3C8FC"/>
<mask id="mask2_3282_123549" style="mask-type:luminance" maskUnits="userSpaceOnUse" x="1" y="1" width="120" height="126">
<path d="M106.071 97.0905C127.695 67.6422 124.984 28.9069 100.015 10.5728C75.0473 -7.76133 37.277 1.24846 15.6531 30.6967C-5.97083 60.145 -3.25982 98.8803 21.7083 117.214C46.6764 135.549 84.4468 126.539 106.071 97.0905Z" fill="white"/>
</mask>
<g mask="url(#mask2_3282_123549)">
<path d="M128.875 68.5003C126.665 68.3595 116.654 64.8462 115.007 65.8764C113.36 66.9066 -1.67725 25.5318 -1.67725 25.5318L86.646 -16.7588L117.067 26.8173L128.884 68.5003H128.875Z" fill="#DEC2FC"/>
<path d="M70.9993 163.965L66.4031 138.289C66.4031 138.289 65.9012 137.47 65.8484 137.162C65.7955 136.854 65.9805 135.929 65.9805 135.929L55.2207 75.7998C55.2207 75.7998 112.216 78.5998 113.448 78.0979C114.681 77.596 115.879 78.186 115.879 78.186L126.999 78.6262L71.0081 163.956L70.9993 163.965Z" fill="#CA9EF9"/>
<path d="M110.2 20.8032C109.046 20.1692 108.271 21.2434 108.271 21.2434C106.625 22.2736 -7.81421 16.5328 -7.81421 16.5328L80.5091 -25.7578L110.2 20.812V20.8032Z" fill="white"/>
</g>
<path d="M104.045 95.6048C125.186 66.815 122.534 28.9449 98.1225 11.0194C73.711 -6.90608 36.7838 1.90114 15.6434 30.6909C-5.49705 59.4806 -2.84533 97.3508 21.5662 115.276C45.9777 133.202 82.9048 124.395 104.045 95.6048Z" fill="url(#paint0_linear_3282_123549)"/>
<path d="M66.1039 12.3936C40.3404 12.3936 16.153 34.5998 12.085 61.9923C8.0083 89.3848 25.5919 111.591 51.3555 111.591C77.119 111.591 101.306 89.3848 105.383 61.9923C109.46 34.5998 91.8762 12.3936 66.1127 12.3936H66.1039ZM103.913 61.9923C99.968 88.5307 76.5379 110.041 51.5756 110.041C26.6133 110.041 9.5844 88.5307 13.5291 61.9923C17.4737 35.4539 40.9039 13.9432 65.8662 13.9432C90.8284 13.9432 107.857 35.4539 103.913 61.9923Z" fill="#2D35AD"/>
<path d="M39.4688 98.4634C38.8877 98.4634 38.2977 98.3313 37.7166 98.0848C37.5053 97.9967 37.294 97.8998 37.0826 97.8118C36.387 97.5124 35.6738 97.2131 34.987 96.8521C34.582 96.6407 34.177 96.5351 33.7455 96.5351C33.3141 96.5351 32.9091 96.6319 32.4336 96.8168C31.5971 97.1514 30.743 97.4332 29.9153 97.7061C29.704 97.7766 29.4839 97.847 29.2726 97.9175C28.7707 98.0848 28.2776 98.1728 27.8021 98.1728C25.9619 98.1728 24.6235 96.8961 24.3242 94.8445C24.1569 93.7087 23.9808 92.4936 23.8575 91.2785C23.7606 90.3187 23.4084 89.6319 22.7569 89.1124C21.9116 88.4521 21.1191 87.7477 20.3795 87.0873C18.7153 85.5992 18.6009 83.0634 20.0977 80.9149C20.8374 79.8583 21.6122 78.7929 22.4663 77.6659C23.1003 76.8294 23.4348 75.9577 23.4789 74.9892C23.5229 74.1791 23.5933 73.3602 23.655 72.559C23.6814 72.2156 23.7166 71.881 23.743 71.5376C23.9631 68.7376 25.6537 66.8533 28.26 66.5011C28.577 66.4571 28.8852 66.4131 29.2021 66.369C30.0298 66.2546 30.8927 66.1313 31.738 66.0344C32.3631 65.9552 32.9443 65.6558 33.5254 65.1099C34.582 64.1149 35.5506 63.2168 36.4751 62.3627C37.4436 61.4734 38.4034 61.042 39.416 61.042H39.7065C40.7367 61.042 41.6348 61.4999 42.3128 62.3627C42.4273 62.5124 42.5418 62.6533 42.6562 62.803C43.0877 63.3489 43.5455 63.9212 43.9153 64.5728C44.5405 65.6734 45.4738 66.2105 46.9355 66.2986C47.5342 66.3338 48.1153 66.4219 48.6789 66.5099C48.8726 66.5363 49.0751 66.5715 49.2688 66.598C50.4223 66.7565 51.338 67.3024 51.9103 68.1565C52.5619 69.125 52.7028 70.4017 52.333 71.8458L52.2185 72.2772C51.9543 73.2898 51.6902 74.3288 51.3908 75.359C51.0738 76.442 51.1003 77.3841 51.4789 78.247C51.9191 79.2596 52.3153 80.3074 52.7028 81.3288C53.6361 83.803 52.7292 86.286 50.3342 87.8093C49.2072 88.5225 48.2122 89.1388 47.2701 89.6936C46.4072 90.2043 45.7732 90.9263 45.3242 91.8948C44.7606 93.1363 44.1443 94.3866 43.6248 95.4432C42.6738 97.3539 41.1506 98.4458 39.4512 98.4458L39.4688 98.4634Z" fill="#C3C8FC"/>
<path d="M39.5568 61.8877C40.4638 61.8349 41.1506 62.2135 41.6701 62.8827C42.1984 63.5695 42.7707 64.221 43.2021 64.9871C44.0122 66.4135 45.2713 67.0298 46.8914 67.1355C47.6575 67.1883 48.4059 67.3204 49.1631 67.4261C51.1971 67.7078 52.1392 69.372 51.5493 71.6525C51.2499 72.8147 50.9506 73.977 50.616 75.1393C50.255 76.3896 50.2726 77.5166 50.7392 78.5908C51.1707 79.577 51.5581 80.6072 51.9455 81.6286C52.738 83.7242 51.9631 85.811 49.9116 87.1229C48.9078 87.7657 47.8952 88.3908 46.8738 88.9896C45.8524 89.5883 45.1128 90.4424 44.6021 91.5695C44.065 92.7493 43.4927 93.9204 42.9116 95.0915C41.8109 97.3015 39.9531 98.1556 38.0512 97.3279C37.1531 96.9317 36.2373 96.5707 35.3745 96.1217C34.3619 95.5933 33.3141 95.5757 32.1342 96.0512C31.104 96.465 30.0562 96.7908 29.0172 97.143C27.0097 97.8122 25.46 96.8525 25.1518 94.7305C24.9757 93.5594 24.8084 92.3883 24.694 91.2084C24.5795 90.0198 24.1128 89.1305 23.2851 88.4789C22.4839 87.8449 21.709 87.1757 20.943 86.489C19.587 85.2739 19.5166 83.2311 20.7845 81.4084C21.5506 80.3166 22.3342 79.2424 23.1355 78.1858C23.8663 77.2261 24.2537 76.1959 24.3153 75.06C24.377 73.9154 24.4914 72.7707 24.5795 71.6349C24.7644 69.2311 26.1732 67.6462 28.3833 67.3468C29.5367 67.1883 30.6902 67.021 31.8524 66.8801C32.6889 66.7745 33.4285 66.3783 34.1065 65.7355C35.0839 64.8198 36.0612 63.9041 37.0474 62.9971C37.8046 62.3015 38.6235 61.8525 39.548 61.8965L39.5568 61.8877Z" fill="black"/>
<mask id="mask3_3282_123549" style="mask-type:luminance" maskUnits="userSpaceOnUse" x="19" y="61" width="34" height="37">
<path d="M39.5566 61.8867C40.4635 61.8339 41.1503 62.2125 41.6698 62.8817C42.1981 63.5685 42.7704 64.2201 43.2019 64.9861C44.0119 66.4126 45.2711 67.0289 46.8912 67.1346C47.6572 67.1873 48.4057 67.3195 49.1629 67.4252C51.1968 67.7069 52.139 69.3711 51.5491 71.6516C51.2497 72.8138 50.9503 73.9761 50.6157 75.1384C50.2547 76.3887 50.2723 77.5157 50.739 78.59C51.1704 79.5762 51.5579 80.6063 51.9453 81.6277C52.7377 83.7233 51.9629 85.8101 49.9113 87.122C48.9075 87.7648 47.895 88.3899 46.8736 88.9887C45.8522 89.5875 45.1126 90.4415 44.6019 91.5687C44.0648 92.7485 43.4924 93.9196 42.9113 95.0907C41.8107 97.3006 39.9528 98.1548 38.0509 97.3271C37.1528 96.9309 36.2371 96.5699 35.3742 96.1208C34.3616 95.5925 33.3138 95.5749 32.134 96.0504C31.1038 96.4642 30.056 96.79 29.017 97.1422C27.0094 97.8114 25.4597 96.8517 25.1516 94.7297C24.9755 93.5586 24.8082 92.3875 24.6937 91.2076C24.5792 90.019 24.1126 89.1297 23.2849 88.4781C22.4836 87.8441 21.7088 87.1749 20.9428 86.4882C19.5868 85.2731 19.5163 83.2303 20.7843 81.4076C21.5503 80.3158 22.334 79.2416 23.1352 78.185C23.866 77.2253 24.2535 76.1951 24.3151 75.0592C24.3767 73.9146 24.4912 72.7699 24.5792 71.6341C24.7641 69.2303 26.173 67.6454 28.383 67.346C29.5365 67.1874 30.6899 67.0201 31.8522 66.8793C32.6887 66.7737 33.4283 66.3775 34.1063 65.7347C35.0836 64.819 36.061 63.9032 37.0472 62.9963C37.8044 62.3007 38.6233 61.8517 39.5478 61.8957L39.5566 61.8867Z" fill="white"/>
</mask>
<g mask="url(#mask3_3282_123549)">
<path d="M36.695 60.8398L44.5315 65.4009L46.6447 66.5895L53.4774 70.4726L54.939 90.7065L37.4258 101.387L24.051 94.66L21.656 87.0348L17.4824 82.9141L36.695 60.8398Z" fill="#707CF5"/>
<mask id="mask4_3282_123549" style="mask-type:luminance" maskUnits="userSpaceOnUse" x="17" y="60" width="38" height="42">
<path d="M36.695 60.8389L44.5315 65.3999L46.6447 66.5886L53.4774 70.4716L54.939 90.7055L37.4258 101.386L24.051 94.659L21.656 87.0338L17.4824 82.9131L36.695 60.8389Z" fill="white"/>
</mask>
<g mask="url(#mask4_3282_123549)">
<path d="M57.7389 73.9666L22.237 57.915L18.6094 60.9704L53.5037 78.6685L57.7389 73.9666Z" fill="#5865F2"/>
<path d="M54.8245 89.9032L17.3062 77.0391L10.7993 89.19L45.2534 107.654L54.8245 89.9032Z" fill="#5865F2"/>
<path d="M43.6949 81.0645L54.3666 86.4619L39.5389 101.536L27.0886 93.4091L43.6949 81.0645Z" fill="#2D35AD"/>
<path d="M42.7882 84.2061L54.0146 89.8413L43.07 100.372L30.6108 92.8262L42.7882 84.2061Z" fill="#000066"/>
</g>
</g>
<path d="M72.0384 100.806H71.5805C69.5818 100.806 67.2572 99.0185 66.7289 94.0172C66.1566 88.5317 64.1138 87.7128 61.2786 86.5682H61.261C61.0849 86.4889 60.9 86.4185 60.7239 86.348C57.7654 85.1329 55.9692 84.138 55.9428 80.5896C55.9164 76.7946 59.4824 75.6675 61.0057 75.1833C64.5277 74.065 66.7025 72.9908 68.0585 71.6789C69.2648 70.5166 69.8195 69.2135 70.6648 67.2323C70.6648 67.2323 70.8145 66.8801 70.8761 66.7392C70.9201 66.6336 70.9642 66.5279 71.0082 66.4311V66.4046C71.8623 64.4059 73.139 61.377 77.066 61.3682H77.0837C78.8623 61.3682 80.2535 62.2046 81.1164 63.7895C81.7679 64.9958 81.9616 66.3518 82.0585 67.0738C82.8686 72.894 84.0837 73.3782 89.1818 75.4298L89.4283 75.5267C91.1013 76.1958 93.9013 77.3053 93.5491 81.2499C93.1704 85.5556 88.3277 86.7531 86.505 87.2021C82.578 88.1707 79.9365 90.5833 78.6597 94.3694C76.7491 100.049 74.2308 100.815 72.0208 100.815L72.0384 100.806Z" fill="#C3C8FC"/>
<path d="M72.0387 99.9777H71.5809C69.9431 99.9777 68.0236 98.3928 67.557 93.9287C66.9318 87.95 64.4576 86.9551 61.596 85.8016C61.4111 85.7312 61.235 85.6519 61.0501 85.5815C58.1004 84.3664 56.806 83.5299 56.7796 80.5802C56.762 77.4016 59.8085 76.4331 61.2702 75.9664C64.9155 74.8129 67.1872 73.6683 68.6488 72.2683C69.9784 70.9916 70.5947 69.5475 71.44 67.5488C71.5104 67.3903 71.5809 67.223 71.6513 67.0645C71.7041 66.95 71.7482 66.8356 71.801 66.7211C72.6111 64.8104 73.7117 62.1953 77.084 62.1865H77.0928C80.5532 62.1865 81.0551 65.8142 81.2488 67.179C82.1293 73.4658 83.6966 74.0997 88.8828 76.1865L89.1293 76.2834C90.7758 76.935 93.0299 77.8331 92.7306 81.1702C92.44 84.4633 89.1469 85.6872 86.3117 86.3916C82.0853 87.4306 79.2501 90.028 77.8765 94.096C76.1331 99.2645 74.0287 99.9777 72.0211 99.9777H72.0387Z" fill="black"/>
<mask id="mask5_3282_123549" style="mask-type:luminance" maskUnits="userSpaceOnUse" x="54" y="58" width="39" height="42">
<path d="M69.9336 59.8101C69.933 59.8114 69.9328 59.8137 69.9328 59.817C69.9324 60.0837 71.6562 66.7369 71.6607 67.0547C71.6607 67.0598 71.6604 67.0633 71.6595 67.0651C71.589 67.2236 71.5185 67.3908 71.4479 67.5493C70.6032 69.5487 69.9866 70.9925 68.6569 72.2692C67.1956 73.6694 64.9237 74.8137 61.2784 75.9675C59.8171 76.4343 54.0053 75.7908 54.0235 78.9701C54.0409 81.9196 58.0999 84.3675 61.0494 85.5824C61.2348 85.6529 61.4107 85.7321 61.5954 85.8027C64.4569 86.9557 65.7074 88.3647 66.3327 94.3437C66.7994 98.7989 69.9423 99.9788 71.5803 99.9788H72.0209C74.0282 99.9788 76.1329 99.2656 77.8763 94.0965C79.2496 90.0288 82.085 87.4312 86.3112 86.3922C89.1466 85.6878 92.4392 84.4642 92.73 81.1708C92.7488 80.9622 92.7575 80.7632 92.7571 80.5732C92.7502 77.7225 90.6722 76.8952 89.1291 76.2845L88.8819 76.187C83.6961 74.1005 82.1286 73.4665 81.2482 67.18C81.0548 65.8154 80.5524 62.1876 77.0926 62.1876L74.6534 59.8538C73.5154 59.857 72.7 59.6359 72.089 59.414C71.481 59.1943 71.0741 58.9745 70.7508 58.9746C70.4347 58.9746 70.1988 59.1846 69.9336 59.8101Z" fill="white"/>
</mask>
<g mask="url(#mask5_3282_123549)">
<path d="M72.0382 99.9787H71.5804C69.9427 99.9787 68.0232 98.3938 67.5565 93.9296C66.9313 87.951 64.4571 86.9561 61.5955 85.8026C61.4106 85.7322 61.2345 85.6529 61.0496 85.5825C58.0999 84.3674 56.8055 83.5309 56.7791 80.5812C56.7615 77.4026 59.8081 76.434 61.2697 75.9674C64.915 74.8139 67.1867 73.6693 68.6483 72.2693C69.9779 70.9925 70.5942 69.5485 71.4395 67.5498C71.5099 67.3913 71.5804 67.224 71.6508 67.0655C71.7037 66.951 71.7477 66.8366 71.8005 66.7221C72.6106 64.8114 73.7112 62.1963 77.0835 62.1875H77.0923C80.5527 62.1875 81.0546 65.8152 81.2483 67.18C82.1288 73.4668 83.6961 74.1007 88.8823 76.1875L89.1288 76.2844C90.7754 76.9359 93.0294 77.834 92.7301 81.1712C92.4395 84.4642 89.1464 85.6881 86.3112 86.3925C82.0848 87.4315 79.2496 90.029 77.876 94.0969C76.1326 99.2655 74.0282 99.9787 72.0206 99.9787H72.0382Z" fill="black"/>
<path d="M75.4457 61.0166L83.3879 67.3826L86.8394 75.2808L94.7904 81.5675L91.5149 88.233L80.9489 92.9525L74.0633 100.613L67.5652 96.7298L63.6998 86.7185L55.1677 80.8719L75.4457 61.0166Z" fill="#A056F2"/>
<mask id="mask6_3282_123549" style="mask-type:luminance" maskUnits="userSpaceOnUse" x="55" y="61" width="40" height="40">
<path d="M75.4457 61.0176L83.3879 67.3836L86.8394 75.2817L94.7904 81.5685L91.5149 88.2339L80.9489 92.9534L74.0633 100.614L67.5652 96.7308L63.6998 86.7195L55.1677 80.8729L75.4457 61.0176Z" fill="white"/>
</mask>
<g mask="url(#mask6_3282_123549)">
<path d="M75.9737 81.9464L89.2429 89.686L78.6417 106.618L48.3171 84.7464L52.253 77.042L86.6454 79.4722" fill="#2D35AD"/>
<path d="M82.8419 81.7354L93.5136 87.124L79.6193 97.3379L67.1689 89.2108L82.8419 81.7354Z" fill="#000066"/>
<path d="M79.17 83.126L87.2178 87.1939L80.5348 92.1071L72.6807 86.9738L79.17 83.126Z" fill="#3E1689"/>
</g>
</g>
<path d="M36.1494 60.8136C37.0211 60.7608 37.6815 61.1306 38.1746 61.7733C38.6853 62.4249 39.2312 63.0589 39.645 63.7897C40.4199 65.1545 41.635 65.7444 43.1759 65.8501C43.9067 65.8941 44.6287 66.0262 45.3507 66.1318C47.2966 66.4048 48.2035 67.9985 47.6312 70.1821C47.3406 71.3004 47.0589 72.4098 46.7331 73.5281C46.3809 74.7255 46.4073 75.8086 46.8564 76.8299C47.2702 77.7809 47.64 78.7582 48.0098 79.7444C48.767 81.7519 48.0274 83.7507 46.0551 85.0098C45.0865 85.6262 44.118 86.2249 43.1406 86.806C42.1633 87.3784 41.4501 88.1972 40.957 89.2714C40.4375 90.4073 39.8916 91.5255 39.3369 92.6438C38.2803 94.7658 36.5016 95.5758 34.679 94.7834C33.8161 94.4048 32.9444 94.0614 32.1167 93.6211C31.1482 93.1104 30.1356 93.1016 29.0086 93.5595C28.0224 93.9557 27.0186 94.2727 26.0237 94.5985C24.1042 95.2413 22.6161 94.3167 22.3167 92.2916C22.1494 91.1733 21.9909 90.0463 21.8765 88.9193C21.762 87.7834 21.3218 86.9293 20.5293 86.3041C19.7545 85.6966 19.0148 85.0538 18.284 84.4023C16.9809 83.24 16.9192 81.2765 18.1343 79.5331C18.8652 78.4853 19.6136 77.4551 20.3884 76.4425C21.084 75.518 21.4626 74.5406 21.5243 73.4488C21.5859 72.357 21.6916 71.2564 21.7796 70.1645C21.9645 67.8576 23.3029 66.3431 25.4249 66.0614C26.5343 65.9117 27.6438 65.7532 28.7444 65.6123C29.5457 65.5155 30.2589 65.128 30.9104 64.5117C31.8438 63.6312 32.7859 62.7595 33.7281 61.8878C34.4501 61.2186 35.2425 60.796 36.123 60.8312L36.1494 60.8136Z" fill="#8892F7"/>
<mask id="mask7_3282_123549" style="mask-type:luminance" maskUnits="userSpaceOnUse" x="17" y="60" width="32" height="36">
<path d="M36.1494 60.8126C37.0211 60.7598 37.6815 61.1296 38.1746 61.7724C38.6853 62.4239 39.2312 63.0579 39.645 63.7887C40.4199 65.1535 41.635 65.7434 43.1759 65.8491C43.9067 65.8931 44.6287 66.0252 45.3507 66.1308C47.2966 66.4038 48.2035 67.9975 47.6312 70.1812C47.3406 71.2994 47.0589 72.4088 46.7331 73.5271C46.3809 74.7246 46.4073 75.8076 46.8564 76.829C47.2702 77.7799 47.64 78.7573 48.0098 79.7434C48.767 81.751 48.0274 83.7497 46.0551 85.0088C45.0865 85.6252 44.118 86.2238 43.1406 86.8051C42.1633 87.3774 41.4501 88.1963 40.957 89.2705C40.4375 90.4063 39.8916 91.5246 39.3369 92.6428C38.2803 94.7648 36.5016 95.5749 34.679 94.7824C33.8161 94.4038 32.9444 94.0604 32.1167 93.6202C31.1482 93.1095 30.1356 93.1007 29.0086 93.5585C28.0224 93.9547 27.0186 94.2717 26.0237 94.5975C24.1042 95.2403 22.6161 94.3158 22.3167 92.2906C22.1494 91.1724 21.9909 90.0453 21.8765 88.9183C21.762 87.7824 21.3218 86.9283 20.5293 86.3032C19.7545 85.6956 19.0148 85.0529 18.284 84.4013C16.9809 83.239 16.9192 81.2755 18.1343 79.5321C18.8652 78.4843 19.6136 77.4541 20.3884 76.4415C21.084 75.517 21.4626 74.5396 21.5243 73.4478C21.5859 72.356 21.6916 71.2554 21.7796 70.1636C21.9645 67.8566 23.3029 66.3422 25.4249 66.0604C26.5343 65.9107 27.6438 65.7522 28.7444 65.6114C29.5457 65.5146 30.2589 65.1272 30.9104 64.5108C31.8438 63.6303 32.7859 62.7585 33.7281 61.8869C34.4501 61.2177 35.2425 60.7951 36.123 60.8303L36.1494 60.8126Z" fill="white"/>
</mask>
<g mask="url(#mask7_3282_123549)">
<path d="M47.7807 69.4691L45.6939 69.4867L43.9241 65.9382L46.8033 64.4502L48.3178 67.5408L47.7807 69.4691Z" fill="#CA9EF9"/>
</g>
<path d="M46.0109 59.2978C45.3329 59.2978 44.6638 59.2009 44.0122 59.0072L28.7531 54.5607C27.2826 54.1292 26.0675 53.099 25.4072 51.7167C24.7468 50.3343 24.7116 48.7406 25.3103 47.3317L33.4814 28.0047C34.5556 25.4512 37.0474 23.7959 39.8122 23.7959C40.3845 23.7959 40.9568 23.8663 41.5116 24.0072L56.9732 27.8814C58.4788 28.2689 59.738 29.2814 60.4424 30.6638C61.138 32.0462 61.2084 33.6663 60.6273 35.1016L52.6323 54.8336C51.5317 57.5456 48.9342 59.2978 46.0197 59.2978H46.0109Z" fill="#C3C8FC"/>
<path d="M34.2385 28.3234L26.0674 47.6505C25.0108 50.1511 26.3756 53.0127 28.9819 53.7699L44.241 58.2165C47.3492 59.1234 50.6422 57.5297 51.8573 54.5272L59.8523 34.7951C60.8825 32.2416 59.4297 29.3712 56.7617 28.6932L41.3001 24.8102C38.4032 24.0706 35.4007 25.5674 34.2385 28.3234Z" fill="black"/>
<mask id="mask8_3282_123549" style="mask-type:luminance" maskUnits="userSpaceOnUse" x="25" y="24" width="36" height="35">
<path d="M34.2387 28.3234L26.0676 47.6505C25.011 50.1511 26.3758 53.0127 28.9821 53.7699L44.2412 58.2165C47.3494 59.1234 50.6425 57.5297 51.8576 54.5272L59.8526 34.7951C60.8827 32.2416 59.4299 29.3712 56.762 28.6932L41.3003 24.8102C38.4035 24.0706 35.401 25.5674 34.2387 28.3234Z" fill="white"/>
</mask>
<g mask="url(#mask8_3282_123549)">
<path d="M35.374 56.8424L25.5388 49.5078L55.3439 27.9971L61.0847 32.9807L50.0872 59.792L35.374 56.8424Z" fill="#707CF5"/>
<mask id="mask9_3282_123549" style="mask-type:luminance" maskUnits="userSpaceOnUse" x="25" y="27" width="37" height="33">
<path d="M35.374 56.8424L25.5388 49.5078L55.3439 27.9971L61.0847 32.9807L50.0872 59.792L35.374 56.8424Z" fill="white"/>
</mask>
<g mask="url(#mask9_3282_123549)">
<path d="M54.4543 31.9604L67.3801 40.8447L54.4631 66.2824L24.3587 56.9315L19.5952 41.2409L54.4984 31.7139" fill="#5865F2"/>
<path d="M50.2104 34.708L61.0846 41.4174L48.6607 62.391L37.5487 56.5973L28.4443 49.7646L50.2104 34.708Z" fill="#2D35AD"/>
<path d="M47.6481 42.2891L58.5223 48.9985L48.6607 62.391L44.8217 59.1243L35.7173 52.2916L47.6481 42.2891Z" fill="#000066"/>
</g>
</g>
<path d="M66.8257 57.4404C64.3515 57.4404 62.1854 56.1373 61.0232 53.9448C59.8697 51.7612 60.0106 49.2341 61.4018 47.1826L76.837 24.5096C78.193 22.5109 80.359 21.3662 82.7628 21.3662C85.6332 21.3662 88.1427 22.9863 89.3225 25.6014L97.4496 43.6341C98.8144 46.6631 98.5502 50.1322 96.754 52.9234C94.9578 55.7146 91.8936 57.3876 88.5741 57.3876L66.8345 57.4316L66.8257 57.4404Z" fill="#C3C8FC"/>
<path d="M77.5155 24.9766L62.0802 47.6496C59.4828 51.4622 62.2211 56.6219 66.835 56.6131L88.5658 56.5691C95.0375 56.5603 99.3431 49.8773 96.684 43.9779L88.557 25.9452C86.5142 21.4194 80.3067 20.8735 77.5155 24.9766Z" fill="black"/>
<mask id="mask10_3282_123549" style="mask-type:luminance" maskUnits="userSpaceOnUse" x="61" y="22" width="37" height="35">
<path d="M77.5155 24.9766L62.0802 47.6496C59.4828 51.4622 62.2211 56.6219 66.835 56.6131L88.5658 56.5691C95.0375 56.5603 99.3431 49.8773 96.684 43.9779L88.557 25.9452C86.5142 21.4194 80.3067 20.8735 77.5155 24.9766Z" fill="white"/>
</mask>
<g mask="url(#mask10_3282_123549)">
<path d="M84.3659 22.6436L89.7017 28.5517L105.824 56.8687H66.8439L60.1873 51.6914L84.3659 22.6436Z" fill="#707CF5"/>
<mask id="mask11_3282_123549" style="mask-type:luminance" maskUnits="userSpaceOnUse" x="60" y="22" width="46" height="35">
<path d="M84.3661 22.6426L89.702 28.5508L105.824 56.8677H66.8441L60.1875 51.6904L84.3661 22.6426Z" fill="white"/>
</mask>
<g mask="url(#mask11_3282_123549)">
<path d="M93.1535 45.8166L103.077 52.6141L90.4768 62.3877L73.395 58.9714L54.0239 45.6846L93.1535 45.8166Z" fill="#3E1689"/>
<path d="M87.8088 51.7168L97.732 58.5055L82.2352 68.2791L77.7094 62.1684L57.5547 48.9961L87.8088 51.7168Z" fill="#2D35AD"/>
<path d="M81.6805 50.6426L91.6037 57.4401L82.2352 68.2791L81.9006 62.1684L61.7371 48.9961L81.6805 50.6426Z" fill="#000066"/>
<path d="M83.2305 20.1416L93.1537 45.8171L102.082 51.9278L92.3965 29.9944L83.2305 20.1416Z" fill="#A056F2"/>
</g>
</g>
<path d="M65.1003 91.6229C65.4877 95.3562 66.9405 96.8443 68.1644 96.8443C69.6349 96.8443 71.7129 97.1613 73.5971 91.5701C75.3141 86.4807 78.9594 84.0329 82.904 83.0644C85.7745 82.36 88.416 81.2506 88.6449 78.6707C88.8915 75.9147 87.1393 75.36 85.3695 74.6556C79.9808 72.4896 77.938 71.6355 76.9695 64.6795C76.6525 62.3814 75.9833 60.4883 73.7556 60.4971C70.8324 60.4971 70.0135 62.8833 69.1858 64.8292C67.2927 69.2581 66.5091 71.7587 57.9946 74.4619C56.1984 75.0342 54.138 75.8443 54.1556 78.16C54.1732 80.4757 54.8952 81.0745 57.8537 82.2984C61.0324 83.6103 64.3607 84.5348 65.1003 91.6405V91.6229Z" fill="#8892F7"/>
<mask id="mask12_3282_123549" style="mask-type:luminance" maskUnits="userSpaceOnUse" x="54" y="60" width="35" height="37">
<path d="M65.1 91.6229C65.4875 95.3563 66.9403 96.8444 68.1642 96.8444C69.6346 96.8444 71.7126 97.1613 73.5969 91.5701C75.3139 86.4807 78.9592 84.0329 82.9038 83.0644C85.7742 82.36 88.4158 81.2506 88.6447 78.6707C88.8912 75.9147 87.139 75.36 85.3692 74.6556C79.9805 72.4896 77.9378 71.6355 76.9692 64.6795C76.6522 62.3814 75.9831 60.4883 73.7554 60.4971C70.8321 60.4971 70.0132 62.8833 69.1856 64.8292C67.2925 69.2581 66.5088 71.7587 57.9944 74.4619C56.1982 75.0342 54.1378 75.8443 54.1554 78.16C54.173 80.4757 54.895 81.0745 57.8535 82.2984C61.0321 83.6103 64.3604 84.5348 65.1 91.6405V91.6229Z" fill="white"/>
</mask>
<g mask="url(#mask12_3282_123549)">
<path d="M70.3833 60.3646L75.6223 60.1709L78.2374 68.2187L92.7129 79.7621L73.0513 93.0401L69.2915 91.2086C69.2915 91.2086 74.3984 65.2602 74.3456 64.8816C74.2928 64.503 70.3833 60.3646 70.3833 60.3646Z" fill="#CA9EF9"/>
</g>
<path d="M74.2662 22.6881L59.3945 44.5422C56.8938 48.2139 59.5353 53.1887 63.9731 53.1799L84.9114 53.1359C91.1454 53.1271 95.3014 46.6906 92.7391 41.0026L84.9114 23.6214C82.9479 19.2541 76.9605 18.7346 74.2662 22.6881Z" fill="#8892F7"/>
<mask id="mask13_3282_123549" style="mask-type:luminance" maskUnits="userSpaceOnUse" x="58" y="20" width="36" height="34">
<path d="M74.2664 22.6881L59.3947 44.5422C56.8941 48.2139 59.5356 53.1887 63.9733 53.1799L84.9117 53.1359C91.1456 53.1271 95.3016 46.6906 92.7394 41.0026L84.9117 23.6214C82.9482 19.2541 76.9607 18.7346 74.2664 22.6881Z" fill="white"/>
</mask>
<g mask="url(#mask13_3282_123549)">
<path d="M77.1194 19.6944L77.5068 21.1032L82.4464 24.2466L90.0276 44.6742L86.9458 50.3535L88.8565 52.4315L93.5936 50.0629L95.6804 44.1547L81.9357 16.9912L77.1194 19.6944Z" fill="#CA9EF9"/>
</g>
<path d="M73.2627 22.8287L59.157 43.5558C56.7884 47.0426 59.2891 51.7532 63.4979 51.7444L83.362 51.7004C89.279 51.6916 93.2149 45.5809 90.7847 40.1922L83.3532 23.7004C81.4865 19.562 75.8073 19.069 73.2538 22.8199L73.2627 22.8287Z" fill="#D3D6FD"/>
<path d="M34.758 60.8138C35.5857 60.7698 36.202 61.1132 36.6775 61.7207C37.1618 62.3371 37.6813 62.9358 38.0687 63.6314C38.8083 64.9258 39.953 65.4893 41.4146 65.5774C42.1102 65.6214 42.7882 65.7446 43.475 65.8415C45.3153 66.0968 46.1781 67.6113 45.641 69.6805C45.3681 70.7371 45.1039 71.7937 44.7958 72.8503C44.4612 73.9862 44.4876 75.0075 44.9102 75.9849C45.3064 76.883 45.6586 77.8163 46.002 78.7409C46.7153 80.6428 46.0197 82.5358 44.153 83.7245C43.2373 84.3056 42.3215 84.878 41.3882 85.4239C40.4637 85.9698 39.7857 86.7358 39.319 87.766C38.8259 88.8402 38.3064 89.9057 37.787 90.9623C36.792 92.9698 35.1014 93.7446 33.3756 92.9874C32.5568 92.6352 31.7291 92.3006 30.9454 91.8868C30.0297 91.4025 29.07 91.3937 28.0046 91.8251C27.0712 92.2038 26.1203 92.4943 25.1781 92.8113C23.3555 93.4189 21.9467 92.5472 21.6649 90.6189C21.5064 89.5535 21.3568 88.4968 21.2511 87.4226C21.1454 86.3484 20.7228 85.5384 19.9744 84.9396C19.2436 84.3673 18.5392 83.7509 17.8524 83.1346C16.6197 82.034 16.558 80.1761 17.7115 78.5207C18.4071 77.5258 19.1203 76.5572 19.8423 75.5887C20.5027 74.717 20.8637 73.7836 20.9165 72.7446C20.9693 71.7057 21.075 70.6667 21.1542 69.6365C21.3303 67.4528 22.5983 66.0176 24.6058 65.7446C25.6536 65.6038 26.7014 65.4541 27.758 65.322C28.5153 65.2252 29.1932 64.8641 29.8096 64.283C30.6989 63.4465 31.5882 62.6189 32.4775 61.8C33.1643 61.166 33.9127 60.761 34.7492 60.805L34.758 60.8138Z" fill="#D3D6FD"/>
<path d="M64.4312 90.1519C64.801 93.6739 66.1658 95.0739 67.3192 95.0739C68.7104 95.0739 70.6651 95.3645 72.4437 90.0991C74.0639 85.3091 77.4978 82.9934 81.2136 82.0777C83.9167 81.4085 86.4085 80.3695 86.6198 77.9393C86.8488 75.3418 85.1934 74.8223 83.5381 74.1532C78.4576 72.1104 76.5381 71.3091 75.6224 64.7494C75.323 62.5833 74.6978 60.7959 72.5934 60.8047C69.8375 60.8047 69.0714 63.0588 68.2878 64.8903C66.5004 69.0638 65.7695 71.4236 57.7393 73.9682C56.0488 74.5054 54.1029 75.2714 54.1205 77.455C54.1381 79.6387 54.8161 80.2022 57.6073 81.3557C60.601 82.5884 63.7356 83.4689 64.44 90.1607L64.4312 90.1519Z" fill="#D3D6FD"/>
<path d="M83.1858 48.7948L63.7267 48.9973C60.9355 49.0237 59.2361 45.9331 60.7682 43.591L73.4122 24.2463C75.3053 21.3583 79.655 21.7281 81.011 24.9067L88.055 41.3193C89.5695 44.8325 87.0072 48.7595 83.1858 48.7948Z" fill="#E6E8FF"/>
<mask id="mask14_3282_123549" style="mask-type:luminance" maskUnits="userSpaceOnUse" x="60" y="22" width="29" height="27">
<path d="M83.1858 48.7948L63.7267 48.9973C60.9355 49.0237 59.2361 45.9331 60.7682 43.591L73.4122 24.2463C75.3053 21.3583 79.655 21.7281 81.011 24.9067L88.055 41.3193C89.5695 44.8325 87.0072 48.7595 83.1858 48.7948Z" fill="white"/>
</mask>
<g mask="url(#mask14_3282_123549)">
<path d="M75.3933 12.3955L48.3179 39.471L56.2864 45.4232L90.0185 25.2509L75.3933 12.3955Z" fill="white"/>
<path d="M97.4849 34.6719L64.8975 54.448L78.2547 68.4656L104.52 42.2002L97.4849 34.6719Z" fill="white"/>
</g>
<path d="M33.6753 63.5524C34.3444 63.5172 34.8375 63.7902 35.2249 64.2833C35.6124 64.7851 36.0262 65.2606 36.3432 65.8241C36.9331 66.8719 37.8576 67.321 39.0375 67.3914C39.601 67.4266 40.147 67.5323 40.7017 67.6027C42.1897 67.8141 42.8765 69.0292 42.4451 70.6933C42.2249 71.5474 42.0136 72.3927 41.7583 73.2468C41.4941 74.1537 41.5117 74.9902 41.8463 75.765C42.1633 76.487 42.4451 77.2354 42.7268 77.9839C43.308 79.516 42.7444 81.0392 41.2388 81.999C40.4992 82.4656 39.7595 82.9235 39.0199 83.3638C38.2715 83.804 37.7344 84.4204 37.3558 85.248C36.9595 86.1109 36.5457 86.965 36.1231 87.8191C35.3218 89.4392 33.957 90.0556 32.5746 89.448C31.9143 89.1575 31.2539 88.8933 30.6199 88.5675C29.8803 88.1801 29.1143 88.1713 28.2514 88.5147C27.5029 88.8141 26.7369 89.0518 25.9709 89.3071C24.5092 89.8002 23.3734 89.0958 23.1444 87.5461C23.0212 86.692 22.8979 85.838 22.8098 84.9751C22.7218 84.1034 22.3872 83.4518 21.7797 82.9763C21.1897 82.5097 20.6262 82.0166 20.0715 81.5235C19.0765 80.6342 19.0325 79.1373 19.957 77.8078C20.5117 77.0065 21.0841 76.2229 21.674 75.448C22.2023 74.7436 22.4929 73.9952 22.5369 73.1587C22.5809 72.3222 22.6602 71.4858 22.7306 70.6493C22.8715 68.8883 23.8929 67.7348 25.513 67.5147C26.3583 67.4002 27.2036 67.277 28.0488 67.1713C28.6652 67.1009 29.2023 66.8015 29.6954 66.3348C30.4086 65.6656 31.1218 64.9965 31.8438 64.3361C32.3985 63.8254 32.9973 63.4996 33.6753 63.5348V63.5524Z" fill="#E6E8FF"/>
<mask id="mask15_3282_123549" style="mask-type:luminance" maskUnits="userSpaceOnUse" x="19" y="63" width="24" height="27">
<path d="M33.6753 63.5506C34.3444 63.5154 34.8375 63.7883 35.2249 64.2814C35.6124 64.7833 36.0262 65.2588 36.3432 65.8223C36.9331 66.8701 37.8576 67.3191 39.0375 67.3896C39.601 67.4248 40.147 67.5304 40.7017 67.6009C42.1897 67.8122 42.8765 69.0273 42.4451 70.6915C42.2249 71.5455 42.0136 72.3908 41.7583 73.2449C41.4941 74.1518 41.5117 74.9883 41.8463 75.7632C42.1633 76.4852 42.4451 77.2336 42.7268 77.982C43.308 79.5141 42.7444 81.0374 41.2388 81.9971C40.4992 82.4638 39.7595 82.9216 39.0199 83.3619C38.2715 83.8021 37.7344 84.4185 37.3558 85.2462C36.9595 86.1091 36.5457 86.9632 36.1231 87.8172C35.3218 89.4374 33.957 90.0537 32.5746 89.4462C31.9143 89.1556 31.2539 88.8915 30.6199 88.5657C29.8803 88.1782 29.1143 88.1694 28.2514 88.5128C27.5029 88.8122 26.7369 89.0499 25.9709 89.3053C24.5092 89.7984 23.3734 89.0939 23.1444 87.5443C23.0212 86.6902 22.8979 85.8361 22.8098 84.9732C22.7218 84.1015 22.3872 83.4499 21.7797 82.9745C21.1897 82.5078 20.6262 82.0147 20.0715 81.5216C19.0765 80.6323 19.0325 79.1355 19.957 77.8059C20.5117 77.0047 21.0841 76.221 21.674 75.4461C22.2023 74.7417 22.4929 73.9932 22.5369 73.1568C22.5809 72.3203 22.6602 71.4838 22.7306 70.6473C22.8715 68.8863 23.8929 67.7329 25.513 67.5127C26.3583 67.3983 27.2036 67.275 28.0488 67.1694C28.6652 67.0989 29.2023 66.7995 29.6954 66.3329C30.4086 65.6637 31.1218 64.9945 31.8438 64.3341C32.3985 63.8234 32.9973 63.4977 33.6753 63.5329V63.5506Z" fill="white"/>
</mask>
<g mask="url(#mask15_3282_123549)">
<path d="M35.4712 55.707L8.39575 82.7913L17.1215 86.8592L47.1643 69.1171L35.4712 55.707Z" fill="white"/>
</g>
<path d="M64.9594 87.6417C65.2587 90.5297 65.9015 93.1448 67.3631 93.2769C69.1506 93.4354 70.1103 92.3171 71.5367 87.6065C72.7342 83.6266 75.6927 81.7775 78.7392 81.0203C80.9581 80.4744 83.8198 79.8052 84.2072 77.8417C84.6298 75.6756 82.0147 75.0593 80.6499 74.5134C76.4764 72.8316 74.9003 72.18 74.1518 66.7914C73.9053 65.0127 73.5619 62.5385 71.8449 62.3977C69.6701 62.2216 68.772 65.4002 68.1292 66.9058C66.6587 70.331 66.06 72.2681 59.4738 74.3637C58.0826 74.8039 55.2122 75.4907 55.2298 77.2781C55.2474 79.0656 57.0789 79.4794 59.3594 80.4215C61.816 81.4341 64.3959 82.1561 64.9682 87.6505L64.9594 87.6417Z" fill="#E6E8FF"/>
<mask id="mask16_3282_123549" style="mask-type:luminance" maskUnits="userSpaceOnUse" x="55" y="62" width="30" height="32">
<path d="M64.9591 87.6416C65.2585 90.5296 65.9013 93.1447 67.3629 93.2768C69.1503 93.4354 70.1101 92.3171 71.5365 87.6065C72.734 83.6266 75.6925 81.7774 78.739 81.0203C80.9579 80.4744 83.8195 79.8052 84.2069 77.8417C84.6296 75.6756 82.0145 75.0593 80.6497 74.5134C76.4761 72.8316 74.9 72.18 74.1516 66.7914C73.905 65.0127 73.5616 62.5385 71.8447 62.3977C69.6698 62.2216 68.7717 65.4002 68.1289 66.9058C66.6585 70.331 66.0598 72.2681 59.4736 74.3637C58.0824 74.8039 55.212 75.4907 55.2296 77.2782C55.2472 79.0656 57.0786 79.4794 59.3591 80.4216C61.8157 81.4341 64.3956 82.1561 64.9679 87.6505L64.9591 87.6416Z" fill="white"/>
</mask>
<g mask="url(#mask16_3282_123549)">
<path d="M73.7022 56.1904L46.6267 83.2659L45.1299 89.6848L84.7173 66.8093L73.7022 56.1904Z" fill="white"/>
</g>
<path d="M32.0726 26.4211L24.3858 44.6035C23.3909 46.9545 24.6764 49.6488 27.1242 50.362L41.4852 54.5444C44.4085 55.3985 47.5079 53.8928 48.6525 51.0752L56.172 32.5054C57.1406 30.1105 55.7758 27.3985 53.2663 26.7645L38.7204 23.1105C35.9909 22.4149 33.1645 23.8237 32.0726 26.4123V26.4211Z" fill="#8892F7"/>
<mask id="mask17_3282_123549" style="mask-type:luminance" maskUnits="userSpaceOnUse" x="24" y="22" width="33" height="33">
<path d="M32.0724 26.4211L24.3856 44.6035C23.3906 46.9545 24.6762 49.6488 27.124 50.362L41.485 54.5444C44.4082 55.3985 47.5076 53.8928 48.6523 51.0752L56.1718 32.5054C57.1403 30.1105 55.7755 27.3985 53.2661 26.7645L38.7202 23.1105C35.9906 22.4149 33.1642 23.8237 32.0724 26.4123V26.4211Z" fill="white"/>
</mask>
<g mask="url(#mask17_3282_123549)">
<path d="M49.1187 26.2192L52.2532 24.335C52.2532 24.335 60.0809 26.9853 60.2482 27.1174C60.4155 27.2494 57.8973 34.3287 57.8973 34.3287L54.0231 31.8457L53.0809 28.3148L49.1187 26.2192Z" fill="#CA9EF9"/>
</g>
<path d="M31.6324 26.0427L24.016 43.5031C23.0739 45.7395 24.289 48.293 26.6135 48.971L40.2437 52.9421C43.0261 53.7521 45.967 52.3257 47.05 49.649L54.5079 31.8188C55.4324 29.5383 54.1292 26.976 51.7519 26.3685L37.9368 22.8993C35.3481 22.2389 32.6626 23.5773 31.6236 26.0339L31.6324 26.0427Z" fill="#D3D6FD"/>
<path d="M32.7067 26.0337L25.5306 43.0626C24.9671 44.4098 25.6979 45.9419 27.0979 46.3557L40.2791 50.1947C42.1281 50.7318 44.0916 49.7809 44.8136 47.9935L51.4791 31.528C52.0338 30.1545 51.2501 28.6136 49.8149 28.2438L35.5508 24.6073C34.3797 24.3079 33.1646 24.9155 32.6979 26.0249L32.7067 26.0337Z" fill="#E6E8FF"/>
<mask id="mask18_3282_123549" style="mask-type:luminance" maskUnits="userSpaceOnUse" x="25" y="24" width="27" height="27">
<path d="M32.7065 26.0327L25.5304 43.0617C24.9669 44.4088 25.6977 45.9409 27.0977 46.3547L40.2788 50.1937C42.1279 50.7309 44.0914 49.7799 44.8134 47.9925L51.4788 31.5271C52.0335 30.1535 51.2499 28.6126 49.8147 28.2428L35.5505 24.6063C34.3794 24.3069 33.1643 24.9145 32.6977 26.0239L32.7065 26.0327Z" fill="white"/>
</mask>
<g mask="url(#mask18_3282_123549)">
<path d="M40.323 11.2578L13.2388 38.3333L19.8778 44.444L53.4425 24.7031L40.323 11.2578Z" fill="white"/>
</g>
<path d="M65.7431 14.7803C65.5494 14.7803 65.3557 14.7891 65.1531 14.7979C89.3582 15.1325 105.797 36.1237 101.949 61.9929C98.1016 87.8532 75.411 108.853 51.1179 109.188C51.3116 109.188 51.5053 109.205 51.6991 109.205C76.2211 109.205 99.2462 88.0733 103.12 62.0017C106.995 35.93 90.2651 14.7979 65.7431 14.7979V14.7803Z" fill="#C3C8FC"/>
<path d="M11.1341 61.5794C14.075 41.8033 27.4762 24.7304 44.3907 16.7178C27.2121 23.7882 13.3442 40.6675 10.4121 60.3731C9.17057 68.7379 10.0599 76.592 12.6309 83.4071C10.5794 76.8209 9.97183 69.4159 11.1341 61.5794Z" fill="#E6E8FF"/>
</g>
<defs>
<linearGradient id="paint0_linear_3282_123549" x1="75.8729" y1="111.662" x2="37.3422" y2="-4.96029" gradientUnits="userSpaceOnUse">
<stop stop-color="#707CF5"/>
<stop offset="1" stop-color="#E6E8FF"/>
</linearGradient>
<clipPath id="clip0_3282_123549">
<rect width="135.597" height="140" fill="white" transform="translate(0.56543 0.462891)"/>
</clipPath>
</defs>
</svg>