<svg viewBox="0 0 220 141" fill="none" xmlns="http://www.w3.org/2000/svg">
<g clip-path="url(#clip0_3282_122203)">
<path d="M46.1303 114.874H42.0703L31.6536 122.866L33.9388 131.102L46.1303 138.851L68.1239 140.464L46.1303 114.874Z" fill="black"/>
<path d="M22.6866 52.2227L0.56543 58.1966L106.914 129.212L119.639 133.074L219.318 108.656L216.94 106.058L22.6866 52.2227Z" fill="black"/>
<path d="M120.347 125.928L216.94 102.589V99.0394L128.386 38.418L27.9648 62.6851L120.347 125.928Z" fill="#808BF6"/>
<path d="M120.347 87.2753L216.94 63.9362V60.3866L130.903 1.49357L125.416 0.484375L27.9648 24.0439L120.359 87.2753H120.347Z" fill="#A0A9FA"/>
<path d="M120.347 87.277L216.94 63.9379V60.3883L130.81 1.43729L125.532 0.462891L27.9648 24.0456L120.359 87.277H120.347Z" fill="#808BF6"/>
<path d="M43.4504 26.8877L127.121 6.66895L205.282 60.168L121.623 80.3867L43.4504 26.8877Z" fill="#C3C8FC"/>
<mask id="mask0_3282_122203" style="mask-type:luminance" maskUnits="userSpaceOnUse" x="43" y="6" width="163" height="75">
<path d="M43.4504 26.8877L127.121 6.66895L205.282 60.168L121.623 80.3867L43.4504 26.8877Z" fill="white"/>
</mask>
<g mask="url(#mask0_3282_122203)">
<path d="M205.282 6.66895H127.121V65.504H205.282V6.66895Z" fill="#3E1689"/>
<path d="M43.4504 30.7256L127.121 10.5068L205.282 64.0059L121.623 84.213L43.4504 30.7256Z" fill="#A0A9FA"/>
</g>
<path d="M114.709 93.8306V127.239L22.6865 64.2623V30.8428L114.709 93.8306Z" fill="#2D35AD"/>
<path d="M114.709 93.8306V127.239L22.6865 64.2623V30.8428L114.709 93.8306Z" fill="#1D0066"/>
<path d="M31.6536 59.5298L105.743 110.245V98.5637L31.6536 47.8486V59.5298Z" fill="#3E1689"/>
<path d="M209.666 70.8614V85.4078L205.282 88.9226L209.666 90.0362V100.175L120.347 121.762V90.0362L209.585 68.2979L209.666 70.8614Z" fill="#C3C8FC"/>
<mask id="mask1_3282_122203" style="mask-type:luminance" maskUnits="userSpaceOnUse" x="120" y="68" width="90" height="54">
<path d="M209.666 70.8634V85.4098L205.282 88.9245L209.666 90.0381V100.177L120.347 121.764V90.0381L209.585 68.2998L209.666 70.8634Z" fill="white"/>
</mask>
<g mask="url(#mask1_3282_122203)">
<path d="M120.347 96.4748V64.7489L216.186 42.3262L216.151 73.3213" fill="black"/>
</g>
<path d="M216.94 69.1119L121.797 91.9523L120.324 93.8199L120.347 123.643L122.563 125.383L216.94 102.578V107.751L120.347 131.102L117.296 129.965L114.709 127.239V93.8199L116.774 90.0267L120.347 87.2659L216.94 63.9268V69.1119Z" fill="#5865F2"/>
<mask id="mask2_3282_122203" style="mask-type:luminance" maskUnits="userSpaceOnUse" x="114" y="63" width="103" height="69">
<path d="M216.94 69.1119L121.797 91.9523L120.324 93.8199L120.347 123.643L122.563 125.383L216.94 102.578V107.751L120.347 131.102L117.296 129.965L114.709 127.239V93.8199L116.774 90.0267L120.347 87.2659L216.94 63.9268V69.1003V69.1119Z" fill="white"/>
</mask>
<g mask="url(#mask2_3282_122203)">
<path d="M121.797 91.9512L120.347 87.2764L116.785 90.0372L114.709 93.8303H120.323L121.797 91.9512Z" fill="#707CF5"/>
<path d="M120.347 123.643L114.709 127.239L117.307 129.976L120.347 131.101L122.562 125.383L120.347 123.643Z" fill="#707CF5"/>
</g>
<path d="M27.9645 24.0459L24.0901 26.5979L22.6865 30.8435L114.709 93.8313L116.785 90.0381L120.347 87.2773L27.9645 24.0459Z" fill="#612CAF"/>
<mask id="mask3_3282_122203" style="mask-type:luminance" maskUnits="userSpaceOnUse" x="22" y="24" width="99" height="70">
<path d="M27.9645 24.0459L24.0901 26.5979L22.6865 30.8435L114.709 93.8313L116.785 90.0381L120.347 87.2773L27.9645 24.0459Z" fill="white"/>
</mask>
<g mask="url(#mask3_3282_122203)">
<path d="M24.0906 26.5969L116.786 90.0371L126.089 85.8959L28.6146 22.8037L24.0906 26.5969Z" fill="#2D35AD"/>
</g>
<path d="M58.1128 36.9205L63.646 22.0029L43.4504 26.8865L58.1128 36.9205Z" fill="#2D35AD"/>
<path d="M127.121 6.66895L141.668 16.6333L107.773 11.3437L127.121 6.66895Z" fill="#2D35AD"/>
<path d="M185.91 95.8615L197.486 93.0195V94.2143L185.898 97.0447L185.91 95.8615Z" fill="#A0A9FA"/>
<path d="M160.854 90.9088L176.537 95.9779L192.209 83.334L176.537 91.28L160.854 90.9088Z" fill="black"/>
<path d="M160.854 90.9088L184.495 92.8924L192.209 83.334L160.854 90.9088Z" fill="#E6E8FF"/>
<path d="M63.6465 22.0029L63.6233 25.9237L59.3661 37.7789L58.1133 36.9205L63.6465 22.0029Z" fill="#5865F2"/>
<path d="M105.023 57.4998C101.833 56.6414 88.9691 49.5307 88.0991 41.3411C89.0503 41.0163 89.9667 40.7959 89.9667 40.7959L105.023 57.4998Z" fill="black"/>
<path d="M126.541 104.224L138.118 101.382V102.577L126.53 105.395L126.541 104.224Z" fill="#A0A9FA"/>
<path d="M199.482 97.7393L206.047 96.127L206.07 97.3101L199.458 98.9109L199.482 97.7393Z" fill="#A0A9FA"/>
<path d="M141.725 106.022L161.399 101.185V102.403L141.714 107.193L141.725 106.022Z" fill="#A0A9FA"/>
<path d="M119.164 86.4658L216.94 62.8135V63.9387L120.347 87.2778L119.164 86.4658Z" fill="#A0A9FA"/>
<path d="M121.53 124.454L216.94 101.382V102.588L122.725 125.266L121.53 124.454Z" fill="#A0A9FA"/>
<path d="M115.51 89.167L114.709 93.8302L116.786 90.037L115.51 89.167Z" fill="#A056F2"/>
<path d="M159.682 42.6625C152.119 37.4773 141.969 33.7305 129.882 31.0625C124.859 31.1205 119.987 31.4685 115.371 32.0833C115.533 32.6749 115.777 33.2781 116.078 33.8813C113.665 34.2293 111.345 34.6585 109.153 35.1689C106.961 35.6793 104.873 36.2593 102.924 36.9205C101.717 36.5261 100.453 36.1665 99.1655 35.8301C97.1935 36.5261 95.3607 37.3033 93.7019 38.1269L89.9551 36.8857V40.2729C90.4887 47.1981 96.2887 52.7312 105.012 57.4988C108.619 57.7656 112.215 57.9048 115.753 57.8932H115.788C118.851 57.8932 121.878 57.7772 124.836 57.5568V54.1696L117.83 54.4016C117.992 54.2044 118.131 54.0072 118.282 53.8216C124.453 53.7752 130.195 53.1372 135.16 51.9888C139.429 51.0028 143.106 49.6456 145.995 47.9637V49.4948C148.152 50.1096 150.414 50.6548 152.746 51.1304C156.84 49.1816 159.972 46.8965 162.014 44.3677V40.9805L159.694 42.6741L159.682 42.6625ZM119.21 50.0516C116.38 50.7012 112.181 50.0516 109.884 48.5552C107.587 47.0705 107.981 45.3421 110.893 44.6693C113.805 43.9965 117.992 44.6693 120.231 46.1657C122.47 47.6621 122.099 49.3788 119.21 50.0516ZM138.292 45.6437C135.45 46.3049 131.263 45.6437 128.977 44.1473C126.681 42.6625 127.075 40.9341 129.987 40.2613C132.898 39.5885 137.074 40.2613 139.313 41.7577C141.552 43.2541 141.181 44.9709 138.304 45.6437H138.292Z" fill="#5865F2"/>
<mask id="mask4_3282_122203" style="mask-type:luminance" maskUnits="userSpaceOnUse" x="89" y="31" width="74" height="27">
<path d="M159.682 42.6634C152.119 37.4783 141.969 33.7315 129.881 31.0635C124.859 31.1215 119.987 31.4695 115.37 32.0843C115.532 32.6759 115.776 33.2791 116.077 33.8823C113.665 34.2303 111.345 34.6595 109.152 35.1699C106.96 35.6803 104.872 36.2603 102.923 36.9215C101.717 36.5271 100.452 36.1675 99.1647 35.8311C97.1927 36.5271 95.3599 37.3043 93.7011 38.1279L89.9543 36.8867V40.2739C90.4879 47.199 96.2879 52.7323 105.011 57.4998C108.619 57.7666 112.215 57.9058 115.753 57.8942H115.787C118.85 57.8942 121.877 57.7782 124.835 57.5578V54.1706L117.829 54.4026C117.991 54.2054 118.131 54.0082 118.281 53.8226C124.453 53.7762 130.195 53.1382 135.159 51.9898C139.428 51.0038 143.105 49.6466 145.994 47.9646V49.4958C148.151 50.1106 150.413 50.6558 152.745 51.1314C156.84 49.1826 159.972 46.8974 162.013 44.3686V40.9814L159.693 42.675L159.682 42.6634ZM119.209 50.0526C116.379 50.7023 112.18 50.0526 109.883 48.5562C107.586 47.0714 107.981 45.343 110.892 44.6702C113.804 43.9974 117.991 44.6702 120.23 46.1666C122.469 47.663 122.098 49.3798 119.209 50.0526ZM138.291 45.6446C135.449 46.3058 131.262 45.6446 128.977 44.1482C126.68 42.6634 127.074 40.9351 129.986 40.2623C132.897 39.5895 137.073 40.2622 139.312 41.7586C141.551 43.255 141.18 44.9718 138.303 45.6446H138.291Z" fill="white"/>
</mask>
<g mask="url(#mask4_3282_122203)">
<path d="M105.023 22.6074H76.417V73.1833H105.023V22.6074Z" fill="#3E1689"/>
<path d="M121.668 36.3066H113.85V48.0806H121.668V36.3066Z" fill="#3E1689"/>
<path d="M141.667 35.1465H133.849V44.9717H141.667V35.1465Z" fill="#3E1689"/>
<path d="M141.713 35.6104H138.94V45.4355H141.713V35.6104Z" fill="black"/>
<path d="M149.485 40.4834H141.667V50.3086H149.485V40.4834Z" fill="#161A8A"/>
<path d="M123.524 43.8809H115.706V53.706H123.524V43.8809Z" fill="#161A8A"/>
<path d="M121.982 36.4004H119.209V46.2256H121.982V36.4004Z" fill="black"/>
<path d="M152.721 47.744L145.982 46.1084L146.074 58.01L152.721 51.1312V47.744Z" fill="#612CAF"/>
</g>
<path d="M129.882 27.6873C143.245 30.6337 154.23 34.914 161.991 40.9808C159.949 43.5096 156.817 45.7948 152.722 47.7436C150.402 47.2796 148.14 46.7228 145.971 46.108C147.212 45.412 148.291 44.6696 149.184 43.8692C148.57 43.8344 147.943 43.788 147.328 43.7184C144.289 45.7948 140.102 47.4536 135.137 48.5904C130.172 49.7272 124.43 50.3768 118.259 50.4232C118.085 50.6552 117.911 50.8872 117.714 51.1192C119.941 51.1888 122.156 51.1772 124.302 51.0844C124.674 52.1168 124.848 53.1376 124.813 54.1584C118.433 54.6224 111.728 54.5992 105 54.1004C96.2769 49.3444 90.477 43.8112 89.9434 36.8744C92.4722 35.1924 95.5693 33.696 99.1537 32.4316C100.441 32.768 101.694 33.1276 102.912 33.522C104.861 32.8608 106.937 32.2808 109.141 31.7704C111.345 31.2601 113.654 30.8309 116.066 30.4829C115.765 29.8797 115.521 29.2881 115.359 28.6849C119.976 28.0701 124.848 27.7221 129.87 27.6641L129.882 27.6873ZM119.21 46.6764C122.098 46.0152 122.47 44.2868 120.231 42.7904C117.992 41.294 113.804 40.6212 110.893 41.294C107.981 41.9668 107.587 43.6952 109.884 45.18C112.18 46.6648 116.38 47.326 119.21 46.6764ZM138.292 42.2684C141.18 41.6072 141.552 39.8788 139.301 38.3824C137.062 36.886 132.886 36.2132 129.975 36.886C127.063 37.5588 126.669 39.2872 128.966 40.772C131.262 42.2568 135.438 42.918 138.28 42.2684" fill="#E6E8FF"/>
<path d="M60.1196 56.4671L22.6865 30.8428V64.2623L26.8973 37.7796L60.1196 56.4671Z" fill="#B3269C"/>
<path d="M119.164 86.4658L115.51 89.1686L116.786 90.0386L120.347 87.2778L119.164 86.4658Z" fill="#808BF6"/>
<path d="M127.179 6.66895L106.984 11.5525L141.668 16.6565L127.179 6.66895Z" fill="#2D35AD"/>
<path d="M106.984 11.5518V15.3217L141.668 20.4373V16.6325L106.984 11.5518Z" fill="#161A8A"/>
<path d="M190.793 50.2031L185.26 65.1091L205.282 60.1907L190.793 50.2031Z" fill="#2D35AD"/>
<path d="M106.961 70.3525L121.623 80.3865L141.853 75.4913L106.961 70.3525Z" fill="#2D35AD"/>
<path d="M197.846 58.544L197.498 57.2217L191.745 56.4561L190.828 57.7669C190.828 57.7669 190.747 57.8713 190.712 57.9293C190.469 58.37 190.677 58.892 191.362 59.356C192.591 60.2028 194.9 60.5624 196.524 60.168C197.765 59.8664 198.241 59.2052 197.835 58.5324L197.846 58.544Z" fill="#A0A9FA"/>
<mask id="mask5_3282_122203" style="mask-type:luminance" maskUnits="userSpaceOnUse" x="190" y="56" width="8" height="5">
<path d="M197.846 58.5431L197.498 57.2207L191.745 56.4551L190.828 57.7659C190.828 57.7659 190.747 57.8703 190.712 57.9283C190.469 58.3691 190.678 58.8911 191.362 59.3551C192.592 60.2019 194.9 60.5615 196.524 60.1671C197.765 59.8655 198.241 59.2043 197.835 58.5315L197.846 58.5431Z" fill="white"/>
</mask>
<g mask="url(#mask5_3282_122203)">
<path d="M195.271 56.1656L191.501 55.6436L187.766 62.0235L195.271 61.3507V56.1656Z" fill="#A056F2"/>
</g>
<path d="M196.906 56.4206C197.881 57.0818 197.625 57.8706 196.35 58.1838C195.074 58.497 193.252 58.207 192.29 57.5458C191.327 56.8846 191.57 56.0958 192.846 55.7826C194.122 55.4694 195.944 55.7594 196.918 56.4206H196.906Z" fill="#E6E8FF"/>
<path d="M126.379 75.921L126.031 74.5986L120.277 73.833L119.361 75.1438C119.361 75.1438 119.279 75.2482 119.245 75.3062C119.001 75.747 119.21 76.269 119.894 76.733C121.124 77.5798 123.432 77.9394 125.056 77.545C126.297 77.2434 126.773 76.5822 126.367 75.9094L126.379 75.921Z" fill="#A0A9FA"/>
<mask id="mask6_3282_122203" style="mask-type:luminance" maskUnits="userSpaceOnUse" x="119" y="73" width="8" height="5">
<path d="M126.379 75.92L126.031 74.5976L120.277 73.832L119.361 75.1428C119.361 75.1428 119.279 75.2472 119.245 75.3052C119.001 75.746 119.21 76.268 119.894 76.732C121.124 77.5788 123.432 77.9384 125.056 77.544C126.297 77.2424 126.773 76.5812 126.367 75.9084L126.379 75.92Z" fill="white"/>
</mask>
<g mask="url(#mask6_3282_122203)">
<path d="M123.815 73.5309L120.045 73.0205L116.31 79.4005L123.815 78.7161V73.5309Z" fill="#A056F2"/>
</g>
<path d="M125.44 73.7858C126.414 74.447 126.159 75.2358 124.883 75.549C123.607 75.8622 121.786 75.5722 120.823 74.911C119.86 74.2498 120.104 73.461 121.38 73.1478C122.656 72.8347 124.477 73.1246 125.451 73.7858H125.44Z" fill="#E6E8FF"/>
<path d="M129.383 10.6593L129.035 9.33689L123.281 8.57129L122.365 9.88209C122.365 9.88209 122.284 9.98649 122.249 10.0445C122.005 10.4853 122.214 11.0073 122.899 11.4713C124.128 12.3181 126.437 12.6777 128.061 12.2833C129.302 11.9817 129.777 11.3205 129.371 10.6477L129.383 10.6593Z" fill="#A0A9FA"/>
<mask id="mask7_3282_122203" style="mask-type:luminance" maskUnits="userSpaceOnUse" x="122" y="8" width="8" height="5">
<path d="M129.383 10.6593L129.035 9.33689L123.281 8.57129L122.365 9.88197C122.365 9.88197 122.284 9.98637 122.249 10.0444C122.005 10.4852 122.214 11.0072 122.899 11.4712C124.128 12.318 126.437 12.6776 128.061 12.2832C129.302 11.9817 129.777 11.3204 129.371 10.6476L129.383 10.6593Z" fill="white"/>
</mask>
<g mask="url(#mask7_3282_122203)">
<path d="M126.82 8.28274L123.05 7.76074L119.314 14.1407L126.82 13.4679V8.28274Z" fill="#A056F2"/>
</g>
<path d="M128.455 8.53585C129.43 9.19705 129.175 9.98584 127.899 10.299C126.623 10.6122 124.801 10.3222 123.839 9.66104C122.876 8.99985 123.119 8.21105 124.395 7.89785C125.671 7.58465 127.493 7.87465 128.467 8.53585H128.455Z" fill="#E6E8FF"/>
<path d="M58.2175 28.2335L57.8695 26.9111L52.1159 26.1455L51.1995 27.4563C51.1995 27.4563 51.1183 27.5607 51.0835 27.6187C50.8399 28.0595 51.0487 28.5815 51.7331 29.0455C52.9627 29.8923 55.2711 30.2519 56.8951 29.8575C58.1363 29.5559 58.6119 28.8947 58.2059 28.2219L58.2175 28.2335Z" fill="#A0A9FA"/>
<mask id="mask8_3282_122203" style="mask-type:luminance" maskUnits="userSpaceOnUse" x="50" y="26" width="9" height="5">
<path d="M58.2175 28.2325L57.8695 26.9101L52.1159 26.1445L51.1995 27.4553C51.1995 27.4553 51.1183 27.5597 51.0835 27.6177C50.8399 28.0585 51.0487 28.5805 51.7331 29.0445C52.9627 29.8913 55.2711 30.2509 56.8951 29.8565C58.1363 29.5549 58.6119 28.8937 58.2059 28.2209L58.2175 28.2325Z" fill="white"/>
</mask>
<g mask="url(#mask8_3282_122203)">
<path d="M55.6539 25.8434L51.8723 25.333L48.1487 31.713L55.6539 31.0402V25.8434Z" fill="#A056F2"/>
</g>
<path d="M57.2781 26.0983C58.2525 26.7595 57.9973 27.5483 56.7213 27.8615C55.4453 28.1747 53.6241 27.8847 52.6613 27.2235C51.6985 26.5623 51.9421 25.7735 53.2181 25.4603C54.4941 25.1471 56.3153 25.4372 57.2897 26.0983H57.2781Z" fill="#E6E8FF"/>
<path d="M86.0571 75.9102L56.28 84.3665L43.4504 114.874L68.1236 140.464L98.4923 132.854L110.591 101.627L86.0571 75.9102Z" fill="#FD99E9"/>
<path d="M88.7719 90.7549L63.136 114.871L96.6367 125.926L88.7719 90.7549Z" fill="#FF4CD2"/>
<path d="M68.0195 113.782L87.2523 95.6973L93.1451 122.076L68.0195 113.782Z" fill="#FD99E9"/>
<path d="M88.7718 90.7549L56.2803 84.3633L63.1359 114.871L88.7718 90.7549Z" fill="#FD99E9"/>
<path d="M59.6445 87.6357L83.3781 92.3105L64.6441 109.931L59.6445 87.6357Z" fill="#FF4CD2"/>
<path d="M43.4507 114.871L56.2802 84.3633L63.1358 114.871H43.4507Z" fill="#3E1689"/>
<path d="M47.3135 112.307L55.5379 92.7383L59.9342 112.307H47.3135Z" fill="#612CAF"/>
<path d="M43.4507 114.872H63.1358L68.1238 140.462L43.4507 114.872Z" fill="#612CAF"/>
<path d="M49.4829 117.436H61.0249L63.9481 132.434L49.4829 117.436Z" fill="#3E1689"/>
<path d="M63.136 114.872L68.124 140.462L96.6367 125.927L63.136 114.872Z" fill="#ED18ED"/>
<path d="M66.488 118.678L90.0012 126.438L69.9912 136.634L66.488 118.678Z" fill="#B3269C"/>
<path d="M68.1235 140.461L98.4922 132.851L96.6363 125.926L68.1235 140.461Z" fill="#660066"/>
<path d="M96.6363 125.926L110.591 101.624L88.7715 90.7549L96.6363 125.926Z" fill="#FD99E9"/>
<path d="M92.4373 95.4424L107.018 102.704L97.692 118.932L92.4373 95.4424Z" fill="#FF4CD2"/>
<path d="M110.591 101.624L98.4922 132.851L96.6362 125.926L110.591 101.624Z" fill="#8C1381"/>
<path d="M88.7718 90.7552L86.0574 75.9072L110.591 101.624L88.7718 90.7552Z" fill="#FBE6FF"/>
<path d="M91.0573 89.0378L90.1177 83.8643L98.6553 92.8194L91.0573 89.0378Z" fill="#FCC0F4"/>
<path d="M86.0574 75.9072L56.2803 84.3636L88.7718 90.7552L86.0574 75.9072Z" fill="#FCC0F4"/>
<path d="M67.2539 83.9102L84.0507 79.1426L85.5703 87.5178L67.2539 83.9102Z" fill="#FD99E9"/>
<path d="M80.8142 89.1885L87.4146 89.3857L87.229 82.3213L88.7718 90.7545L80.8142 89.1885Z" fill="white"/>
</g>
<defs>
<clipPath id="clip0_3282_122203">
<rect width="218.752" height="140" fill="white" transform="translate(0.56543 0.462891)"/>
</clipPath>
</defs>
</svg>