<svg viewBox="0 0 191 29" fill="none" xmlns="http://www.w3.org/2000/svg">
<path d="M23.8109 0.544922C23.4499 1.18581 23.1258 1.84879 22.8311 2.52651C20.0319 2.10662 17.181 2.10662 14.3744 2.52651C14.0871 1.84879 13.7556 1.18581 13.3947 0.544922C10.7648 0.994277 8.20129 1.78249 5.77035 2.89483C0.952675 10.033 -0.351192 16.9869 0.297058 23.8451C3.11842 25.9298 6.27864 27.521 9.64513 28.5376C10.4039 27.521 11.0742 26.4381 11.6488 25.311C10.5586 24.9059 9.50516 24.3976 8.49595 23.8083C8.76115 23.6167 9.01897 23.4179 9.26943 23.2263C15.1847 26.0109 22.0355 26.0109 27.9582 23.2263C28.2087 23.4326 28.4665 23.6315 28.7317 23.8083C27.7225 24.405 26.6691 24.9059 25.5715 25.3184C26.146 26.4455 26.8164 27.5283 27.5751 28.5449C30.9416 27.5283 34.1018 25.9446 36.9232 23.8598C37.6893 15.904 35.612 9.00901 31.4352 2.9022C29.0116 1.78986 26.4481 1.00164 23.8182 0.559655L23.8109 0.544922ZM12.4739 19.6241C10.6543 19.6241 9.14421 17.974 9.14421 15.9335C9.14421 13.893 10.5954 12.2355 12.4665 12.2355C14.3376 12.2355 15.8256 13.9004 15.7961 15.9335C15.7667 17.9667 14.3302 19.6241 12.4739 19.6241ZM24.7464 19.6241C22.9195 19.6241 21.4241 17.974 21.4241 15.9335C21.4241 13.893 22.8753 12.2355 24.7464 12.2355C26.6175 12.2355 28.0982 13.9004 28.0687 15.9335C28.0392 17.9667 26.6028 19.6241 24.7464 19.6241ZM72.6454 5.65726C70.8111 4.83221 68.5717 4.41969 65.9198 4.41969H54.929V24.1545H65.1315C68.0045 24.1545 70.4133 23.7125 72.3581 22.8285C74.1334 22.0919 75.6435 20.8396 76.7043 19.2337C77.6546 17.7162 78.1481 15.9556 78.126 14.1655C78.1555 12.3829 77.684 10.6296 76.7559 9.10478C75.7688 7.56518 74.3323 6.35708 72.6454 5.64989V5.65726ZM69.1389 17.7972C68.1813 18.6886 66.8111 19.1379 65.021 19.1379H61.9787V9.44363H65.4188C67.1426 9.44363 68.4391 9.87826 69.301 10.7254C70.1776 11.6388 70.6417 12.8764 70.5827 14.1508C70.649 15.521 70.126 16.847 69.1463 17.8046L69.1389 17.7972ZM106.539 15.6167C107.437 16.4197 107.887 17.5983 107.894 19.1527C107.923 20.8101 107.069 22.3644 105.647 23.2263C104.167 24.2208 102.045 24.7217 99.2899 24.7144C97.7061 24.7144 96.1297 24.5155 94.5975 24.125C93.1463 23.7641 91.7614 23.1821 90.4796 22.4086V17.7309C91.5993 18.5412 92.8516 19.1379 94.185 19.4915C95.6435 19.9335 97.161 20.1692 98.6859 20.1766C99.2089 20.2061 99.7393 20.1103 100.225 19.9114C100.572 19.7346 100.741 19.5063 100.741 19.2779C100.748 19.0127 100.645 18.7622 100.461 18.5707C100.137 18.3276 99.7614 18.1582 99.3636 18.0919L95.9824 17.3331C94.045 16.8838 92.6675 16.2576 91.8572 15.4621C91.0321 14.6296 90.5901 13.4878 90.649 12.3166C90.6343 11.2705 91.0174 10.2539 91.7172 9.4731C92.5496 8.58912 93.603 7.94824 94.7595 7.60201C96.2549 7.13056 97.8166 6.90956 99.3857 6.93903C100.852 6.9243 102.31 7.09373 103.725 7.44732C104.874 7.71988 105.971 8.1545 106.995 8.74382V13.1711C106.038 12.6186 105.006 12.1913 103.938 11.9188C102.774 11.6094 101.574 11.4473 100.373 11.4473C98.6048 11.4473 97.7209 11.7493 97.7209 12.346C97.7209 12.6186 97.8756 12.869 98.126 12.9795C98.6122 13.1858 99.1131 13.3331 99.6288 13.4142L102.45 13.9225C104.277 14.2466 105.647 14.8064 106.546 15.6167H106.539ZM125.249 18.8727C126.074 18.637 126.863 18.2981 127.599 17.8709V22.8654C125.419 24.1324 122.929 24.7807 120.41 24.7291C118.391 24.7807 116.38 24.3755 114.546 23.5357C113.036 22.8433 111.769 21.7236 110.892 20.3166C110.074 18.9317 109.655 17.3552 109.684 15.7493C109.662 14.1434 110.104 12.567 110.951 11.2116C111.857 9.82669 113.154 8.73645 114.671 8.07347C116.52 7.27052 118.516 6.8801 120.535 6.93166C123.356 6.93166 125.691 7.52098 127.555 8.70699V13.8709C126.848 13.3921 126.074 13.0237 125.257 12.7733C124.343 12.486 123.393 12.346 122.435 12.3534C120.69 12.3534 119.319 12.6702 118.332 13.311C116.947 14.0845 116.446 15.8377 117.22 17.23C117.47 17.6794 117.846 18.0551 118.288 18.3202C119.246 18.9685 120.638 19.2926 122.458 19.2926C123.4 19.2926 124.336 19.16 125.235 18.8875L125.249 18.8727ZM146.119 8.0661C142.413 6.56334 138.266 6.56334 134.561 8.0661C133.051 8.72908 131.769 9.81196 130.855 11.1821C129.993 12.5376 129.544 14.1066 129.574 15.7125C129.551 17.3331 130.001 18.9317 130.855 20.3092C131.761 21.7162 133.058 22.8359 134.583 23.5284C138.266 25.0974 142.428 25.0974 146.111 23.521C147.629 22.8285 148.918 21.7088 149.817 20.3018C150.664 18.9169 151.106 17.3258 151.084 15.7051C151.113 14.0993 150.671 12.5228 149.817 11.1674C148.911 9.80459 147.629 8.72172 146.126 8.0661H146.119ZM143.143 18.5265C142.384 19.2411 141.367 19.6167 140.321 19.5504C139.283 19.602 138.266 19.2337 137.5 18.5265C136.8 17.7972 136.424 16.8175 136.476 15.8009C136.424 14.7991 136.8 13.8267 137.5 13.1121C138.266 12.4123 139.283 12.0587 140.321 12.1103C141.36 12.0514 142.376 12.4123 143.143 13.1121C143.85 13.8267 144.225 14.7991 144.174 15.8009C144.218 16.8101 143.85 17.7972 143.143 18.5265ZM165.456 7.28525C166.354 7.26315 167.246 7.49152 168.019 7.96297V14.0624C167.179 13.5615 166.207 13.3184 165.227 13.3552C163.725 13.3552 162.568 13.812 161.758 14.7254C160.955 15.6388 160.55 17.0532 160.55 18.9685V24.1545H153.64V7.66094H160.402V12.8985C160.778 10.9832 161.382 9.56886 162.222 8.65542C163.047 7.74934 164.218 7.24842 165.441 7.28525H165.456ZM184.063 3.85247V11.2042C182.936 8.34603 180.726 6.91693 177.441 6.91693C175.938 6.89483 174.458 7.29262 173.168 8.07347C171.916 8.85431 170.907 9.96665 170.266 11.2926C169.566 12.7438 169.22 14.335 169.272 15.9409C169.242 17.4952 169.566 19.0274 170.214 20.4418C170.804 21.7162 171.747 22.8064 172.925 23.5725C174.148 24.346 175.57 24.7438 177.014 24.7144C178.553 24.7586 180.071 24.3829 181.404 23.6167C182.612 22.8727 183.548 21.7604 184.071 20.4418V24.1471H190.981V3.85247H184.071H184.063ZM183.047 18.4307C182.281 19.1379 181.264 19.4989 180.225 19.44C179.209 19.4915 178.214 19.1232 177.463 18.4307C176.756 17.7457 176.373 16.788 176.41 15.8009C176.373 14.8212 176.748 13.8783 177.456 13.1932C179.084 11.8672 181.419 11.8672 183.047 13.1932C183.754 13.8562 184.137 14.7917 184.108 15.7641C184.144 16.7586 183.761 17.7309 183.047 18.4307ZM87.3931 6.32761C87.3931 8.03664 85.8535 9.42153 83.9529 9.42153C82.0524 9.42153 80.5128 8.03664 80.5128 6.32761C80.5128 4.61859 82.0524 3.23369 83.9529 3.23369C85.8535 3.23369 87.3931 4.61859 87.3931 6.32761ZM87.3931 11.5504V24.2429H80.5054V11.5504C82.708 12.4786 85.1905 12.4786 87.3931 11.5504Z" fill="black"/>
</svg>