<svg width="25" height="25" viewBox="0 0 25 25" fill="none" xmlns="http://www.w3.org/2000/svg">
<path fill-rule="evenodd" clip-rule="evenodd" d="M7.23047 12.2617C7.23047 9.5003 9.46905 7.26172 12.2305 7.26172C14.9919 7.26172 17.2305 9.5003 17.2305 12.2617C17.2305 15.0231 14.9919 17.2617 12.2305 17.2617C9.46905 17.2617 7.23047 15.0231 7.23047 12.2617ZM12.2305 9.26172C10.5736 9.26172 9.23047 10.6049 9.23047 12.2617C9.23047 13.9186 10.5736 15.2617 12.2305 15.2617C13.8873 15.2617 15.2305 13.9186 15.2305 12.2617C15.2305 10.6049 13.8873 9.26172 12.2305 9.26172Z" fill="white"/>
<path d="M17.4805 8.26172C18.1708 8.26172 18.7305 7.70207 18.7305 7.01172C18.7305 6.32136 18.1708 5.76172 17.4805 5.76172C16.7901 5.76172 16.2305 6.32136 16.2305 7.01172C16.2305 7.70207 16.7901 8.26172 17.4805 8.26172Z" fill="white"/>
<path fill-rule="evenodd" clip-rule="evenodd" d="M8.08894 2.33166C7.02493 2.38186 6.29833 2.55166 5.66312 2.80126C5.00571 3.05746 4.44851 3.40126 3.8941 3.95766C3.3397 4.51406 2.99829 5.07167 2.74389 5.73007C2.49769 6.36667 2.33089 7.09387 2.28389 8.15848C2.23689 9.22308 2.22648 9.56528 2.23168 12.2809C2.23689 14.9965 2.24889 15.3369 2.30049 16.4037C2.35129 17.4675 2.52049 18.1939 2.77009 18.8293C3.02669 19.4867 3.3701 20.0437 3.9267 20.5983C4.48331 21.1529 5.04051 21.4935 5.70052 21.7483C6.33653 21.9941 7.06393 22.1617 8.12835 22.2083C9.19276 22.2549 9.53536 22.2657 12.2502 22.2605C14.965 22.2553 15.3068 22.2433 16.3734 22.1927C17.9258 22.1191 19.4462 21.6928 20.5673 20.5665C21.6887 19.4399 22.1094 17.9195 22.1769 16.3659C22.2235 15.2985 22.2345 14.9577 22.2293 12.2425C22.2241 9.52728 22.2119 9.18688 22.1613 8.12048C22.0875 6.56638 21.6615 5.0483 20.5355 3.92506C19.4103 2.80273 17.887 2.38256 16.3342 2.31546C15.2698 2.26946 14.9272 2.25766 12.2114 2.26286C9.49556 2.26806 9.15556 2.27966 8.08894 2.33166ZM8.18633 4.32928L8.1832 4.32944C7.30789 4.37073 6.8003 4.50328 6.39457 4.66271L6.38935 4.66475C5.97397 4.82664 5.65648 5.02247 5.31085 5.36933C4.9651 5.71633 4.77053 6.03408 4.60947 6.45092C4.45147 6.85945 4.32066 7.36972 4.28194 8.24669C4.237 9.26466 4.2265 9.57035 4.23168 12.2771C4.23686 14.9833 4.24881 15.2871 4.29815 16.3071L4.29821 16.3083C4.34007 17.185 4.47235 17.6926 4.63161 18.0981L4.6332 18.1021C4.79577 18.5186 4.99158 18.836 5.33836 19.1816C5.68476 19.5267 6.00165 19.7207 6.42082 19.8825C6.83 20.0407 7.34077 20.1719 8.21582 20.2102C9.23438 20.2548 9.54111 20.2657 12.2464 20.2605C14.9517 20.2553 15.2577 20.2434 16.2787 20.195C17.5595 20.1342 18.5138 19.7945 19.1498 19.1556C19.7873 18.5151 20.1231 17.5597 20.1788 16.2791C20.2234 15.2572 20.2345 14.9515 20.2293 12.2463C20.2241 9.54097 20.212 9.23616 20.1635 8.21527C20.1027 6.93364 19.7636 5.98002 19.123 5.34106C18.4854 4.70498 17.5292 4.36897 16.2479 4.31359C15.2278 4.26951 14.9198 4.25767 12.2152 4.26285C9.50808 4.26804 9.20537 4.2796 8.18633 4.32928Z" fill="white"/>
</svg>