<svg width="25" height="25" viewBox="0 0 25 25" fill="none" xmlns="http://www.w3.org/2000/svg">
<g clip-path="url(#clip0_3282_123862)">
<path d="M23.7287 6.91591C23.4532 5.87124 22.6391 5.04865 21.6068 4.76898C19.7346 4.26172 12.2305 4.26172 12.2305 4.26172C12.2305 4.26172 4.72501 4.26172 2.85411 4.76898C1.82183 5.04865 1.00774 5.87124 0.732287 6.91591C0.230469 8.80922 0.230469 12.7617 0.230469 12.7617C0.230469 12.7617 0.230469 16.7128 0.732287 18.6075C1.00774 19.6522 1.82183 20.4748 2.85411 20.7545C4.72638 21.2617 12.2305 21.2617 12.2305 21.2617C12.2305 21.2617 19.7359 21.2617 21.6068 20.7545C22.6391 20.4748 23.4532 19.6522 23.7287 18.6075C24.2305 16.7142 24.2305 12.7617 24.2305 12.7617C24.2305 12.7617 24.2305 8.81059 23.7287 6.91591ZM9.77592 16.3495V9.1739L16.0487 12.7617L9.77592 16.3495Z" fill="white"/>
</g>
<defs>
<clipPath id="clip0_3282_123862">
<rect width="24" height="24" fill="white" transform="translate(0.230469 0.261719)"/>
</clipPath>
</defs>
</svg>