<svg viewBox="0 0 164 131" fill="none" xmlns="http://www.w3.org/2000/svg">
<path d="M37.4697 42.2247L26.6529 35.543L22.9878 41.8864L33.8046 48.5682L37.4697 42.2247Z" fill="#5865F2"/>
<path d="M89.467 9.16417C89.467 9.16417 102.116 17.6973 102.116 17.9604C102.116 18.2236 121.034 17.6315 121.034 17.6315L116.608 7.12486L103.084 2.33203L89.467 9.17356V9.16417Z" fill="#FF4CD2"/>
<path d="M114.756 17.632C119.699 10.1702 116.805 3.26288 109.522 1.65587C102.953 0.199225 94.1563 3.41324 88.8936 9.17403L114.747 17.632H114.756Z" fill="#FD99E9"/>
<mask id="mask0_3282_123196" style="mask-type:luminance" maskUnits="userSpaceOnUse" x="88" y="1" width="30" height="17">
<path d="M114.756 17.632C119.699 10.1702 116.805 3.26288 109.522 1.65587C102.953 0.199225 94.1563 3.41324 88.8936 9.17403L114.747 17.632H114.756Z" fill="white"/>
</mask>
<g mask="url(#mask0_3282_123196)">
<path d="M113.29 16.5985C117.613 10.0764 115.085 4.04312 108.723 2.63346C102.981 1.36477 95.2937 4.17468 90.6982 9.20246L113.3 16.5985H113.29Z" fill="#A0A9FA"/>
</g>
<path d="M107.435 3.7227C102.99 2.73594 97.0319 4.91621 93.4702 8.81626L110.969 14.5395C114.314 9.48349 112.36 4.81283 107.426 3.7227H107.435Z" fill="#A0A9FA"/>
<mask id="mask1_3282_123196" style="mask-type:luminance" maskUnits="userSpaceOnUse" x="93" y="3" width="20" height="12">
<path d="M107.435 3.72368C102.99 2.73692 97.0322 4.91718 93.4705 8.81723L110.969 14.5404C114.315 9.48447 112.36 4.81381 107.426 3.72368H107.435Z" fill="white"/>
</mask>
<g mask="url(#mask1_3282_123196)">
<path d="M113.44 26.9258L93.1978 25.9297V-5.02637L113.44 -4.03021V26.9258Z" fill="black"/>
</g>
<path d="M115.113 17.8572C115.113 17.8572 119.446 40.0452 125.733 51.36C132.02 62.6842 136.286 65.964 140.581 65.3532C143.137 64.9867 147.996 64.3288 147.846 53.3805C147.695 42.4322 146.615 24.6235 143.09 14.7653L132.753 10.4424L124.182 12.1904L115.104 17.8478L115.113 17.8572Z" fill="#C3C8FC"/>
<mask id="mask2_3282_123196" style="mask-type:luminance" maskUnits="userSpaceOnUse" x="115" y="10" width="33" height="56">
<path d="M115.113 17.8582C115.113 17.8582 119.446 40.0461 125.733 51.361C132.02 62.6852 136.286 65.965 140.581 65.3542C143.137 64.9877 147.996 64.3298 147.846 53.3815C147.695 42.4332 146.615 24.6245 143.09 14.7663L132.753 10.4434L124.182 12.1913L115.104 17.8488L115.113 17.8582Z" fill="white"/>
</mask>
<g mask="url(#mask2_3282_123196)">
<path d="M140.995 3.48926L164.405 55.8251L139.313 42.9032L126.983 7.77461L140.995 3.48926Z" fill="black"/>
<path d="M127.688 7.61523L148.635 58.4192L136.521 71.9144L112.642 10.9044L127.688 7.61523Z" fill="#000066"/>
<path d="M131.071 26.9167C131.522 28.1478 133.204 31.6343 133.881 32.8185C136.287 33.0064 151.154 35.4216 151.154 35.4216L141.925 9.17383L139.839 21.5318L131.08 26.9167H131.071Z" fill="#5865F2"/>
<path d="M142.263 20.9503L144.707 29.6808L147.507 29.6244L143.654 12.248L143.006 19.4655" fill="#FF4CD2"/>
</g>
<path d="M103.874 18.5712C107.367 18.5712 110.198 15.7395 110.198 12.2465C110.198 8.75352 107.367 5.92188 103.874 5.92188C100.381 5.92188 97.5491 8.75352 97.5491 12.2465C97.5491 15.7395 100.381 18.5712 103.874 18.5712Z" fill="#A0A9FA"/>
<mask id="mask3_3282_123196" style="mask-type:luminance" maskUnits="userSpaceOnUse" x="97" y="5" width="14" height="14">
<path d="M110.195 12.4572C110.311 8.96615 107.575 6.04184 104.084 5.92559C100.593 5.80935 97.669 8.5452 97.5528 12.0363C97.4365 15.5273 100.172 18.4517 103.663 18.5679C107.155 18.6841 110.079 15.9483 110.195 12.4572Z" fill="white"/>
</mask>
<g mask="url(#mask3_3282_123196)">
<path d="M98.9966 8.29882C101.853 6.87037 103.761 6.99254 105.885 7.71617C108.009 8.43979 109.419 9.96222 110.199 12.2553C111.242 8.68413 108.413 4.85926 106.721 4.7089C105.03 4.55854 102.38 4.7089 99.5416 7.65038" fill="#FD99E9"/>
</g>
<path d="M135.046 21.2319C135.046 17.7359 132.217 14.9072 128.721 14.9072C125.225 14.9072 122.396 17.7359 122.396 21.2319C122.396 24.7278 124.981 26.0717 128.477 26.0717C131.973 26.0717 135.046 24.7184 135.046 21.2319Z" fill="#A0A9FA"/>
<mask id="mask4_3282_123196" style="mask-type:luminance" maskUnits="userSpaceOnUse" x="122" y="14" width="14" height="13">
<path d="M135.046 21.2319C135.046 17.7359 132.217 14.9072 128.721 14.9072C125.225 14.9072 122.396 17.7359 122.396 21.2319C122.396 24.7278 124.981 26.0717 128.477 26.0717C131.973 26.0717 135.046 24.7184 135.046 21.2319Z" fill="white"/>
</mask>
<g mask="url(#mask4_3282_123196)">
<path d="M128.73 28.3649C134.092 28.3649 138.438 24.0185 138.438 18.6571C138.438 13.2956 134.092 8.94922 128.73 8.94922C123.369 8.94922 119.022 13.2956 119.022 18.6571C119.022 24.0185 123.369 28.3649 128.73 28.3649Z" fill="#8892F7"/>
<path d="M122.791 19.0336C124.859 16.9473 126.391 15.9888 129.144 16.2895C131.898 16.5902 133.824 17.7085 135.055 20.7158C135.572 16.5808 131.522 13.9307 129.36 13.9307C127.199 13.9307 123.59 15.7632 122.801 19.0336" fill="#FD99E9"/>
</g>
<path d="M140.158 11.0445C132.988 6.58997 120.686 10.631 115.113 17.2846L118.713 19.0889C118.713 19.0889 119.577 18.1116 119.859 17.7826C123.628 13.3845 131.775 10.6498 136.559 13.6195C141.286 16.5515 137.969 21.88 132.142 25.1974C131.907 25.329 131.503 25.5827 131.052 25.8741C130.666 26.1184 130.676 26.6823 131.061 26.9078L132.687 27.8852C133.223 28.2141 133.89 28.2235 134.444 27.9322C142.874 23.4213 147 15.2922 140.149 11.0351L140.158 11.0445Z" fill="#FD99E9"/>
<mask id="mask5_3282_123196" style="mask-type:luminance" maskUnits="userSpaceOnUse" x="115" y="9" width="29" height="20">
<path d="M140.158 11.0445C132.988 6.58997 120.686 10.631 115.113 17.2846L118.713 19.0889C118.713 19.0889 119.577 18.1116 119.859 17.7826C123.628 13.3845 131.775 10.6498 136.559 13.6195C141.286 16.5515 137.969 21.88 132.142 25.1974C131.907 25.329 131.503 25.5827 131.052 25.8741C130.666 26.1184 130.676 26.6823 131.061 26.9078L132.687 27.8852C133.223 28.2141 133.89 28.2235 134.444 27.9322C142.874 23.4213 147 15.2922 140.149 11.0351L140.158 11.0445Z" fill="white"/>
</mask>
<g mask="url(#mask5_3282_123196)">
<path d="M139.529 12.8775C132.358 8.42298 120.056 12.464 114.484 19.1176L118.083 20.9219C118.083 20.9219 118.948 19.9446 119.229 19.6156C122.998 15.2175 131.146 12.4828 135.929 15.4525C140.656 18.3845 135.722 22.4256 129.905 25.7336C129.67 25.8651 129.266 26.1189 128.815 26.4102C128.43 26.6545 130.056 28.5059 130.441 28.7408L132.067 29.7182C132.602 30.0471 133.27 30.0565 133.824 29.7652C142.254 25.2543 146.379 17.1253 139.529 12.8681V12.8775Z" fill="#A0A9FA"/>
</g>
<path d="M133.665 31.513C134.003 34.7552 134.914 36.6911 135.45 39.2379C135.986 41.7847 144.81 71.9231 146.21 76.716C147.611 81.5088 151.332 85.1739 156.069 83.4917C160.815 81.8095 162.722 79.056 163.408 68.6527C164.094 58.2495 163.051 40.1307 158.991 32.2554L148.889 28.4023L133.665 31.513Z" fill="#8892F7"/>
<mask id="mask6_3282_123196" style="mask-type:luminance" maskUnits="userSpaceOnUse" x="133" y="28" width="31" height="56">
<path d="M133.665 31.513C134.003 34.7552 134.914 36.6911 135.45 39.2379C135.986 41.7847 144.81 71.9231 146.21 76.716C147.611 81.5088 151.332 85.1739 156.069 83.4917C160.815 81.8095 162.722 79.056 163.408 68.6527C164.094 58.2495 163.051 40.1307 158.991 32.2554L148.889 28.4023L133.665 31.513Z" fill="white"/>
</mask>
<g mask="url(#mask6_3282_123196)">
<path d="M148.795 44.9525C146.267 46.7474 141.859 48.5236 138.316 49.1533C144.227 53.9273 152.319 43.0542 156.83 54.3972C159.893 62.0939 156.191 80.5134 161.463 78.9346C166.744 77.3558 173.933 64.105 172.665 54.9798C171.405 45.8547 166.904 32.8858 165.936 30.9405C164.968 28.9952 163.483 29.7846 163.483 29.7846C163.483 29.7846 161.284 25.3395 158.982 32.275C155.448 42.8944 146.276 44.1819 146.276 44.1819" fill="#5865F2"/>
<path d="M131.484 30.3665L135.046 43.6736L155.392 41.7659L157.178 31.2874L148.889 28.4023L131.484 30.3665Z" fill="#5865F2"/>
<path d="M142.574 27.5947L145.666 45.0933L147.601 44.8395L153.419 40.1125L151.736 30.2543L142.574 27.5947Z" fill="#2D35AD"/>
<path d="M147.648 28.543L150.364 42.3576L152.037 42.5455L156.05 36.1175L155.119 30.6575L147.648 28.543Z" fill="black"/>
<path d="M157.986 37.9412C161.66 51.831 162.572 59.0202 162.384 76.2932C162.309 82.646 166.932 78.0882 166.932 78.0882C166.932 78.0882 170.146 57.8549 167.393 48.57C164.639 39.285 158.766 27.8574 158.766 27.8574L159.367 35.2252" fill="#FF4CD2"/>
</g>
<path d="M151.37 39.6967C151.37 35.402 147.893 31.9248 143.598 31.9248C139.303 31.9248 135.826 35.402 135.826 39.6967C135.826 43.9915 137.734 46.5476 142.028 46.5476C146.323 46.5476 152.357 45.0064 151.37 39.6967Z" fill="#5865F2"/>
<mask id="mask7_3282_123196" style="mask-type:luminance" maskUnits="userSpaceOnUse" x="135" y="31" width="17" height="16">
<path d="M151.37 39.6977C151.37 35.4029 147.893 31.9258 143.598 31.9258C139.303 31.9258 135.826 35.4029 135.826 39.6977C135.826 43.9924 137.734 46.5486 142.029 46.5486C146.323 46.5486 152.357 45.0074 151.37 39.6977Z" fill="white"/>
</mask>
<g mask="url(#mask7_3282_123196)">
<path d="M141.418 43.3064C145.424 43.3064 148.673 40.9039 148.673 37.9403C148.673 34.9767 145.424 32.5742 141.418 32.5742C137.411 32.5742 134.163 34.9767 134.163 37.9403C134.163 40.9039 137.411 43.3064 141.418 43.3064Z" fill="#8892F7"/>
<path d="M135.826 37.7144C136.991 35.9946 139.378 33.4948 142.63 33.0813C145.318 32.743 147.028 33.0437 149.312 33.8895C148.579 32.0194 144.011 31.5589 141.756 32.057C139.5 32.555 136.249 34.989 136.192 37.3291" fill="#FD99E9"/>
</g>
<path d="M7.25609 30.4217C5.13221 38.7481 1.38253 57.3368 0.99722 66.6687C0.658902 75.0138 0.940833 81.0754 5.43294 82.4286C9.2578 83.5752 14.7649 80.0604 18.3642 71.6401C21.7943 63.6238 28.7486 43.0053 28.7486 43.0053L30.1489 29.6229L15.2347 27.5742L7.26549 30.4217H7.25609Z" fill="#A0A9FA"/>
<mask id="mask8_3282_123196" style="mask-type:luminance" maskUnits="userSpaceOnUse" x="0" y="27" width="31" height="56">
<path d="M7.25585 30.4228C5.13197 38.7492 1.38228 57.3378 0.996976 66.6698C0.658658 75.0149 0.940589 81.0764 5.43269 82.4297C9.25756 83.5762 14.7646 80.0615 18.3639 71.6411C21.7941 63.6249 28.7484 43.0063 28.7484 43.0063L30.1487 29.624L15.2345 27.5752L7.26525 30.4227L7.25585 30.4228Z" fill="white"/>
</mask>
<g mask="url(#mask8_3282_123196)">
<path d="M30.1488 41.6626C30.1488 41.6626 15.6952 39.4259 12.3684 35.7608C9.04158 32.0957 9.18254 30.8364 10.6016 29.2294C12.0207 27.6224 31.2296 29.3328 31.2296 29.3328L30.6187 41.6626" fill="#2D35AD"/>
<mask id="mask9_3282_123196" style="mask-type:luminance" maskUnits="userSpaceOnUse" x="9" y="28" width="23" height="14">
<path d="M30.1488 41.6616C30.1488 41.6616 15.6952 39.425 12.3684 35.7598C9.04158 32.0946 9.18254 30.8354 10.6016 29.2284C12.0207 27.6214 31.2296 29.3318 31.2296 29.3318L30.6187 41.6617L30.1488 41.6616Z" fill="white"/>
</mask>
<g mask="url(#mask9_3282_123196)">
<path d="M17.4429 44.6876L10.2349 42.3194V27.3301H20.9201L17.4429 44.6876Z" fill="black"/>
</g>
</g>
<path d="M23.1288 30.9199C19.3604 30.9199 16.3061 33.9742 16.3061 37.7427C15.7704 39.6504 20.6291 40.7029 24.3975 40.7029C28.166 40.7029 29.9422 41.5111 29.9422 37.7427C29.9422 33.9742 26.8879 30.9199 23.1194 30.9199H23.1288Z" fill="#5865F2"/>
<mask id="mask10_3282_123196" style="mask-type:luminance" maskUnits="userSpaceOnUse" x="16" y="30" width="14" height="11">
<path d="M23.1286 30.9209C19.3601 30.9209 16.3059 33.9752 16.3059 37.7435C15.7702 39.6513 20.6288 40.7038 24.3973 40.7038C28.1658 40.7038 29.9419 41.512 29.9419 37.7435C29.9419 33.9751 26.8877 30.9209 23.1192 30.9209H23.1286Z" fill="white"/>
</mask>
<g mask="url(#mask10_3282_123196)">
<path d="M22.9313 37.0927C26.2011 37.0927 28.8519 35.557 28.8519 33.6626C28.8519 31.7682 26.2011 30.2324 22.9313 30.2324C19.6615 30.2324 17.0107 31.7682 17.0107 33.6626C17.0107 35.557 19.6615 37.0927 22.9313 37.0927Z" fill="#C3C8FC"/>
</g>
<path d="M24.9328 86.4137L30.2895 85.0793L28.0153 58.418L10.6013 89.9943L24.9328 86.4137Z" fill="black"/>
<path d="M44.3394 125.978C44.3394 125.978 62.975 101.779 64.8076 100.097C66.6401 98.4149 65.6064 98.3867 69.1305 98.5277C72.8802 99.1479 78.735 100.708 78.735 100.708C77.2783 108.668 83.3586 120.537 104.363 121.289C125.366 122.041 146.511 111.262 148.654 96.2722C150.797 81.2829 138.044 67.4307 138.044 67.4307L53.8028 72.684L44.3488 125.978H44.3394Z" fill="black"/>
<path d="M88.3292 90.1558C116.293 86.3302 136.415 64.6117 133.274 41.6461C130.132 18.6805 104.916 3.16452 76.9517 6.99012C48.9878 10.8157 28.8655 32.5343 32.0074 55.4998C35.1492 78.4654 60.3653 93.9814 88.3292 90.1558Z" fill="#5865F2"/>
<mask id="mask11_3282_123196" style="mask-type:luminance" maskUnits="userSpaceOnUse" x="31" y="6" width="103" height="85">
<path d="M88.3293 90.1549C116.293 86.3294 136.416 64.6109 133.274 41.6453C130.132 18.6797 104.916 3.16368 76.952 6.98923C48.9881 10.8148 28.8658 32.5333 32.0075 55.4989C35.1493 78.4644 60.3654 93.9805 88.3293 90.1549Z" fill="white"/>
</mask>
<g mask="url(#mask11_3282_123196)">
<path d="M131.644 35.7208C128.505 12.7528 104.654 -3.27026 77.3627 0.470025C50.0717 4.20092 30.4963 25.8532 33.6446 48.8212C36.7928 71.7892 61.4524 87.38 88.7433 83.6491C116.034 79.9182 134.783 58.6982 131.644 35.7302V35.7208Z" fill="#8892F7"/>
<path d="M113.102 56.1517C143.203 51.716 131.484 7.7535 85.0784 5.92095C67.5423 5.22552 41.3133 13.9842 34.4812 36.9428C29.1997 54.6762 55.2125 76.5165 73.4535 73.7536C87.0332 71.7049 92.2677 59.2153 113.102 56.1517Z" fill="#A0A9FA"/>
<path d="M84.6834 11.8789C67.8709 10.8169 46.0212 17.9968 39.4522 37.6944C34.3869 52.9092 51.1806 65.3612 68.8201 63.9515C90.7073 62.2036 96.3272 52.336 115.395 49.6858C133.617 47.1578 130.892 14.7827 84.6834 11.8789Z" fill="#C3C8FC"/>
<path d="M43.9631 18.3921C50.4476 14.9431 69.6001 4.0606 99.2968 11.5036C121.757 17.1328 132.001 28.3161 133.833 38.5314C133.927 28.2503 123.252 11.9829 113.205 6.59798C103.169 1.21309 66.5834 -1.2679 53.2011 14.041" fill="#FD99E9"/>
<path d="M78.8382 21.069C75.8309 21.1724 71.179 22.5351 70.0137 26.4633C69.1116 29.4988 71.5644 31.3689 74.7032 31.0306C77.842 30.6923 80.7835 29.8653 82.9262 27.1024C84.5802 24.9785 84.7399 20.8623 78.8382 21.069Z" fill="#E6E8FF"/>
<path d="M30.6091 32.4324C42.0837 29.6789 51.9513 29.0398 62.8527 34.7536C73.754 40.4674 83.8471 51.162 104.964 45.4106C126.08 39.6592 116.664 16.945 113.459 10.7425C110.245 4.54941 59.0654 2.36914 59.0654 2.36914L32.1034 23.4858" stroke="#2D35AD" stroke-width="1.03375" stroke-miterlimit="10"/>
</g>
<path d="M65.3421 75.8803C66.4506 72.2681 64.6743 68.5189 61.3747 67.5064C58.0751 66.4938 54.5016 68.6012 53.3931 72.2134C52.2846 75.8256 54.0609 79.5748 57.3605 80.5873C60.6601 81.5999 64.2336 79.4925 65.3421 75.8803Z" fill="black"/>
<path d="M41.4043 59.332C42.1606 55.7307 40.8507 52.4075 38.4786 51.9093C36.1065 51.4112 33.5705 53.9268 32.8142 57.5281C32.0579 61.1294 33.3678 64.4527 35.7399 64.9508C38.112 65.449 40.648 62.9333 41.4043 59.332Z" fill="black"/>
<mask id="mask12_3282_123196" style="mask-type:luminance" maskUnits="userSpaceOnUse" x="32" y="51" width="10" height="15">
<path d="M32.8143 57.5283C33.5706 53.9271 36.1066 51.4115 38.4788 51.9096C40.8509 52.4077 42.1607 55.7309 41.4045 59.3322C40.6481 62.9335 38.1122 65.4492 35.74 64.951C33.3678 64.4529 32.0581 61.1296 32.8143 57.5283Z" fill="white"/>
</mask>
<g mask="url(#mask12_3282_123196)">
<path d="M41.4043 59.332C42.1606 55.7307 40.8507 52.4075 38.4786 51.9093C36.1065 51.4112 33.5705 53.9268 32.8142 57.5281C32.0579 61.1294 33.3678 64.4527 35.7399 64.9508C38.112 65.449 40.648 62.9333 41.4043 59.332Z" fill="black"/>
</g>
<path d="M63.7172 75.2302C62.8902 77.9743 60.0051 79.5343 57.261 78.7073L44.4143 74.8543L47.3934 64.9209L60.24 68.7834C62.9842 69.6104 64.5442 72.4955 63.7172 75.2396V75.2302Z" fill="#C3C8FC"/>
<mask id="mask13_3282_123196" style="mask-type:luminance" maskUnits="userSpaceOnUse" x="44" y="64" width="20" height="15">
<path d="M63.7172 75.2302C62.8902 77.9743 60.0051 79.5343 57.261 78.7073L44.4143 74.8543L47.3934 64.9209L60.24 68.7834C62.9842 69.6104 64.5442 72.4955 63.7172 75.2396V75.2302Z" fill="white"/>
</mask>
<g mask="url(#mask13_3282_123196)">
<path d="M63.6703 86.8841L42.8074 81.4052L46.3503 67.6094L67.2226 73.0788L63.6703 86.8841Z" fill="#A0A9FA"/>
<path d="M62.5143 91.7323L41.6514 86.2535L45.1943 72.4482L66.0666 77.9271L62.5143 91.7323Z" fill="#5865F2"/>
</g>
<path d="M39.7531 59.3767C38.9261 62.1208 36.041 63.6808 33.2969 62.8538L20.4502 59.0008L23.4293 49.0674L36.2759 52.9298C39.0201 53.7568 40.5801 56.6419 39.7531 59.3861V59.3767Z" fill="#C3C8FC"/>
<mask id="mask14_3282_123196" style="mask-type:luminance" maskUnits="userSpaceOnUse" x="20" y="49" width="20" height="15">
<path d="M39.7533 59.3776C38.9263 62.1218 36.0412 63.6818 33.2971 62.8548L20.4504 59.0017L23.4295 49.0684L36.2762 52.9308C39.0203 53.7578 40.5803 56.6429 39.7533 59.387V59.3776Z" fill="white"/>
</mask>
<g mask="url(#mask14_3282_123196)">
<path d="M39.7154 71.04L18.8525 65.5611L22.3955 51.7559L43.2584 57.2347L39.7154 71.04Z" fill="#A0A9FA"/>
<path d="M38.5594 75.8802L17.6965 70.4013L21.2395 56.6055L42.1024 62.0749L38.5594 75.8802Z" fill="#5865F2"/>
</g>
<path d="M122.38 111.795C141.735 108.197 154.953 91.9813 151.904 75.5758C148.854 59.1703 130.692 48.7875 111.337 52.3852C91.9823 55.9829 78.7641 72.1987 81.8135 88.6042C84.863 105.01 103.025 115.393 122.38 111.795Z" fill="#5865F2"/>
<mask id="mask15_3282_123196" style="mask-type:luminance" maskUnits="userSpaceOnUse" x="81" y="51" width="72" height="62">
<path d="M122.38 111.794C141.735 108.196 154.953 91.9804 151.904 75.5749C148.854 59.1694 130.692 48.7866 111.337 52.3843C91.9823 55.9819 78.7641 72.1977 81.8135 88.6033C84.8629 105.009 103.025 115.392 122.38 111.794Z" fill="white"/>
</mask>
<g mask="url(#mask15_3282_123196)">
<path d="M97.0507 55.7105C86.6099 59.5541 66.8747 76.1599 76.6389 88.1608C86.4031 100.162 103.695 109.992 131.484 101.628C157.403 93.8276 154.038 67.1663 141.662 57.1295C129.294 47.1022 104.39 53.0039 97.0507 55.7105Z" fill="#A0A9FA"/>
<path d="M98.6765 50.7023C88.7149 54.3674 72.9926 66.7911 82.3151 78.2469C91.6376 89.7027 106.27 100.745 132.79 92.7664C157.525 85.3234 153.061 61.6412 141.258 52.0649C129.454 42.4887 105.687 48.1273 98.6859 50.7023H98.6765Z" fill="#C3C8FC"/>
<path d="M104.306 110.18C104.738 113.055 104.907 115.536 109.672 115.912C140.75 118.318 151.858 99.8986 152.873 89.8994C137.574 105.246 128.721 109.024 104.306 110.18Z" fill="#5865F2"/>
<path d="M127.753 49.959C126.691 49.959 125.639 50.0436 124.605 50.1845C134.388 54.5639 143.231 67.4481 146.567 83.8753C148.954 95.6224 148.043 106.796 144.66 115.085C151.68 108.516 156.228 97.9531 156.228 86.0462C156.228 66.1136 143.485 49.959 127.763 49.959H127.753Z" fill="#2D35AD"/>
<path d="M129.388 70.6161C127.584 71.4149 125.93 71.9412 124.746 72.2607C121.316 73.2005 117.763 71.913 113.196 66.7255C108.629 61.5379 102.595 56.98 91.4309 57.5627C91.4309 57.5627 110.367 48.5879 118.28 48.5879C125.808 52.065 129.614 58.7656 131.785 63.6336C132.865 66.0488 131.719 69.5824 129.388 70.6161Z" stroke="#2D35AD" stroke-width="1.03375" stroke-linecap="round" stroke-linejoin="round"/>
<path d="M117.218 114.268C122.067 111.035 122.716 107.164 124.05 101.92C124.633 99.636 124.896 98.6681 128.27 97.8693C131.644 97.0705 135.704 95.1909 139.049 93.5839C141.878 92.2306 143.673 98.9782 146.887 101.309" stroke="#2D35AD" stroke-width="1.03375" stroke-miterlimit="10"/>
<path d="M86.4879 134.333C102.209 134.333 114.954 118.176 114.954 98.2454C114.954 78.315 102.209 62.1582 86.4879 62.1582C70.7667 62.1582 58.0222 78.315 58.0222 98.2454C58.0222 118.176 70.7667 134.333 86.4879 134.333Z" fill="#2D35AD"/>
</g>
<path d="M92.6905 66.7449C89.5423 66.9611 84.7776 71.0773 83.9694 82.0914C83.1424 93.3216 91.7319 102.306 99.5414 107.023C113.234 115.284 113.384 102.108 111.674 91.912C110.227 83.2849 101.487 66.1435 92.6905 66.7449Z" fill="url(#paint0_linear_3282_123196)"/>
<path d="M24.8203 45.016L23.4671 58.4265L11.3722 53.6055L8.76904 47.995L10.5546 45.2979L17.18 44.2266L22.1326 44.6307L24.8203 45.016Z" fill="#5865F2"/>
<mask id="mask16_3282_123196" style="mask-type:luminance" maskUnits="userSpaceOnUse" x="8" y="44" width="17" height="15">
<path d="M24.8203 45.0169L23.4671 58.4275L11.3722 53.6065L8.76904 47.996L10.5546 45.2989L17.18 44.2275L22.1326 44.6316L24.8203 45.0169Z" fill="white"/>
</mask>
<g mask="url(#mask16_3282_123196)">
<path d="M22.6215 44.0498L18.8812 69.8935L11.2314 68.9725L14.9341 45.6004L22.6215 44.0498Z" fill="#2D35AD"/>
<path d="M17.443 44.6895L13.7027 70.5331L6.05298 69.6122L9.76507 46.2401L17.443 44.6895Z" fill="black"/>
</g>
<path d="M23.6644 64.677C28.5536 64.677 32.517 60.7135 32.517 55.8243C32.517 50.9351 28.5536 46.9717 23.6644 46.9717C18.7752 46.9717 14.8118 50.9351 14.8118 55.8243C14.8118 60.7135 18.7752 64.677 23.6644 64.677Z" fill="#5865F2"/>
<mask id="mask17_3282_123196" style="mask-type:luminance" maskUnits="userSpaceOnUse" x="14" y="46" width="19" height="19">
<path d="M23.6644 64.677C28.5536 64.677 32.517 60.7135 32.517 55.8243C32.517 50.9351 28.5536 46.9717 23.6644 46.9717C18.7752 46.9717 14.8118 50.9351 14.8118 55.8243C14.8118 60.7135 18.7752 64.677 23.6644 64.677Z" fill="white"/>
</mask>
<g mask="url(#mask17_3282_123196)">
<path d="M23.6644 54.2636C27.9203 54.2636 31.3705 52.4039 31.3705 50.1098C31.3705 47.8158 27.9203 45.9561 23.6644 45.9561C19.4084 45.9561 15.9583 47.8158 15.9583 50.1098C15.9583 52.4039 19.4084 54.2636 23.6644 54.2636Z" fill="#A0A9FA"/>
<path d="M23.6644 52.0936C26.8252 52.0936 29.3876 50.9533 29.3876 49.5468C29.3876 48.1402 26.8252 47 23.6644 47C20.5035 47 17.9412 48.1402 17.9412 49.5468C17.9412 50.9533 20.5035 52.0936 23.6644 52.0936Z" fill="#C3C8FC"/>
</g>
<path d="M6.64507 48.5684C-0.816711 92.2207 3.73178 107.21 10.0846 107.595C16.4375 107.981 20.7604 101.017 25.121 88.8563C29.4815 76.6957 36.4452 58.2104 36.4452 58.2104L16.3247 55.8328L6.65447 48.5778L6.64507 48.5684Z" fill="#8892F7"/>
<mask id="mask18_3282_123196" style="mask-type:luminance" maskUnits="userSpaceOnUse" x="2" y="48" width="35" height="60">
<path d="M6.64531 48.5693C-0.816467 92.2217 3.73202 107.211 10.0849 107.596C16.4377 107.982 20.7607 101.018 25.1212 88.8573C29.4817 76.6967 36.4454 58.2114 36.4454 58.2114L16.325 55.8338L6.65471 48.5787L6.64531 48.5693Z" fill="white"/>
</mask>
<g mask="url(#mask18_3282_123196)">
<path d="M36.436 58.2021C18.6555 59.4708 17.5466 103.913 4.55898 102.512C-2.21676 101.779 -0.431201 100.464 1.33557 84.7413C3.10234 69.0189 7.26552 41.9629 7.26552 41.9629L36.436 58.1927V58.2021Z" fill="#C3C8FC"/>
<path d="M26.4841 85.4834C20.977 97.7756 16.8326 104.664 6.64551 105.585C12.1808 113.395 20.4225 104.26 22.9975 102.653C25.5725 101.046 25.4879 87.8234 25.4879 87.8234" fill="#5865F2"/>
</g>
<path d="M34.2367 55.7113C25.6002 56.2751 12.9509 53.7284 10.6391 49.9411C8.59975 46.5955 17.0483 44.8381 24.8202 45.0167L23.4481 43.4567C12.7159 42.9304 4.35199 45.8437 7.20889 50.5237C10.4229 55.7959 24.9706 59.3952 36.4452 58.2111L34.2461 55.7207L34.2367 55.7113Z" fill="#C3C8FC"/>
<path d="M39.0106 62.2422L38.4373 75.1264C38.4373 75.1264 29.9418 72.8898 29.9512 69.422C29.97 64.6574 39.0106 62.2422 39.0106 62.2422Z" fill="#5865F2"/>
<mask id="mask19_3282_123196" style="mask-type:luminance" maskUnits="userSpaceOnUse" x="29" y="62" width="11" height="14">
<path d="M39.0106 62.2422L38.4373 75.1264C38.4373 75.1264 29.9418 72.8898 29.9512 69.422C29.97 64.6574 39.0106 62.2422 39.0106 62.2422Z" fill="white"/>
</mask>
<g mask="url(#mask19_3282_123196)">
<path d="M39.302 58.418H30.1111V81.9592H38.8416L39.302 58.418Z" fill="#2D35AD"/>
<path d="M36.4357 61.1152H27.7146V84.6471H36.4357V61.1152Z" fill="black"/>
</g>
<path d="M45.1098 82.7957C50.5803 82.7957 55.015 78.361 55.015 72.8905C55.015 67.4201 50.5803 62.9854 45.1098 62.9854C39.6393 62.9854 35.2046 67.4201 35.2046 72.8905C35.2046 78.361 39.6393 82.7957 45.1098 82.7957Z" fill="#5865F2"/>
<mask id="mask20_3282_123196" style="mask-type:luminance" maskUnits="userSpaceOnUse" x="35" y="62" width="21" height="21">
<path d="M45.11 82.7947C50.5805 82.7947 55.0152 78.36 55.0152 72.8896C55.0152 67.4191 50.5805 62.9844 45.11 62.9844C39.6395 62.9844 35.2048 67.4191 35.2048 72.8896C35.2048 78.36 39.6395 82.7947 45.11 82.7947Z" fill="white"/>
</mask>
<g mask="url(#mask20_3282_123196)">
<path d="M45.7702 72.291C50.6862 71.6185 54.3738 68.8972 54.0066 66.2129C53.6393 63.5286 49.3564 61.8978 44.4404 62.5703C39.5243 63.2429 35.8368 65.9641 36.204 68.6484C36.5712 71.3327 40.8541 72.9635 45.7702 72.291Z" fill="#A0A9FA"/>
<path d="M45.1603 69.2983C49.1096 68.758 52.0859 66.6734 51.808 64.6422C51.5301 62.611 48.1033 61.4023 44.154 61.9426C40.2047 62.4829 37.2284 64.5675 37.5063 66.5987C37.7842 68.6299 41.211 69.8386 45.1603 69.2983Z" fill="#C3C8FC"/>
</g>
<path d="M28.7484 67.4307C26.1734 83.1906 21.5028 107.286 24.792 120.518C28.0812 133.75 42.4033 132.228 46.5571 122.05C52.6374 107.136 60.5503 72.8907 60.5503 72.8907L58.6049 74.0654L39.0201 75.3153L28.7484 67.4401V67.4307Z" fill="#C3C8FC"/>
<mask id="mask21_3282_123196" style="mask-type:luminance" maskUnits="userSpaceOnUse" x="23" y="67" width="38" height="64">
<path d="M28.7484 67.4297C26.1734 83.1896 21.5028 107.285 24.792 120.517C28.0812 133.749 42.4033 132.227 46.5571 122.049C52.6374 107.135 60.5503 72.8898 60.5503 72.8898L58.6049 74.0645L39.0201 75.3144L28.7484 67.4391V67.4297Z" fill="white"/>
</mask>
<g mask="url(#mask21_3282_123196)">
<path d="M61.4619 76.7148C72.0813 76.7148 62.3922 89.928 52.4871 120.518C49.9403 128.374 42.1496 132.453 35.1953 132.302C31.5114 132.218 26.7561 128.647 25.5532 122.886C40.8527 127.105 43.6156 107.464 48.9629 88.1706C51.5755 78.7353 58.4546 76.7148 61.4525 76.7148H61.4619Z" fill="#8892F7"/>
<path d="M52.5342 103.922C49.7055 112.793 44.3394 128.018 29.9421 128.469C28.4103 134.652 43.8038 136.729 48.5026 132.491C53.2015 128.253 51.4441 107.606 51.4441 107.606" fill="#5865F2"/>
</g>
<g style="mix-blend-mode:overlay" opacity="0.54">
<path d="M120.16 55.9647C120.16 57.1864 118.403 58.1732 116.232 58.1732C114.061 58.1732 112.303 57.1864 112.303 55.9647C112.303 55.6734 113.563 53.916 113.563 53.916L118.948 54.0476C118.948 54.0476 119.446 54.8464 120.151 55.9647H120.16Z" fill="#161A8A"/>
</g>
<mask id="mask22_3282_123196" style="mask-type:luminance" maskUnits="userSpaceOnUse" x="112" y="53" width="9" height="6">
<path d="M120.16 55.9647C120.16 57.1864 118.403 58.1732 116.232 58.1732C114.061 58.1732 112.303 57.1864 112.303 55.9647C112.303 55.6734 113.563 53.916 113.563 53.916L118.948 54.0476C118.948 54.0476 119.446 54.8464 120.151 55.9647H120.16Z" fill="white"/>
</mask>
<g mask="url(#mask22_3282_123196)">
<path d="M112.981 52.5811L110.058 56.6409L113.432 58.1727L114.559 54.6486L112.981 52.5811Z" stroke="#5865F2" stroke-width="1.03375" stroke-miterlimit="10"/>
<path d="M113.93 54.3851L112.031 58.4449L118.196 58.6235L117.924 54.1689L113.93 54.3851Z" fill="#E6E8FF"/>
<g style="mix-blend-mode:overlay" opacity="0.54">
<path d="M117.914 54.4419L118.271 58.6144L121.457 55.1561L119.202 52.2334L117.942 54.8929" fill="#161A8A"/>
</g>
</g>
<path d="M58.8963 72.1007C58.1915 71.7718 57.3833 71.7906 56.6878 72.1383C50.7485 75.108 40.9185 74.9952 35.6558 71.8752C29.1525 68.0127 33.8702 64.216 38.7758 62.5056C39.0577 62.4023 39.0859 62.017 38.8228 61.876C38.5127 61.7162 38.1556 61.5189 37.8548 61.3591C37.3849 61.1054 36.8305 61.0678 36.323 61.237C29.7352 63.436 24.5947 68.8397 33.5037 74.1306C40.6741 78.3878 52.4777 78.2656 60.1556 74.0272C60.7007 73.7265 60.6631 72.9371 60.0992 72.6834C59.7139 72.5048 59.3004 72.3168 58.8775 72.1195L58.8963 72.1007Z" fill="#C3C8FC"/>
<path d="M116.232 55.9562C117.773 55.9562 119.023 55.2536 119.023 54.3868C119.023 53.52 117.773 52.8174 116.232 52.8174C114.69 52.8174 113.441 53.52 113.441 54.3868C113.441 55.2536 114.69 55.9562 116.232 55.9562Z" fill="#A0A9FA"/>
<path d="M117.35 36.2109H115.113V54.1418C115.113 54.5271 115.677 54.8372 116.232 54.8466C116.786 54.856 117.35 54.5741 117.35 54.1418V36.2109Z" fill="#C3C8FC"/>
<mask id="mask23_3282_123196" style="mask-type:luminance" maskUnits="userSpaceOnUse" x="115" y="36" width="3" height="19">
<path d="M117.35 36.21H115.113V54.1408C115.113 54.5261 115.677 54.8362 116.232 54.8456C116.786 54.855 117.35 54.5731 117.35 54.1408V36.21Z" fill="white"/>
</mask>
<g mask="url(#mask23_3282_123196)">
<path d="M116.852 39.0391H119.088V56.9699C119.088 57.5901 118.59 58.0882 117.97 58.0882C117.35 58.0882 116.852 57.5901 116.852 56.9699V39.0391Z" fill="#2D35AD"/>
<path d="M113.788 39.5469H116.025V57.4777C116.025 58.0979 115.527 58.596 114.906 58.596C114.286 58.596 113.788 58.0979 113.788 57.4777V39.5469Z" fill="#E6E8FF"/>
<path d="M122.227 39.8099L119.784 42.1876C119.784 42.1876 118.252 42.7608 116.673 42.1876C115.094 41.6143 114.681 39.9415 114.681 39.9415L114.014 34.4062L122.227 39.8099Z" fill="#2D35AD"/>
</g>
<path d="M91.9669 73.6223C88.7811 75.906 87.3244 79.4207 89.1946 82.9824C91.0741 86.5442 98.066 90.4348 103.103 90.7825C108.14 91.1303 105.528 82.2682 103.103 78.3776C100.679 74.4869 97.1638 69.9008 91.9669 73.6223Z" fill="black"/>
<path d="M116.607 40.1016C120.313 40.1016 123.317 37.0974 123.317 33.3916C123.317 29.6858 120.313 26.6816 116.607 26.6816C112.902 26.6816 109.897 29.6858 109.897 33.3916C109.897 37.0974 112.902 40.1016 116.607 40.1016Z" fill="#B3269C"/>
<mask id="mask24_3282_123196" style="mask-type:luminance" maskUnits="userSpaceOnUse" x="109" y="26" width="15" height="15">
<path d="M116.607 40.1025C120.313 40.1025 123.317 37.0984 123.317 33.3926C123.317 29.6868 120.313 26.6826 116.607 26.6826C112.902 26.6826 109.897 29.6868 109.897 33.3926C109.897 37.0984 112.902 40.1025 116.607 40.1025Z" fill="white"/>
</mask>
<g mask="url(#mask24_3282_123196)">
<path d="M116.762 37.1753C120.056 36.0947 121.988 32.9679 121.078 30.1914C120.167 27.4148 116.758 26.04 113.464 27.1206C110.169 28.2012 108.237 31.328 109.148 34.1045C110.059 36.8811 113.467 38.2559 116.762 37.1753Z" fill="#FF4CD2"/>
<path d="M114.383 30.8375C114.938 30.2992 115.066 29.5305 114.668 29.1206C114.271 28.7108 113.499 28.8149 112.943 29.3533C112.388 29.8917 112.26 30.6604 112.658 31.0702C113.055 31.4801 113.828 31.3759 114.383 30.8375Z" fill="#FCC0F4"/>
</g>
<path d="M96.1676 73.2383C94.0062 71.6783 91.6661 71.1802 90.529 73.5015C89.6456 75.3058 91.6567 77.9936 93.0664 79.3186C94.4009 80.5685 96.91 82.4575 98.9494 80.9538C100.227 80.0141 99.4756 75.6159 96.1676 73.2289V73.2383Z" fill="white"/>
<path d="M149.49 71.5092C145.731 62.0833 136.127 55.4391 135.112 56.1157C134.398 56.595 140.469 62.431 145.214 74.0747C149.782 85.2768 148.071 91.047 148.992 91.047C149.81 91.047 153.127 80.5968 149.5 71.5186L149.49 71.5092Z" fill="url(#paint1_linear_3282_123196)"/>
<path d="M140.13 61.0026C139.134 61.7732 145.177 71.3589 146.098 73.088C147.019 74.8172 148.823 72.8813 148.362 70.842C147.902 68.8027 141.474 59.95 140.13 61.0026Z" fill="black"/>
<path d="M142.104 62.1286C140.515 60.4088 139.303 60.5968 140.064 62.2508C140.826 63.9048 141.324 65.1923 142.367 64.8916C143.41 64.5908 143.062 63.1718 142.104 62.1286Z" fill="white"/>
<path d="M106.082 93.0582C101.092 92.5977 96.9851 95.9151 88.4614 87.5605C85.9898 85.1453 88.17 93.7254 92.4554 98.0202C96.7408 102.315 103.479 107.174 106.731 104.993C110.339 102.569 111.646 93.5751 106.082 93.0582Z" fill="#2D35AD"/>
<path d="M148.71 76.5083C149.537 76.0573 148.682 73.8676 149.293 73.736C149.904 73.6044 151.06 81.4139 149.753 86.1316C149.631 86.5827 149.086 82.3443 148.438 80.1735C147.789 78.0026 147.479 77.1756 148.72 76.5083H148.71Z" fill="#2D35AD"/>
<path d="M11.2312 30.8156C12.0676 28.297 20.1591 28.3158 29.0399 30.2329C29.6038 30.3551 30.1488 29.9604 30.2052 29.3965C30.2522 28.9173 29.9515 28.4756 29.4816 28.3534C19.1253 25.7126 8.63748 26.2765 7.26541 30.4115C5.76178 34.96 15.9301 40.796 28.0625 42.8823C28.4384 42.948 28.7862 42.6849 28.8332 42.309L29.0305 40.4764C29.0775 40.0348 28.7674 39.6307 28.3257 39.5743C16.8135 37.9955 10.3197 33.5973 11.2406 30.8062L11.2312 30.8156Z" fill="#C3C8FC"/>
<path d="M133.317 41.972L135.901 41.0322L140.995 47.1595L133.204 50.2984L133.317 41.972Z" fill="#8892F7"/>
<mask id="mask25_3282_123196" style="mask-type:luminance" maskUnits="userSpaceOnUse" x="133" y="41" width="8" height="10">
<path d="M133.317 41.971L135.901 41.0312L140.995 47.1586L133.204 50.2974L133.317 41.971Z" fill="white"/>
</mask>
<g mask="url(#mask25_3282_123196)">
<path d="M132.358 49.3115L138.702 47.0654L141.953 53.7284L132.246 57.6378L132.358 49.3115Z" fill="#5865F2"/>
</g>
<path d="M14.4355 55.6448C14.2475 56.5939 16.9635 57.8814 19.6042 58.3325C21.9913 58.7366 24.82 58.652 24.9139 57.8626C25.0079 57.0732 21.559 56.6879 20.1305 56.453C18.7021 56.218 14.6047 54.8084 14.4355 55.6542V55.6448Z" fill="#E6E8FF"/>
<path d="M157.958 30.6658C153.484 25.7038 141.746 27.3766 134.05 31.2861C133.749 31.4364 133.599 31.7748 133.683 32.1037L133.871 32.8179C133.984 33.2314 134.426 33.4475 134.82 33.2878C135.318 33.081 135.873 32.8555 136.474 32.6018C141.972 30.3181 150.919 28.5701 154.189 32.1976C158.352 36.8213 151.135 42.958 140.28 45.9841C139.811 46.1157 139.312 46.2472 138.824 46.3882C138.157 46.5667 137.752 47.2622 137.931 47.9294L138.175 48.841C138.345 49.4894 138.993 49.8841 139.651 49.7432C152.018 47.1682 163.596 36.9529 157.948 30.6752L157.958 30.6658Z" fill="#A0A9FA"/>
<mask id="mask26_3282_123196" style="mask-type:luminance" maskUnits="userSpaceOnUse" x="133" y="27" width="27" height="23">
<path d="M157.958 30.6668C153.484 25.7048 141.747 27.3776 134.05 31.287C133.749 31.4374 133.599 31.7757 133.684 32.1046L133.871 32.8189C133.984 33.2324 134.426 33.4485 134.821 33.2888C135.319 33.082 135.873 32.8565 136.475 32.6027C141.972 30.3191 150.919 28.5711 154.189 32.1986C158.352 36.8223 151.135 42.959 140.281 45.9851C139.811 46.1166 139.313 46.2482 138.824 46.3892C138.157 46.5677 137.753 47.2631 137.931 47.9304L138.176 48.842C138.345 49.4904 138.993 49.8851 139.651 49.7441C152.018 47.1692 163.596 36.9539 157.948 30.6762L157.958 30.6668Z" fill="white"/>
</mask>
<g mask="url(#mask26_3282_123196)">
<path d="M133.777 32.4421C134.952 32.038 142.207 28.6173 149.096 28.871C155.984 29.1248 157.525 31.4366 159.142 36.2106C161.679 27.5929 152.695 26.0705 145.853 26.672C141.925 27.0197 132.96 30.5062 132.96 30.5062L133.768 32.4421" fill="#FD99E9"/>
</g>
<path d="M44.1218 66.7462C45.3251 66.5816 46.2316 65.9437 46.1464 65.3215C46.0613 64.6993 45.0168 64.3283 43.8135 64.4929C42.6102 64.6576 41.7038 65.2954 41.7889 65.9176C41.874 66.5399 42.9185 66.9108 44.1218 66.7462Z" fill="#E6E8FF"/>
<path d="M32.6107 74.6473C31.8965 75.869 35.3267 78.1338 40.8807 78.8856C45.2601 79.4777 49.9589 78.9232 49.8461 77.3632C49.7334 75.8032 45.3352 77.5324 40.8807 76.7993C35.712 75.9442 33.372 73.341 32.6107 74.6473Z" fill="#E6E8FF"/>
<defs>
<linearGradient id="paint0_linear_3282_123196" x1="100.763" y1="106.619" x2="95.2462" y2="73.1073" gradientUnits="userSpaceOnUse">
<stop stop-color="#161A8A"/>
<stop offset="1" stop-color="#000066"/>
</linearGradient>
<linearGradient id="paint1_linear_3282_123196" x1="151.167" y1="86.873" x2="138.01" y2="52.9003" gradientUnits="userSpaceOnUse">
<stop stop-color="#161A8A"/>
<stop offset="1" stop-color="#000066"/>
</linearGradient>
</defs>
</svg>