<svg viewBox="0 0 137 141" fill="none" xmlns="http://www.w3.org/2000/svg">
<path d="M134.014 119.606C136.779 120.321 136.143 122.144 133.674 122.938C132.121 123.444 127.202 125.023 124.088 126.017C122.334 126.576 120.459 126.619 118.68 126.122L92.4678 118.821L119.622 115.96C119.622 115.96 131.816 119.039 134.005 119.606H134.014Z" fill="black"/>
<path d="M131.912 120.46L134.887 119.658L132.846 119.064L131.912 120.46Z" fill="#A0A9FA"/>
<path d="M90.8717 109.252L133.186 119.745C135.009 120.199 136.771 118.821 136.771 116.937V44.1628C136.771 42.837 135.864 41.6768 134.573 41.3541L90.863 30.5117L88.2549 31.2095L90.863 109.243L90.8717 109.252Z" fill="#A0A9FA"/>
<mask id="mask0_3282_122616" style="mask-type:luminance" maskUnits="userSpaceOnUse" x="88" y="30" width="49" height="90">
<path d="M90.8719 109.253L133.186 119.746C135.009 120.2 136.771 118.822 136.771 116.938V44.1638C136.771 42.8379 135.864 41.6778 134.573 41.3551L90.8632 30.5127L88.2551 31.2105L90.8632 109.244L90.8719 109.253Z" fill="white"/>
</mask>
<g mask="url(#mask0_3282_122616)">
<path d="M110.184 48.9608C110.376 48.577 148.546 36.4873 148.546 36.4873V43.5527L116.098 51.63L110.184 48.9608Z" fill="#C3C8FC"/>
<path d="M112.521 61.8456C112.713 61.4618 150.884 49.3721 150.884 49.3721V126.219L118.436 134.297L112.521 61.8369V61.8456Z" fill="#5865F2"/>
<path d="M112.731 70.497C112.923 70.1132 151.094 58.0234 151.094 58.0234V134.871L118.645 142.948L112.731 70.4882V70.497Z" fill="#5865F2"/>
<path d="M112.521 115.524C112.713 115.141 150.884 103.051 150.884 103.051V179.898L118.436 187.975L112.521 115.516V115.524Z" fill="#A0A9FA"/>
</g>
<path d="M88.2636 109.949L130.578 120.443C132.401 120.896 134.163 119.518 134.163 117.634V44.8601C134.163 43.5342 133.256 42.3741 131.965 42.0513L88.2549 31.209V109.94L88.2636 109.949Z" fill="#3E1689"/>
<path d="M86.746 108.955L127.289 119.012L130.552 118.079C131.79 117.721 132.645 116.587 132.645 115.305V46.1511C132.645 44.8252 131.738 43.6651 130.447 43.3424L86.7372 32.5L84.1292 33.1978L86.7372 108.946L86.746 108.955Z" fill="#E6E8FF"/>
<mask id="mask1_3282_122616" style="mask-type:luminance" maskUnits="userSpaceOnUse" x="84" y="32" width="49" height="88">
<path d="M86.746 108.955L127.289 119.012L130.552 118.079C131.79 117.721 132.645 116.587 132.645 115.305V46.1511C132.645 44.8252 131.738 43.6651 130.447 43.3424L86.7372 32.5L84.1292 33.1978L86.7372 108.946L86.746 108.955Z" fill="white"/>
</mask>
<g mask="url(#mask1_3282_122616)">
<path d="M121.985 132.227L144.821 125.624V46.1602L129.583 50.5739L128.868 50.7745L121.985 52.772V132.227Z" fill="#C3C8FC"/>
<path d="M120.503 198.746L143.33 192.143V112.679L120.503 119.291V198.746Z" fill="#A0A9FA"/>
</g>
<path d="M122.265 123.227L125.196 122.459L123.198 121.831L122.265 123.227Z" fill="#A0A9FA"/>
<path d="M81.3903 111.982L123.704 122.476C125.527 122.929 127.289 121.551 127.289 119.667V46.8933C127.289 45.5674 126.382 44.4073 125.091 44.0846L81.3815 33.2422L78.7734 33.94L81.3815 111.974L81.3903 111.982Z" fill="#A0A9FA"/>
<mask id="mask2_3282_122616" style="mask-type:luminance" maskUnits="userSpaceOnUse" x="78" y="33" width="50" height="90">
<path d="M81.3905 111.981L123.705 122.475C125.528 122.928 127.29 121.55 127.29 119.666V46.8923C127.29 45.5664 126.382 44.4063 125.091 44.0836L81.3818 33.2412L78.7737 33.939L81.3818 111.973L81.3905 111.981Z" fill="white"/>
</mask>
<g mask="url(#mask2_3282_122616)">
<path d="M111.684 46.3602C111.876 45.9764 150.047 33.8867 150.047 33.8867L156.65 41.6238L124.201 49.701L111.684 46.3515V46.3602Z" fill="#C3C8FC"/>
<path d="M111.013 62.0009C111.205 61.6171 149.375 49.5273 149.375 49.5273L149.218 126.514L116.77 134.592L111.004 62.0009H111.013Z" fill="#5865F2"/>
<path d="M111.013 116.002C111.205 115.618 149.375 103.528 149.375 103.528L149.218 180.515L116.77 188.592L111.004 116.002H111.013Z" fill="#A0A9FA"/>
</g>
<path d="M78.7822 112.68L121.096 123.173C122.919 123.627 124.681 122.248 124.681 120.364V47.5905C124.681 46.2647 123.774 45.1046 122.483 44.7818L78.7734 33.9395V112.671L78.7822 112.68Z" fill="#A056F2"/>
<mask id="mask3_3282_122616" style="mask-type:luminance" maskUnits="userSpaceOnUse" x="78" y="33" width="47" height="91">
<path d="M78.7824 112.679L121.096 123.172C122.919 123.626 124.681 122.248 124.681 120.363V47.5896C124.681 46.2637 123.774 45.1036 122.483 44.7808L78.7737 33.9385V112.67L78.7824 112.679Z" fill="white"/>
</mask>
<g mask="url(#mask3_3282_122616)">
<path d="M78.7822 112.628V34.6465L120.425 44.9655C122.344 45.4452 123.696 47.1636 123.696 49.1437V118.254C123.696 121.054 121.07 123.104 118.357 122.432L78.791 112.628H78.7822Z" fill="#612CAF"/>
<path d="M56.6267 40.3239V-26.501L90.9681 -17.9789V48.8461L56.6267 40.3239Z" fill="#A056F2"/>
<path d="M113.377 54.5769V-12.248L147.718 -3.73465V63.099L113.377 54.5769Z" fill="#A056F2"/>
<path d="M113.377 175.465V108.632L147.718 117.154V183.979L113.377 175.465Z" fill="#A056F2"/>
<path d="M83.9638 106.556V40.6729L119.509 49.4915V117.599L86.127 109.321C84.8535 109.007 83.9551 107.864 83.9551 106.547L83.9638 106.556Z" fill="#1D0066"/>
<mask id="mask4_3282_122616" style="mask-type:luminance" maskUnits="userSpaceOnUse" x="83" y="40" width="37" height="78">
<path d="M83.9636 106.557V40.6738L119.509 49.4925V117.6L86.1268 109.322C84.8533 109.008 83.9548 107.865 83.9548 106.548L83.9636 106.557Z" fill="white"/>
</mask>
<g mask="url(#mask4_3282_122616)">
<path d="M85.2634 107.681V39.5742L120.817 48.3842V116.491L85.2634 107.681Z" fill="#3E1689"/>
</g>
</g>
<path d="M78.782 33.9484L90.7845 30.4941L93.4885 31.1658L81.486 34.62L78.782 33.9484Z" fill="#A0A9FA"/>
<path d="M90.9762 31.8896V33.5557L87.1993 34.6896L83.998 33.8959L90.9762 31.8896Z" fill="#5865F2"/>
<path d="M113.49 81.4521C113.603 66.6583 108.439 53.3998 101.967 51.7948C95.4948 50.1898 90.1303 60.8402 89.982 75.6253C89.8425 90.4452 94.9976 103.808 101.505 105.422C108.012 107.036 113.376 96.2895 113.49 81.4608V81.4521Z" fill="#21BB63"/>
<path d="M113.49 81.4521C113.603 66.6583 108.439 53.3998 101.967 51.7948C95.4948 50.1898 90.1303 60.8402 89.982 75.6253C89.8425 90.4452 94.9976 103.808 101.505 105.422C108.012 107.036 113.376 96.2895 113.49 81.4608V81.4521Z" fill="#612CAF"/>
<mask id="mask5_3282_122616" style="mask-type:luminance" maskUnits="userSpaceOnUse" x="89" y="51" width="25" height="55">
<path d="M113.49 81.4531C113.603 66.6593 108.439 53.4007 101.967 51.7957C95.4948 50.1908 90.1303 60.8412 89.982 75.6262C89.8425 90.4462 94.9976 103.809 101.505 105.423C108.012 107.037 113.376 96.2904 113.49 81.4617V81.4531Z" fill="white"/>
</mask>
<g mask="url(#mask5_3282_122616)">
<path d="M145.014 82.0631L95.5819 43.7441L71.7688 53.5049L122.335 91.0737L145.014 82.0631Z" fill="#A056F2"/>
<path opacity="0.39" d="M137.373 85.5524L87.941 47.2334L64.1279 56.9941L114.694 94.563L137.373 85.5524Z" fill="#612CAF"/>
</g>
<path d="M130.804 55.2666L130.01 55.4847V75.3289L130.804 75.1108L135.986 65.3675L130.804 55.2666Z" fill="#C3C8FC"/>
<mask id="mask6_3282_122616" style="mask-type:luminance" maskUnits="userSpaceOnUse" x="130" y="55" width="6" height="21">
<path d="M130.804 55.2656L130.01 55.4837V75.3279L130.804 75.1099L135.986 65.3666L130.804 55.2656Z" fill="white"/>
</mask>
<g mask="url(#mask6_3282_122616)">
<path d="M135.986 65.3666L135.192 65.5846L130.01 55.4837L130.804 55.2656L135.986 65.3666Z" fill="#E6E8FF"/>
</g>
<path d="M130.01 55.4854V75.3296L135.192 65.5863L130.01 55.4854Z" fill="#CA9EF9"/>
<path d="M71.0273 32.8672C73.0335 33.094 74.1762 34.9258 73.897 37.1675C73.1556 37.5339 69.2827 37.7868 69.2827 37.7868L71.036 32.8672H71.0273Z" fill="#A0A9FA"/>
<path d="M47.3276 55.9568C46.9351 52.7119 45.8797 49.31 51.5582 39.6104" stroke="#A056F2" stroke-width="2.88723" stroke-miterlimit="10" stroke-linecap="round"/>
<path d="M35.2729 112.682C22.9651 114.679 10.0816 117.54 5.87728 119.067C1.67292 120.593 -3.0897 123.646 4.83055 126.132C12.7508 128.618 27.4486 132.43 38.038 134.532C34.5053 136.25 34.1215 136.73 34.1215 136.73L34.9763 138.257L54.1577 140.263L104.828 136.634L110.175 132.526L35.2642 112.69L35.2729 112.682Z" fill="black"/>
<path d="M60.3508 133.198C80.387 133.198 93.6368 130.721 98.0418 127.493C101.88 124.684 97.8324 121.003 94.2212 118.291C94.9627 116.651 97.4922 112.542 98.8007 106.096C102.892 85.9729 83.8848 66.5037 77.0461 57.8072C72.7546 52.3555 71.0187 48.5523 71.0187 43.877V26.1523H49.6742V43.877C49.6742 48.5523 47.9384 52.3642 43.6468 57.8072C36.7994 66.5037 17.8013 85.9642 21.8922 106.096C23.2007 112.542 25.7303 116.651 26.4717 118.291C22.8692 121.003 18.8218 124.684 22.6511 127.493C27.0474 130.721 40.2972 133.198 60.3421 133.198H60.3508Z" fill="#E6E8FF"/>
<mask id="mask7_3282_122616" style="mask-type:luminance" maskUnits="userSpaceOnUse" x="21" y="26" width="79" height="108">
<path d="M60.3508 133.198C80.387 133.198 93.6368 130.721 98.0418 127.493C101.88 124.684 97.8324 121.003 94.2212 118.291C94.9627 116.651 97.4922 112.542 98.8007 106.096C102.892 85.9729 83.8848 66.5037 77.0461 57.8072C72.7546 52.3555 71.0187 48.5523 71.0187 43.877V26.1523H49.6742V43.877C49.6742 48.5523 47.9384 52.3642 43.6468 57.8072C36.7994 66.5037 17.8013 85.9642 21.8922 106.096C23.2007 112.542 25.7303 116.651 26.4717 118.291C22.8692 121.003 18.8218 124.684 22.6511 127.493C27.0474 130.721 40.2972 133.198 60.3421 133.198H60.3508Z" fill="white"/>
</mask>
<g mask="url(#mask7_3282_122616)">
<path d="M61.6242 16.087L53.7214 144.791L-4.59009 137.734L35.6828 14.5518L61.6242 16.087Z" fill="#612CAF"/>
<path d="M66.666 37.7632C69.4311 34.6841 71.542 31.8405 71.542 31.8405L71.0274 26.1445C71.0274 26.1445 67.5994 26.6766 67.0498 27.5838C66.4392 28.5956 65.881 38.6355 66.666 37.7632Z" fill="#C3C8FC"/>
<path d="M26.3322 124.99C28.8094 127.153 38.8144 132.012 75.8599 131.96C44.2748 129.194 27.6318 125.679 26.4804 118.291C23.3228 120.969 23.1309 122.199 26.3322 124.99Z" fill="#1D0066"/>
</g>
<path d="M91.2377 116.939C91.4035 116.563 91.6216 116.145 91.8658 115.656C92.8951 113.641 94.6135 110.274 95.5904 105.433C96.3406 101.752 96.2533 97.8096 95.3287 93.7186C94.5088 90.1074 93.0172 86.2607 90.8976 82.2918C86.9113 74.8426 81.4334 68.257 77.4384 63.4507C76.3044 62.0812 75.3188 60.9037 74.4814 59.8308C69.6402 53.6812 67.7561 49.2065 67.7561 43.8682V26.1436H52.9624V43.8682C52.9624 49.2065 51.0783 53.6812 46.2371 59.8308C45.391 60.9037 44.4141 62.0812 43.2801 63.4507C39.2851 68.257 33.8072 74.8426 29.8209 82.2918C27.6926 86.2607 26.201 90.1074 25.3898 93.7186C24.4652 97.8096 24.2907 101.77 25.1281 105.433C27.8758 117.54 34.8801 127.746 63.7001 127.746" fill="#5865F2"/>
<mask id="mask8_3282_122616" style="mask-type:luminance" maskUnits="userSpaceOnUse" x="24" y="26" width="73" height="102">
<path d="M91.2377 116.939C91.4035 116.564 91.6216 116.145 91.8658 115.656C92.8951 113.641 94.6135 110.274 95.5904 105.433C96.3406 101.752 96.2533 97.8097 95.3287 93.7186C94.5088 90.1074 93.0172 86.2607 90.8976 82.2918C86.9113 74.8426 81.4334 68.257 77.4384 63.4507C76.3044 62.0813 75.3188 60.9037 74.4814 59.8308C69.6402 53.6812 67.7561 49.2065 67.7561 43.8682V26.1436H52.9624V43.8682C52.9624 49.2065 51.0783 53.6812 46.2371 59.8308C45.391 60.9037 44.4141 62.0813 43.2801 63.4507C39.2851 68.257 33.8072 74.8426 29.8209 82.2918C27.6926 86.2607 26.201 90.1074 25.3898 93.7186C24.4652 97.8096 24.2907 101.77 25.1281 105.433C27.8758 117.54 34.8801 127.746 63.7001 127.746L91.2377 116.939Z" fill="white"/>
</mask>
<g mask="url(#mask8_3282_122616)">
<path d="M65.619 20.0466C65.4882 30.4965 63.133 45.3077 67.2763 53.9868C71.4196 62.6659 83.8932 72.3918 87.452 83.3824C90.7841 93.6753 85.3062 102.119 82.2533 114.017C94.657 118.875 101.121 107.178 101.121 107.178C101.121 107.178 103.851 74.7556 95.6165 65.4659C87.3823 56.1762 78.3455 45.5519 77.5779 38.1725C76.8103 30.793 69.2477 19.6279 69.2477 19.6279L65.6277 20.0466H65.619Z" fill="#A0A9FA"/>
<path d="M41.4749 86.0528C38.3958 103.847 65.8463 109.36 77.6918 108.304C112.714 150.714 -9.34375 144.033 -9.34375 144.033L26.2974 120.054C26.2974 120.054 17.3391 112.805 17.9497 102.05C18.569 91.2952 30.5279 73.9543 36.4332 65.8945C49.2469 48.4229 46.9528 39.578 46.9528 27.6191C49.8837 28.0029 55.789 27.75 55.789 27.75C56.9665 69.5494 45.9235 60.4079 41.4749 86.0702V86.0528Z" fill="#1D0066"/>
<path d="M108.852 86.0459H-0.51416V148.204H108.852V86.0459Z" fill="#A0A9FA"/>
<path d="M93.7087 115.564C93.7087 120.065 78.7579 127.375 60.3354 127.375C41.913 127.375 26.9971 120.065 26.9971 115.564L22.7666 103.37L25.113 86.0117H95.5928L97.7735 104.591L93.6999 115.564H93.7087Z" fill="#35ED7E"/>
<mask id="mask9_3282_122616" style="mask-type:luminance" maskUnits="userSpaceOnUse" x="22" y="86" width="76" height="42">
<path d="M93.7089 115.563C93.7089 120.064 78.7581 127.374 60.3357 127.374C41.9133 127.374 26.9974 120.064 26.9974 115.563L22.7668 103.369L25.1133 86.0107H95.593L97.7737 104.59L93.7002 115.563H93.7089Z" fill="white"/>
</mask>
<g mask="url(#mask9_3282_122616)">
<path d="M39.1657 90.5725C26.2386 48.1538 8.81059 91.6192 8.81059 91.6192C8.81059 91.6192 2.00685 109.501 15.9807 125.237C26.8667 137.492 78.7844 143.179 78.7844 143.179C78.7844 143.179 86.3906 112.432 80.0318 107.451C73.1757 107.277 43.8935 106.09 39.157 90.5725H39.1657Z" fill="url(#paint0_linear_3282_122616)"/>
</g>
<path d="M92.7753 86.439C92.7753 89.5617 85.8145 92.2658 75.5828 93.644C71.0382 94.2545 65.8569 94.5947 60.3529 94.5947C42.4451 94.5947 27.9304 90.9399 27.9304 86.439C27.9304 81.938 42.4451 78.2832 60.3529 78.2832C78.2606 78.2832 92.7753 81.938 92.7753 86.439Z" fill="#35ED7E"/>
<mask id="mask10_3282_122616" style="mask-type:luminance" maskUnits="userSpaceOnUse" x="27" y="78" width="66" height="17">
<path d="M92.7753 86.439C92.7753 89.5617 85.8145 92.2658 75.5828 93.644C71.0382 94.2545 65.8569 94.5947 60.3529 94.5947C42.4451 94.5947 27.9304 90.94 27.9304 86.439C27.9304 81.9379 42.4451 78.2832 60.3529 78.2832C78.2606 78.2832 92.7753 81.938 92.7753 86.439Z" fill="white"/>
</mask>
<g mask="url(#mask10_3282_122616)">
<path d="M63.8423 96.2251C85.5112 96.2251 103.077 92.1285 103.077 87.075C103.077 82.0215 85.5112 77.9248 63.8423 77.9248C42.1735 77.9248 24.6074 82.0215 24.6074 87.075C24.6074 92.1285 42.1735 96.2251 63.8423 96.2251Z" fill="#E6FFF0"/>
<path d="M59.9691 95.0997C76.0449 95.0997 89.0769 91.1632 89.0769 86.3072C89.0769 81.4512 76.0449 77.5146 59.9691 77.5146C43.8933 77.5146 30.8613 81.4512 30.8613 86.3072C30.8613 91.1632 43.8933 95.0997 59.9691 95.0997Z" fill="#8AF7B5"/>
</g>
<path d="M63.6066 91.6381C74.9468 91.6381 84.1399 89.1192 84.1399 86.0119C84.1399 82.9047 74.9468 80.3857 63.6066 80.3857C52.2663 80.3857 43.0732 82.9047 43.0732 86.0119C43.0732 89.1192 52.2663 91.6381 63.6066 91.6381Z" fill="#C0FBD8"/>
</g>
<path d="M73.0948 26.7972L73.0773 26.8234C71.8474 28.3062 66.6225 29.4228 60.3596 29.4228C54.0966 29.4228 48.8717 28.3062 47.6418 26.8234V26.8059C46.0892 24.9742 44.1789 21.2408 45.6792 17.0801H75.0399C76.5402 21.2408 74.6387 24.9654 73.0948 26.7972Z" fill="#707CF5"/>
<mask id="mask11_3282_122616" style="mask-type:luminance" maskUnits="userSpaceOnUse" x="45" y="17" width="31" height="13">
<path d="M73.0945 26.7982L73.0771 26.8244C71.8472 28.3072 66.6222 29.4237 60.3593 29.4237C54.0964 29.4237 48.8715 28.3072 47.6416 26.8244V26.8069C46.0889 24.9751 44.1786 21.2418 45.6789 17.0811H75.0397C76.54 21.2418 74.6384 24.9664 73.0945 26.7982Z" fill="white"/>
</mask>
<g mask="url(#mask11_3282_122616)">
<path d="M55.1782 22.0434C54.9339 25.2359 55.2916 27.9225 55.7452 29.2048C58.0218 34.0808 48.514 33.4527 41.6405 28.9692C34.767 24.4858 37.157 13.3643 37.157 13.3643L55.1782 22.0434Z" fill="#3E1689"/>
<path d="M72.9815 19.4261C74.0457 23.8486 71.8824 27.8523 70.9666 27.9395C72.5628 28.9252 74.3946 27.9483 75.4413 27.3638C77.7877 25.0523 79.1921 21.7115 79.7242 17.2891C76.9329 18.423 72.9815 19.4261 72.9815 19.4261Z" fill="#E6E8FF"/>
<path d="M66.4744 20.8582C66.5442 23.5709 65.9685 26.5279 65.2271 29.1796C66.8233 30.1653 69.5274 30.0432 70.5741 29.4501C72.9205 27.1385 74.3947 24.042 74.4295 19.541C71.6383 20.675 66.4657 20.8582 66.4657 20.8582H66.4744Z" fill="#A0A9FA"/>
<path d="M48.0167 20.605C47.8684 22.5764 48.6796 26.0393 49.674 28.0281C46.3768 28.7346 44.3967 28.4729 42.6086 27.7141C38.9276 25.0449 37.4796 19.4711 37.8721 15.0225C42.7569 16.6013 48.008 20.5963 48.008 20.5963L48.0167 20.605Z" fill="#612CAF"/>
<path d="M60.3509 22.2881C69.268 22.2881 76.4967 20.1597 76.4967 17.5342C76.4967 14.9087 69.268 12.7803 60.3509 12.7803C51.4338 12.7803 44.2051 14.9087 44.2051 17.5342C44.2051 20.1597 51.4338 22.2881 60.3509 22.2881Z" fill="white"/>
<mask id="mask12_3282_122616" style="mask-type:luminance" maskUnits="userSpaceOnUse" x="44" y="12" width="33" height="11">
<path d="M60.3511 22.289C69.2682 22.289 76.4969 20.1606 76.4969 17.5351C76.4969 14.9096 69.2682 12.7812 60.3511 12.7812C51.434 12.7812 44.2053 14.9096 44.2053 17.5351C44.2053 20.1606 51.434 22.289 60.3511 22.289Z" fill="white"/>
</mask>
<g mask="url(#mask12_3282_122616)">
<path d="M55.3794 21.0421C55.3008 21.2601 55.2136 21.7312 55.1787 22.0452C54.9345 24.0776 38.2915 22.8215 38.2915 22.8215L39.8442 14.6309L56.4784 20.8327" fill="#DEC2FC"/>
<path d="M48.192 19.6556C48.0786 19.8562 47.9914 20.1354 48.0175 20.6064C47.1976 20.5802 42.4873 20.1092 42.4873 20.1092L44.2667 15.5908L49.7359 19.4201" fill="#A056F2"/>
</g>
</g>
<path d="M52.9191 110.004L99.7777 106.096L116.098 118.508L104.165 134.724L57.1234 138.727L41.4749 125.661L52.9191 110.004Z" fill="#FCC0F4"/>
<mask id="mask13_3282_122616" style="mask-type:luminance" maskUnits="userSpaceOnUse" x="41" y="106" width="76" height="33">
<path d="M52.9191 110.003L99.7777 106.095L116.098 118.507L104.165 134.723L57.1234 138.727L41.4749 125.66L52.9191 110.003Z" fill="white"/>
</mask>
<g mask="url(#mask13_3282_122616)">
<path d="M60.7522 113.631L52.9192 110.003L99.7778 106.095L116.098 118.507L108.753 117.356L97.5709 110.7" fill="#FBE6FF"/>
<path d="M51.8289 123.051L60.7522 113.63L97.5709 110.699L108.753 117.355L99.5946 126.897L63.4214 129.915L51.8289 123.051Z" fill="#E6E8FF"/>
<path d="M51.8289 123.051L60.7522 113.63L97.5709 110.699L108.753 117.355L99.5946 126.897L63.4214 129.915L51.8289 123.051Z" fill="#FCC0F4"/>
<path d="M54.8904 122.624L61.6418 115.488L97.1172 112.671L105.683 117.765L98.7047 125.04L63.8748 127.944L54.8904 122.624Z" fill="#FD99E9"/>
<mask id="mask14_3282_122616" style="mask-type:luminance" maskUnits="userSpaceOnUse" x="54" y="112" width="52" height="16">
<path d="M54.8904 122.623L61.6418 115.487L97.1172 112.67L105.683 117.764L98.7047 125.039L63.8748 127.943L54.8904 122.623Z" fill="white"/>
</mask>
<g mask="url(#mask14_3282_122616)">
<path d="M89.1272 97.6846L59.6443 132.689L73.0773 137.809L97.3614 108.204L89.1272 97.6846Z" fill="white"/>
<path d="M126.888 84.8789L86.7809 132.488L84.5828 159.938L132.2 101.888L126.888 84.8789Z" fill="white"/>
</g>
<path d="M57.1234 138.727L63.4213 129.917L51.8287 123.052L41.4749 125.66L57.1234 138.727Z" fill="#8C1381"/>
<path d="M104.165 134.723L99.5943 126.898L63.4211 129.917L57.1233 138.726" fill="#B3269C"/>
<path d="M116.098 118.507L108.754 117.355L99.5947 126.898L104.165 134.722L115.95 126.898L116.098 118.507Z" fill="#FF4CD2"/>
<path d="M99.7777 106.095L97.5708 110.7L108.753 117.356L116.098 118.507L99.7777 106.095Z" fill="#FD99E9"/>
<path d="M52.9191 110.002L60.7521 113.631L51.8287 123.051L41.4749 125.659L52.9191 110.002Z" fill="#FF4CD2"/>
</g>
<path d="M60.3507 21.2578C68.521 21.2578 75.1444 19.5903 75.1444 17.5332C75.1444 15.4762 68.521 13.8086 60.3507 13.8086C52.1803 13.8086 45.5569 15.4762 45.5569 17.5332C45.5569 19.5903 52.1803 21.2578 60.3507 21.2578Z" fill="#E6E8FF"/>
<mask id="mask15_3282_122616" style="mask-type:luminance" maskUnits="userSpaceOnUse" x="45" y="13" width="31" height="9">
<path d="M60.3507 21.2588C68.521 21.2588 75.1444 19.5912 75.1444 17.5342C75.1444 15.4771 68.521 13.8096 60.3507 13.8096C52.1803 13.8096 45.5569 15.4771 45.5569 17.5342C45.5569 19.5912 52.1803 21.2588 60.3507 21.2588Z" fill="white"/>
</mask>
<g mask="url(#mask15_3282_122616)">
<path d="M64.2496 18.3972L40.3231 20.7698L38.7007 12.6838L64.2758 11.1748L64.2496 18.3972Z" fill="#1D0066"/>
<path d="M60.3072 19.5398C66.4205 19.5398 71.3764 18.3253 71.3764 16.827C71.3764 15.3288 66.4205 14.1143 60.3072 14.1143C54.1939 14.1143 49.238 15.3288 49.238 16.827C49.238 18.3253 54.1939 19.5398 60.3072 19.5398Z" fill="#1D0066"/>
</g>
<path d="M70.9576 3.74219L69.623 16.2855C69.623 17.5765 65.471 18.6145 60.3508 18.6145C55.2305 18.6145 51.0785 17.5677 51.0785 16.2855L49.7439 3.74219H70.9576Z" fill="#A0A9FA"/>
<mask id="mask16_3282_122616" style="mask-type:luminance" maskUnits="userSpaceOnUse" x="49" y="3" width="22" height="16">
<path d="M70.9574 3.74316L69.6228 16.2865C69.6228 17.5774 65.4708 18.6154 60.3505 18.6154C55.2303 18.6154 51.0782 17.5687 51.0782 16.2865L49.7437 3.74316H70.9574Z" fill="white"/>
</mask>
<g mask="url(#mask16_3282_122616)">
<path d="M64.1449 26.4129L50.1274 26.474V1.15188L65.4795 1.09082L64.1449 26.4129Z" fill="#A0A9FA"/>
<path d="M85.3413 23.831L64.3108 23.2465L65.2092 6.22848L86.6759 -1.48242L85.3413 23.831Z" fill="#C3C8FC"/>
<path d="M55.8494 25.3397H36.7815V0.0175781H54.3404L55.8494 25.3397Z" fill="#AE6EF4"/>
</g>
<path d="M70.9576 3.74355C70.9576 5.2177 66.2124 6.41271 60.3508 6.41271C54.4891 6.41271 49.7439 5.2177 49.7439 3.74355C49.7439 3.10679 51.8461 1.97284 52.9888 1.27502C54.9252 1.27502 57.0274 1.0744 60.3508 1.0744C62.6623 1.0744 66.1252 1.0395 67.8698 1.35352C68.6548 1.74605 70.9576 2.84511 70.9576 3.74355Z" fill="#A0A9FA"/>
<mask id="mask17_3282_122616" style="mask-type:luminance" maskUnits="userSpaceOnUse" x="49" y="1" width="22" height="6">
<path d="M70.9574 3.74258C70.9574 5.21672 66.2122 6.41174 60.3505 6.41174C54.4888 6.41174 49.7437 5.21672 49.7437 3.74258C49.7437 3.10582 51.8458 1.97186 52.9885 1.27404C54.925 1.27404 57.0271 1.07342 60.3505 1.07342C62.662 1.07342 66.125 1.03853 67.8695 1.35255C68.6546 1.74507 70.9574 2.84413 70.9574 3.74258Z" fill="white"/>
</mask>
<g mask="url(#mask17_3282_122616)">
<path d="M64.3022 3.21035L65.2094 6.22842L75.9122 3.74244L67.6867 -0.976562L64.3022 3.21035Z" fill="#E6E8FF"/>
<path d="M45.1208 0.260742L46.4642 7.02087L54.6984 6.0003L56.1028 1.18535L45.1208 0.260742Z" fill="#8892F7"/>
</g>
<path d="M60.3508 3.42033C64.7154 3.42033 68.2536 2.71347 68.2536 1.84151C68.2536 0.969557 64.7154 0.262695 60.3508 0.262695C55.9862 0.262695 52.448 0.969557 52.448 1.84151C52.448 2.71347 55.9862 3.42033 60.3508 3.42033Z" fill="#C3C8FC"/>
<path d="M66.7532 87.4115C71.3827 87.4115 75.1357 86.5015 75.1357 85.3791C75.1357 84.2566 71.3827 83.3467 66.7532 83.3467C62.1236 83.3467 58.3706 84.2566 58.3706 85.3791C58.3706 86.5015 62.1236 87.4115 66.7532 87.4115Z" fill="white"/>
<path d="M55.9809 60.4851L52.7012 54.4751C50.7996 53.6726 49.3342 52.905 47.4588 52.1025L40.5591 53.1667L30.6763 69.2602L46.2115 76.596L55.9809 60.4851Z" fill="#E6E8FF"/>
<mask id="mask18_3282_122616" style="mask-type:luminance" maskUnits="userSpaceOnUse" x="30" y="52" width="26" height="25">
<path d="M55.9812 60.4861L52.7014 54.4761C50.7999 53.6736 49.3345 52.906 47.4591 52.1035L40.5594 53.1677L30.6765 69.2611L46.2117 76.597L55.9812 60.4861Z" fill="white"/>
</mask>
<g mask="url(#mask18_3282_122616)">
<path d="M54.9604 60.0146L55.981 60.4857L46.1156 77.905L43.8477 76.5966L52.7361 60.1629L54.9604 60.0146Z" fill="#A0A9FA"/>
</g>
<path d="M54.9602 60.0134L51.6804 54.0034C49.7789 53.201 48.3135 52.4334 46.4381 51.6309L39.5384 52.695L29.6555 68.7885L45.1907 76.1243L54.9602 60.0134Z" fill="#DEC2FC"/>
<path d="M32.534 67.7856L39.015 57.3183C39.0673 57.2398 39.172 57.2049 39.2593 57.2485L50.9303 62.5868C51.035 62.6391 51.0786 62.7613 51.0175 62.8659L44.5365 73.5077C44.4842 73.5949 44.3795 73.6211 44.2923 73.5775L32.6212 68.0647C32.5166 68.0124 32.4817 67.8902 32.5427 67.7856H32.534Z" fill="#CA9EF9"/>
<path d="M48.8544 57.6854C49.4563 56.6299 49.0551 55.3738 47.9647 54.8941C46.8744 54.4143 45.5223 54.9115 44.9554 55.9844C44.3884 57.0573 44.8245 58.2523 45.88 58.7146C46.9354 59.1769 48.2613 58.7321 48.8544 57.6941V57.6854Z" fill="#612CAF"/>
<path d="M46.8742 58.2422C46.2113 58.2422 45.6095 57.7798 45.4612 57.1082C45.2867 56.3319 45.7839 55.5555 46.5602 55.3898L46.6475 55.3724C48.8369 54.8926 54.6375 53.6191 60.0892 50.7144C66.7272 47.173 70.382 42.5151 70.9577 36.8802C71.0362 36.0864 71.7515 35.5107 72.5453 35.5892C73.339 35.6677 73.9147 36.383 73.8362 37.1767C73.4612 40.8228 72.0045 44.1375 69.5098 47.0422C67.4948 49.3886 64.782 51.482 61.45 53.2615C55.6493 56.358 49.5609 57.6926 47.2668 58.1985L47.1795 58.216C47.0749 58.2422 46.9702 58.2509 46.8655 58.2509L46.8742 58.2422Z" fill="#C3C8FC"/>
<mask id="mask19_3282_122616" style="mask-type:luminance" maskUnits="userSpaceOnUse" x="45" y="35" width="29" height="24">
<path d="M46.8742 58.2422C46.2113 58.2422 45.6095 57.7798 45.4612 57.1082C45.2867 56.3319 45.7839 55.5555 46.5602 55.3898L46.6475 55.3724C48.8369 54.8926 54.6375 53.6191 60.0892 50.7144C66.7272 47.1729 70.382 42.5151 70.9577 36.8802C71.0362 36.0864 71.7515 35.5107 72.5453 35.5892C73.339 35.6677 73.9147 36.383 73.8362 37.1767C73.4612 40.8228 72.0045 44.1375 69.5098 47.0422C67.4948 49.3886 64.782 51.482 61.45 53.2615C55.6493 56.358 49.5609 57.6926 47.2668 58.1985L47.1795 58.216C47.0749 58.2422 46.9702 58.2509 46.8655 58.2509L46.8742 58.2422Z" fill="white"/>
</mask>
<g mask="url(#mask19_3282_122616)">
<path d="M54.9427 52.9304C54.463 54.2388 55.2306 55.3815 56.2686 55.4949C58.1789 55.7042 59.906 60.7634 59.906 60.7634L36.4331 67.698L33.8599 53.0002L55.1608 48.7871" fill="#CA9EF9"/>
</g>
<defs>
<linearGradient id="paint0_linear_3282_122616" x1="55.091" y1="71.6871" x2="38.0381" y2="140.396" gradientUnits="userSpaceOnUse">
<stop stop-color="#006638"/>
<stop offset="1" stop-color="#21BB63"/>
</linearGradient>
</defs>
</svg>