<svg viewBox="0 0 131 141" fill="none" xmlns="http://www.w3.org/2000/svg">
<path d="M30.9422 94.1768L0.235474 104.797L21.2395 124.884L52.2708 135.528L130.715 111.722L127.336 106.871L30.9422 94.1768Z" fill="black"/>
<path d="M23.0044 23.3537L22.6245 27.5641L23.0044 121.884L47.6252 130.194L52.2708 132.964L130.715 109.412V12.8755L101.101 0.0625L23.0044 23.3537Z" fill="#8892F7"/>
<path d="M23.0044 23.3537L101.101 0.0625L127.336 8.44355L49.667 31.7506L23.0044 23.3537Z" fill="#A0A9FA"/>
<path d="M49.667 31.7504L52.2707 36.1507L130.715 12.8753L127.336 8.44336L49.667 31.7504Z" fill="#C3C8FC"/>
<path d="M52.2708 36.1514V132.965L130.715 109.412V12.876L52.2708 36.1514Z" fill="url(#paint0_linear_3282_122952)"/>
<path d="M23.0044 23.3535L22.6245 27.5638L46.2323 35.2405L49.667 31.7504L23.0044 23.3535Z" fill="#8892F7"/>
<path d="M46.2324 35.2411L47.6253 37.4333L52.2709 36.1512L49.6671 31.751L46.2324 35.2411Z" fill="#ACB3FB"/>
<path d="M47.6251 37.4325V130.194L52.2707 132.964V36.1504L47.6251 37.4325Z" fill="#707CF5"/>
<path d="M22.6245 27.5645L23.0044 121.885L47.6252 130.195V37.4334L46.2323 35.2411L22.6245 27.5645Z" fill="#FF4CD2"/>
<mask id="mask0_3282_122952" style="mask-type:luminance" maskUnits="userSpaceOnUse" x="22" y="27" width="26" height="104">
<path d="M22.6245 27.5635L23.0044 121.884L47.6252 130.194V37.4324L46.2323 35.2402L22.6245 27.5635Z" fill="white"/>
</mask>
<g mask="url(#mask0_3282_122952)">
<path d="M49.7066 7.9375L48.0684 157.696L23.0044 121.885L23.9066 73.3952L24.7534 28.253L49.7066 7.9375Z" fill="#3E1689"/>
<mask id="mask1_3282_122952" style="mask-type:luminance" maskUnits="userSpaceOnUse" x="23" y="7" width="27" height="151">
<path d="M49.7067 7.93652L48.0685 157.695L23.0045 121.884L23.9067 73.3942L24.7535 28.2521L49.7067 7.93652Z" fill="white"/>
</mask>
<g mask="url(#mask1_3282_122952)">
<path d="M26.9142 11.751L40.0833 25.5611L39.9883 124.59L25.4659 119.747L26.9142 11.751Z" fill="#1D0066"/>
</g>
</g>
<path d="M62.9151 40.7648V123.072C62.9151 123.974 63.7857 124.607 64.6404 124.346L78.0311 120.151V36.6099C78.0311 35.2565 76.7253 34.2831 75.4274 34.6709L65.1548 37.7416C63.8173 38.1373 62.9072 39.3719 62.9072 40.7648H62.9151Z" fill="#161A8A"/>
<mask id="mask2_3282_122952" style="mask-type:luminance" maskUnits="userSpaceOnUse" x="62" y="34" width="17" height="91">
<path d="M62.9153 40.7648V123.071C62.9153 123.974 63.7858 124.607 64.6405 124.346L78.0312 120.151V36.6099C78.0312 35.2565 76.7254 34.2831 75.4275 34.6709L65.155 37.7416C63.8175 38.1373 62.9073 39.3719 62.9073 40.7648H62.9153Z" fill="white"/>
</mask>
<g mask="url(#mask2_3282_122952)">
<path d="M78.0391 33.8945L53.6794 76.6308L54.7241 37.4321L78.0391 33.8945Z" fill="black"/>
</g>
<path d="M93.9149 31.0381L125.009 21.6836L126.569 22.3088V104.56L93.5825 113.202L93.9149 31.0381Z" fill="#A056F2"/>
<mask id="mask3_3282_122952" style="mask-type:luminance" maskUnits="userSpaceOnUse" x="93" y="21" width="34" height="93">
<path d="M93.9149 31.0391L125.009 21.6846L126.569 22.3098V104.561L93.5825 113.203L93.9149 31.0391Z" fill="white"/>
</mask>
<g mask="url(#mask3_3282_122952)">
<path d="M95.6006 31.5148L100.127 34.6884L126.972 26.6635L127.32 20.8545L95.6006 31.5148Z" fill="#FD99E9"/>
<path d="M123.624 31.1357L102.787 37.4037V104.373L122.295 99.6878L123.624 31.1357Z" fill="#FF4CD2"/>
<mask id="mask4_3282_122952" style="mask-type:luminance" maskUnits="userSpaceOnUse" x="102" y="31" width="22" height="74">
<path d="M123.625 31.1357L102.787 37.4037V104.373L122.295 99.6878L123.625 31.1357Z" fill="white"/>
</mask>
<g mask="url(#mask4_3282_122952)">
<path d="M123.624 45.6904L102.786 64.6685V131.638L123.688 126.494L123.624 45.6904Z" fill="#B3269C"/>
<path d="M123.624 73.6904L102.786 93.4599V160.429L123.687 155.277L123.624 73.6904Z" fill="#660066"/>
</g>
<path d="M93.915 31.041L95.6007 31.5159L126.569 22.3117L125.01 21.6865L94.1525 30.4158" fill="#FCC0F4"/>
<path d="M95.6006 31.5149V49.2346L93.5825 44.3832L93.9149 31.04L95.6006 31.5149Z" fill="#3E1689"/>
<path d="M123.624 31.1357L102.787 37.4037V39.2081L122.295 33.3596V99.6878L123.68 100.266L123.624 31.1357Z" fill="#8C1381"/>
<path d="M123.68 100.265L112.996 102.98L111.579 102.204L122.295 99.6875L123.68 100.265Z" fill="#FF4CD2"/>
</g>
<path d="M125.927 104.734L125.935 107.568L124.819 109.071L114.927 111.762V107.417L125.927 104.734Z" fill="#000066"/>
<path d="M62.9152 122.295L66.7852 123.672L67.6478 129.735C67.6478 129.735 82.0357 135.037 84.9481 136.018C87.8605 137 98.592 139.429 102.399 138.155C106.205 136.889 108.057 135.963 110.249 135.52C112.442 135.077 113.716 133.161 112.56 131.848C111.405 130.534 62.9231 113.519 62.9231 113.519V122.287L62.9152 122.295Z" fill="black"/>
<mask id="mask5_3282_122952" style="mask-type:luminance" maskUnits="userSpaceOnUse" x="62" y="33" width="66" height="108">
<path d="M127.336 48.2838L62.9152 33.1045V124.884L127.336 140.064V48.2838Z" fill="white"/>
</mask>
<g mask="url(#mask5_3282_122952)">
<path d="M68.9775 44.8493L78.609 41.9844L79.6933 45.0946L68.9775 44.8493Z" fill="#A7AEEF"/>
<path d="M104.852 124.639L95.1257 128.081L97.7849 124.884L104.852 124.639Z" fill="black"/>
<path d="M120.728 93.2989C120.728 70.063 106.902 47.0409 90.0846 42.15C73.5282 37.3382 60.5174 52.0426 60.8103 74.7324C61.0952 97.2005 74.3355 119.542 90.6148 124.9C107.139 130.337 120.728 116.313 120.728 93.2989Z" fill="#C3C8FC"/>
<mask id="mask6_3282_122952" style="mask-type:luminance" maskUnits="userSpaceOnUse" x="60" y="41" width="61" height="86">
<path d="M120.728 93.2978C120.728 70.062 106.902 47.0398 90.0846 42.149C73.5282 37.3372 60.5174 52.0416 60.8103 74.7314C61.0952 97.1996 74.3355 119.541 90.6148 124.899C107.139 130.336 120.728 116.312 120.728 93.2978Z" fill="white"/>
</mask>
<g mask="url(#mask6_3282_122952)">
<path d="M98.5527 41.5011L128.721 62.0145C128.721 62.0145 111.643 59.9884 114.428 65.9082C114.761 66.6205 114.183 67.491 113.605 67.7047C110.883 68.7336 109.078 69.4142 107.464 70.0156C105.628 70.7121 107.234 73.6957 107.234 73.6957L72.262 49.6051L98.5527 41.4932V41.5011Z" fill="white"/>
<path d="M111.326 100.699C111.326 100.699 111.247 97.8026 112.996 97.3436C115.173 96.7658 117.381 96.0536 119.106 95.6737C120.831 95.2938 120.435 94.4628 120.728 92.6426C123.134 92.9275 121.488 102.29 121.488 102.29L117.294 120.635L82.0836 122.138L111.326 100.699Z" fill="#5865F2"/>
<path d="M106.467 116.083C106.467 116.083 120.071 111.786 123.134 110.346C122.509 114.089 119.232 126.498 119.232 126.498L79.0762 139.43L106.475 116.083H106.467Z" fill="#000066"/>
<path d="M100.911 123.855L117.887 116.914L110.377 141.97L75.1666 143.466L100.911 123.855Z" fill="black"/>
<path d="M88.399 44.6353C83.8959 45.9174 80.4691 43.1078 74.391 44.0417C73.3068 46.5901 70.4814 47.1599 70.4814 47.1599L84.3945 47.0728L88.399 44.6353Z" fill="white"/>
</g>
<path d="M111.492 96.3693C111.492 73.0147 97.595 49.866 80.6904 44.9592C63.7859 40.0525 50.9729 54.9073 51.2578 77.7078C51.5427 100.295 64.8543 122.755 81.2207 128.137C97.8324 133.597 111.492 119.502 111.492 96.3693Z" fill="#E6E8FF"/>
<mask id="mask7_3282_122952" style="mask-type:luminance" maskUnits="userSpaceOnUse" x="51" y="44" width="61" height="86">
<path d="M111.492 96.3703C111.492 73.0158 97.595 49.867 80.6904 44.9602C63.7859 40.0534 50.9729 54.9082 51.2578 77.7088C51.5427 100.296 64.8543 122.756 81.2207 128.138C97.8324 133.598 111.492 119.503 111.492 96.3703Z" fill="white"/>
</mask>
<g mask="url(#mask7_3282_122952)">
<path d="M110.186 96.9402C110.186 94.8034 110.068 92.6745 109.846 90.5615C107.622 69.5099 94.746 49.9937 79.3847 45.5301C62.7413 40.6946 49.6672 55.4782 49.9521 78.2787C50.237 100.866 63.5485 123.326 79.9149 128.707C96.5266 134.168 110.186 120.073 110.186 96.9402Z" fill="#A0A9FA"/>
</g>
<path d="M106.902 94.8977C106.902 75.0966 95.1178 55.4775 80.7853 51.3146C66.6745 47.2151 55.5947 59.7432 55.8401 79.0774C56.0854 98.4115 67.3709 117.263 81.2365 121.821C95.3236 126.451 106.894 114.501 106.894 94.8977H106.902Z" fill="#E6E8FF"/>
<mask id="mask8_3282_122952" style="mask-type:luminance" maskUnits="userSpaceOnUse" x="55" y="50" width="52" height="73">
<path d="M106.902 94.8977C106.902 75.0966 95.1178 55.4775 80.7853 51.3146C66.6745 47.2151 55.5947 59.7432 55.8401 79.0774C56.0854 98.4115 67.3709 117.263 81.2365 121.821C95.3236 126.451 106.894 114.501 106.894 94.8977H106.902Z" fill="white"/>
</mask>
<g mask="url(#mask8_3282_122952)">
<path d="M108.659 93.6872C108.659 74.6775 97.3417 55.834 83.587 51.8374C70.038 47.9041 59.4015 59.9335 59.631 78.4921C59.8605 96.8766 70.7028 115.158 84.0223 119.535C97.3417 123.911 108.659 112.507 108.659 93.6793V93.6872Z" fill="#A0A9FA"/>
<mask id="mask9_3282_122952" style="mask-type:luminance" maskUnits="userSpaceOnUse" x="59" y="51" width="50" height="70">
<path d="M108.659 93.6872C108.659 74.6775 97.3417 55.834 83.587 51.8374C70.038 47.9041 59.4015 59.9335 59.631 78.4921C59.8605 96.8766 70.7028 115.158 84.0223 119.535C97.3417 123.911 108.659 112.507 108.659 93.6793V93.6872Z" fill="white"/>
</mask>
<g mask="url(#mask9_3282_122952)">
<path d="M83.9745 47.1133L52.1044 101.46L62.7251 112.08L98.2278 54.1252L83.9745 47.1133Z" fill="#C3C8FC"/>
<path d="M111.674 76.7354L79.8116 131.082L90.4324 141.702L125.935 83.7473L111.674 76.7354Z" fill="#C3C8FC"/>
</g>
<path d="M81.4342 56.0792C94.7062 59.9334 105.612 78.0963 105.612 96.4333C105.612 101.53 104.765 106.073 103.261 109.864C106.095 105.416 107.78 99.3457 107.78 92.1676C107.78 73.8306 96.8667 55.6677 83.6027 51.8135C74.4223 49.1465 66.6269 54.0928 62.8835 63.4789C67.0701 56.9339 73.7654 53.8554 81.4342 56.0792Z" fill="#2D35AD"/>
<path d="M79.1709 91.3532L77.9284 90.9496C77.3427 90.7596 76.86 91.0683 76.86 91.6381C76.86 92.2079 77.3348 92.8252 77.9205 93.0152L79.163 93.4188C79.7486 93.6087 80.2314 93.3001 80.2314 92.7303C80.2314 92.1604 79.7566 91.5431 79.1709 91.3532ZM86.4915 93.7195L85.2489 93.3159C84.6633 93.126 84.1805 93.4346 84.1726 94.0044C84.1726 94.5743 84.6475 95.1995 85.2331 95.3894L86.4756 95.793C87.0613 95.983 87.544 95.6743 87.552 95.1045C87.552 94.5347 87.0771 93.9095 86.4915 93.7195ZM86.4915 93.7195L85.2489 93.3159C84.6633 93.126 84.1805 93.4346 84.1726 94.0044C84.1726 94.5743 84.6475 95.1995 85.2331 95.3894L86.4756 95.793C87.0613 95.983 87.544 95.6743 87.552 95.1045C87.552 94.5347 87.0771 93.9095 86.4915 93.7195ZM79.1709 91.3532L77.9284 90.9496C77.3427 90.7596 76.86 91.0683 76.86 91.6381C76.86 92.2079 77.3348 92.8252 77.9205 93.0152L79.163 93.4188C79.7486 93.6087 80.2314 93.3001 80.2314 92.7303C80.2314 92.1604 79.7566 91.5431 79.1709 91.3532ZM79.1709 91.3532L77.9284 90.9496C77.3427 90.7596 76.86 91.0683 76.86 91.6381C76.86 92.2079 77.3348 92.8252 77.9205 93.0152L79.163 93.4188C79.7486 93.6087 80.2314 93.3001 80.2314 92.7303C80.2314 92.1604 79.7566 91.5431 79.1709 91.3532ZM86.4915 93.7195L85.2489 93.3159C84.6633 93.126 84.1805 93.4346 84.1726 94.0044C84.1726 94.5743 84.6475 95.1995 85.2331 95.3894L86.4756 95.793C87.0613 95.983 87.544 95.6743 87.552 95.1045C87.552 94.5347 87.0771 93.9095 86.4915 93.7195ZM86.4915 93.7195L85.2489 93.3159C84.6633 93.126 84.1805 93.4346 84.1726 94.0044C84.1726 94.5743 84.6475 95.1995 85.2331 95.3894L86.4756 95.793C87.0613 95.983 87.544 95.6743 87.552 95.1045C87.552 94.5347 87.0771 93.9095 86.4915 93.7195ZM79.1709 91.3532L77.9284 90.9496C77.3427 90.7596 76.86 91.0683 76.86 91.6381C76.86 92.2079 77.3348 92.8252 77.9205 93.0152L79.163 93.4188C79.7486 93.6087 80.2314 93.3001 80.2314 92.7303C80.2314 92.1604 79.7566 91.5431 79.1709 91.3532ZM79.1709 91.3532L77.9284 90.9496C77.3427 90.7596 76.86 91.0683 76.86 91.6381C76.86 92.2079 77.3348 92.8252 77.9205 93.0152L79.163 93.4188C79.7486 93.6087 80.2314 93.3001 80.2314 92.7303C80.2314 92.1604 79.7566 91.5431 79.1709 91.3532ZM86.4915 93.7195L85.2489 93.3159C84.6633 93.126 84.1805 93.4346 84.1726 94.0044C84.1726 94.5743 84.6475 95.1995 85.2331 95.3894L86.4756 95.793C87.0613 95.983 87.544 95.6743 87.552 95.1045C87.552 94.5347 87.0771 93.9095 86.4915 93.7195ZM86.4915 93.7195L85.2489 93.3159C84.6633 93.126 84.1805 93.4346 84.1726 94.0044C84.1726 94.5743 84.6475 95.1995 85.2331 95.3894L86.4756 95.793C87.0613 95.983 87.544 95.6743 87.552 95.1045C87.552 94.5347 87.0771 93.9095 86.4915 93.7195ZM79.1709 91.3532L77.9284 90.9496C77.3427 90.7596 76.86 91.0683 76.86 91.6381C76.86 92.2079 77.3348 92.8252 77.9205 93.0152L79.163 93.4188C79.7486 93.6087 80.2314 93.3001 80.2314 92.7303C80.2314 92.1604 79.7566 91.5431 79.1709 91.3532ZM86.4915 93.7195L85.2489 93.3159C84.6633 93.126 84.1805 93.4346 84.1726 94.0044C84.1726 94.5743 84.6475 95.1995 85.2331 95.3894L86.4756 95.793C87.0613 95.983 87.544 95.6743 87.552 95.1045C87.552 94.5347 87.0771 93.9095 86.4915 93.7195ZM79.1709 91.3532L77.9284 90.9496C77.3427 90.7596 76.86 91.0683 76.86 91.6381C76.86 92.2079 77.3348 92.8252 77.9205 93.0152L79.163 93.4188C79.7486 93.6087 80.2314 93.3001 80.2314 92.7303C80.2314 92.1604 79.7566 91.5431 79.1709 91.3532ZM79.1709 91.3532L77.9284 90.9496C77.3427 90.7596 76.86 91.0683 76.86 91.6381C76.86 92.2079 77.3348 92.8252 77.9205 93.0152L79.163 93.4188C79.7486 93.6087 80.2314 93.3001 80.2314 92.7303C80.2314 92.1604 79.7566 91.5431 79.1709 91.3532ZM86.4915 93.7195L85.2489 93.3159C84.6633 93.126 84.1805 93.4346 84.1726 94.0044C84.1726 94.5743 84.6475 95.1995 85.2331 95.3894L86.4756 95.793C87.0613 95.983 87.544 95.6743 87.552 95.1045C87.552 94.5347 87.0771 93.9095 86.4915 93.7195ZM86.4915 93.7195L85.2489 93.3159C84.6633 93.126 84.1805 93.4346 84.1726 94.0044C84.1726 94.5743 84.6475 95.1995 85.2331 95.3894L86.4756 95.793C87.0613 95.983 87.544 95.6743 87.552 95.1045C87.552 94.5347 87.0771 93.9095 86.4915 93.7195ZM79.1709 91.3532L77.9284 90.9496C77.3427 90.7596 76.86 91.0683 76.86 91.6381C76.86 92.2079 77.3348 92.8252 77.9205 93.0152L79.163 93.4188C79.7486 93.6087 80.2314 93.3001 80.2314 92.7303C80.2314 92.1604 79.7566 91.5431 79.1709 91.3532ZM79.1709 91.3532L77.9284 90.9496C77.3427 90.7596 76.86 91.0683 76.86 91.6381C76.86 92.2079 77.3348 92.8252 77.9205 93.0152L79.163 93.4188C79.7486 93.6087 80.2314 93.3001 80.2314 92.7303C80.2314 92.1604 79.7566 91.5431 79.1709 91.3532ZM86.4915 93.7195L85.2489 93.3159C84.6633 93.126 84.1805 93.4346 84.1726 94.0044C84.1726 94.5743 84.6475 95.1995 85.2331 95.3894L86.4756 95.793C87.0613 95.983 87.544 95.6743 87.552 95.1045C87.552 94.5347 87.0771 93.9095 86.4915 93.7195ZM86.4915 93.7195L85.2489 93.3159C84.6633 93.126 84.1805 93.4346 84.1726 94.0044C84.1726 94.5743 84.6475 95.1995 85.2331 95.3894L86.4756 95.793C87.0613 95.983 87.544 95.6743 87.552 95.1045C87.552 94.5347 87.0771 93.9095 86.4915 93.7195ZM79.1709 91.3532L77.9284 90.9496C77.3427 90.7596 76.86 91.0683 76.86 91.6381C76.86 92.2079 77.3348 92.8252 77.9205 93.0152L79.163 93.4188C79.7486 93.6087 80.2314 93.3001 80.2314 92.7303C80.2314 92.1604 79.7566 91.5431 79.1709 91.3532Z" fill="#2D35AD"/>
<path d="M102.035 91.0428L99.7079 90.2909C99.7079 86.7691 96.7718 83.1524 93.1392 81.989L71.3042 74.9692C67.6874 73.8058 64.7434 75.5074 64.7117 79.0133L62.4087 78.2694C60.8496 77.7708 59.5755 78.586 59.5675 80.1055L59.5201 86.0252C59.5121 87.5447 60.7626 89.183 62.3216 89.6895L64.6247 90.4334V90.2751C64.6247 93.781 67.5291 97.5561 71.138 98.7274L93.0126 105.826C96.661 107.013 99.6367 105.304 99.6446 101.766L101.971 102.518C103.546 103.033 104.836 102.202 104.836 100.674L104.86 94.7149C104.86 93.1875 103.594 91.5414 102.019 91.0349L102.035 91.0428ZM64.6801 84.2287L64.6563 87.9563L63.5167 87.5843C62.4878 87.2519 61.6569 86.1677 61.6648 85.1705L61.6885 82.3531C61.6885 81.3559 62.5353 80.8098 63.5642 81.1422L64.7038 81.5142L64.688 84.2366L64.6801 84.2287ZM69.9588 85.8195C69.0249 85.5187 68.2652 84.5295 68.2731 83.6193C68.2731 82.7092 69.0407 82.2185 69.9825 82.5193C70.9164 82.82 71.6761 83.8014 71.6682 84.7115C71.6682 85.6216 70.9006 86.1123 69.9588 85.8115V85.8195ZM90.1318 95.0157C90.116 97.4215 88.0979 98.7274 85.6129 97.9201L78.5931 95.6488C76.116 94.8495 74.1216 92.2457 74.1374 89.8477L74.1533 86.7771C74.1691 84.3791 76.1872 83.0733 78.6643 83.8726L85.6762 86.136C88.1612 86.9353 90.1635 89.5312 90.1477 91.9371L90.1318 95.0157ZM94.358 93.7019C93.4162 93.4012 92.6565 92.4119 92.6565 91.4939C92.6565 90.5837 93.432 90.0852 94.3738 90.3938C95.3156 90.6945 96.0833 91.6838 96.0753 92.6018C96.0753 93.5199 95.2998 94.0106 94.358 93.7019ZM102.707 98.4425C102.707 99.4476 101.853 99.9936 100.816 99.6533L99.6604 99.2814L99.6842 92.7997L100.84 93.1717C101.876 93.5041 102.715 94.5962 102.715 95.6013V98.4425H102.707Z" fill="#E6E8FF"/>
<mask id="mask10_3282_122952" style="mask-type:luminance" maskUnits="userSpaceOnUse" x="59" y="74" width="46" height="33">
<path d="M102.035 91.0448L99.7082 90.293C99.7082 86.7712 96.772 83.1544 93.1395 81.991L71.3044 74.9712C67.6877 73.8078 64.7436 75.5093 64.712 79.0153L62.4089 78.2713C60.8499 77.7728 59.5757 78.5878 59.5678 80.1073L59.5203 86.0271C59.5124 87.5466 60.7628 89.1848 62.3219 89.6913L64.6249 90.4353V90.277C64.6249 93.7829 67.5294 97.558 71.1382 98.7292L93.0128 105.828C96.6612 107.015 99.6369 105.306 99.6449 101.768L101.972 102.52C103.547 103.035 104.837 102.204 104.837 100.676L104.86 94.7168C104.86 93.1894 103.594 91.5432 102.019 91.0367L102.035 91.0448ZM64.6803 84.2307L64.6566 87.9583L63.5169 87.5863C62.4881 87.2539 61.6571 86.1697 61.665 85.1725L61.6888 82.3551C61.6888 81.3579 62.5356 80.8118 63.5644 81.1442L64.704 81.5162L64.6882 84.2387L64.6803 84.2307ZM69.959 85.8215C69.0251 85.5207 68.2654 84.5315 68.2733 83.6214C68.2733 82.7112 69.041 82.2206 69.9828 82.5213C70.9166 82.822 71.6764 83.8035 71.6685 84.7135C71.6685 85.6236 70.9008 86.1143 69.959 85.8136V85.8215ZM90.1321 95.0177C90.1163 97.4236 88.0982 98.7294 85.6131 97.9222L78.5933 95.6508C76.1162 94.8515 74.1218 92.2477 74.1377 89.8498L74.1535 86.7791C74.1693 84.3811 76.1874 83.0753 78.6645 83.8746L85.6764 86.1381C88.1615 86.9374 90.1638 89.5332 90.1479 91.9391L90.1321 95.0177ZM94.3582 93.7039C93.4165 93.4032 92.6567 92.4139 92.6567 91.4959C92.6567 90.5858 93.4323 90.0872 94.3741 90.3958C95.3158 90.6966 96.0835 91.6858 96.0756 92.6039C96.0756 93.5219 95.3 94.0126 94.3582 93.7039ZM102.708 98.4445C102.708 99.4496 101.853 99.9957 100.816 99.6554L99.6607 99.2834L99.6844 92.8017L100.84 93.1736C101.877 93.506 102.716 94.5982 102.716 95.6033V98.4444L102.708 98.4445Z" fill="white"/>
</mask>
<g mask="url(#mask10_3282_122952)">
<path d="M102.565 90.5934L100.349 89.8812C100.294 89.8653 100.238 89.9049 100.238 89.9603V90.0236C100.238 86.5018 97.3021 82.711 93.6695 81.5397L71.8345 74.5199C68.2177 73.3565 65.2737 75.2559 65.242 78.7618V78.6273C65.242 78.6273 64.7434 79.0309 64.7118 79.0151L62.9469 77.8201C61.3878 77.3215 60.1137 78.1366 60.1058 79.6561L60.0583 85.5759C60.0504 87.0954 61.3008 88.7336 62.8599 89.2401L65.06 89.9524C65.1154 89.9682 65.1708 89.9287 65.1708 89.8733V89.8258C65.1708 93.3317 68.0753 97.1068 71.6841 98.2781L93.5587 105.377C97.2071 106.564 99.6447 105.306 99.6605 101.768C99.6605 101.768 100.214 101.325 100.254 101.333L102.525 102.069C104.1 102.583 105.39 101.752 105.39 100.225L105.414 94.2656C105.414 92.7382 104.148 91.092 102.573 90.5855L102.565 90.5934ZM65.2104 83.7794L65.1866 87.3882C65.1866 87.4436 64.7039 87.966 64.6485 87.9501L64.0391 87.1271C63.0102 86.7947 62.1792 85.7104 62.1872 84.7133L62.2109 81.8958C62.2109 80.8987 63.0577 80.3526 64.0866 80.685L65.1708 81.0332C65.1708 81.0332 65.2262 81.0728 65.2262 81.1123L65.2104 83.7715V83.7794ZM70.4891 85.3701C69.5552 85.0694 68.7955 84.0801 68.8034 83.17C68.8034 82.2599 69.571 81.7692 70.5128 82.0699C71.4467 82.3707 72.2064 83.352 72.1985 84.2622C72.1985 85.1723 71.4308 85.663 70.4891 85.3622V85.3701ZM90.6622 94.5663C90.6463 96.9722 88.6282 98.2781 86.1432 97.4708L79.1234 95.1995C76.6463 94.4001 74.6519 91.7964 74.6677 89.3984L74.6836 86.3277C74.6994 83.9298 76.7175 82.6239 79.1946 83.4233L86.2065 85.6867C88.6915 86.486 90.6938 89.0818 90.678 91.4877L90.6622 94.5663ZM94.8883 93.2526C93.9465 92.9519 93.1868 91.9626 93.1868 91.0445C93.1868 90.1344 93.9623 89.6358 94.9041 89.9445C95.8459 90.2452 96.6136 91.2345 96.6056 92.1525C96.6056 93.0706 95.8301 93.5612 94.8883 93.2526ZM103.238 97.9931C103.238 98.9982 102.383 99.5443 101.346 99.204L100.254 98.8479C100.254 98.8479 100.199 98.8083 100.199 98.7687L99.6922 92.849C99.6922 92.7936 100.278 92.3662 100.333 92.382L101.378 92.7223C102.415 93.0547 103.254 94.1469 103.254 95.152V97.9931H103.238Z" fill="#5865F2"/>
</g>
<path d="M80.2236 92.7223C80.2236 93.3 79.7408 93.6087 79.1552 93.4187L77.9127 93.0151C77.327 92.8252 76.8522 92.2079 76.8522 91.646C76.8522 91.0682 77.3349 90.7596 77.9206 90.9495L79.1631 91.3531C79.7487 91.5431 80.2236 92.1604 80.2236 92.7223Z" fill="#6974E5"/>
<path d="M87.5519 95.0954C87.5519 95.6653 87.0613 95.9818 86.4756 95.7919L85.2331 95.3883C84.6475 95.1983 84.1726 94.581 84.1726 94.0112C84.1726 93.4335 84.6554 93.1248 85.2489 93.3148L86.4914 93.7184C87.0771 93.9083 87.5519 94.5256 87.5519 95.0954Z" fill="#6974E5"/>
<path d="M80.2236 92.7223C80.2236 93.3 79.7408 93.6087 79.1552 93.4187L77.9127 93.0151C77.327 92.8252 76.8522 92.2079 76.8522 91.646C76.8522 91.0682 77.3349 90.7596 77.9206 90.9495L79.1631 91.3531C79.7487 91.5431 80.2236 92.1604 80.2236 92.7223Z" fill="#5865F2"/>
<path d="M87.5519 95.0954C87.5519 95.6653 87.0613 95.9818 86.4756 95.7919L85.2331 95.3883C84.6475 95.1983 84.1726 94.581 84.1726 94.0112C84.1726 93.4335 84.6554 93.1248 85.2489 93.3148L86.4914 93.7184C87.0771 93.9083 87.5519 94.5256 87.5519 95.0954Z" fill="#5865F2"/>
<path d="M91.1054 76.2756C90.3378 75.6741 89.301 75.1597 88.2722 74.7481C89.1427 73.9093 89.6571 72.6667 89.8154 72.2552C90.0528 71.6458 89.7759 71.0523 89.396 70.7832C89.0161 70.5141 88.3751 70.3954 88.0427 71.3372C87.5124 72.8488 87.1325 73.5215 86.3965 74.1071C85.8188 73.9409 85.3123 73.8301 84.9324 73.7747C83.1043 72.0732 81.1099 70.5062 78.7752 69.7543C74.5966 68.4169 72.5231 71.7566 73.3541 73.1337C74.4541 74.946 77.2874 75.3417 78.7357 75.5079C79.7249 75.6187 80.643 75.6504 81.7035 75.7849C80.5005 74.6927 79.8041 73.2286 79.5825 72.8329C79.2738 72.3027 79.1709 71.9307 79.3925 71.8437C79.6141 71.7566 80.0573 71.8278 80.5876 72.6746C81.1178 73.5215 82.7006 75.5633 83.7216 76.1727C84.2281 76.3468 84.8374 76.6317 85.526 76.9799C87.3937 77.9296 89.8392 79.3146 92.2609 79.9002C92.435 79.9398 92.6012 79.9794 92.7753 80.011C94.089 80.1218 92.8307 77.6131 91.0896 76.2518L91.1054 76.2756Z" fill="#E6E8FF"/>
<mask id="mask11_3282_122952" style="mask-type:luminance" maskUnits="userSpaceOnUse" x="73" y="69" width="21" height="12">
<path d="M91.1053 76.2746C90.3376 75.6731 89.3009 75.1587 88.272 74.7471C89.1426 73.9082 89.657 72.6657 89.8153 72.2542C90.0527 71.6448 89.7757 71.0513 89.3959 70.7822C89.016 70.5131 88.3749 70.3944 88.0425 71.3362C87.5123 72.8478 87.1324 73.5205 86.3964 74.1061C85.8187 73.9399 85.3122 73.8291 84.9323 73.7737C83.1041 72.0722 81.1098 70.5052 78.7751 69.7533C74.5965 68.4159 72.523 71.7556 73.3539 73.1327C74.454 74.945 77.2873 75.3407 78.7355 75.5069C79.7248 75.6177 80.6428 75.6494 81.7033 75.7839C80.5004 74.6918 79.8039 73.2276 79.5824 72.8319C79.2737 72.3017 79.1708 71.9297 79.3924 71.8427C79.614 71.7556 80.0572 71.8268 80.5874 72.6736C81.1177 73.5205 82.7005 75.5623 83.7214 76.1717C84.2279 76.3458 84.8373 76.6307 85.5258 76.9789C87.3936 77.9286 89.839 79.3136 92.2608 79.8992C92.4349 79.9388 92.6011 79.9784 92.7752 80.01C94.0889 80.1208 92.8306 77.612 91.0895 76.2508L91.1053 76.2746Z" fill="white"/>
</mask>
<g mask="url(#mask11_3282_122952)">
<path d="M91.4931 75.7764C90.7254 75.175 89.3088 75.1512 88.28 74.7397C89.1505 73.9008 90.0448 72.1676 90.2031 71.7561C90.4405 71.1467 90.1636 70.5531 89.7837 70.284C89.4038 70.015 88.2958 69.7459 87.9634 70.6956C87.4332 72.2072 87.0533 72.8799 86.3173 73.4655C85.7396 73.2993 85.6921 73.3389 85.3201 73.2835C83.492 71.582 81.4976 70.015 79.1629 69.2631C74.9843 67.9256 72.9108 71.2654 73.7418 72.6425C74.8418 74.4548 77.6751 74.8505 79.1234 75.0167C80.1126 75.1275 81.0307 75.1591 82.0912 75.2937C80.8882 74.2015 79.527 72.2863 79.2975 71.8985C79.4162 71.6532 79.5586 71.4395 79.7802 71.3525C80.0018 71.2654 80.445 71.3366 80.9753 72.1834C81.5055 73.0302 83.0883 75.0721 84.1093 75.6815C84.6158 75.8556 85.2251 76.1405 85.9137 76.4887C87.7814 77.4384 90.2269 78.8234 92.6486 79.409C92.8227 79.4486 92.9889 79.4882 93.163 79.5198C94.4767 79.6306 93.2184 77.1218 91.4773 75.7606L91.4931 75.7764Z" fill="#5865F2"/>
</g>
</g>
</g>
<path d="M24.7534 28.2526L27.3018 24.7071L101.101 0.0625L23.0044 23.3537L22.6245 27.5641L24.7534 28.2526Z" fill="#FCC0F4"/>
<defs>
<linearGradient id="paint0_linear_3282_122952" x1="100.051" y1="107.235" x2="76.0393" y2="10.9522" gradientUnits="userSpaceOnUse">
<stop offset="0.39" stop-color="#5865F2"/>
<stop offset="0.89" stop-color="#A0A9FA"/>
</linearGradient>
</defs>
</svg>