<svg viewBox="0 0 99 141" fill="none" xmlns="http://www.w3.org/2000/svg">
<path d="M45.4981 62.839C43.6827 60.7448 40.2552 60.7373 40.2552 60.7373C40.2552 60.7373 39.7655 64.1347 41.581 66.2288C43.3964 68.323 45.7467 69.2646 46.8239 68.3305C47.9011 67.3964 47.3135 64.9332 45.4981 62.839Z" fill="#21BB63"/>
<mask id="mask0_3282_122794" style="mask-type:luminance" maskUnits="userSpaceOnUse" x="40" y="60" width="8" height="9">
<path d="M45.4981 62.84C43.6827 60.7458 40.2552 60.7383 40.2552 60.7383C40.2552 60.7383 39.7655 64.1356 41.581 66.2298C43.3964 68.3239 45.7467 69.2656 46.8239 68.3315C47.9011 67.3974 47.3135 64.9341 45.4981 62.84Z" fill="white"/>
</mask>
<g mask="url(#mask0_3282_122794)">
<path d="M39.3662 60.2179C45.0385 61.4608 46.4924 65.6793 47.1703 67.8563C47.1703 67.8563 48.3455 64.5945 45.5733 61.4006C42.7937 58.2066 40.2476 60.7377 40.2476 60.7377" fill="#35ED7E"/>
<path d="M46.0255 68.4364C43.9539 67.3667 41.9954 63.1182 41.9954 63.1182C41.9954 63.1182 46.2891 66.7867 47.1404 67.992C47.9916 69.1972 46.0179 68.4364 46.0179 68.4364H46.0255Z" fill="#108E4D"/>
</g>
<path d="M79.8861 46.4183C80.9256 45.1829 80.6168 43.2168 80.6168 43.2168C80.6168 43.2168 78.6205 43.2469 77.5885 44.4748C76.5565 45.7027 76.2251 47.1415 76.8578 47.6763C77.4906 48.2111 78.854 47.6462 79.8861 46.4183Z" fill="#21BB63"/>
<mask id="mask1_3282_122794" style="mask-type:luminance" maskUnits="userSpaceOnUse" x="76" y="43" width="5" height="5">
<path d="M79.8861 46.4173C80.9256 45.1819 80.6168 43.2158 80.6168 43.2158C80.6168 43.2158 78.6205 43.246 77.5885 44.4738C76.5565 45.7016 76.2251 47.1405 76.8578 47.6753C77.4906 48.2102 78.854 47.6452 79.8861 46.4173Z" fill="white"/>
</mask>
<g mask="url(#mask1_3282_122794)">
<path d="M77.2569 44.9032C78.8916 43.8712 80.1872 43.8938 80.1872 43.8938C80.1872 43.8938 80.0968 45.3477 79.3209 46.9899C80.6844 48.4663 84.029 42.1236 84.029 42.1236L76.9104 41.9277L77.2494 44.8957" fill="#35ED7E"/>
<path d="M76.3152 47.4564C77.0459 45.9347 79.916 44.2021 79.916 44.2021C79.916 44.2021 78.8915 46.5298 76.7597 47.9761C75.8783 48.5788 76.3228 47.4564 76.3228 47.4564H76.3152Z" fill="#108E4D"/>
</g>
<path d="M51.1779 20.8432C49.694 20.2105 47.9011 21.0843 47.9011 21.0843C47.9011 21.0843 48.5113 22.9826 49.9953 23.6153C51.4793 24.2481 52.9407 24.1427 53.2721 23.3743C53.6035 22.6059 52.6619 21.476 51.1779 20.8432Z" fill="#21BB63"/>
<mask id="mask2_3282_122794" style="mask-type:luminance" maskUnits="userSpaceOnUse" x="47" y="20" width="7" height="5">
<path d="M51.1777 20.8423C49.6937 20.2095 47.9009 21.0833 47.9009 21.0833C47.9009 21.0833 48.511 22.9816 49.995 23.6144C51.479 24.2471 52.9404 24.1417 53.2719 23.3733C53.6033 22.605 52.6617 21.475 51.1777 20.8423Z" fill="white"/>
</mask>
<g mask="url(#mask2_3282_122794)">
<path d="M52.978 23.3051C51.3057 23.049 49.2417 21.6705 49.2417 21.6705C49.2417 21.6705 52.1193 21.5198 53.5807 22.9736C54.3415 23.7269 52.9705 23.3051 52.9705 23.3051H52.978Z" fill="#108E4D"/>
</g>
<path d="M37.5132 90.9157C37.1742 81.379 39.5621 72.8894 47.2985 66.8028C52.4585 62.6898 58.6205 60.2793 64.3907 57.2284C67.0649 55.7896 69.9123 54.3433 72.0065 52.1512C73.7089 50.381 74.2437 48.0608 74.2211 45.6503C74.2965 40.43 70.9067 38.1174 66.8163 35.6842C64.0517 34.0571 61.1063 32.3697 58.6204 30.2229C55.2608 27.3227 52.5037 23.5336 51.306 19.2399C51.0951 18.4414 50.9369 17.6278 50.8088 16.8142C50.7862 16.5355 50.6355 16.2945 50.9218 15.9404C51.3512 16.1062 51.3361 16.3849 51.4642 16.6184C51.6374 17.0176 51.9463 17.6655 52.1497 18.0722C52.7372 19.2474 53.3474 20.4301 53.9726 21.56C57.1365 27.4131 62.3643 30.494 68.0517 33.5524C71.0272 35.2247 74.1609 37.1682 75.7353 40.3773C76.8275 42.5618 77.0385 44.9874 76.8426 47.3753C76.6694 49.7934 75.7353 52.204 74.0479 54.0043C72.4961 55.7068 70.5375 56.9874 68.5865 58.1399C65.3022 60.0457 61.8671 61.6879 58.4849 63.3828C55.2231 65.0024 51.9312 66.7802 49.0988 69.0401C44.0744 72.9496 41.2947 78.3357 40.5264 84.6106C40.2552 86.6596 40.1648 88.7462 40.2024 90.8403L37.5207 90.9081L37.5132 90.9157Z" fill="#35ED7E"/>
<mask id="mask3_3282_122794" style="mask-type:luminance" maskUnits="userSpaceOnUse" x="37" y="15" width="40" height="76">
<path d="M37.5132 90.9137C37.1742 81.377 39.5621 72.8874 47.2985 66.8008C52.4585 62.6878 58.6205 60.2773 64.3907 57.2265C67.0649 55.7877 69.9123 54.3414 72.0065 52.1492C73.7089 50.379 74.2437 48.0588 74.2211 45.6483C74.2965 40.428 70.9067 38.1154 66.8163 35.6823C64.0517 34.0552 61.1063 32.3678 58.6204 30.2209C55.2608 27.3207 52.5037 23.5317 51.306 19.2379C51.0951 18.4394 50.9369 17.6258 50.8088 16.8123C50.7862 16.5336 50.6355 16.2925 50.9218 15.9385C51.3512 16.1042 51.3361 16.3829 51.4642 16.6164C51.6374 17.0157 51.9463 17.6635 52.1497 18.0703C52.7372 19.2455 53.3474 20.4281 53.9726 21.558C57.1365 27.4111 62.3643 30.4921 68.0517 33.5505C71.0272 35.2228 74.1609 37.1663 75.7353 40.3753C76.8275 42.5598 77.0385 44.9855 76.8426 47.3734C76.6694 49.7915 75.7353 52.202 74.0479 54.0024C72.4961 55.7048 70.5375 56.9854 68.5865 58.1379C65.3022 60.0438 61.8671 61.686 58.4849 63.3809C55.2231 65.0005 51.9312 66.7782 49.0988 69.0381C44.0744 72.9477 41.2947 78.3337 40.5264 84.6087C40.2552 86.6576 40.1648 88.7442 40.2024 90.8384L37.5207 90.9062L37.5132 90.9137Z" fill="white"/>
</mask>
<g mask="url(#mask3_3282_122794)">
<path d="M36.0671 90.9131C35.7282 81.3764 38.1161 72.8868 45.8524 66.8002C51.0125 62.6872 57.1744 60.2767 62.9446 57.2258C65.6188 55.787 68.4663 54.3407 70.5604 52.1486C72.2629 50.3784 72.7977 48.0582 72.7751 45.6477C72.8504 40.4274 69.4606 38.1148 65.3702 35.6816C62.6056 34.0545 59.6603 32.3672 57.1744 30.2203C53.8147 27.3201 51.0577 23.531 49.8599 19.2373C49.649 18.4388 49.4908 17.6252 49.3628 16.8117C49.3402 16.5329 49.1895 16.2919 49.4757 15.9378C49.9051 16.1036 49.8901 16.3823 50.0181 16.6158C50.1914 17.015 49.3477 13.9943 49.5435 14.4011C50.1311 15.5763 49.7695 12.2994 50.0257 13.5725C52.2328 24.6082 57.4155 30.7174 66.0708 34.2353C69.2271 35.5159 72.6998 37.1732 74.2742 40.3747C75.3664 42.5592 75.5774 44.9848 75.3815 47.3728C75.2082 49.7908 74.2742 52.2014 72.5868 54.0017C71.035 55.7042 69.0764 56.9848 67.1254 58.1373C63.841 60.0431 59.6678 61.1806 56.2931 62.868C53.0313 64.4876 49.6641 67.4781 46.8317 69.738C41.8072 73.6476 39.3816 79.7945 38.8468 88.4875C38.7187 90.5515 38.7037 88.7436 38.7413 90.8378L36.0596 90.9056L36.0671 90.9131Z" fill="#21BB63"/>
</g>
<path d="M93.8974 89.2944C95.0725 86.801 93.694 83.6748 93.694 83.6748C93.694 83.6748 90.4096 84.6014 89.2345 87.0948C88.0594 89.5882 88.1498 92.1042 89.4379 92.7143C90.726 93.3245 92.7222 91.7878 93.8974 89.2944Z" fill="#21BB63"/>
<mask id="mask4_3282_122794" style="mask-type:luminance" maskUnits="userSpaceOnUse" x="88" y="83" width="7" height="10">
<path d="M93.8974 89.2944C95.0725 86.8009 93.694 83.6748 93.694 83.6748C93.694 83.6748 90.4096 84.6014 89.2345 87.0948C88.0594 89.5882 88.1498 92.1042 89.4379 92.7143C90.726 93.3245 92.7222 91.7878 93.8974 89.2944Z" fill="white"/>
</mask>
<g mask="url(#mask4_3282_122794)">
<path d="M92.4359 91.5024C95.5997 89.9657 99.3511 83.4949 96.5639 82.1541C90.4171 79.2012 88.7749 88.2633 88.7749 88.2633C88.7749 88.2633 90.8088 85.3254 93.3549 84.7906C93.6713 86.0712 94.1007 87.864 92.4359 91.5024Z" fill="#35ED7E"/>
<path d="M91.3437 94.9678C90.5377 94.7117 90.6205 93.7173 90.5377 92.5799C90.5 92.0827 91.6601 87.9697 91.6601 87.9697C91.6601 87.9697 89.4906 91.126 88.7825 91.3369C86.1686 92.1128 83.178 91.1034 89.016 95.0808C89.7995 95.6156 91.3437 94.9603 91.3437 94.9603V94.9678Z" fill="#108E4D"/>
</g>
<path d="M82.8012 31.1859L80.9105 38.9599L76.8577 36.8055C73.596 32.8356 69.4453 32.9561 66.5301 33.7546L49.3851 38.4552C46.4774 39.2537 42.3193 41.4156 39.0575 47.1708L37.1667 46.9749L33.114 44.8205C37.0311 37.9053 42.8089 33.0993 49.3851 31.2989L66.5301 26.5983C73.1063 24.798 78.8916 26.4251 82.8012 31.1934V31.1859Z" fill="#C3C8FC"/>
<mask id="mask5_3282_122794" style="mask-type:luminance" maskUnits="userSpaceOnUse" x="33" y="25" width="50" height="23">
<path d="M82.8012 31.1859L80.9105 38.9599L76.8577 36.8055C73.596 32.8356 69.4453 32.9561 66.5301 33.7546L49.3851 38.4552C46.4774 39.2537 42.3193 41.4156 39.0575 47.1708L37.1667 46.9749L33.114 44.8205C37.0311 37.9053 42.8089 33.0993 49.3851 31.2989L66.5301 26.5983C73.1063 24.798 78.8916 26.4251 82.8012 31.1934V31.1859Z" fill="white"/>
</mask>
<g mask="url(#mask5_3282_122794)">
<path d="M44.662 32.377L52.7071 34.7875L50.0028 58.7271L25.0085 44.8439L44.662 32.377Z" fill="#CA9EF9"/>
<path d="M95.0796 8.66992L119.26 33.6115L76.9026 28.7904L69.4299 25.7621L95.0796 8.66992Z" fill="#A0A9FA"/>
<path d="M77.7092 6.48633L84.0896 8.88933L58.4475 30.8478L52.9485 28.8667L77.7092 6.48633Z" fill="black"/>
<path d="M30.1763 40.4443L43.7732 44.7381L28.391 74.9075L3.39673 61.0243L30.1763 40.4443Z" fill="#A056F2"/>
<path d="M78.5977 32.7529L104.014 45.6794L76.8124 67.2161L51.8181 53.3329L78.5977 32.7529Z" fill="black"/>
<path d="M50.5 26.99L55.434 30.2366C55.434 30.2366 48.1949 31.005 41.0687 36.263C38.2439 38.3496 35.9237 41.7018 34.1987 44.3383C34.6582 44.7451 35.8258 45.8449 37.1591 46.9522C36.2251 48.5417 32.082 48.1726 32.082 48.1726L28.1196 46.666L35.3286 34.2517L44.6695 29.0916L50.4924 26.9824L50.5 26.99Z" fill="#FD99E9"/>
</g>
<path d="M24.3982 108.52L9.05367 110.117L0.895508 116.324L7.72787 126.696L15.7052 135.653L61.754 140.263L84.2474 132.813L99.0044 114.953L95.2831 112.858L24.3982 108.52Z" fill="black"/>
<path d="M19.8034 116.143L18.6509 133.077L62.0104 138.403L82.4021 130.862L99.0046 114.953L95.306 107.465L90.0329 97.0773L82.5904 80.0679L81.5508 79.6084L45.1291 83.6762L31.4192 94.2147L30.794 95.2166L19.8034 116.143Z" fill="#3E1689"/>
<mask id="mask6_3282_122794" style="mask-type:luminance" maskUnits="userSpaceOnUse" x="18" y="79" width="82" height="60">
<path d="M19.8034 116.141L18.6509 133.075L62.0104 138.401L82.4021 130.86L99.0046 114.951L95.306 107.463L90.0329 97.0753L82.5904 80.066L81.5508 79.6064L45.1291 83.6742L31.4192 94.2128L30.794 95.2147L19.8034 116.141Z" fill="white"/>
</mask>
<g mask="url(#mask6_3282_122794)">
<path d="M81.5501 79.6074L61.3016 104.436L56.8044 123.283L62.0097 138.402L82.4013 130.861L109.851 116.278L93.2186 89.9577L81.5501 79.6074Z" fill="#612CAF"/>
<path d="M81.5506 79.6076L81.0986 95.3815L99.0044 114.952L105.392 129.845L104.195 120.391L131.645 105.807L115.012 79.4795L81.5506 79.6076Z" fill="#3E1689"/>
<path d="M31.5091 91.4941L33.6334 106.387L27.4865 124.006L18.6504 133.076L18.0251 115.374L31.5091 91.4941Z" fill="#612CAF"/>
<path d="M27.961 82.8018L30.7934 95.216L21.6183 115.811L18.6503 133.077L15.1023 124.391L14.4846 106.681L27.961 82.8018Z" fill="#B3269C"/>
<path d="M29.9124 91.3134L33.6336 106.387L61.3021 104.436L79.7427 94.6806L82.0252 76.3906L41.9726 78.0102L29.9124 91.3134Z" fill="url(#paint0_linear_3282_122794)"/>
<mask id="mask7_3282_122794" style="mask-type:luminance" maskUnits="userSpaceOnUse" x="29" y="76" width="54" height="31">
<path d="M29.9124 91.3124L33.6336 106.386L61.3021 104.435L79.7427 94.6796L82.0252 76.3896L41.9726 78.0092L29.9124 91.3124Z" fill="white"/>
</mask>
<g mask="url(#mask7_3282_122794)">
<path d="M31.4184 94.2139L34.5898 104.775L61.1057 103.284L61.3016 104.436L33.6331 106.387L30.7932 95.2157L31.4184 94.2139Z" fill="#3E1689"/>
<mask id="mask8_3282_122794" style="mask-type:luminance" maskUnits="userSpaceOnUse" x="30" y="94" width="32" height="13">
<path d="M31.4182 94.2139L34.5896 104.775L61.1055 103.284L61.3013 104.436L33.6329 106.387L30.793 95.2157L31.4182 94.2139Z" fill="white"/>
</mask>
<g mask="url(#mask8_3282_122794)">
<path d="M34.5896 104.774L33.55 106.627L61.3014 104.435L61.1055 103.282L34.5896 104.774Z" fill="#612CAF"/>
</g>
</g>
<path d="M52.6691 95.6896L40.2549 90.7781L30.4395 91.4937L43.5618 78.4844L69.9271 86.7028L52.6691 95.6896Z" fill="black"/>
<path d="M50.2663 94.1695L47.9084 96.8437L52.6693 95.6912L62.8387 91.9624L69.9272 86.7044L72.8801 84.7383L62.7559 85.1074L50.2663 94.1695Z" fill="#000066"/>
<path d="M52.6616 112.323L51.9309 105.144L52.8725 103.75L57.897 100.707L54.9441 103.637L54.5072 104.918L52.6616 112.323Z" fill="#1D0066"/>
<path d="M88.7896 93.5896C91.4411 98.0039 91.8705 99.6988 90.718 103.601C89.5654 107.503 84.2623 116.377 80.9854 121.612C77.7011 126.847 77.2792 133.672 77.2792 133.672L73.5806 135.254C73.5806 135.254 74.2058 126.878 78.0551 120.573C82.6502 113.055 89.3771 106.87 89.8065 98.9455C89.8894 97.3786 88.782 93.582 88.782 93.582" fill="#3E1689"/>
</g>
<path d="M55.2832 40.0675C54.8237 44.527 53.7917 46.0938 51.0723 48.1051V70.0937L52.6693 70.8169H55.2079L51.0121 74.3122L50.9292 96.1426L52.6693 95.6982L62.8388 91.9769L60.1796 45.0995L58.1759 39.1484L55.2908 40.075L55.2832 40.0675Z" fill="url(#paint1_linear_3282_122794)"/>
<mask id="mask9_3282_122794" style="mask-type:luminance" maskUnits="userSpaceOnUse" x="50" y="39" width="13" height="58">
<path d="M55.2832 40.0666C54.8237 44.526 53.7917 46.0929 51.0723 48.1042V70.0928L52.6693 70.816H55.2079L51.0121 74.3113L50.9292 96.1417L52.6693 95.6972L62.8388 91.9759L60.1796 45.0985L58.1759 39.1475L55.2908 40.074L55.2832 40.0666Z" fill="white"/>
</mask>
<g mask="url(#mask9_3282_122794)">
<path d="M51.0122 74.3113L54.0254 75.5316L58.9971 71.6899L55.8032 69.4375L51.0122 74.3113Z" fill="#612CAF"/>
<path d="M51.0725 48.0962L52.6695 48.8645L57.5132 46.7176L59.2533 36.9474L53.8522 35.2676L51.0725 48.0962Z" fill="#3E1689"/>
<path d="M51.9009 43.7046L53.8971 43.1019L57.7314 44.2469L60.0816 32.5483L54.6805 30.876L51.9009 43.7046Z" fill="#1D0066"/>
</g>
<path d="M58.1685 39.1321C58.2287 43.569 56.9255 45.972 52.6694 48.8646V70.8156H57.1967L52.6694 74.9964V95.6893L62.8389 91.9681L69.9349 86.7101V43.6142C69.9349 43.6142 65.3097 42.4541 65.5507 36.9551C62.1534 37.8892 58.176 39.1396 58.176 39.1396L58.1685 39.1321Z" fill="url(#paint2_linear_3282_122794)"/>
<mask id="mask10_3282_122794" style="mask-type:luminance" maskUnits="userSpaceOnUse" x="52" y="36" width="18" height="60">
<path d="M58.1685 39.1341C58.2287 43.5709 56.9255 45.974 52.6694 48.8666V70.8176H57.1967L52.6694 74.9983V95.6913L62.8389 91.97L69.9349 86.712V43.6161C69.9349 43.6161 65.3097 42.4561 65.5507 36.957C62.1534 37.8911 58.176 39.1416 58.176 39.1416L58.1685 39.1341Z" fill="white"/>
</mask>
<g mask="url(#mask10_3282_122794)">
<path d="M63.0273 36.948L63.0349 97.7086L76.8277 86.8009L69.9275 29.8369L63.0273 36.948Z" fill="#E6E8FF"/>
<path d="M63.0273 50.7178L72.7373 41.0078V59.1396L63.0349 69.0454L63.0273 50.7178Z" fill="white"/>
<path d="M51.291 64.7674L63.0273 54.3945L63.0349 75.095L51.2986 87.0724L51.291 64.7674Z" fill="#C3C8FC"/>
</g>
<path d="M86.8539 33.3399L80.9029 38.9519C77.6411 34.9821 73.4905 35.1026 70.5752 35.9011L53.4303 40.6016C50.5226 41.4001 46.3644 43.5621 43.1026 49.3172L37.1516 46.967C41.0687 40.0517 46.8465 35.2457 53.4227 33.4454L70.5677 28.7448C77.1439 26.9444 82.9292 28.5716 86.8388 33.3399H86.8539Z" fill="#E6E8FF"/>
<mask id="mask11_3282_122794" style="mask-type:luminance" maskUnits="userSpaceOnUse" x="37" y="28" width="50" height="22">
<path d="M86.8539 33.34L80.9029 38.952C77.6411 34.9822 73.4905 35.1027 70.5752 35.9012L53.4303 40.6017C50.5226 41.4002 46.3644 43.5622 43.1026 49.3173L37.1516 46.967C41.0687 40.0517 46.8465 35.2457 53.4227 33.4454L70.5677 28.7448C77.1439 26.9444 82.9292 28.5716 86.8388 33.3399L86.8539 33.34Z" fill="white"/>
</mask>
<g mask="url(#mask11_3282_122794)">
<path d="M85.7543 33.3633L81.2345 37.6345L80.9031 38.9527L85.8447 39.4725L88.4059 33.4386L85.7543 33.3633Z" fill="#A0A9FA"/>
<path d="M67.3811 27.4492L69.6033 31.6526L77.4978 31.0198L75.1024 27.5245L67.3811 27.4492Z" fill="#E6E8FF"/>
<path d="M37.1592 46.9663L43.1027 49.3166L42.952 48.1792L38.8541 46.5596L37.1592 46.9663Z" fill="#A056F2"/>
<path d="M42.9521 48.1805L43.1028 49.318L59.7731 51.0882L94.7335 49.8151L80.903 38.9527L81.2344 37.6344L78.4849 32.4668L56.2176 34.8623L42.6809 44.3764L42.9521 48.1805Z" fill="#2D35AD"/>
</g>
<path d="M38.8545 46.5609C42.6134 40.399 47.9467 36.1278 53.958 34.4781L71.103 29.7776C72.7527 29.3256 74.3647 29.0996 75.8939 29.0996C79.7658 29.0996 83.1557 30.5685 85.7545 33.3633L81.2272 37.6344C79.2461 35.593 76.8129 34.561 73.9881 34.561C72.8883 34.561 71.7433 34.7192 70.5832 35.0431L53.4382 39.7436C50.4778 40.5572 46.3121 42.6815 42.9524 48.1805L38.8545 46.5609Z" fill="#5865F2"/>
<mask id="mask12_3282_122794" style="mask-type:luminance" maskUnits="userSpaceOnUse" x="38" y="29" width="48" height="20">
<path d="M38.8542 46.56C42.6132 40.398 47.9465 36.1269 53.9578 34.4772L71.1027 29.7766C72.7524 29.3246 74.3645 29.0986 75.8937 29.0986C79.7656 29.0986 83.1554 30.5676 85.7543 33.3623L81.227 37.6334C79.2458 35.592 76.8127 34.56 73.9878 34.56C72.888 34.56 71.743 34.7182 70.583 35.0421L53.438 39.7427C50.4776 40.5562 46.3119 42.6805 42.9522 48.1795L38.8542 46.56Z" fill="white"/>
</mask>
<g mask="url(#mask12_3282_122794)">
<path d="M79.9526 13.5715L56.1909 48.9727L63.5651 53.9223L87.3268 18.5211L79.9526 13.5715Z" fill="#A0A9FA"/>
<path d="M54.9309 20.3889L31.1692 55.79L38.5434 60.7397L62.3051 25.3385L54.9309 20.3889Z" fill="#4752D6"/>
</g>
<path d="M85.837 106.055C84.4208 103.125 80.5263 102.07 80.5263 102.07C80.5263 102.07 78.9369 105.777 80.3531 108.707C81.7693 111.637 84.1497 113.422 85.6638 112.692C87.1779 111.961 87.2532 108.986 85.837 106.055Z" fill="#21BB63"/>
<mask id="mask13_3282_122794" style="mask-type:luminance" maskUnits="userSpaceOnUse" x="79" y="102" width="8" height="11">
<path d="M85.837 106.056C84.4208 103.126 80.5263 102.071 80.5263 102.071C80.5263 102.071 78.9369 105.777 80.3531 108.708C81.7693 111.638 84.1497 113.423 85.6638 112.693C87.1779 111.962 87.2532 108.986 85.837 106.056Z" fill="white"/>
</mask>
<g mask="url(#mask13_3282_122794)">
<path d="M79.7352 98.2875C73.2795 98.973 75.0271 101.602 75.0271 101.602C75.0271 101.602 78.6128 100.713 80.5262 102.077C84.6316 104.412 85.9047 106.717 87.1627 111.425C88.9179 103.832 83.3736 97.9109 79.7427 98.295L79.7352 98.2875Z" fill="#35ED7E"/>
<path d="M84.8576 112.623C83.6297 115.599 79.7277 117.565 87.7201 115.162C88.7973 114.838 89.3397 112.94 89.3397 112.94C88.5035 113.49 87.6598 112.676 86.545 111.908C86.0553 111.569 81.9348 105.422 81.9348 105.422" fill="#108E4D"/>
</g>
<path d="M86.8237 89.9648C88.82 90.9065 90.3717 92.2097 91.4339 93.8669C93.6712 97.3396 93.5506 102.04 91.0874 107.456C90.9216 107.825 90.7484 108.179 90.5751 108.534C89.174 111.321 87.4866 113.663 85.8369 115.938C82.6053 120.413 79.449 124.835 78.2588 132.39C78.2588 132.39 78.2588 133.498 77.046 133.784C75.8332 134.07 75.4565 133.422 75.4565 133.422C76.4208 123.682 80.0441 119.366 83.6524 114.364C85.5055 111.795 87.2606 109.37 88.6392 106.341C88.8124 105.957 88.9781 105.573 89.1288 105.196C90.7258 101.151 90.7484 97.7539 89.1815 95.3132" fill="#21BB63"/>
<mask id="mask14_3282_122794" style="mask-type:luminance" maskUnits="userSpaceOnUse" x="75" y="89" width="19" height="45">
<path d="M86.8237 89.9649C88.82 90.9065 90.3717 92.2097 91.4339 93.867C93.6712 97.3397 93.5506 102.04 91.0874 107.456C90.9216 107.826 90.7484 108.18 90.5751 108.534C89.174 111.321 87.4866 113.664 85.8369 115.938C82.6053 120.413 79.449 124.835 78.2588 132.39C78.2588 132.39 78.2588 133.498 77.046 133.784C75.8332 134.07 75.4565 133.422 75.4565 133.422C76.4208 123.682 80.0441 119.366 83.6524 114.364C85.5055 111.795 87.2606 109.37 88.6392 106.341C88.8124 105.957 88.9781 105.573 89.1288 105.196C90.7258 101.151 90.7484 97.7539 89.1815 95.3132L86.8237 89.9649Z" fill="white"/>
</mask>
<g mask="url(#mask14_3282_122794)">
<path d="M91.4415 93.8672C93.6788 97.3399 93.5582 102.04 91.095 107.457L91.4415 93.8672Z" fill="#108E4D"/>
<path d="M85.7541 88.918C87.7503 89.8596 91.8784 92.2099 92.948 93.8671C95.1853 97.3398 95.0648 102.04 92.6015 107.457C92.4358 107.826 92.2625 108.18 92.0893 108.534C90.6882 111.321 89.0008 113.664 87.3511 115.939C84.1194 120.413 81.8445 125.566 80.6543 133.121C80.6543 133.121 80.6543 134.229 79.4415 134.515C78.2287 134.801 75.9839 134.221 75.9839 134.221C76.9481 124.481 81.5507 119.359 85.1665 114.357C87.0196 111.788 88.3831 109.347 89.7616 106.319C89.9349 105.935 90.1006 105.551 90.2513 105.174C91.8482 101.129 92.4283 94.0479 86.3341 89.9575" fill="#35ED7E"/>
</g>
<path d="M56.8049 12.6631V30.2525L58.4471 30.8476L59.3285 30.8778L64.1721 29.6122V12.1584L61.0234 11.4805L56.8049 12.6631Z" fill="#5865F2"/>
<mask id="mask15_3282_122794" style="mask-type:luminance" maskUnits="userSpaceOnUse" x="56" y="11" width="9" height="20">
<path d="M56.8052 12.6622V30.2516L58.4474 30.8467L59.3287 30.8768L64.1724 29.6113V12.1575L61.0236 11.4795L56.8052 12.6622Z" fill="white"/>
</mask>
<g mask="url(#mask15_3282_122794)">
<path d="M59.3286 10.7939H54.2815V32.9031H59.3286V10.7939Z" fill="#161A8A"/>
<path d="M58.5073 10.8018H53.4602V32.9109H58.5073V10.8018Z" fill="#1D0066"/>
<path d="M68.3151 11.4795H63.2681V33.5886H68.3151V11.4795Z" fill="#A0A9FA"/>
<path d="M57.4453 10.6143H52.3982V32.7234H57.4453V10.6143Z" fill="#612CAF"/>
<path d="M58.2063 16.8508L59.3287 15.5853L64.1874 12.0674L58.9294 13.4986L58.726 13.5514L56.5867 12.9412L58.2063 16.8508Z" fill="#1D0066"/>
</g>
<path d="M58.711 13.5734L55.4869 12.6167L52.5942 3.51692L53.1065 2.60543L61.5584 0.262695L66.8842 1.84461L67.7053 2.58284L64.9332 11.8333L58.711 13.5734Z" fill="#5865F2"/>
<mask id="mask16_3282_122794" style="mask-type:luminance" maskUnits="userSpaceOnUse" x="52" y="0" width="16" height="14">
<path d="M58.711 13.5734L55.4869 12.6167L52.5942 3.51692L53.1065 2.60543L61.5584 0.262695L66.8842 1.84461L67.7053 2.58284L64.9332 11.8333L58.711 13.5734Z" fill="white"/>
</mask>
<g mask="url(#mask16_3282_122794)">
<path d="M53.1062 2.60742L58.3944 4.18934L58.0026 5.17615L58.7107 13.5754L54.6204 12.7543L50.3643 4.21194L53.1062 2.60742Z" fill="#3E1689"/>
<path d="M49.7617 1.89844L55.1553 4.30144L53.6939 4.50483L55.4868 12.6178L51.2683 12.0378L47.0122 3.49542L49.7617 1.89844Z" fill="#B3269C"/>
<path d="M53.1064 2.60626L58.3946 4.18817L67.4793 1.70231L62.2062 0.0751953L53.1064 2.60626Z" fill="#C3C8FC"/>
<path d="M58.3944 4.18942L58.0027 5.17624L67.7051 2.58491L66.884 1.84668L58.3944 4.18942Z" fill="#E6E8FF"/>
<path d="M53.1062 2.60742L52.594 3.51891L58.0026 5.17615L58.3944 4.18934L53.1062 2.60742Z" fill="#2D35AD"/>
</g>
<path d="M60.4885 6.00391L60.2776 6.34289L60.4584 11.6385L63.5243 10.7722L63.9235 9.88337L60.4885 6.00391Z" fill="#000066"/>
<path d="M60.4883 6.00312L60.8649 10.6133L63.9233 9.88258L64.9854 8.72251L65.7915 6.28184L65.4751 4.74512L60.4883 6.00312Z" fill="#FF4CD2"/>
<mask id="mask17_3282_122794" style="mask-type:luminance" maskUnits="userSpaceOnUse" x="60" y="4" width="6" height="7">
<path d="M60.488 6.00409L60.8647 10.6142L63.9231 9.88355L64.9852 8.72348L65.7912 6.28281L65.4748 4.74609L60.488 6.00409Z" fill="white"/>
</mask>
<g mask="url(#mask17_3282_122794)">
<path d="M65.7911 6.28223L62.5293 7.06565L62.5519 9.318L64.985 8.7229L65.7911 6.28223Z" fill="#FD99E9"/>
<path d="M64.9853 8.72208L62.5521 9.31718L60.8647 10.6128L63.9231 9.88215L65.4222 8.44336" fill="#B3269C"/>
<path d="M65.392 4.36133L60.488 6.00351L62.5295 7.06565L65.7912 6.28222L65.392 4.36133Z" fill="#FCC0F4"/>
<path d="M63.667 7.11046L64.9777 7.90142L65.3996 6.66602L63.667 7.11046Z" fill="white"/>
<path d="M60.8647 6.58301L62.0324 7.2685L61.0455 10.1084L60.8647 6.58301Z" fill="#B3269C"/>
</g>
<path d="M59.3284 28.1578L64.172 26.8922V25.8301L59.3284 27.0956V28.1578Z" fill="#2D35AD"/>
<path d="M59.3284 24.647L64.172 23.3815V22.3193L59.3284 23.5849V24.647Z" fill="#2D35AD"/>
<path d="M59.3284 21.1365L64.172 19.8785V18.8164L59.3284 20.0744V21.1365Z" fill="#2D35AD"/>
<path d="M59.3284 17.6333L64.172 16.3678V15.3057L59.3284 16.5712V17.6333Z" fill="#2D35AD"/>
<path d="M61.3023 104.437L81.0988 95.3824L82.5904 80.0679L81.5508 79.6084L79.7429 94.6818L61.1064 103.284L61.3023 104.437Z" fill="#DEC2FC"/>
<defs>
<linearGradient id="paint0_linear_3282_122794" x1="39.0719" y1="84.3468" x2="82.0924" y2="100.497" gradientUnits="userSpaceOnUse">
<stop stop-color="#A056F2"/>
<stop offset="1" stop-color="#CA9EF9"/>
</linearGradient>
<linearGradient id="paint1_linear_3282_122794" x1="56.3913" y1="94.8319" x2="57.461" y2="47.8339" gradientUnits="userSpaceOnUse">
<stop stop-color="#CA9EF9"/>
<stop offset="0.78" stop-color="#A056F2"/>
</linearGradient>
<linearGradient id="paint2_linear_3282_122794" x1="61.5309" y1="97.4671" x2="61.0564" y2="39.7724" gradientUnits="userSpaceOnUse">
<stop stop-color="#C3C8FC"/>
<stop offset="1" stop-color="#A0A9FA"/>
</linearGradient>
</defs>
</svg>