<svg viewBox="0 0 119 141" fill="none" xmlns="http://www.w3.org/2000/svg">
<path d="M116.678 35.9658L118.771 44.954C118.771 44.954 111.37 66.7823 105.318 83.3601C98.6277 101.68 93.1971 110.014 78.9257 118.503C64.9814 126.796 40.127 140.062 40.127 140.062L31.9812 138.933L116.678 35.9658Z" fill="black"/>
<mask id="mask0_3282_123055" style="mask-type:luminance" maskUnits="userSpaceOnUse" x="31" y="35" width="88" height="106">
<path d="M116.677 35.9668L118.771 44.9549C118.771 44.9549 111.369 66.7833 105.317 83.3611C98.6274 101.681 93.1969 110.015 78.9254 118.504C64.9811 126.797 40.1267 140.063 40.1267 140.063L31.981 138.934L116.677 35.9668Z" fill="white"/>
</mask>
<g mask="url(#mask0_3282_123055)">
<path d="M110.748 87.8087L97.9402 122.101L82.2703 108.067L97.8585 74.2324L110.748 87.8087Z" fill="#1D0066"/>
<path d="M118.763 79.4753L105.964 113.776L90.2854 99.7416L105.874 65.9072L118.763 79.4753Z" fill="#3E1689"/>
<path d="M125.167 66.2018L112.367 100.494L96.6892 86.468L111.157 52.2002L125.167 66.2018Z" fill="#612CAF"/>
<path d="M110.519 55.2588L113.234 61.0328L123.727 45.7963L117.724 29.5293L110.519 55.2588Z" fill="#A056F2"/>
<path d="M50.6443 129.053L54.619 132.995L38.9409 143.381L28.2925 140.053L31.9728 138.924L50.6443 129.053Z" fill="#3E1689"/>
<path d="M115.042 40.7094L116.457 46.1971L102.283 91.4732L121.936 43.5718L116.677 32.6045L114.788 41.977" fill="#FF4CD2"/>
</g>
<path d="M68.7351 0.0706787L116.677 35.9579C116.677 35.9579 105.833 70.8064 102.308 78.6496C98.7828 86.4845 92.7062 103.929 78.7946 112.942C64.883 121.955 31.981 138.917 31.981 138.917C31.981 138.917 12.9496 114.512 8.24702 106.473C3.54439 98.4333 -1.15824 89.0035 1.18898 72.6547C3.53621 56.3059 8.85223 34.2322 14.8634 19.7236C31.7602 13.189 68.7351 0.0625 68.7351 0.0625V0.0706787Z" fill="#A0A9FA"/>
<mask id="mask1_3282_123055" style="mask-type:luminance" maskUnits="userSpaceOnUse" x="0" y="0" width="117" height="139">
<path d="M68.7351 0.0706787L116.677 35.9579C116.677 35.9579 105.833 70.8064 102.308 78.6496C98.7828 86.4845 92.7062 103.929 78.7946 112.942C64.883 121.955 31.981 138.917 31.981 138.917C31.981 138.917 12.9496 114.512 8.24702 106.473C3.54439 98.4333 -1.15824 89.0035 1.18898 72.6547C3.53621 56.3059 8.85223 34.2322 14.8634 19.7236C31.7602 13.189 68.7351 0.0625 68.7351 0.0625V0.0706787Z" fill="white"/>
</mask>
<g mask="url(#mask1_3282_123055)">
<path d="M32.153 130.551C27.4503 124.294 16.164 109.123 12.8599 103.472C10.8562 100.045 8.59893 95.9719 7.26584 91.0485C5.81825 85.7161 5.5729 79.9094 6.5216 73.3011C8.50079 59.5204 12.999 39.0497 18.5767 24.3856L18.8711 23.6169L19.6317 23.3143C30.2964 19.0287 45.0995 14.1298 55.9033 10.5558C59.2565 9.44355 62.1598 8.48666 64.3517 7.73424L65.2349 7.43164L110.184 37.6266L109.75 38.976C107.42 46.1977 99.6009 70.2179 96.9266 76.18C96.4849 77.1696 96.0024 78.2818 95.5035 79.4677C93.6552 83.8105 91.3488 89.2083 88.0365 94.5407C84.2744 100.601 80.1688 105.025 75.4907 108.06C65.5621 114.488 45.582 125.251 34.5493 131.09L33.1344 131.843L32.1693 130.559L32.153 130.551Z" fill="#5865F2"/>
<mask id="mask2_3282_123055" style="mask-type:luminance" maskUnits="userSpaceOnUse" x="5" y="7" width="106" height="125">
<path d="M32.153 130.551C27.4503 124.294 16.164 109.123 12.8599 103.472C10.8562 100.045 8.59893 95.9719 7.26584 91.0485C5.81825 85.7161 5.5729 79.9094 6.5216 73.3011C8.50079 59.5204 12.999 39.0497 18.5767 24.3856L18.8711 23.6169L19.6317 23.3143C30.2964 19.0287 45.0995 14.1298 55.9033 10.5558C59.2565 9.44355 62.1598 8.48666 64.3517 7.73424L65.2349 7.43164L110.184 37.6266L109.75 38.976C107.42 46.1977 99.6009 70.2179 96.9266 76.1801C96.4849 77.1697 96.0024 78.2819 95.5035 79.4678C93.6552 83.8106 91.3488 89.2084 88.0365 94.5408C84.2744 100.601 80.1688 105.026 75.4907 108.06C65.5621 114.488 45.582 125.251 34.5493 131.09L33.1344 131.843L32.1693 130.559L32.153 130.551Z" fill="white"/>
</mask>
<g mask="url(#mask2_3282_123055)">
<path d="M91.8554 47.4L115.369 43.7852L99.1016 114.513L36.986 141.166L29.3391 121.849L78.9171 80.0322L91.8554 47.4Z" fill="#E6E8FF"/>
</g>
<path d="M33.9032 129.586C27.5158 121.081 17.6853 107.75 14.7247 102.687C12.7782 99.3669 10.5945 95.4249 9.3187 90.7222C7.93654 85.6434 7.70754 80.082 8.62354 73.7355C10.5864 60.0693 15.0927 39.6476 20.5805 25.2208C34.5493 19.6103 56.0669 12.7976 65.2023 9.68164L108.205 38.568C104.418 50.2878 97.8017 70.3496 95.4545 75.5757C95.0047 76.5816 94.5221 77.7021 94.0151 78.8962C92.1913 83.1817 89.9177 88.5059 86.679 93.7156C83.0641 99.5386 79.1466 103.767 74.7057 106.646C64.6543 113.156 43.9055 124.295 33.9114 129.586H33.9032Z" fill="#5865F2"/>
<mask id="mask3_3282_123055" style="mask-type:luminance" maskUnits="userSpaceOnUse" x="8" y="9" width="101" height="121">
<path d="M33.9035 129.585C27.5161 121.08 17.6855 107.749 14.7249 102.686C12.7784 99.3659 10.5948 95.4239 9.31895 90.7213C7.93679 85.6424 7.70779 80.0811 8.62378 73.7346C10.5866 60.0683 15.093 39.6466 20.5807 25.2198C34.5496 19.6093 56.0672 12.7967 65.2025 9.68066L108.205 38.5671C104.418 50.2868 97.802 70.3487 95.4547 75.5747C95.0049 76.5807 94.5224 77.7011 94.0153 78.8952C92.1915 83.1807 89.9179 88.5049 86.6792 93.7146C83.0643 99.5377 79.1468 103.766 74.7059 106.645C64.6546 113.155 43.9058 124.294 33.9116 129.585H33.9035Z" fill="white"/>
</mask>
<g mask="url(#mask3_3282_123055)">
<path d="M65.0716 7.72559C64.2865 9.36946 32.7912 128.096 32.7912 128.096L29.0945 153.245L127.253 93.935L139.537 52.9281L65.0716 7.72559Z" fill="#3E48C9"/>
<path d="M93.9334 16.3945C93.1483 18.0384 48.0112 160.925 48.0112 160.925L156.114 102.604L168.398 61.597L93.9334 16.3945Z" fill="#2D35AD"/>
<path d="M76.9467 16.9512L99.1677 32.0406L75.0248 20.8687L64.4173 42.509L62.3318 40.1127L73.1683 15.291L76.9467 16.9512Z" fill="#1D0066"/>
<path d="M-45.0927 22.496C-45.8778 24.1399 -91.0149 167.026 -91.0149 167.026L16.2214 126.763L48.1665 -6.96289L-45.0927 22.496Z" fill="#7C89F7"/>
<path d="M64.6709 16.6154L35.3838 25.9716L33.2328 36.1374C32.5213 39.507 29.6588 41.9851 26.232 42.2304L19.5175 42.6966C19.5175 42.6966 16.0907 56.8617 13.7353 71.5993C11.8543 83.3764 13.8335 94.7526 20.2699 106.121C0.404396 100.764 5.94123 74.6908 5.94123 74.6908L15.0112 34.649L30.0023 19.3797L65.865 9.2793L64.6791 16.6236L64.6709 16.6154Z" fill="#1D0066"/>
<path d="M34.1571 15.2175C34.2389 14.5142 31.2292 28.5812 30.4523 32.7276C29.9616 35.3284 29.4054 38.7388 24.4411 39.524L10.7994 41.1515L4.45288 41.8794L14.1198 18.7588L35.6783 10.0732L34.1571 15.2257V15.2175Z" fill="#3E1689"/>
<mask id="mask4_3282_123055" style="mask-type:luminance" maskUnits="userSpaceOnUse" x="4" y="10" width="32" height="32">
<path d="M34.1569 15.2175C34.2387 14.5142 31.229 28.5812 30.452 32.7276C29.9613 35.3284 29.4052 38.7388 24.4408 39.524L10.7991 41.1515L4.45264 41.8794L14.1196 18.7588L35.6781 10.0732L34.1569 15.2257V15.2175Z" fill="white"/>
</mask>
<g mask="url(#mask4_3282_123055)">
<path d="M22.6414 37.1113L24.4407 39.524L18.0451 40.2846L16.344 37.9046L22.6414 37.1113Z" fill="black"/>
</g>
<path d="M100.983 37.9619C98.9224 42.959 98.2436 43.8423 97.6547 45.5025C97.0659 47.1627 95.6919 49.5181 98.4399 51.2847C101.18 53.0513 116.858 62.5546 116.858 62.5546L125.184 36.9805L106.52 25.9805L100.983 37.9538V37.9619Z" fill="#000066"/>
<path d="M57.8252 137.445C57.8252 137.053 49.663 120.066 48.2236 117.195C46.7842 114.325 45.6801 112.664 44.3715 112.534C43.2347 112.419 41.6318 113.016 39.2764 115.952C36.921 118.888 25.6919 133.716 25.6919 133.716L37.1908 148.282L57.8333 137.437L57.8252 137.445Z" fill="#3E1689"/>
<path d="M45.525 113.073L39.7019 107.43L41.1331 114.283L44.8216 113.923L45.525 113.073Z" fill="#3E1689"/>
<path d="M18.0453 40.2846C14.414 55.2349 12.0668 64.2475 11.1017 72.6632C10.1121 81.2915 10.2021 88.0633 13.9233 95.9637C16.6467 101.754 28.7345 117.915 28.7345 117.915L25.9784 121.374C25.9784 121.374 12.9337 102.278 10.3902 93.9927C7.85486 85.7079 5.99017 77.5785 6.57902 68.2714C7.16787 58.9642 15.101 37.5039 15.101 37.5039L18.0453 40.2846Z" fill="#3E1689"/>
<path d="M32.1126 24.5813L65.3663 13.2949L65.2027 9.67188L29.749 21.727L32.1126 24.5813Z" fill="black"/>
<path d="M10.6029 78.7803L32.5458 72.1885L34.5495 80.0725L12.5248 92.7983L10.7174 90.7291L10.333 85.8384L10.6029 78.7803Z" fill="#3E1689"/>
<path d="M9.8671 77.1532L31.7609 69.5391L33.8546 77.7421L10.7258 90.7213C9.55632 87.4663 9.4091 82.9681 9.8671 77.145V77.1532Z" fill="#A0A9FA"/>
<mask id="mask5_3282_123055" style="mask-type:luminance" maskUnits="userSpaceOnUse" x="9" y="69" width="25" height="22">
<path d="M9.86685 77.1514L31.7607 69.5371L33.8543 77.7401L10.7256 90.7194C9.55607 87.4643 9.40886 82.9662 9.86685 77.1431V77.1514Z" fill="white"/>
</mask>
<g mask="url(#mask5_3282_123055)">
<path d="M31.4988 72.089L7.42139 81.1753L9.05708 76.0065L31.4988 69.0303V72.089Z" fill="#E6E8FF"/>
</g>
<path d="M59.3874 13.328L54.2922 37.5445L63.6811 40.6687L74.5258 15.5771L67.296 8.74805L59.3874 13.328Z" fill="#3E1689"/>
<path d="M57.3268 12.3055L52.2397 36.522L62.1684 38.3867L72.4651 14.5546L65.2435 7.72559L57.3268 12.3055Z" fill="#A0A9FA"/>
<mask id="mask6_3282_123055" style="mask-type:luminance" maskUnits="userSpaceOnUse" x="52" y="7" width="21" height="32">
<path d="M57.3265 12.3046L52.2395 36.521L62.1682 38.3857L72.4649 14.5536L65.2433 7.72461L57.3265 12.3046Z" fill="white"/>
</mask>
<g mask="url(#mask6_3282_123055)">
<path d="M58.6188 12.3537L53.1801 38.1977C53.1801 38.1977 51.6753 37.7561 51.6753 37.2654C51.6753 36.7747 57.0649 11.3232 57.0649 11.3232H62.062" fill="#E6E8FF"/>
<path d="M56.8115 14.0555L65.0064 11.3076L72.0153 15.5931L72.4651 14.5544L65.2026 9.67188L57.3268 12.3053L56.8115 14.0555Z" fill="black"/>
</g>
<path d="M77.0941 52.5774L75.5565 47.793L41.5586 89.6341L42.8671 91.5315C42.8671 91.5315 56.5089 85.4876 59.3304 83.8274C64.2948 80.8913 69.1283 76.2541 70.8294 72.1485C72.2688 68.6645 74.3543 61.909 77.1023 52.5856L77.0941 52.5774Z" fill="#1D0066"/>
<path d="M56.1571 34.167L33.3309 42.3945C33.3309 42.3945 30.3949 58.6616 30.1004 62.6772C29.806 66.6928 29.4134 73.0066 32.6439 77.742C35.8744 82.4773 41.5585 89.6253 41.5585 89.6253C41.5585 89.6253 56.059 82.6981 59.4857 80.4163C61.9393 78.7806 67.4189 74.3315 69.2836 69.4899C71.1483 64.6482 75.5564 47.7923 75.5564 47.7923L56.1571 34.1752V34.167Z" fill="#A0A9FA"/>
<mask id="mask7_3282_123055" style="mask-type:luminance" maskUnits="userSpaceOnUse" x="29" y="34" width="47" height="56">
<path d="M56.1573 34.166L33.3312 42.3937C33.3312 42.3937 30.3951 58.6607 30.1007 62.6763C29.8063 66.6919 29.4137 73.0057 32.6442 77.7411C35.8747 82.4764 41.5587 89.6244 41.5587 89.6244C41.5587 89.6244 56.0592 82.6972 59.486 80.4154C61.9395 78.7797 67.4191 74.3306 69.2838 69.489C71.1485 64.6473 75.5567 47.7915 75.5567 47.7915L56.1573 34.1743V34.166Z" fill="white"/>
</mask>
<g mask="url(#mask7_3282_123055)">
<path d="M56.1571 34.166L55.2656 35.8835L34.4759 43.375L33.3228 42.4017L56.1571 34.166Z" fill="#E6E8FF"/>
<path d="M75.5564 47.7832L72.7021 48.1185L41.5339 86.6637L41.5585 89.6243L68.9891 84.1366L75.5564 47.7832Z" fill="#3E1689"/>
<path d="M70.1668 54.4814L76.5705 56.8532L72.7839 69.9797L66.2493 65.9722L70.1668 54.4814Z" fill="#612CAF"/>
<path d="M61.4323 73.2266L67.2963 80.2846L49.9825 92.9531L47.2427 80.6772L61.4323 73.2266Z" fill="black"/>
</g>
<path d="M41.5337 86.6646C39.7754 84.4155 36.0378 79.5902 33.6742 76.1389C30.7708 71.8861 31.2043 65.9076 31.466 62.3336C31.7032 59.0704 33.8051 47.1135 34.4757 43.3841L55.2654 35.8926L72.6937 48.1276C71.6142 52.1841 68.3428 64.3864 66.8379 68.2876C65.2186 72.4995 60.2134 76.6705 57.7925 78.2817C55.1345 80.0482 45.2468 84.8735 41.5337 86.6646Z" fill="#C3C8FC"/>
<mask id="mask8_3282_123055" style="mask-type:luminance" maskUnits="userSpaceOnUse" x="31" y="35" width="42" height="52">
<path d="M41.5337 86.6636C39.7754 84.4145 36.0378 79.5892 33.6742 76.1378C30.7708 71.885 31.2043 65.9066 31.466 62.3326C31.7032 59.0693 33.8051 47.1125 34.4757 43.3831L55.2654 35.8916L72.6937 48.1266C71.6142 52.1831 68.3428 64.3854 66.8379 68.2866C65.2186 72.4985 60.2134 76.6695 57.7925 78.2807C55.1345 80.0472 45.2468 84.8725 41.5337 86.6636Z" fill="white"/>
</mask>
<g mask="url(#mask8_3282_123055)">
<path d="M42.0575 84.4322C40.2173 82.0604 37.1504 78.053 35.1548 75.1251C32.6031 71.3875 33.012 65.7934 33.2492 62.4566C33.4619 59.5205 35.2693 49.142 36.0544 44.7011L55.004 37.8721L70.6658 48.864C69.4145 53.542 66.5356 64.1414 65.1944 67.6418C63.8449 71.1585 59.4449 75.0433 56.8196 76.7935C54.5051 78.3392 46.0976 82.4775 42.0656 84.4322H42.0575Z" fill="#1D0066"/>
<mask id="mask9_3282_123055" style="mask-type:luminance" maskUnits="userSpaceOnUse" x="33" y="37" width="38" height="48">
<path d="M42.0575 84.4312C40.2173 82.0594 37.1504 78.052 35.1548 75.1241C32.6031 71.3865 33.012 65.7924 33.2492 62.4556C33.4619 59.5195 35.2693 49.141 36.0544 44.7001L55.004 37.8711L70.6658 48.863C69.4145 53.5411 66.5356 64.1404 65.1944 67.6408C63.8449 71.1575 59.4449 75.0423 56.8196 76.7925C54.5051 78.3382 46.0976 82.4765 42.0656 84.4312H42.0575Z" fill="white"/>
</mask>
<g mask="url(#mask9_3282_123055)">
<path d="M41.755 85.1021C39.8494 82.6485 36.6762 78.4938 34.5988 75.4596C31.949 71.583 32.3743 65.7927 32.6278 62.3332C32.8486 59.2908 34.7215 48.5279 35.5312 43.9234L55.1759 36.8408L71.402 48.2334C70.1098 53.0833 67.1247 64.067 65.7262 67.6982C64.3276 71.3458 59.764 75.3697 57.0488 77.1853C54.6525 78.7883 45.9342 83.0738 41.755 85.1021Z" fill="url(#paint0_linear_3282_123055)"/>
</g>
</g>
<path d="M55.8869 49.7785C55.5107 50.2283 55.1672 50.6945 54.84 51.1771C52.8118 50.58 50.669 50.302 48.4935 50.3428C48.379 49.8031 48.2318 49.2633 48.0601 48.748C46.0154 48.8298 43.9627 49.1733 41.9671 49.7704C37.3381 54.6611 35.4079 59.6909 34.9663 64.7615C36.7656 66.5362 38.8675 67.9757 41.1983 69.0143C41.8935 68.36 42.5396 67.6403 43.1203 66.8879C42.376 66.4954 41.6727 66.0292 41.0184 65.5058C41.2392 65.3913 41.46 65.2768 41.6727 65.1541C45.6229 67.7139 50.6363 68.36 55.388 66.9125C55.5352 67.0842 55.6988 67.2478 55.8623 67.4032C55.0363 67.7385 54.1857 68.0002 53.3188 68.1883C53.5642 69.047 53.8913 69.8812 54.2839 70.6746C56.8928 70.2656 59.4363 69.4233 61.8245 68.1965C63.6892 62.5206 63.2966 57.2618 61.2029 52.3057C59.5754 51.2343 57.7843 50.3837 55.8869 49.7867V49.7785ZM44.5433 62.8314C43.202 62.6596 42.3188 61.3102 42.6132 59.8135C42.9076 58.3169 44.2244 57.221 45.6229 57.4091C47.0214 57.5972 47.872 58.963 47.5448 60.4515C47.2259 61.9399 45.9173 63.0113 44.5515 62.8314H44.5433ZM53.5805 63.9927C52.2393 63.821 51.3887 62.4797 51.6995 60.9831C52.0103 59.4864 53.3434 58.4068 54.7255 58.5868C56.1077 58.7667 56.9419 60.1325 56.5984 61.621C56.2549 63.1013 54.9382 64.1645 53.5805 63.9927Z" fill="white"/>
<path d="M96.0352 45.1094L96.853 49.2559L100.828 47.9473L96.0352 45.1094Z" fill="#000066"/>
<path d="M66.6665 73.8652L90.6786 90.1568L79.5722 104.126L59.4858 80.4162L66.6665 73.8652Z" fill="#A0A9FA"/>
<mask id="mask10_3282_123055" style="mask-type:luminance" maskUnits="userSpaceOnUse" x="59" y="73" width="32" height="32">
<path d="M66.6665 73.8643L90.6786 90.1558L79.5722 104.125L59.4858 80.4152L66.6665 73.8643Z" fill="white"/>
</mask>
<g mask="url(#mask10_3282_123055)">
<path d="M68.8257 74.2407C67.9342 75.3693 63.7714 79.663 60.5163 82.182C57.842 79.663 57.8828 79.3031 57.8828 79.3031L67.1572 72.1143L68.9156 75.3857" fill="#5865F2"/>
</g>
</g>
<path d="M31.6706 12.9363C31.7523 12.2329 28.7427 26.2999 27.9657 30.4464C27.475 33.0472 26.9189 36.4576 21.9545 37.2427L8.31281 38.8702L1.96631 39.5981L11.6333 16.4775L33.1918 7.79199L31.6706 12.9444V12.9363Z" fill="#5865F2"/>
<path d="M30.4518 11.9538C30.5336 11.2505 27.5239 25.3175 26.747 29.464C26.2563 32.0647 25.7001 35.4752 20.7358 36.2603L7.09406 37.8878L0.747559 38.6157L10.4145 15.4951L31.973 6.80957L30.4518 11.962V11.9538Z" fill="#A0A9FA"/>
<path d="M96.6893 40.1142C95.5116 44.2688 95.4462 45.9291 98.1941 47.6875C100.942 49.4458 116.612 58.9574 116.612 58.9574L124.938 33.3833L103.216 19.6025C103.216 19.6025 98.3577 34.2011 96.6811 40.1142H96.6893Z" fill="#5865F2"/>
<path d="M97.9 39.6806C96.7223 43.8353 96.6568 45.4955 99.4048 47.2539C102.153 49.0122 117.823 58.5238 117.823 58.5238L126.148 32.9497L104.426 19.1689C104.426 19.1689 99.5684 33.7675 97.8918 39.6806H97.9Z" fill="#A0A9FA"/>
<path d="M52.1084 131.884C52.1084 131.491 43.9462 114.504 42.5068 111.634C41.0674 108.763 39.9633 107.103 38.6548 106.972C37.5179 106.858 35.915 107.455 33.5596 110.391C31.2042 113.327 19.9751 128.154 19.9751 128.154L31.474 142.72L52.1165 131.876L52.1084 131.884Z" fill="#5865F2"/>
<path d="M51.6179 133.25C51.6179 132.857 43.4558 115.871 42.0163 113C40.5769 110.129 39.4728 108.469 38.1643 108.338C37.0275 108.224 35.4245 108.821 33.0691 111.757C30.7137 114.693 19.4846 129.521 19.4846 129.521L30.9836 144.086L51.6261 133.242L51.6179 133.25Z" fill="#A0A9FA"/>
<path d="M68.7926 -0.125L66.9034 2.09955L31.2207 14.8662L31.6705 12.936L68.7926 -0.125Z" fill="#E6E8FF"/>
</g>
<path d="M106.438 44.865C108.733 44.865 110.593 43.0049 110.593 40.7103C110.593 38.4158 108.733 36.5557 106.438 36.5557C104.144 36.5557 102.283 38.4158 102.283 40.7103C102.283 43.0049 104.144 44.865 106.438 44.865Z" fill="#1E1E1E"/>
<mask id="mask11_3282_123055" style="mask-type:luminance" maskUnits="userSpaceOnUse" x="102" y="36" width="9" height="9">
<path d="M106.438 44.865C108.733 44.865 110.593 43.0049 110.593 40.7103C110.593 38.4158 108.733 36.5557 106.438 36.5557C104.144 36.5557 102.283 38.4158 102.283 40.7103C102.283 43.0049 104.144 44.865 106.438 44.865Z" fill="white"/>
</mask>
<g mask="url(#mask11_3282_123055)">
<path d="M106.684 42.6232L107.649 45.4693L112.09 43.4328L111.681 39.4745L108.794 38.5176L108.058 42.1734" fill="#612CAF"/>
<path d="M99.1675 43.6193L100.133 46.4736L104.573 44.4371L104.165 40.4787L101.278 39.5137L100.541 43.1695" fill="#C3C8FC"/>
<path d="M108.925 39.474L111.754 42.6391L111.28 35.3193L105.531 36.5543L108.925 39.474Z" fill="#FF4CD2"/>
</g>
<path d="M105.8 42.9905C107.742 42.9905 109.317 41.416 109.317 39.4738C109.317 37.5315 107.742 35.957 105.8 35.957C103.858 35.957 102.283 37.5315 102.283 39.4738C102.283 41.416 103.858 42.9905 105.8 42.9905Z" fill="#E6E8FF"/>
<mask id="mask12_3282_123055" style="mask-type:luminance" maskUnits="userSpaceOnUse" x="102" y="35" width="8" height="8">
<path d="M105.8 42.9915C107.742 42.9915 109.317 41.417 109.317 39.4748C109.317 37.5325 107.742 35.958 105.8 35.958C103.858 35.958 102.283 37.5325 102.283 39.4748C102.283 41.417 103.858 42.9915 105.8 42.9915Z" fill="white"/>
</mask>
<g mask="url(#mask12_3282_123055)">
<path d="M110.775 36.6473L99.6582 41.0938L100.32 42.7492L111.437 38.3027L110.775 36.6473Z" fill="#A0A9FA"/>
</g>
<path d="M19.5172 32.0413C21.7124 32.0413 23.492 30.2617 23.492 28.0665C23.492 25.8714 21.7124 24.0918 19.5172 24.0918C17.322 24.0918 15.5425 25.8714 15.5425 28.0665C15.5425 30.2617 17.322 32.0413 19.5172 32.0413Z" fill="#1E1E1E"/>
<mask id="mask13_3282_123055" style="mask-type:luminance" maskUnits="userSpaceOnUse" x="15" y="24" width="9" height="9">
<path d="M19.6692 32.0372C21.8628 31.9529 23.5727 30.1064 23.4885 27.9128C23.4043 25.7193 21.5577 24.0093 19.3641 24.0936C17.1706 24.1778 15.4606 26.0243 15.5449 28.2179C15.6291 30.4115 17.4756 32.1214 19.6692 32.0372Z" fill="white"/>
</mask>
<g mask="url(#mask13_3282_123055)">
<path d="M20.1633 29.2268L22.2734 32.4409L26.3708 28.0655L24.6942 25.2275L20.2205 24.5078L19.231 30.2491" fill="#612CAF"/>
<path d="M10.8314 31.4016L18.9118 35.2455L16.7526 29.4715L16.0493 25.9629L11.7229 26.2819L10.7251 32.0231" fill="#C3C8FC"/>
</g>
<path d="M18.9119 30.2491C20.7683 30.2491 22.2733 28.7442 22.2733 26.8877C22.2733 25.0313 20.7683 23.5264 18.9119 23.5264C17.0555 23.5264 15.5505 25.0313 15.5505 26.8877C15.5505 28.7442 17.0555 30.2491 18.9119 30.2491Z" fill="#E6E8FF"/>
<mask id="mask14_3282_123055" style="mask-type:luminance" maskUnits="userSpaceOnUse" x="15" y="23" width="8" height="8">
<path d="M19.0407 30.247C20.8958 30.1757 22.3418 28.6142 22.2706 26.7591C22.1993 24.904 20.6378 23.458 18.7827 23.5292C16.9277 23.6005 15.4816 25.162 15.5528 27.0171C15.6241 28.8721 17.1856 30.3182 19.0407 30.247Z" fill="white"/>
</mask>
<g mask="url(#mask14_3282_123055)">
<path d="M15.2978 22.3442L14.1313 23.5938L22.5071 31.4125L23.6735 30.163L15.2978 22.3442Z" fill="#A0A9FA"/>
</g>
<path d="M35.6207 127.778C38.0689 127.778 40.0535 125.793 40.0535 123.345C40.0535 120.897 38.0689 118.912 35.6207 118.912C33.1726 118.912 31.188 120.897 31.188 123.345C31.188 125.793 33.1726 127.778 35.6207 127.778Z" fill="#1E1E1E"/>
<mask id="mask15_3282_123055" style="mask-type:luminance" maskUnits="userSpaceOnUse" x="31" y="118" width="10" height="10">
<path d="M35.6207 127.778C38.0689 127.778 40.0535 125.793 40.0535 123.345C40.0535 120.897 38.0689 118.912 35.6207 118.912C33.1726 118.912 31.188 120.897 31.188 123.345C31.188 125.793 33.1726 127.778 35.6207 127.778Z" fill="white"/>
</mask>
<g mask="url(#mask15_3282_123055)">
<path d="M34.8762 121.291L35.6205 129.895L42.0978 126.811L41.9097 121.291H34.8762Z" fill="#3E1689"/>
<path d="M24.7512 119.737L25.5036 128.341L31.4003 127.409L33.4041 120.547L24.7512 119.737Z" fill="#C3C8FC"/>
</g>
<path d="M34.9419 125.782C37.0151 125.782 38.6958 124.102 38.6958 122.028C38.6958 119.955 37.0151 118.274 34.9419 118.274C32.8687 118.274 31.188 119.955 31.188 122.028C31.188 124.102 32.8687 125.782 34.9419 125.782Z" fill="#E6E8FF"/>
<mask id="mask16_3282_123055" style="mask-type:luminance" maskUnits="userSpaceOnUse" x="31" y="118" width="8" height="8">
<path d="M34.9419 125.782C37.0151 125.782 38.6958 124.102 38.6958 122.028C38.6958 119.955 37.0151 118.274 34.9419 118.274C32.8687 118.274 31.188 119.955 31.188 122.028C31.188 124.102 32.8687 125.782 34.9419 125.782Z" fill="white"/>
</mask>
<g mask="url(#mask16_3282_123055)">
<path d="M35.2672 115.567L32.7668 128.103L34.6356 128.475L37.136 115.939L35.2672 115.567Z" fill="#A0A9FA"/>
</g>
<defs>
<linearGradient id="paint0_linear_3282_123055" x1="53.113" y1="81.2828" x2="49.6536" y2="13.0415" gradientUnits="userSpaceOnUse">
<stop offset="0.26" stop-color="#5865F2"/>
<stop offset="0.38" stop-color="#626FF3"/>
<stop offset="0.6" stop-color="#7F89F5"/>
<stop offset="0.89" stop-color="#AEB5FA"/>
<stop offset="1" stop-color="#C3C8FC"/>
</linearGradient>
</defs>
</svg>