<svg viewBox="0 0 214 141" fill="none" xmlns="http://www.w3.org/2000/svg">
<path d="M180.213 27.6291L182.799 23.5461C182.799 23.5461 184.965 22.5481 187.767 24.0905C190.137 25.3948 189.684 27.6291 189.684 27.6291L188.186 30.8047L180.213 27.6291Z" fill="#A0A9FA"/>
<mask id="mask0_3282_122495" style="mask-type:luminance" maskUnits="userSpaceOnUse" x="180" y="23" width="10" height="8">
<path d="M180.213 27.631L182.799 23.5481C182.799 23.5481 184.965 22.55 187.767 24.0925C190.137 25.3967 189.683 27.631 189.683 27.631L188.186 30.8066L180.213 27.631Z" fill="white"/>
</mask>
<g mask="url(#mask0_3282_122495)">
<path d="M185.249 29.6276L188.47 24.5693L191.838 26.3613L188.64 31.068L185.249 29.6276Z" fill="#FF4CD2"/>
<path d="M186.78 30.6476L189.989 25.6006L193.358 27.3812L190.16 32.0993L186.78 30.6476Z" fill="#FBE6FF"/>
<path d="M178.376 26.6329L181.585 21.5859L185.895 22.0056L181.755 28.0846L178.376 26.6329Z" fill="#C3C8FC"/>
</g>
<path d="M202.409 35.8399L131.411 20.6196L55.3325 4.31055L42.9249 9.01727L26.8653 43.4501L4.86279 90.6308L9.11586 98.7286L60.6857 109.968L76.8133 102.993L89.5839 106.316L98.7478 108.698L102.91 118.894L154.571 131.449L168.521 124.825L190.07 79.1532L206.401 44.5389L202.409 35.8399Z" fill="#5865F2"/>
<path d="M190.069 79.1537L206.401 44.5394L202.409 35.8404L131.411 20.6201L111.257 61.9146L190.069 79.1537Z" fill="#5865F2"/>
<mask id="mask1_3282_122495" style="mask-type:luminance" maskUnits="userSpaceOnUse" x="111" y="20" width="96" height="60">
<path d="M190.069 79.1537L206.401 44.5394L202.409 35.8404L131.411 20.6201L111.257 61.9146L190.069 79.1537Z" fill="white"/>
</mask>
<g mask="url(#mask1_3282_122495)">
<path d="M108.49 43.2354C118.164 45.2882 121.272 45.481 129.937 47.3183C138.601 49.1556 130.81 59.3063 139.985 61.257C149.16 63.2078 158.551 47.1141 168.815 49.6546C174.373 51.027 172.331 58.3196 181.552 60.4291C188.425 62.0056 199.914 64.444 201.966 64.875" stroke="#FF4CD2" stroke-width="2.50647" stroke-miterlimit="10"/>
</g>
<path d="M131.411 20.6196L55.3323 4.31055L42.9247 9.01727L26.8651 43.4501L111.257 61.9141L131.411 20.6196Z" fill="#2D35AD"/>
<path d="M26.8653 43.4512L4.86279 90.6319L9.11586 98.7297L60.6857 109.969L76.8133 102.994L89.5839 106.317L111.258 61.9151L26.8653 43.4512Z" fill="#161A8A"/>
<path d="M111.257 61.916L89.5837 106.318L98.7477 108.7L102.91 118.896L154.571 131.451L168.521 124.827L190.07 79.1551L111.257 61.916Z" fill="#000066"/>
<path d="M133.01 74.8438L123.54 72.8477L108.864 103.22L118.3 105.228L133.01 74.8438Z" fill="#5865F2"/>
<path d="M122.281 97.0061L112.834 94.9987L115.488 89.498L124.946 91.5055L122.281 97.0061Z" fill="#FF4CD2"/>
<path d="M149.535 78.3492L140.053 76.3418L125.321 106.726L134.78 108.733L149.535 78.3492Z" fill="#5865F2"/>
<path d="M144.851 87.9901L135.381 85.9713L138.046 80.4707L147.528 82.4781L144.851 87.9901Z" fill="#FF4CD2"/>
<path d="M164.823 89.1798L153.958 86.8775L157.315 79.9932L168.181 82.2955L164.823 89.1798Z" fill="#FCC0F4"/>
<path d="M153.368 112.69L142.526 110.388L145.86 103.526L156.714 105.829L153.368 112.69Z" fill="#5865F2"/>
<path d="M159.096 100.952L148.242 98.6386L151.576 91.7656L162.442 94.0793L159.096 100.952Z" fill="#FF4CD2"/>
<path d="M66.1068 60.5207C55.4118 58.139 42.8681 63.7417 38.082 73.0304C33.3072 82.3304 38.0933 91.8006 48.7883 94.1823C59.4834 96.564 72.0271 90.9613 76.8132 81.6726C81.5993 72.3726 76.8019 62.9024 66.1068 60.5207ZM65.0634 79.0527C63.1807 82.7047 58.2585 84.9049 54.0508 83.9749C49.8431 83.0336 47.9604 79.3136 49.8431 75.6616C51.7258 72.0096 56.648 69.8094 60.8557 70.7394C65.0634 71.6807 66.9461 75.4008 65.0634 79.0527Z" fill="#5865F2"/>
<mask id="mask2_3282_122495" style="mask-type:luminance" maskUnits="userSpaceOnUse" x="36" y="59" width="43" height="36">
<path d="M66.1068 60.5207C55.4118 58.139 42.8681 63.7417 38.082 73.0304C33.3072 82.3304 38.0933 91.8006 48.7883 94.1823C59.4834 96.564 72.0271 90.9613 76.8132 81.6726C81.5993 72.3726 76.8019 62.9024 66.1068 60.5207ZM65.0634 79.0527C63.1807 82.7047 58.2585 84.9049 54.0508 83.9749C49.8431 83.0336 47.9604 79.3136 49.8431 75.6616C51.7258 72.0096 56.648 69.8094 60.8557 70.7394C65.0634 71.6807 66.9461 75.4008 65.0634 79.0527Z" fill="white"/>
</mask>
<g mask="url(#mask2_3282_122495)">
<path d="M62.489 68.7764L57.4534 77.2144L78.6733 87.9889L83.3347 70.7611L62.489 68.7764Z" fill="#FF4CD2"/>
<path d="M63.2601 60.0664L57.4532 77.2148L81.3271 73.5741L77.5731 61.4274L63.2601 60.0664Z" fill="#FD99E9"/>
</g>
<path d="M56.0241 28.4693C53.6538 27.9703 52.5536 25.8494 53.5744 23.7399C54.5951 21.6304 57.3511 20.3261 59.7328 20.8251L95.107 28.6735C97.4887 29.1725 98.5775 31.2933 97.5567 33.4029C96.536 35.5124 93.78 36.8167 91.3983 36.3063L56.0241 28.458V28.4693Z" fill="#000066"/>
<path d="M49.6049 41.2291C47.2346 40.73 46.1344 38.6092 47.1552 36.4997C48.1759 34.3901 50.9319 33.0859 53.3136 33.5849L107.061 45.0171C109.443 45.5162 110.532 47.637 109.511 49.7466C108.49 51.8561 105.734 53.1603 103.352 52.65L49.6049 41.2177V41.2291Z" fill="#000066"/>
<path d="M82.6428 30.1014C83.6635 27.9919 82.5747 25.871 80.193 25.372C77.8113 24.873 75.0553 26.1773 74.0346 28.2868C73.0138 30.3963 74.114 32.5058 76.4843 33.0162C78.8547 33.5266 81.6107 32.2223 82.6428 30.1128V30.1014Z" fill="#FF4CD2"/>
<path d="M96.729 46.9559C97.7497 44.8464 96.6609 42.7255 94.2792 42.2265C91.8975 41.7275 89.1415 43.0317 88.1208 45.1413C87.1 47.2508 88.2001 49.3603 90.5705 49.8707C92.9409 50.381 95.6969 49.0768 96.729 46.9672V46.9559Z" fill="#FF4CD2"/>
<path d="M5.97412 101.623L9.11572 108.371L64.7572 120.064L78.4464 112.987L97.5682 117.024L103.023 128.241L158.279 140.263L173.318 133.197L213.83 50.189L211.176 44.3027L169.609 125.497L154.571 131.201L102.003 118.431L95.7535 106.738L76.8132 102.757L57.9636 110.458L7.31242 98.7647L5.97412 101.623Z" fill="black"/>
<mask id="mask3_3282_122495" style="mask-type:luminance" maskUnits="userSpaceOnUse" x="5" y="44" width="209" height="97">
<path d="M5.97412 101.622L9.11572 108.37L64.7572 120.063L78.4464 112.986L97.5682 117.024L103.023 128.24L158.279 140.262L173.318 133.197L213.83 50.188L211.176 44.3018L169.609 125.496L154.571 131.2L102.003 118.43L95.7535 106.737L76.8132 102.756L57.9636 110.457L7.31242 98.7637L5.97412 101.622Z" fill="white"/>
</mask>
<g mask="url(#mask3_3282_122495)">
<path d="M64.7573 120.063L62.2509 113.836L76.0875 106.714L78.4465 112.986L64.7573 120.063Z" fill="#161A8A"/>
<path d="M64.7573 120.063L62.2509 113.836L76.0875 106.714L78.4465 112.986L64.7573 120.063Z" fill="#006638"/>
<path d="M64.8365 114.959L65.9027 117.601L77.9133 111.398L76.9153 108.732L64.8365 114.959Z" fill="#8AF7B5"/>
<path d="M158.279 140.261L155.773 133.956L170.755 127.128L173.318 133.196L158.915 140.261" fill="#161A8A"/>
<path d="M116.883 146.715L107.118 122.115L125.729 124.44L137.422 152.091L116.883 146.715Z" fill="#000066"/>
<path d="M9.11572 108.369L5.97412 101.621L26.128 105.999L28.7252 112.486L9.11572 108.369Z" fill="#2D35AD"/>
<path d="M34.3054 126.54L24.5291 101.929L32.6723 103.641L44.3654 131.303L34.3054 126.54Z" fill="#000066"/>
<path d="M108.717 145.331L98.9517 120.731L107.084 122.444L118.777 150.095L108.717 145.331Z" fill="#2D35AD"/>
<path d="M213.83 50.188L211.176 44.3018L170.755 127.129L173.318 133.197L213.83 50.188Z" fill="#612CAF"/>
<mask id="mask4_3282_122495" style="mask-type:luminance" maskUnits="userSpaceOnUse" x="170" y="44" width="44" height="90">
<path d="M213.83 50.187L211.176 44.3008L170.755 127.128L173.318 133.196L213.83 50.187Z" fill="white"/>
</mask>
<g mask="url(#mask4_3282_122495)">
<path d="M211.516 42.791L215.168 50.8662L206.356 67.4475L202.409 58.6918L211.516 42.791Z" fill="#FF4CD2"/>
<path d="M218.344 29.375L221.985 37.4615L213.184 54.0428L209.226 45.2758L218.344 29.375Z" fill="#FBE6FF"/>
<path d="M200.867 54.0762L210.065 74.4682L203.702 90.6866L193.722 68.5706L200.867 54.0762Z" fill="#B3269C"/>
<path d="M194.062 66.7441L202.863 86.2402L193.007 110.341L183.469 89.2117L194.062 66.7441Z" fill="#A056F2"/>
</g>
<path d="M76.0873 106.714L78.4463 112.986L97.5681 117.023L94.5059 110.717L76.0873 106.714Z" fill="black"/>
</g>
<mask id="mask5_3282_122495" style="mask-type:luminance" maskUnits="userSpaceOnUse" x="4" y="4" width="203" height="128">
<path d="M202.409 35.8409L131.411 20.6206L55.3325 4.31152L42.9249 9.01825L26.8653 43.4511L4.86279 90.6318L9.11586 98.7296L60.6857 109.969L76.8133 102.994L89.5839 106.317L98.7478 108.699L102.91 118.895L154.571 131.45L168.521 124.826L190.07 79.1542L206.401 44.5399L202.409 35.8409Z" fill="white"/>
</mask>
<g mask="url(#mask5_3282_122495)">
<path d="M135.37 39.7754L129.2 42.2478L104.884 37.0874L101.232 26.3811L48.5503 15.0395L58.0545 9.50488L109.897 20.7103L115.057 30.7929L135.37 39.7754Z" fill="#161A8A"/>
<path d="M143.343 34.9677L201.468 47.6702L204.315 44.9029L200.64 41.6365L149.116 30.2383L147.936 32.189" fill="#161A8A"/>
</g>
<g style="mix-blend-mode:overlay" opacity="0.35">
<path d="M86.9751 17.9211L36.0063 40.9217L48.6294 15.029L57.0562 11.3203L86.9751 17.9211Z" fill="#E6E8FF"/>
</g>
<g style="mix-blend-mode:overlay" opacity="0.35">
<path d="M17.5425 96.4272L159.788 33.4932L200.867 42.555L202.409 44.8007L182.21 86.2879L113.594 117.262L106.426 115.708L101.413 104.468L75.8605 99.3079L61.8651 106.102L40.3389 101.406L17.5425 96.4272Z" fill="#E6E8FF"/>
</g>
<path d="M10.953 92.2881L48.6295 15.0297L57.0562 11.3211L107.991 22.5492L111.518 34.4237L135.369 39.7769L149.49 31.2481L203.861 43.2134L199.335 34.333L55.3323 4.0625L42.834 9.59716L7.31238 86.7988L10.953 92.2881Z" fill="black"/>
<mask id="mask6_3282_122495" style="mask-type:luminance" maskUnits="userSpaceOnUse" x="7" y="4" width="197" height="89">
<path d="M10.953 92.2881L48.6295 15.0297L57.0562 11.3211L107.991 22.5492L111.518 34.4237L135.369 39.7769L149.49 31.2481L203.861 43.2134L199.335 34.333L55.3323 4.0625L42.834 9.59716L7.31238 86.7988L10.953 92.2881Z" fill="white"/>
</mask>
<g mask="url(#mask6_3282_122495)">
<path d="M47.1779 11.2303L48.6296 15.0297L57.0563 11.321L55.4685 7.55566L47.1779 11.2303Z" fill="#161A8A"/>
<path d="M47.1777 11.2294L48.6294 15.0288L9.56926 95.1339L5.974 88.794L45.5445 9.14258L47.1777 11.2294Z" fill="#612CAF"/>
</g>
<path d="M205.222 32.6087L55.4233 0.262695L41.0196 6.96553L0.235474 90.2462L5.96294 101.622L62.2509 113.837L76.0875 106.703L94.5061 110.718L99.9501 121.934L155.773 133.956L170.755 127.129L211.176 44.3018L205.222 32.6087ZM164.483 122.683L156.238 126.494L106.426 115.708L101.413 104.469L75.8607 99.3081L61.8652 106.102L12.6544 95.3613L9.11588 88.976L47.178 11.2299L55.4686 7.55529L198.735 38.2794L202.409 44.8008L164.483 122.683Z" fill="url(#paint0_linear_3282_122495)"/>
<mask id="mask7_3282_122495" style="mask-type:luminance" maskUnits="userSpaceOnUse" x="0" y="0" width="212" height="134">
<path d="M205.222 32.6087L55.4233 0.262695L41.0196 6.96553L0.235474 90.2462L5.96294 101.622L62.2509 113.837L76.0875 106.703L94.5061 110.718L99.9501 121.934L155.773 133.956L170.755 127.129L211.176 44.3018L205.222 32.6087ZM164.483 122.683L156.238 126.494L106.426 115.708L101.413 104.469L75.8607 99.3082L61.8652 106.102L12.6544 95.3614L9.11588 88.9762L47.178 11.2299L55.4686 7.55529L198.735 38.2794L202.409 44.8008L164.483 122.683Z" fill="white"/>
</mask>
<g mask="url(#mask7_3282_122495)">
<path d="M101.64 9.10911L104.861 19.4185L110.395 20.7115L105.711 8.83691L101.64 9.10911Z" fill="#000066"/>
</g>
<path d="M102.91 7.02148L110.044 29.4777L133.18 34.3886L158.551 18.9868L102.91 7.02148Z" fill="url(#paint1_linear_3282_122495)"/>
<mask id="mask8_3282_122495" style="mask-type:luminance" maskUnits="userSpaceOnUse" x="102" y="7" width="57" height="28">
<path d="M102.91 7.02246L110.044 29.4787L133.18 34.3895L158.551 18.9878L102.91 7.02246Z" fill="white"/>
</mask>
<g mask="url(#mask8_3282_122495)">
<path d="M108.354 11.5918L113.061 26.3584L133.181 30.793L149.569 20.597L139.407 18.3173L133.623 21.6857L120.308 18.9865L118.8 13.758L108.354 11.5918Z" fill="#35ED7E"/>
<mask id="mask9_3282_122495" style="mask-type:luminance" maskUnits="userSpaceOnUse" x="108" y="11" width="42" height="20">
<path d="M108.354 11.5898L113.061 26.3565L133.181 30.791L149.57 20.595L139.408 18.3154L133.623 21.6838L120.308 18.9845L118.8 13.7561L108.354 11.5898Z" fill="white"/>
</mask>
<g mask="url(#mask9_3282_122495)">
<path d="M134.236 23.0683L133.624 21.6846L120.309 18.9854L120.796 20.2896L134.236 23.0683Z" fill="#108E4D"/>
<path d="M148.288 21.3894L140.032 19.5294L139.385 18.2705L152.7 20.9811L148.288 21.3894Z" fill="#108E4D"/>
<path d="M119.242 15.2985L108.865 13.2003L108.354 11.5898L118.8 13.7561L119.242 15.2985Z" fill="#108E4D"/>
</g>
</g>
<path d="M148.095 27.414L156.782 22.1516L160.321 22.9115L159.096 19.5317L158.552 18.9873L133.181 34.3891L135.37 39.7763L149.49 31.2475L148.095 27.414Z" fill="#660066"/>
<mask id="mask10_3282_122495" style="mask-type:luminance" maskUnits="userSpaceOnUse" x="133" y="18" width="28" height="22">
<path d="M148.094 27.4131L156.782 22.1506L160.321 22.9105L159.096 19.5307L158.551 18.9863L133.18 34.3881L135.369 39.7753L149.49 31.2465L148.094 27.4131Z" fill="white"/>
</mask>
<g mask="url(#mask10_3282_122495)">
<path d="M160.015 29.3762L156.068 20.6092L165.175 4.71973L168.816 12.8062L160.015 29.3762Z" fill="#FF4CD2"/>
<path d="M134.678 50.4608L129.257 37.7129L139.838 25.793L144.08 35.2064L134.678 50.4608Z" fill="#A056F2"/>
<path d="M133.532 35.252L159.096 19.5327L158.552 18.9883L133.181 34.3901" fill="#E6E8FF"/>
</g>
<path d="M148.287 21.3927L140.031 19.5327L134.235 23.0712L120.796 20.2925L119.242 15.3023L108.864 13.2041L113.061 26.3603L133.18 30.7948L148.287 21.3927Z" fill="#8AF7B5"/>
<mask id="mask11_3282_122495" style="mask-type:luminance" maskUnits="userSpaceOnUse" x="108" y="13" width="41" height="18">
<path d="M148.287 21.3917L140.031 19.5317L134.235 23.0702L120.796 20.2916L119.242 15.3013L108.864 13.2031L113.061 26.3593L133.18 30.7938L148.287 21.3917Z" fill="white"/>
</mask>
<g mask="url(#mask11_3282_122495)">
<path d="M80.3633 32.7L128.576 10.8789L144.783 14.8371L89.7314 38.1326L80.3633 32.7Z" fill="#C0FBD8"/>
<path d="M103.171 40.5603L151.384 18.7393L167.591 22.6974L112.539 45.9929L103.171 40.5603Z" fill="#C0FBD8"/>
</g>
<path d="M76.9154 108.732L95.5041 112.668L96.8198 115.39L77.9135 111.398L76.9154 108.732Z" fill="#21BB63"/>
<path d="M155.773 133.957L155.795 132.335L169.609 126.267L210.575 43.1455L211.176 44.3023L170.755 127.129L155.773 133.957Z" fill="#E6E8FF"/>
<path d="M9.11579 88.9761L8.56006 87.8306L46.3613 10.232L54.1076 7.13574L55.4685 7.55538L47.1779 11.23L9.11579 88.9761Z" fill="#E6E8FF"/>
<path d="M62.2506 113.836V112.056L75.7697 105.512L76.0873 106.714L62.2506 113.836Z" fill="#E6E8FF"/>
<path d="M198.746 38.2792V36.7481L149.161 26.7676L148.095 27.414L198.746 38.2792Z" fill="#5865F2"/>
<path d="M198.746 36.748L202.987 43.7571L202.409 44.8005L198.746 38.2792" fill="#5865F2"/>
<defs>
<linearGradient id="paint0_linear_3282_122495" x1="1.53986" y1="92.8782" x2="159.867" y2="53.6706" gradientUnits="userSpaceOnUse">
<stop stop-color="#5865F2"/>
<stop offset="1" stop-color="#C3C8FC"/>
</linearGradient>
<linearGradient id="paint1_linear_3282_122495" x1="100.573" y1="24.2107" x2="150.033" y2="14.2869" gradientUnits="userSpaceOnUse">
<stop stop-color="#5865F2"/>
<stop offset="1" stop-color="#C3C8FC"/>
</linearGradient>
</defs>
</svg>