<svg viewBox="0 0 125 141" fill="none" xmlns="http://www.w3.org/2000/svg">
<g clip-path="url(#clip0_3375_12572)">
<path d="M18.6059 122.571L14.0972 116.231L16.4585 106.247H5.57593L23.8761 31.2583H34.8014L37.1713 21.6677L45.3759 15.1826H102.843L107.591 21.3169L105.05 31.5407H116.07L98.0092 106.179H86.9812L84.6113 116.052L76.5948 122.571H18.6059Z" fill="#2D35AD"/>
<path d="M49.397 3.43647C49.4141 3.38513 49.9445 1.40882 49.9445 1.40882C49.9445 1.40882 51.7668 0.0741701 53.7603 0.510499C55.7537 0.946827 56.3526 1.63982 56.9001 2.63225C56.6007 4.00113 56.7119 3.4878 56.7119 3.4878L49.397 3.43647Z" fill="#A0A9FA"/>
<mask id="mask0_3375_12572" style="mask-type:luminance" maskUnits="userSpaceOnUse" x="49" y="0" width="8" height="4">
<path d="M49.397 3.43647C49.4141 3.38513 49.9445 1.40882 49.9445 1.40882C49.9445 1.40882 51.7668 0.0741701 53.7603 0.510499C55.7537 0.946827 56.3526 1.63982 56.9001 2.63225C56.6007 4.00113 56.7119 3.4878 56.7119 3.4878L49.397 3.43647Z" fill="white"/>
</mask>
<g mask="url(#mask0_3375_12572)">
<path d="M56.6006 5.32686L58.1235 -0.95285L56.1814 -0.978516L54.5901 5.32686H56.6006Z" fill="#A056F2"/>
<path d="M54.8552 4.44577L56.3866 -1.8425L54.282 -1.86816L52.6907 4.44577H54.8552Z" fill="#3E1689"/>
<path d="M50.706 4.44503C50.706 4.44503 51.245 2.34038 51.5016 1.21106C53.0759 0.500957 55.6254 1.21106 55.6254 1.21106L52.2289 -1.83468L48.9863 -1.86035L47.395 4.44503H50.706Z" fill="#E6E8FF"/>
</g>
<path d="M124.882 21.8817L122.409 32.5247H120.108L119.808 33.6541L121.528 35.7929L102.723 112.732H100.542L100.216 113.699L101.928 116L99.3267 126.601L82.7034 140.418H14.7644L0.861816 121.236L3.36857 110.636L5.67854 110.679L5.92665 109.507L4.24978 107.291L23.0547 30.3431L25.1936 30.3003L25.4844 29.171L23.8076 26.9123L26.4512 16.4405L43.0403 2.74316H110.851L124.882 21.8817Z" fill="#8AF7B5"/>
<mask id="mask1_3375_12572" style="mask-type:luminance" maskUnits="userSpaceOnUse" x="0" y="2" width="125" height="139">
<path d="M124.882 21.8817L122.409 32.5247H120.108L119.808 33.6541L121.528 35.7929L102.723 112.732H100.542L100.216 113.699L101.928 116L99.3267 126.601L82.7034 140.418H14.7644L0.861816 121.236L3.36857 110.636L5.67854 110.679L5.92665 109.507L4.24978 107.291L23.0547 30.3431L25.1936 30.3003L25.4844 29.171L23.8076 26.9123L26.4512 16.4405L43.0403 2.74316H110.851L124.882 21.8817Z" fill="white"/>
</mask>
<g mask="url(#mask1_3375_12572)">
<path d="M11.9584 111.748L11.1798 110.636L9.29761 117.925L10.0762 119.037L11.9584 111.748Z" fill="#108E4D"/>
<path d="M118.346 26.9117H110.68L112.357 19.7508L105.701 10.6136H44.375L33.3641 19.6653L31.6017 26.9117H22.3875V-2.1084H125.498L118.346 26.9117Z" fill="#A0A9FA"/>
<mask id="mask2_3375_12572" style="mask-type:luminance" maskUnits="userSpaceOnUse" x="22" y="-3" width="104" height="30">
<path d="M118.346 26.9117H110.68L112.357 19.7508L105.701 10.6136H44.375L33.3641 19.6653L31.6017 26.9117H22.3875V-2.1084H125.498L118.346 26.9117Z" fill="white"/>
</mask>
<g mask="url(#mask2_3375_12572)">
<path d="M112.827 25.2092L114.188 19.3743L106.565 8.911H90.1553L88.3245 1.02286L112.194 0.894531L122.409 15.6613L120.048 25.2092H112.827Z" fill="#C3C8FC"/>
<mask id="mask3_3375_12572" style="mask-type:luminance" maskUnits="userSpaceOnUse" x="88" y="0" width="35" height="26">
<path d="M112.827 25.2092L114.188 19.3743L106.565 8.911H90.1553L88.3245 1.02286L112.194 0.894531L122.409 15.6613L120.048 25.2092H112.827Z" fill="white"/>
</mask>
<g mask="url(#mask3_3375_12572)">
<path d="M61.8024 12.3676L98.8134 -24.6348H135.85L89.9328 21.2739H56.1045L61.8024 12.3676Z" fill="#E6E8FF"/>
</g>
<path d="M56.9087 8.91183H43.7675L31.8412 18.7078L30.267 25.21H19.2732L24.0129 8.66372L41.7912 0.424805H63.3937L56.9087 8.91183Z" fill="#E6E8FF"/>
</g>
<path d="M5.92686 109.507L6.26052 108.164H15.3464L16.0651 106.786H2.87256L5.92686 109.507Z" fill="#108E4D"/>
<path d="M120.921 16.4746L118.345 26.9123L122.409 32.5247L124.882 21.8817L120.921 16.4746Z" fill="#B3269C"/>
<mask id="mask4_3375_12572" style="mask-type:luminance" maskUnits="userSpaceOnUse" x="118" y="16" width="7" height="17">
<path d="M120.921 16.4746L118.345 26.9123L122.409 32.5247L124.882 21.8817L120.921 16.4746Z" fill="white"/>
</mask>
<g mask="url(#mask4_3375_12572)">
<path d="M120.921 16.4746L118.345 26.9123L119.073 27.9389L121.605 17.4243L120.921 16.4746Z" fill="#A056F2"/>
</g>
<path d="M117.396 30.5059L98.8306 107.214L102.723 112.732L121.528 35.7931L117.396 30.5059Z" fill="#B3269C"/>
<path d="M101.423 110.739L99.4978 107.967L118.037 31.2754L120.031 36.152L101.423 110.739Z" fill="#1D0066"/>
<path d="M97.9492 110.636H90.2835L88.4013 117.985L77.4076 127.037H16.0221L9.2975 117.925L11.1797 110.636H3.36857L0.861816 121.236L10.8375 135.01H78.8449L95.3398 121.347L97.9492 110.636Z" fill="#A0A9FA"/>
<mask id="mask5_3375_12572" style="mask-type:luminance" maskUnits="userSpaceOnUse" x="0" y="110" width="98" height="26">
<path d="M97.9492 110.636H90.2835L88.4013 117.985L77.4076 127.037H16.0221L9.2975 117.925L11.1797 110.636H3.36857L0.861816 121.236L10.8375 135.01H78.8449L95.3398 121.347L97.9492 110.636Z" fill="white"/>
</mask>
<g mask="url(#mask5_3375_12572)">
<path d="M29.0778 128.645L24.1926 136.156H64.2065L62.8462 128.645H29.0778Z" fill="#C3C8FC"/>
<mask id="mask6_3375_12572" style="mask-type:luminance" maskUnits="userSpaceOnUse" x="24" y="128" width="41" height="9">
<path d="M29.0778 128.645L24.1926 136.156H64.2065L62.8462 128.645H29.0778Z" fill="white"/>
</mask>
<g mask="url(#mask6_3375_12572)">
<path d="M25.8867 121.005H54.9154L40.816 133.907L24.9199 133.932L25.8867 121.005Z" fill="#E6E8FF"/>
</g>
</g>
<path d="M118.791 25.2097L121.99 29.7185L123.949 20.6155L120.921 16.4746L118.791 25.2097Z" fill="#612CAF"/>
</g>
<path d="M111.244 27.896L110.68 26.9121H118.345L122.409 32.5245H120.108L120.382 31.6604L117.592 27.8532L111.244 27.896Z" fill="#108E4D"/>
<path d="M105.7 10.6143H44.3747L33.3638 19.6659L31.6014 26.9124H23.8074L25.4842 29.1711L25.8864 27.8706L32.1661 27.8963L33.9713 20.5814L44.9821 11.5211H106.376L105.7 10.6143Z" fill="#108E4D"/>
<path d="M98.8304 107.214L117.396 30.5055H106.376L108.721 21.0774L103.348 14.1475H45.0165L36.2472 21.0774L33.9885 30.2146H23.0547L4.24976 107.291H15.1409L12.9763 116.454L18.0754 123.615H76.9627L85.5438 116.642L87.8024 107.214H98.8304Z" fill="#5865F2"/>
<path d="M102.723 112.732H100.542L100.798 112.022L97.992 108.164H88.5211L86.1769 117.344L77.553 124.504H18.7855L18.0754 123.615H76.9627L85.5438 116.642L87.8025 107.214H98.8305L102.723 112.732Z" fill="#108E4D"/>
<path d="M101.927 116L100.216 113.699L97.9491 110.636L95.3397 121.347L78.8448 135.01H10.8374L14.7644 140.417H82.7033L99.3266 126.6L101.927 116Z" fill="#B3269C"/>
<mask id="mask7_3375_12572" style="mask-type:luminance" maskUnits="userSpaceOnUse" x="10" y="110" width="92" height="31">
<path d="M101.927 116L100.216 113.699L97.9491 110.636L95.3397 121.347L78.8448 135.01H10.8374L14.7644 140.417H82.7033L99.3266 126.6L101.927 116Z" fill="white"/>
</mask>
<g mask="url(#mask7_3375_12572)">
<path d="M78.8449 135.011L82.7034 140.418L87.3918 148.836H1.82007L14.388 122.34L95.3398 121.348" fill="#3E1689"/>
<path d="M95.3397 121.348L99.3265 126.601L82.7032 140.418L78.8447 135.011L95.3397 121.348Z" fill="#612CAF"/>
</g>
<path d="M98.8304 107.214L117.396 30.5055H106.376L108.721 21.0774L103.348 14.1475H45.0165L36.2472 21.0774L33.9885 30.2146H23.0547L4.24976 107.291H15.1409L12.9763 116.454L18.0754 123.615H76.9627L85.5438 116.642L87.8024 107.214H98.8304Z" fill="#C3C8FC"/>
<path d="M18.4175 122.948L13.6864 116.309L15.9792 106.624H5.09668L23.5765 30.8824H34.5104L36.8375 21.4542L45.2475 14.8066H103.031L108.002 21.2318L105.529 31.1647H116.557L98.3085 106.555H87.2805L84.9448 116.266L76.7316 122.948H18.4175Z" fill="#5865F2"/>
<path d="M18.9992 121.818L14.9097 116.069L17.4079 105.494H6.53394L24.4662 32.0115H35.3915L37.8469 22.1043L45.641 15.9443H102.475L106.77 21.4883L104.083 32.2938H115.111L97.4186 105.417H86.3821L83.9352 115.633L76.3294 121.818H18.9992Z" fill="#5865F2"/>
<path d="M18.9992 121.818L14.9097 116.069L17.4079 105.494H6.53394L24.4662 32.0115H35.3915L37.8469 22.1043L45.641 15.9443H102.475L106.77 21.4883L104.083 32.2938H115.111L97.4186 105.417H86.3821L83.9352 115.633L76.3294 121.818H18.9992Z" fill="#5865F2"/>
<mask id="mask8_3375_12572" style="mask-type:luminance" maskUnits="userSpaceOnUse" x="6" y="15" width="110" height="107">
<path d="M18.9992 121.818L14.9097 116.069L17.4079 105.494H6.53394L24.4662 32.0115H35.3915L37.8469 22.1043L45.641 15.9443H102.475L106.77 21.4883L104.083 32.2938H115.111L97.4186 105.417H86.3821L83.9352 115.633L76.3294 121.818H18.9992Z" fill="white"/>
</mask>
<g mask="url(#mask8_3375_12572)">
<path d="M13.5496 187.652C13.7378 186.566 140.632 82.5742 140.632 82.5742L171.62 120.834L28.7441 241.886L13.5496 187.661V187.652Z" fill="#161A8A"/>
<path d="M-32.3506 125.343C-32.0939 123.871 140.889 -17.8926 140.889 -17.8926L183.127 34.2701L-11.6378 199.271L-32.3506 125.343Z" fill="black"/>
<path d="M19.9748 50.4314L60.8186 15.9443H100.08L10.4697 89.3844L19.9748 50.4314Z" fill="#000066"/>
<path d="M-10.4143 179.773C-10.1576 178.293 162.825 36.5371 162.825 36.5371L205.064 88.6998L10.2985 253.692L-10.4143 179.764V179.773Z" fill="#1D0066"/>
<path d="M31.6445 162.404C31.8328 161.318 158.727 57.3262 158.727 57.3262L189.715 95.5862L46.8476 216.629L31.6531 162.404H31.6445Z" fill="#000066"/>
<path d="M-126.281 119.003C-125.896 116.796 132.539 -95.0029 132.539 -95.0029L158.496 -66.9325L-132.484 179.593L-126.281 119.003Z" fill="#5865F2"/>
</g>
<path d="M98.9844 112.03L97.9492 110.636L95.3397 121.347L78.8448 135.01H10.8374L11.6758 136.157H79.6661L96.1953 122.477L98.7705 111.748" fill="#A056F2"/>
<mask id="mask9_3375_12572" style="mask-type:luminance" maskUnits="userSpaceOnUse" x="10" y="110" width="89" height="27">
<path d="M98.9844 112.03L97.9492 110.636L95.3397 121.347L78.8448 135.01H10.8374L11.6758 136.157H79.6661L96.1953 122.477L98.7705 111.748" fill="white"/>
</mask>
<g mask="url(#mask9_3375_12572)">
<path d="M64.4887 136.157L64.001 135.011H24.9368L25.4159 136.157H64.4887Z" fill="#612CAF"/>
</g>
<path d="M117.396 30.5059L98.8306 107.214L99.4979 108.275L118.038 31.3272L117.396 30.5059Z" fill="#A056F2"/>
<path d="M76.8844 9.41692C78.5966 8.35862 79.3139 6.41569 78.4867 5.07728C77.6594 3.73886 75.6008 3.51179 73.8886 4.5701C72.1763 5.6284 71.459 7.57133 72.2862 8.90974C73.1135 10.2482 75.1721 10.4752 76.8844 9.41692Z" fill="#612CAF"/>
<path d="M75.6023 4.08594L76.5178 4.94148L72.5994 8.66311L71.4187 7.58512L75.6023 4.08594Z" fill="#612CAF"/>
<path d="M75.8948 9.0888C77.6071 8.03049 78.3244 6.08757 77.4972 4.74915C76.6699 3.41074 74.6113 3.18367 72.8991 4.24197C71.1868 5.30028 70.4695 7.2432 71.2967 8.58162C72.124 9.92003 74.1826 10.1471 75.8948 9.0888Z" fill="#CA9EF9"/>
<mask id="mask10_3375_12572" style="mask-type:luminance" maskUnits="userSpaceOnUse" x="70" y="3" width="8" height="7">
<path d="M75.8948 9.08977C77.6071 8.03147 78.3244 6.08855 77.4972 4.75013C76.6699 3.41172 74.6113 3.18464 72.8991 4.24295C71.1868 5.30125 70.4695 7.24418 71.2967 8.58259C72.124 9.92101 74.1826 10.1481 75.8948 9.08977Z" fill="white"/>
</mask>
<g mask="url(#mask10_3375_12572)">
<path d="M74.6954 7.49089L75.7306 10.2629L70.5546 10.1773L68.6724 6.00224L69.4851 2.00684L78.1604 3.17893L75.3627 4.44514L74.9949 6.00224" fill="#C3C8FC"/>
<path d="M79.5119 8.20895L74.43 5.95031L74.3958 5.25732L79.4863 4.66699L79.5119 8.20895Z" fill="#FD99E9"/>
</g>
<path d="M74.562 7.58304C75.6833 6.88992 76.1533 5.61774 75.6118 4.74154C75.0702 3.86535 73.7221 3.71693 72.6007 4.41004C71.4794 5.10316 71.0093 6.37534 71.5509 7.25154C72.0925 8.12774 73.4406 8.27615 74.562 7.58304Z" fill="#E6E8FF"/>
<mask id="mask11_3375_12572" style="mask-type:luminance" maskUnits="userSpaceOnUse" x="71" y="3" width="5" height="6">
<path d="M74.562 7.58304C75.6833 6.88992 76.1533 5.61774 75.6118 4.74154C75.0702 3.86535 73.7221 3.71693 72.6007 4.41004C71.4794 5.10316 71.0093 6.37534 71.5509 7.25154C72.0925 8.12774 73.4406 8.27615 74.562 7.58304Z" fill="white"/>
</mask>
<g mask="url(#mask11_3375_12572)">
<path d="M73.9681 0.125V6.37049L68.5439 4.74495L73.9681 0.125Z" fill="#E6E8FF"/>
</g>
<path d="M74.2111 7.01475C74.9305 6.57007 75.2318 5.75342 74.884 5.19072C74.5362 4.62803 73.671 4.53236 72.9516 4.97705C72.2322 5.42174 71.9309 6.23838 72.2787 6.80108C72.6265 7.36377 73.4916 7.45944 74.2111 7.01475Z" fill="#5865F2"/>
<mask id="mask12_3375_12572" style="mask-type:luminance" maskUnits="userSpaceOnUse" x="72" y="4" width="4" height="4">
<path d="M74.2111 7.01573C74.9305 6.57104 75.2318 5.7544 74.884 5.1917C74.5362 4.629 73.671 4.53334 72.9516 4.97803C72.2322 5.42271 71.9309 6.23936 72.2787 6.80205C72.6265 7.36475 73.4916 7.46042 74.2111 7.01573Z" fill="white"/>
</mask>
<g mask="url(#mask12_3375_12572)">
<path d="M74.5922 7.39366C75.3116 6.94897 75.6129 6.13233 75.2651 5.56963C74.9173 5.00693 74.0522 4.91127 73.3327 5.35596C72.6133 5.80064 72.312 6.61729 72.6598 7.17999C73.0076 7.74268 73.8728 7.83835 74.5922 7.39366Z" fill="black"/>
</g>
<path d="M25.416 136.157L28.5045 140.418H67.5175L64.4888 136.157H25.416Z" fill="#1D0066"/>
<path d="M82.9429 44.2372L77.0653 68.2695C76.5947 70.1859 74.6612 71.7344 72.7448 71.7344H46.4367L41.4574 75.2935L33.595 80.9145L35.8365 71.7344H30.13C28.2136 71.7344 27.0415 70.1859 27.5035 68.2695L33.3811 44.2372C33.8516 42.3208 35.7937 40.7637 37.7016 40.7637H80.3163C82.2328 40.7637 83.4049 42.3208 82.9429 44.2372Z" fill="#D3D7FD"/>
<path d="M90.523 60.2783H84.3032L82.0531 69.4926C81.0179 73.7018 77.0225 76.8674 72.7447 76.8674H48.0793L43.3824 80.2297L41.9707 85.9618C41.3975 88.2889 42.8434 90.1968 45.1705 90.1968H68.236L76.9198 99.7361L79.2469 90.1968H83.2081C85.5437 90.1968 87.905 88.2889 88.4782 85.9618L93.7227 64.5133C94.296 62.1776 92.8586 60.2783 90.523 60.2783Z" fill="#8892F7"/>
<path d="M73.3007 50.9785H39.0788L38.2917 54.1611H72.505L73.3007 50.9785Z" fill="#8892F7"/>
<path d="M60.0057 57.3096H37.5134L36.7178 60.4922H59.2186L60.0057 57.3096Z" fill="#8892F7"/>
<path d="M68.9119 40.7637L31.1224 71.7344H30.13C28.2136 71.7344 27.0415 70.1859 27.5035 68.2695L33.3811 44.2372C33.8516 42.3208 35.7937 40.7637 37.7016 40.7637H68.9119Z" fill="#E6E8FF"/>
<path d="M48.7296 57.3096H37.5134L36.7178 60.4922H44.8455L48.7296 57.3096Z" fill="#A0A9FA"/>
<path d="M56.455 50.9785H39.0788L38.2917 54.1611H52.5623L56.455 50.9785Z" fill="#A0A9FA"/>
</g>
<defs>
<clipPath id="clip0_3375_12572">
<rect width="124.02" height="139.993" fill="white" transform="translate(0.895508 0.462891)"/>
</clipPath>
</defs>
</svg>