<svg width="120" height="120" viewBox="0 0 120 120" fill="none" xmlns="http://www.w3.org/2000/svg">
<rect width="120" height="120" rx="60" fill="url(#paint0_linear_5855_225091)"/>
<g clip-path="url(#clip0_5855_225091)">
<path d="M84.2218 41.1769C77.4038 36.2836 68.3621 33.5879 58.7592 33.5879C49.1563 33.5879 40.8461 35.8641 34.5788 39.9994C28.4924 44.0142 24.9995 49.5735 24.9995 55.2482C24.9995 60.0024 27.6716 65.1841 35.1741 65.4726C37.4135 65.5591 39.4852 65.2392 41.3103 64.956C44.0532 64.5312 45.7708 64.3188 46.5313 65.2208C47.4491 66.3091 46.9037 67.9769 45.9413 70.6123C45.207 72.6184 44.3758 74.8919 44.4518 77.2677C44.6275 82.8034 48.4115 86.2098 54.5739 86.3803C55.3738 86.4013 56.1631 86.4144 56.9419 86.4144C70.6094 86.4144 81.3058 83.0158 87.9717 76.5309C92.5686 72.0598 94.9969 66.3353 94.9969 59.971C94.9969 52.8409 91.1683 46.1671 84.2192 41.1795L84.2218 41.1769ZM86.1466 74.6481C81.5942 79.0771 72.4371 84.251 54.6474 83.758C51.8939 83.6819 47.2498 82.7274 47.0741 77.1838C47.0138 75.3141 47.7218 73.3815 48.4063 71.5118C49.429 68.719 50.4831 65.8345 48.54 63.5294C47.5304 62.3337 46.1537 61.9744 44.5882 61.9744C43.4396 61.9744 42.1914 62.1685 40.9143 62.3651C39.2046 62.63 37.2641 62.9289 35.279 62.8529C28.3718 62.588 27.6244 57.4457 27.6244 55.2482C27.6244 50.4703 30.6873 45.7108 36.0263 42.1891C41.8715 38.3343 49.9456 36.2102 58.7618 36.2102C77.2989 36.2102 92.3798 46.8673 92.3798 59.9683C92.3798 65.6063 90.2243 70.6831 86.1492 74.6481H86.1466ZM52.7226 45.0579C52.7226 48.0526 49.5365 50.3995 45.4667 50.3995C41.3968 50.3995 38.2107 48.0526 38.2107 45.0579C38.2107 42.0632 41.3968 39.7162 45.4667 39.7162C49.5365 39.7162 52.7226 42.0632 52.7226 45.0579ZM68.6899 42.4985C68.6899 45.4932 65.5037 47.8402 61.4339 47.8402C57.3641 47.8402 54.178 45.4932 54.178 42.4985C54.178 39.5038 57.3641 37.1569 61.4339 37.1569C65.5037 37.1569 68.6899 39.5038 68.6899 42.4985ZM69.2484 48.5482C69.2484 45.5535 72.4345 43.2065 76.5043 43.2065C80.5742 43.2065 83.7603 45.5535 83.7603 48.5482C83.7603 51.5429 80.5742 53.8898 76.5043 53.8898C72.4345 53.8898 69.2484 51.5429 69.2484 48.5482ZM90.5521 59.9998C90.5521 62.9945 87.366 65.3415 83.2961 65.3415C79.2263 65.3415 76.0402 62.9945 76.0402 59.9998C76.0402 57.0051 79.2263 54.6582 83.2961 54.6582C87.366 54.6582 90.5521 57.0051 90.5521 59.9998ZM83.4115 71.4515C83.4115 74.4461 80.2254 76.7931 76.1556 76.7931C72.0857 76.7931 68.8996 74.4461 68.8996 71.4515C68.8996 68.4568 72.0857 66.1098 76.1556 66.1098C80.2254 66.1098 83.4115 68.4568 83.4115 71.4515ZM59.0712 70.927C55.004 70.927 51.8153 73.274 51.8153 76.2686C51.8153 79.2633 55.0014 81.6103 59.0712 81.6103C63.141 81.6103 66.3272 79.2633 66.3272 76.2686C66.3272 73.274 63.141 70.927 59.0712 70.927ZM59.0712 78.988C56.879 78.988 54.4376 77.8709 54.4376 76.2686C54.4376 74.6664 56.879 73.5493 59.0712 73.5493C61.2635 73.5493 63.7048 74.6664 63.7048 76.2686C63.7048 77.8709 61.2635 78.988 59.0712 78.988ZM43.5629 54.5139C43.5629 57.5086 40.3767 59.8556 36.3069 59.8556C32.2371 59.8556 29.051 57.5086 29.051 54.5139C29.051 51.5193 32.2371 49.1723 36.3069 49.1723C40.3767 49.1723 43.5629 51.5193 43.5629 54.5139Z" fill="#F5C9FF"/>
</g>
<defs>
<linearGradient id="paint0_linear_5855_225091" x1="60" y1="-11" x2="60" y2="133.5" gradientUnits="userSpaceOnUse">
<stop offset="0.17301" stop-color="#381F2C"/>
<stop offset="1" stop-color="#FF4CD2"/>
</linearGradient>
<clipPath id="clip0_5855_225091">
<rect width="70" height="52.8239" fill="white" transform="translate(25 33.5879)"/>
</clipPath>
</defs>
</svg>
