<svg width="120" height="120" viewBox="0 0 120 120" fill="none" xmlns="http://www.w3.org/2000/svg">
<rect width="120" height="120" rx="60" fill="url(#paint0_linear_5855_225082)"/>
<g clip-path="url(#clip0_5855_225082)">
<path d="M41.7008 30.1537C25.2458 40.2451 20.0662 61.8423 30.1547 78.2973C40.2432 94.7523 61.8432 99.9319 78.2982 89.8434C94.7532 79.7549 99.9329 58.1549 89.8444 41.6999C79.7559 25.2449 58.1587 20.0652 41.7008 30.1537ZM86.6208 42.0196L71.2058 51.4715C67.6048 44.0679 67.2994 35.8721 70.4568 29.6381C76.8521 31.8332 82.5906 36.0478 86.6208 42.0196ZM67.6538 28.8142C64.3121 35.8519 64.7298 44.8975 68.7398 52.981L60.4893 58.0396L44.452 31.8879C51.7605 27.8405 60.0428 26.9474 67.6509 28.8142H67.6538ZM75.5471 88.1121C69.0106 91.7303 61.6963 92.8279 54.7796 91.6842C57.3089 84.1884 56.0241 74.9959 51.2708 67.2408C51.2449 67.2005 51.2189 67.1602 51.193 67.1199L59.5386 62.0036L75.5471 88.1121ZM61.9959 60.4969L70.1341 55.5074C70.16 55.5478 70.1831 55.591 70.209 55.6313C74.9969 63.4382 82.677 68.7705 90.5588 69.871C88.4242 76.4939 84.1491 82.4542 78.0044 86.6054L61.9959 60.4969ZM41.9976 33.3917L58.0349 59.5463L49.5769 64.7317C44.2302 57.5441 36.4377 53.0847 28.7085 52.8081C30.4745 45.128 35.0376 38.096 42.0004 33.3917H41.9976ZM47.1052 66.247L31.9004 75.5692C28.4262 69.3092 27.2682 62.332 28.1814 55.6745C35.1067 55.7581 42.1877 59.7393 47.1081 66.247H47.1052ZM33.4071 78.0236L48.7357 68.6236C48.7616 68.6639 48.7876 68.7043 48.8135 68.7446C53.198 75.8947 54.3503 84.3296 51.9391 91.0793C44.6076 89.1808 37.9328 84.707 33.4071 78.0207V78.0236ZM91.3222 67.0622C84.152 66.2066 77.0797 61.3324 72.6606 54.1247C72.6346 54.0843 72.6116 54.0411 72.5857 54.0008L88.1246 44.4741C92.0568 51.5896 93.0017 59.6241 91.3222 67.0622Z" fill="#C8FFEF"/>
</g>
<defs>
<linearGradient id="paint0_linear_5855_225082" x1="60" y1="-16" x2="60" y2="139" gradientUnits="userSpaceOnUse">
<stop offset="0.125806" stop-color="#002920"/>
<stop offset="1" stop-color="#35ED7E"/>
</linearGradient>
<clipPath id="clip0_5855_225082">
<rect width="70" height="70" fill="white" transform="translate(25 25)"/>
</clipPath>
</defs>
</svg>
