<svg width="120" height="120" viewBox="0 0 120 120" fill="none" xmlns="http://www.w3.org/2000/svg">
<rect width="120" height="120" rx="60" fill="url(#paint0_linear_5855_225035)"/>
<g clip-path="url(#clip0_5855_225035)">
<path d="M80.8155 84.6237C82.0006 83.4354 82.3454 82.2626 82.3454 81.2991C82.3454 80.2309 81.9237 79.2119 81.0894 78.2731C80.8093 77.9314 77.6571 74.0619 74.4771 68.4562C71.6481 63.4693 68.2866 56.1398 67.871 48.9457C71.4542 48.2007 74.471 46.8155 74.471 44.4143C74.471 42.2472 72.073 40.9697 69.3178 40.2155C71.1494 38.073 72.2577 35.2963 72.2577 32.261C72.2607 25.501 66.7597 20 59.9997 20C53.2396 20 47.7386 25.501 47.7386 32.261C47.7386 35.2932 48.8468 38.073 50.6785 40.2155C47.9264 40.9697 45.5253 42.2472 45.5253 44.4143C45.5253 46.72 48.3081 48.0899 51.7036 48.8564C49.3609 65.2455 38.7406 78.4731 38.6298 78.6086C38.6175 78.624 38.6052 78.6425 38.5929 78.6578C37.968 79.4921 37.6509 80.3817 37.6509 81.2991C37.6509 82.2164 37.9957 83.4354 39.1808 84.6237C36.4904 85.581 35.2159 86.7785 35.2159 88.3084V93.871C35.2159 96.032 37.774 97.5435 43.2658 98.6271C47.751 99.5136 53.6952 100 59.9997 100C66.3041 100 72.2484 99.5136 76.7336 98.6271C82.2253 97.5435 84.7834 96.032 84.7834 93.871V88.3084C84.7834 86.7785 83.5059 85.581 80.8185 84.6237H80.8155ZM59.9997 23.0783C65.0636 23.0783 69.1824 27.1972 69.1824 32.261C69.1824 35.4256 67.5724 38.2207 65.1313 39.8738C64.9897 39.9692 64.845 40.0616 64.6972 40.1478C64.6234 40.1909 64.5495 40.234 64.4756 40.274C64.3648 40.3355 64.2509 40.3971 64.1339 40.4556C64.0446 40.5018 63.9554 40.5449 63.8661 40.5849C63.7368 40.6465 63.6044 40.7019 63.4721 40.7573C63.3982 40.7881 63.3243 40.8158 63.2504 40.8465C63.1027 40.902 62.958 40.9543 62.8071 41.0035C62.7425 41.0251 62.6748 41.0436 62.6101 41.0651C62.4593 41.1113 62.3084 41.1513 62.1545 41.1882C62.0899 41.2036 62.0283 41.219 61.9637 41.2313C61.7728 41.2714 61.585 41.3114 61.3911 41.3391C61.3696 41.3422 61.348 41.3452 61.3265 41.3483C61.1448 41.376 60.9601 41.3945 60.7754 41.4099C60.72 41.413 60.6677 41.4191 60.6123 41.4222C60.406 41.4345 60.2029 41.4437 59.9966 41.4437C59.7904 41.4437 59.5841 41.4345 59.3809 41.4222C59.3255 41.4191 59.2732 41.413 59.2209 41.4099C59.0362 41.3945 58.8515 41.3729 58.6698 41.3483C58.6483 41.3452 58.6267 41.3422 58.6083 41.3391C58.4143 41.3083 58.2235 41.2714 58.0326 41.2313C57.9711 41.219 57.9064 41.2036 57.8448 41.1882C57.6879 41.1513 57.5339 41.1082 57.38 41.062C57.3215 41.0436 57.26 41.0251 57.2015 41.0066C57.0476 40.9574 56.8967 40.902 56.7428 40.8465C56.672 40.8188 56.5981 40.7911 56.5273 40.7604C56.3888 40.7049 56.2533 40.6434 56.1179 40.5818C56.0348 40.5418 55.9547 40.5018 55.8747 40.4618C55.7547 40.4002 55.6377 40.3386 55.5176 40.2709C55.4468 40.2309 55.376 40.1909 55.3052 40.1478C55.1575 40.0585 55.0097 39.9661 54.865 39.8676C52.4239 38.2146 50.817 35.4194 50.817 32.258C50.817 27.1941 54.9358 23.0753 59.9997 23.0753V23.0783ZM53.5998 42.7213C53.6706 42.7644 53.7445 42.8013 53.8153 42.8444C53.9477 42.9213 54.077 42.9983 54.2124 43.0691C54.3171 43.1245 54.4248 43.1799 54.5295 43.2323C54.6465 43.2908 54.7634 43.3462 54.8835 43.4016C54.9851 43.4477 55.0867 43.497 55.1913 43.5401C55.3914 43.6263 55.5977 43.7063 55.8039 43.7833C55.8932 43.8171 55.9825 43.8449 56.0717 43.8756C56.2195 43.9249 56.3672 43.9741 56.5181 44.0172C56.6135 44.0449 56.7059 44.0726 56.8013 44.0973C56.9798 44.1465 57.1584 44.1896 57.3369 44.2296C57.3954 44.242 57.457 44.2573 57.5155 44.2697C57.7525 44.3189 57.9895 44.3589 58.2296 44.3928C58.3035 44.4051 58.3805 44.4113 58.4544 44.4205C58.6391 44.4451 58.8238 44.4636 59.0085 44.479C59.0854 44.4851 59.1593 44.4913 59.2332 44.4975C59.4856 44.5129 59.738 44.5221 59.9935 44.5221C60.249 44.5221 60.5015 44.5129 60.7539 44.4975C60.8308 44.4913 60.9047 44.4851 60.9817 44.479C61.1664 44.4636 61.3511 44.4451 61.5327 44.4236C61.6097 44.4143 61.6866 44.4051 61.7605 44.3959C62.0006 44.362 62.2376 44.322 62.4747 44.2727C62.5393 44.2604 62.6009 44.242 62.6625 44.2296C62.8379 44.1896 63.0134 44.1465 63.1858 44.1004C63.2843 44.0726 63.3797 44.0449 63.4782 44.0172C63.6229 43.9741 63.7676 43.928 63.9092 43.8787C64.0015 43.8479 64.097 43.8171 64.1893 43.7833C64.3925 43.7094 64.5957 43.6294 64.7927 43.5432C64.9004 43.497 65.0051 43.4477 65.1128 43.3985C65.2267 43.3462 65.3375 43.2938 65.4484 43.2384C65.5592 43.183 65.67 43.1276 65.7777 43.0691C65.8978 43.0045 66.0179 42.9367 66.1348 42.8659C66.2179 42.8167 66.3041 42.7736 66.3842 42.7243C69.3394 43.2384 70.8416 43.9988 71.288 44.4174C70.5092 45.1716 66.7567 46.6061 60.0705 46.6184C59.778 46.6184 59.4856 46.6184 59.1932 46.6123C52.9503 46.5045 49.4317 45.1439 48.6837 44.4174C49.1301 43.9988 50.6323 43.2384 53.5875 42.7243L53.5998 42.7213ZM59.9997 49.6968C60.0336 49.6968 60.0705 49.6968 60.1044 49.6968C60.1259 49.6968 60.1505 49.6968 60.1721 49.6968C61.7605 49.6968 63.3428 49.6414 64.8235 49.5336C65.3591 57.0971 68.736 64.6514 72.0268 70.3771C70.2475 70.8819 66.772 71.4053 59.9966 71.4053C53.7968 71.4053 49.7796 70.7434 47.6955 70.1308C50.5769 64.6883 53.5506 57.4973 54.7234 49.469C56.0963 49.586 57.5647 49.6568 59.0639 49.6814C59.384 49.6875 59.6949 49.6937 59.9935 49.6937L59.9997 49.6968ZM41.0402 80.5202C41.3572 80.1293 43.5798 77.3311 46.1748 72.8736C49.0593 73.8864 54.0215 74.4836 59.9966 74.4836C67.5601 74.4836 71.4911 73.8464 73.6521 73.0799C76.2657 77.2418 78.5005 79.9692 78.7314 80.2493C78.7437 80.2647 78.7591 80.2801 78.7714 80.2955C79.0977 80.6618 79.264 80.9974 79.264 81.2929C79.264 81.9701 78.3651 82.9552 76.4165 83.9033C76.2595 83.9803 76.0963 84.0542 75.9301 84.1311C75.8285 84.1773 75.7177 84.2204 75.61 84.2666C75.4991 84.3128 75.3853 84.3589 75.2714 84.4051C75.1482 84.4544 75.022 84.5036 74.8927 84.5529C74.8158 84.5806 74.7326 84.6114 74.6557 84.6391C74.511 84.6914 74.3694 84.7437 74.2186 84.793C73.7691 84.9438 73.3012 85.0885 72.8148 85.2209C72.7779 85.2301 72.744 85.2424 72.7071 85.2517C72.4978 85.3101 72.2823 85.3656 72.0668 85.421C71.9868 85.4425 71.9067 85.461 71.8267 85.4795C71.6328 85.5256 71.4388 85.5718 71.2418 85.618C71.1064 85.6488 70.9709 85.6765 70.8324 85.7073C70.6754 85.7411 70.5215 85.775 70.3645 85.8058C70.0566 85.8673 69.7426 85.9289 69.4256 85.9843C69.3794 85.9935 69.3302 85.9997 69.2809 86.0089C68.9854 86.0613 68.6868 86.1105 68.382 86.1567C68.3235 86.1659 68.262 86.1752 68.2035 86.1844C67.8956 86.2306 67.5878 86.2737 67.2738 86.3137C67.2307 86.3198 67.1876 86.326 67.1414 86.3291C66.0425 86.4676 64.9035 86.5753 63.7368 86.6492C63.6875 86.6523 63.6352 86.6554 63.586 86.6585C63.2658 86.6769 62.9457 86.6954 62.6224 86.7077C62.527 86.7108 62.4285 86.7169 62.3331 86.72C62.0437 86.7323 61.7513 86.7385 61.4588 86.7477C61.3572 86.7477 61.2557 86.7539 61.1541 86.7539C60.7724 86.76 60.3876 86.7662 59.9997 86.7662C59.6118 86.7662 59.2301 86.7631 58.8453 86.7539C58.7437 86.7539 58.6421 86.7477 58.5406 86.7477C58.2481 86.7416 57.9557 86.7323 57.6663 86.72C57.5678 86.7169 57.4724 86.7108 57.3769 86.7077C57.0537 86.6923 56.7336 86.6769 56.4134 86.6585C56.3611 86.6585 56.3118 86.6523 56.2595 86.6492C55.0928 86.5753 53.9538 86.4676 52.8549 86.3291C52.8118 86.3229 52.7656 86.3168 52.7225 86.3106C52.4085 86.2706 52.1007 86.2275 51.7959 86.1813C51.7343 86.1721 51.6758 86.1628 51.6143 86.1536C51.3126 86.1074 51.0109 86.0582 50.7154 86.0059C50.6662 85.9966 50.6169 85.9905 50.5707 85.9812C50.2537 85.9258 49.9397 85.8642 49.6318 85.8027C49.4748 85.7719 49.3209 85.738 49.1639 85.7042C49.0254 85.6734 48.8869 85.6457 48.7514 85.6149C48.5544 85.5687 48.3605 85.5225 48.1665 85.4764C48.0865 85.4579 48.0034 85.4364 47.9233 85.4148C47.7079 85.3594 47.4955 85.304 47.2861 85.2486C47.2492 85.2393 47.2092 85.227 47.1722 85.2178C46.6889 85.0823 46.221 84.9407 45.7747 84.7899C45.6269 84.7407 45.4884 84.6883 45.3468 84.6391C45.2637 84.6083 45.1775 84.5806 45.0974 84.5498C44.9712 84.5036 44.8481 84.4544 44.7249 84.4051C44.608 84.3589 44.491 84.3097 44.3771 84.2635C44.2724 84.2204 44.1678 84.1742 44.0662 84.1311C43.8876 84.0511 43.7153 83.9711 43.5459 83.8879C41.6158 82.9429 40.7293 81.9671 40.7293 81.2929C40.7293 81.059 40.8339 80.7973 41.0402 80.5172V80.5202ZM42.5855 86.8462C43.2381 87.1448 43.9708 87.4342 44.7957 87.7143C48.2435 88.8749 52.6271 89.5952 57.3492 89.7922C57.4139 89.7922 57.4785 89.7984 57.5432 89.8014C57.8695 89.8138 58.1989 89.823 58.5282 89.8322C58.6175 89.8322 58.7068 89.8384 58.7961 89.8384C59.1962 89.8445 59.5964 89.8507 60.0028 89.8507C60.4091 89.8507 60.8093 89.8445 61.2095 89.8384C61.2987 89.8384 61.388 89.8353 61.4773 89.8322C61.8067 89.8261 62.1361 89.8138 62.4624 89.8014C62.527 89.8014 62.5917 89.7953 62.6563 89.7922C67.3785 89.5952 71.762 88.8779 75.2098 87.7143C76.0348 87.4373 76.7674 87.1448 77.42 86.8462C80.5723 87.582 81.4927 88.2838 81.7112 88.4931V88.9026C80.7169 90.0354 73.3782 92.1318 60.0058 92.1318C46.6335 92.1318 39.2947 90.0354 38.3004 88.9026V88.4931C38.519 88.2838 39.4394 87.582 42.5917 86.8462H42.5855ZM59.9997 96.9217C46.6489 96.9217 39.3071 94.8315 38.2943 93.6955V92.418C39.5503 92.9598 41.2002 93.4277 43.2658 93.8341C47.751 94.7206 53.6952 95.207 59.9997 95.207C66.3041 95.207 72.2484 94.7206 76.7336 93.8341C78.7991 93.4247 80.4491 92.9567 81.7051 92.418V93.6955C80.6923 94.8315 73.3505 96.9217 59.9997 96.9217Z" fill="#E0E3FF"/>
</g>
<defs>
<linearGradient id="paint0_linear_5855_225035" x1="60" y1="-19" x2="60" y2="137.5" gradientUnits="userSpaceOnUse">
<stop offset="0.207668" stop-color="#1F1D5D"/>
<stop offset="1" stop-color="#5865F2"/>
</linearGradient>
<clipPath id="clip0_5855_225035">
<rect width="49.5675" height="80" fill="white" transform="translate(35.2163 20)"/>
</clipPath>
</defs>
</svg>
