<svg width="120" height="120" viewBox="0 0 120 120" fill="none" xmlns="http://www.w3.org/2000/svg">
<rect width="120" height="120" rx="60" fill="url(#paint0_linear_5855_225044)"/>
<g clip-path="url(#clip0_5855_225044)">
<path d="M99.5027 85.1687L89.6695 75.3355L95.2037 69.8013C95.869 69.136 95.869 68.0544 95.2037 67.3891L89.5364 61.7218C88.8711 61.0565 87.7895 61.0565 87.1242 61.7218L85.5956 63.2504L77.0657 54.7205L88.9495 42.8367C89.2839 42.5023 89.4648 42.0451 89.4477 41.5708L88.9598 27.6023C88.9291 26.7084 88.2092 25.9884 87.3152 25.9577L73.3467 25.4698C72.869 25.4528 72.4152 25.6336 72.0809 25.968L45.7372 52.3116L34.0854 40.6598L34.4914 29.0217L46.1296 28.6157L54.7891 37.2752C55.4544 37.9405 56.536 37.9405 57.2014 37.2752C57.8667 36.6099 57.8667 35.5283 57.2014 34.8629L48.0198 25.678C47.6854 25.3436 47.2385 25.1628 46.754 25.1798L32.7854 25.6677C31.8915 25.6984 31.1716 26.4184 31.1409 27.3123L30.653 41.2808C30.6359 41.7551 30.8167 42.2123 31.1511 42.5466L43.3284 54.7239L37.6952 60.357C37.0299 61.0224 37.0299 62.1039 37.6952 62.7693C38.3606 63.4346 39.4421 63.4346 40.1075 62.7693L73.9677 28.9057L85.6058 29.3117L86.0119 40.9499L47.7537 79.208C47.4329 79.5288 47.2555 79.9621 47.2555 80.4159C47.2555 80.8697 47.4363 81.303 47.7537 81.6237L49.2822 83.1523L46.0272 86.4073L28.4147 68.7948L31.6697 65.5398L43.847 77.717C44.5123 78.3824 45.5939 78.3824 46.2592 77.717C46.9246 77.0517 46.9246 75.9701 46.2592 75.3048L32.8741 61.9197C32.2088 61.2544 31.1272 61.2544 30.4619 61.9197L24.7946 67.5869C24.1293 68.2523 24.1293 69.3339 24.7946 69.9992L30.3288 75.5334L20.499 85.3666C19.8337 86.0319 19.8337 87.1135 20.499 87.7789L27.0431 94.323C27.3775 94.6574 27.8142 94.8211 28.2509 94.8211C28.6877 94.8211 29.1244 94.6539 29.4588 94.323L39.292 84.4897L44.8262 90.0239C45.1606 90.3583 45.5973 90.5221 46.034 90.5221C46.4708 90.5221 46.9075 90.3549 47.2419 90.0239L52.9091 84.3567C53.2298 84.036 53.4073 83.6026 53.4073 83.1488C53.4073 82.6951 53.2264 82.2617 52.9091 81.941L51.3806 80.4125L74.6603 57.1327L84.3946 66.867C85.0599 67.5324 86.1415 67.5324 86.8068 66.867L88.3354 65.3385L91.5904 68.5935L73.9779 86.206L70.7229 82.951L82.9002 70.7737C83.5655 70.1084 83.5655 69.0268 82.9002 68.3615C82.2348 67.6961 81.1532 67.6961 80.4879 68.3615L71.1426 77.7068L65.216 71.7802C64.5507 71.1149 63.4691 71.1149 62.8038 71.7802C62.1384 72.4456 62.1384 73.5272 62.8038 74.1925L68.7303 80.119L67.1028 81.7465C66.7821 82.0673 66.6047 82.5006 66.6047 82.9544C66.6047 83.4082 66.7855 83.8415 67.1028 84.1622L72.7701 89.8295C73.1045 90.1638 73.5412 90.3276 73.9779 90.3276C74.4146 90.3276 74.8514 90.1604 75.1857 89.8295L80.7199 84.2953L90.5532 94.1285C90.8875 94.4629 91.3243 94.6266 91.761 94.6266C92.1977 94.6266 92.6345 94.4595 92.9688 94.1285L99.5129 87.5844C99.8337 87.2637 100.011 86.8303 100.011 86.3766C100.011 85.9228 99.8303 85.4894 99.5129 85.1687H99.5027ZM28.2509 90.7029L24.1191 86.571L32.7445 77.9456L36.8764 82.0775L28.2509 90.7029ZM91.7508 90.5084L83.1253 81.883L87.2572 77.7511L95.8826 86.3766L91.7508 90.5084Z" fill="#F5C9FF"/>
</g>
<defs>
<linearGradient id="paint0_linear_5855_225044" x1="60" y1="-11" x2="60" y2="133.5" gradientUnits="userSpaceOnUse">
<stop offset="0.17301" stop-color="#381F2C"/>
<stop offset="1" stop-color="#FF4CD2"/>
</linearGradient>
<clipPath id="clip0_5855_225044">
<rect width="80" height="69.6481" fill="white" transform="translate(20 25.1758)"/>
</clipPath>
</defs>
</svg>
