<svg width="122" height="91" viewBox="0 0 122 91" fill="none" xmlns="http://www.w3.org/2000/svg">
<path d="M15.4235 31.579L10.957 57.6838L12.5092 57.8345L16.2618 31.5332L15.4235 31.579Z" fill="#B1B7F9"/>
<mask id="mask0_5136_28037" style="mask-type:luminance" maskUnits="userSpaceOnUse" x="10" y="31" width="7" height="27">
<path d="M15.4235 31.579L10.957 57.6838L12.5092 57.8345L16.2618 31.5332L15.4235 31.579Z" fill="white"/>
</mask>
<g mask="url(#mask0_5136_28037)">
<path d="M17.758 36.237L12.6562 35.2612L13.2719 30.3887H17.9872L17.758 36.237Z" fill="#3C42AD"/>
<path d="M15.7474 51.7057L10.0234 51.4895L10.4098 47.75H15.1252L15.7474 51.7057Z" fill="#3C42AD"/>
</g>
<path d="M46.8281 76.532L32.3808 90.9991L16.8594 77.0756L23.939 70.2187L31.8438 69.2363L39.5128 70.1663L46.8281 76.532Z" fill="black"/>
<path d="M31.8438 72.2355L37.8296 80.9066L39.5128 70.166L31.8438 72.2355Z" fill="#802EB4"/>
<path d="M31.8423 72.2359L27.2906 80.8152L23.9375 70.2188L31.8423 72.2359Z" fill="#5865F0"/>
<path d="M16.8594 77.0757L27.2921 80.8152L23.939 70.2188L16.8594 77.0757Z" fill="#DEE1FF"/>
<path d="M31.8446 72.2363L27.293 80.8157L37.8305 80.9074L31.8446 72.2363Z" fill="#2E318C"/>
<path d="M39.5112 70.166L37.8281 80.9066L46.8266 76.5318L39.5112 70.166Z" fill="#531F72"/>
<path d="M46.8263 76.5312L32.3789 90.9983L37.8278 80.9061L46.8263 76.5312Z" fill="black"/>
<path d="M32.3816 90.9983L27.293 80.8145L37.8305 80.9061L32.3816 90.9983Z" fill="#27287D"/>
<path d="M27.2921 80.8157L16.8594 77.0762L32.3808 90.9996L27.2921 80.8157Z" fill="#5865F0"/>
<path d="M23.9375 70.2188L31.6917 69.2168L39.5113 70.1664L31.8423 72.2359L23.9375 70.2188Z" fill="#27287D"/>
<path d="M32.1497 34.0954L31.0625 70.5019L31.8418 70.8556L32.6212 70.5085L32.9879 34.043L32.1497 34.0954Z" fill="#B1B7F9"/>
<mask id="mask1_5136_28037" style="mask-type:luminance" maskUnits="userSpaceOnUse" x="31" y="34" width="2" height="37">
<path d="M32.1497 34.0954L31.0625 70.5019L31.8418 70.8556L32.6212 70.5085L32.9879 34.043L32.1497 34.0954Z" fill="white"/>
</mask>
<g mask="url(#mask1_5136_28037)">
<path d="M36.7681 38.4108L32.9565 37.3301L32.4915 37.4873L32.0265 37.2843L28.8633 36.171V30.5977H36.7681V38.4108Z" fill="#3C42AD"/>
<path d="M36.7681 63.4088L32.7076 62.2562L31.8431 62.3347L31.3257 61.8632L28.8633 61.169V55.5957H36.7681V63.4088Z" fill="#3C42AD"/>
</g>
<path d="M48.7773 32.8823L57.4222 75.7528L58.9678 75.5432L49.5829 32.6465L48.7773 32.8823Z" fill="#B1B7F9"/>
<mask id="mask2_5136_28037" style="mask-type:luminance" maskUnits="userSpaceOnUse" x="48" y="32" width="11" height="44">
<path d="M48.7773 32.8823L57.4222 75.7528L58.9678 75.5432L49.5829 32.6465L48.7773 32.8823Z" fill="white"/>
</mask>
<g mask="url(#mask2_5136_28037)">
<path d="M55.129 35.7975L50.4792 36.734L50.0862 37.0025L49.5885 36.9174L45.0237 37.8342L43.8711 32.1169L53.9764 30.0801L55.129 35.7975Z" fill="#3C42AD"/>
<path d="M59.4962 51.4049L53.995 52.5182L53.4383 52.8588L52.7834 52.7605L49.3909 53.4417L48.2383 47.7243L58.3436 45.6875L59.4962 51.4049Z" fill="#3C42AD"/>
</g>
<path d="M20.5039 58.0847L18.1593 55.524L7.93612 54.5547L3.49582 56.4408L2.21219 57.3905L2.74267 60.3245L4.91698 63.527L9.73713 64.0706L7.94922 72.2897L3.89532 72.9053L2.61169 73.8549L3.44343 75.2303L6.58701 75.4202L6.03688 77.4373L1.74066 77.6141L0.457031 78.5638L1.27567 81.0721L8.02781 82.4867L9.31144 81.5371L13.0641 64.2605L16.6137 65.5572L17.8973 64.6076L20.6676 62.0141L20.5039 58.0716V58.0847ZM16.0046 61.1038L7.53008 60.3834L6.14167 58.9295L6.91446 58.3401L7.72 57.7245L15.7165 58.1894L17.8515 59.7612L16.0046 61.1038Z" fill="#27287D"/>
<mask id="mask3_5136_28037" style="mask-type:luminance" maskUnits="userSpaceOnUse" x="0" y="54" width="21" height="29">
<path d="M20.5039 58.0847L18.1593 55.524L7.93612 54.5547L3.49582 56.4408L2.21219 57.3905L2.74267 60.3245L4.91698 63.527L9.73713 64.0706L7.94922 72.2897L3.89532 72.9053L2.61169 73.8549L3.44343 75.2303L6.58701 75.4202L6.03688 77.4373L1.74066 77.6141L0.457031 78.5638L1.27567 81.0721L8.02781 82.4867L9.31144 81.5371L13.0641 64.2605L16.6137 65.5572L17.8973 64.6076L20.6676 62.0141L20.5039 58.0716V58.0847ZM16.0046 61.1038L7.53008 60.3834L6.14167 58.9295L6.91446 58.3401L7.72 57.7245L15.7165 58.1894L17.8515 59.7612L16.0046 61.1038Z" fill="white"/>
</mask>
<g mask="url(#mask3_5136_28037)">
<path d="M11.0018 75.4078L9.14844 76.6325L11.4537 64.7196L13.4054 63.6914L11.0018 75.4078Z" fill="black"/>
<path d="M7.77853 60.2461L3.92765 64.0773L1.62891 60.4491L6.79616 58.707L7.77853 60.2461Z" fill="black"/>
</g>
<path d="M45.1805 42.6158L42.2399 44.4757L41.5195 48.0188L43.4188 51.1035L47.1059 51.0249L48.7236 49.5841L51.6707 51.0249L55.6918 50.6319L57.0147 47.0299L59.7195 47.7372L62.6601 46.1392L63.3215 41.974L59.9618 39.1055L56.779 39.4395L55.2727 41.5352L53.5306 39.6098L50.8782 39.315L48.1865 41.2012L47.7281 43.5982" fill="#DEE1FF"/>
<mask id="mask4_5136_28037" style="mask-type:luminance" maskUnits="userSpaceOnUse" x="41" y="39" width="23" height="13">
<path d="M45.1805 42.6158L42.2399 44.4757L41.5195 48.0188L43.4188 51.1035L47.1059 51.0249L48.7236 49.5841L51.6707 51.0249L55.6918 50.6319L57.0147 47.0299L59.7195 47.7372L62.6601 46.1392L63.3215 41.974L59.9618 39.1055L56.779 39.4395L55.2727 41.5352L53.5306 39.6098L50.8782 39.315L48.1865 41.2012L47.7281 43.5982L45.1805 42.6158Z" fill="white"/>
</mask>
<g mask="url(#mask4_5136_28037)">
<path d="M54.9312 37.7695L60.8582 41.9151L60.2229 46.0869L56.4637 45.5237L54.9247 49.3549L52.2657 50.1146L48.7227 49.5841L49.8033 51.6995L58.697 51.8698L63.0194 48.4904L67.5252 45.3207L66.9881 41.5811L65.2461 38.8239L54.9312 37.7695Z" fill="#FA83E5"/>
</g>
<path d="M19.2217 59.0378L16.8771 56.4771L6.6539 55.5078L2.2136 57.394L1.46045 61.2776L3.63476 64.4801L8.45491 65.0237L6.667 73.2428L2.6131 73.8584L2.16121 76.1834L5.30479 76.3733L4.75466 78.3904L0.458438 78.5673L0 82.0317L8.02922 82.4967L11.7819 65.2202L16.6086 65.5673L19.3788 62.9738L19.2151 59.0312L19.2217 59.0378ZM14.7224 62.0504L5.9597 61.3038L4.85945 59.8695L5.63224 59.2801L6.43778 58.6645L15.2463 59.4045L16.5758 60.7013L14.729 62.0438L14.7224 62.0504Z" fill="#434BBE"/>
<mask id="mask5_5136_28037" style="mask-type:luminance" maskUnits="userSpaceOnUse" x="0" y="55" width="20" height="28">
<path d="M19.2217 59.0378L16.8771 56.4771L6.6539 55.5078L2.2136 57.394L1.46045 61.2776L3.63476 64.4801L8.45491 65.0237L6.667 73.2428L2.6131 73.8584L2.16121 76.1834L5.30479 76.3733L4.75466 78.3904L0.458438 78.5673L0 82.0317L8.02922 82.4967L11.7819 65.2202L16.6086 65.5673L19.3788 62.9738L19.2151 59.0312L19.2217 59.0378ZM14.7224 62.0504L5.9597 61.3038L4.85945 59.8695L5.63224 59.2801L6.43778 58.6645L15.2463 59.4045L16.5758 60.7013L14.729 62.0438L14.7224 62.0504Z" fill="white"/>
</mask>
<g mask="url(#mask5_5136_28037)">
<path d="M13.8448 45.8594L-11.6562 71.5391L-6.14948 77.0075L19.3515 51.3279L13.8448 45.8594Z" fill="#6773F1"/>
<path d="M20.0752 60.2969L-5.42578 85.9766L0.0809885 91.445L25.582 65.7654L20.0752 60.2969Z" fill="#5865F0"/>
<path d="M18.1221 34.5313L-7.37891 60.2109L-1.87214 65.6794L23.6289 39.9997L18.1221 34.5313Z" fill="#DEE1FF"/>
</g>
<path d="M57.9544 78.6089L44.9217 69.355L42.7539 63.4673L47.0239 59.3283H51.4053L55.8521 60.828L60.5348 57.1016L65.8854 57.4028L68.23 61.9086L67.2083 67.3116L57.9544 78.6089Z" fill="#802EB4"/>
<mask id="mask6_5136_28037" style="mask-type:luminance" maskUnits="userSpaceOnUse" x="42" y="57" width="27" height="22">
<path d="M57.9544 78.6089L44.9217 69.355L42.7539 63.4673L47.0239 59.3283H51.4053L55.8521 60.828L60.5348 57.1016L65.8854 57.4028L68.23 61.9086L67.2083 67.3116L57.9544 78.6089Z" fill="white"/>
</mask>
<g mask="url(#mask6_5136_28037)">
<path d="M55.8529 60.8273C55.8529 60.8273 57.654 54.8283 57.8242 54.5925C57.9945 54.3567 62.592 52.9421 62.592 52.9421L68.1587 52.4902L71.1713 54.3829L74.4524 57.5134L73.863 65.2872L58.1451 78.3658L64.8711 67.8545L66.5935 62.3074L64.989 58.8232L60.863 58.463L55.8398 60.8273H55.8529Z" fill="#A339E7"/>
</g>
<path d="M1.46875 61.2861L3.64306 64.4886L2.14331 61.2664L2.81787 57.5269L6.01384 56.8458L10.5655 55.8831L6.79973 55.5098L2.21535 57.3959" fill="#DEE1FF"/>
<path d="M6.667 73.2441L2.61965 73.8598L2.16121 76.1847L5.30479 76.3812L4.75466 78.3917L0.464987 78.5686L0 82.0331L0.798992 78.955L5.13451 78.8829L5.83526 76.0472L2.55416 75.8114L2.93401 74.161L6.667 73.2441Z" fill="#434BBE"/>
<path d="M7.36446 39.537L6.19922 49.166L15.8282 50.3313L16.9935 40.7023L7.36446 39.537Z" fill="#838DF4"/>
<path d="M20.4557 38.8438L17.0043 40.7168L15.832 50.344L19.29 47.6261L20.4557 38.8438Z" fill="#6A2792"/>
<path d="M11.6307 37.7695L14.3027 38.097L14.1652 39.1383L14.5516 39.3806L15.1148 39.3151L15.3047 38.2149L20.4523 38.8436L17.0009 40.7166L7.36719 39.5509L11.6307 37.7695Z" fill="#434BBE"/>
<path d="M11.7772 43.5627L10.293 44.7266L11.4568 46.2108L12.9411 45.047L11.7772 43.5627Z" fill="black"/>
<mask id="mask7_5136_28037" style="mask-type:luminance" maskUnits="userSpaceOnUse" x="10" y="43" width="3" height="4">
<path d="M11.7772 43.5627L10.293 44.7266L11.4568 46.2108L12.9411 45.047L11.7772 43.5627Z" fill="white"/>
</mask>
<g mask="url(#mask7_5136_28037)">
<path d="M12.7577 43.6506L11.2734 44.8145L12.4373 46.2987L13.9215 45.1349L12.7577 43.6506Z" fill="#434BBE"/>
</g>
<path d="M18.2526 46.507L17.7483 45.1055L16.9297 46.3498L17.4274 47.7513L18.2526 46.507Z" fill="black"/>
<mask id="mask8_5136_28037" style="mask-type:luminance" maskUnits="userSpaceOnUse" x="16" y="45" width="3" height="3">
<path d="M18.2526 46.507L17.7483 45.1055L16.9297 46.3498L17.4274 47.7513L18.2526 46.507Z" fill="white"/>
</mask>
<g mask="url(#mask8_5136_28037)">
<path d="M17.6432 46.3878L17.1455 44.9863L16.3203 46.2307L16.8246 47.6322L17.6432 46.3878Z" fill="#531F72"/>
</g>
<path d="M19.5394 42.4848L19.1202 41.0898L18.3867 42.3473L18.7993 43.7357L19.5394 42.4848Z" fill="black"/>
<mask id="mask9_5136_28037" style="mask-type:luminance" maskUnits="userSpaceOnUse" x="18" y="41" width="2" height="3">
<path d="M19.5394 42.4848L19.1202 41.0898L18.3867 42.3473L18.7993 43.7357L19.5394 42.4848Z" fill="white"/>
</mask>
<g mask="url(#mask9_5136_28037)">
<path d="M18.9639 42.4848L18.5447 41.0898L17.8047 42.3473L18.2238 43.7357L18.9639 42.4848Z" fill="#531F72"/>
</g>
<path d="M18.1625 55.5293L16.8789 56.4789L19.2235 59.0396L20.5071 58.0835L18.1625 55.5293Z" fill="#531F72"/>
<path d="M12.7578 61.8832L14.978 62.2303L16.5694 60.7109L14.7225 62.0535L12.7578 61.8832Z" fill="#DEE1FF"/>
<path d="M40.1445 48.0634L35.4881 43.1254L33.8836 42.9551L28.9062 44.3369L25.6055 50.3556L27.2231 57.1601L31.814 60.2448L33.6019 59.9173L40.1118 58.1294L40.747 52.1959L39.5092 52.4513L38.2977 53.7873L35.2654 51.0825L35.94 47.6311L38.7299 48.0306L40.1445 48.0634Z" fill="#531F72"/>
<mask id="mask10_5136_28037" style="mask-type:luminance" maskUnits="userSpaceOnUse" x="25" y="42" width="16" height="19">
<path d="M40.1445 48.0634L35.4881 43.1254L33.8836 42.9551L28.9062 44.3369L25.6055 50.3556L27.2231 57.1601L31.814 60.2448L33.6019 59.9173L40.1118 58.1294L40.747 52.1959L39.5092 52.4513L38.2977 53.7873L35.2654 51.0825L35.94 47.6311L38.7299 48.0306L40.1445 48.0634Z" fill="white"/>
</mask>
<g mask="url(#mask10_5136_28037)">
<path d="M39.0237 52.8372L35.2645 51.082L33.6992 51.1868L37.203 54.5596L39.1939 53.5118" fill="black"/>
</g>
<path d="M38.7326 48.0306L33.8863 42.9551L27.3503 44.4417L24.043 50.4669L25.6671 57.2649L31.8168 60.2448L38.5362 57.8347L39.512 52.4513L36.7352 53.8987L33.7029 51.1873L34.3775 47.7425L38.7326 48.0306Z" fill="#B1B7F9"/>
<mask id="mask11_5136_28037" style="mask-type:luminance" maskUnits="userSpaceOnUse" x="24" y="42" width="16" height="19">
<path d="M38.7326 48.0306L33.8863 42.9551L27.3503 44.4417L24.043 50.4669L25.6671 57.2649L31.8168 60.2448L38.5362 57.8347L39.512 52.4513L36.7352 53.8987L33.7029 51.1873L34.3775 47.7425L38.7326 48.0306Z" fill="white"/>
</mask>
<g mask="url(#mask11_5136_28037)">
<path d="M23.9258 50.6044L27.888 45.2997L33.9983 42.9551L26.8139 44.147L23.9258 50.6044Z" fill="#DEE1FF"/>
</g>
<path d="M32.3796 90.9989L32.3076 90.8614L28.5942 83.4281L30.7358 88.7984L23.0078 82.5898" fill="#DEE1FF"/>
<path d="M29.1702 69.5449L25.8236 70.2195L31.8423 72.2366L23.9375 70.2195L29.1702 69.5449Z" fill="#DEE1FF"/>
<path d="M50.3499 60.5859L47.4617 60.8152L44.4688 63.6706L45.3332 65.2031L48.4572 62.8847L51.64 62.4524L50.3499 60.5859Z" fill="#A339E7"/>
<path d="M64.2302 25.6011V29.5567L55.7884 32.9819L41.1773 34.9597H24.3003L9.68917 32.9819L1.25391 29.5567V25.6011L5.18993 18.9668L5.58942 23.4398L12.7018 25.4439L25.3612 27.1597H40.1229L52.9068 25.4308L60.2942 22.4313V18.9668L64.2302 25.6011Z" fill="#434BBE"/>
<mask id="mask12_5136_28037" style="mask-type:luminance" maskUnits="userSpaceOnUse" x="1" y="18" width="64" height="17">
<path d="M64.2302 25.6011V29.5567L55.7884 32.9819L41.1773 34.9597H24.3003L9.68917 32.9819L1.25391 29.5567V25.6011L5.18993 18.9668L5.58942 23.4398L12.7018 25.4439L25.3612 27.1597H40.1229L52.9068 25.4308L60.2942 22.4313V18.9668L64.2302 25.6011Z" fill="white"/>
</mask>
<g mask="url(#mask12_5136_28037)">
<path d="M41.11 35.5495L62.0148 45.7793L52.0274 16.5898L40.1211 27.1601L41.11 35.5495Z" fill="#553CA6"/>
<path d="M1.25391 23.99V29.5567L5.18993 22.4313V18.9668L1.25391 23.99Z" fill="#B1B7F9"/>
<path d="M1.25391 29.5571L9.68917 32.9823L12.8589 25.4639L5.18993 22.4316L1.25391 29.5571Z" fill="#838DF4"/>
<path d="M9.6875 32.9814L24.2986 34.9592L25.3595 27.1592L12.7001 25.4434L9.6875 32.9814Z" fill="#5865F0"/>
<path d="M55.7879 32.9823L64.2297 29.5571L60.2937 22.4316L52.9062 25.4311L55.7879 32.9823Z" fill="#531F72"/>
<path d="M64.229 29.5567V25.6011L60.293 18.9668V22.4313L64.229 29.5567Z" fill="#471C61"/>
<path d="M64.2306 29.5571L93.217 33.0806L54.7344 3.14453L60.3666 22.5037L64.2306 29.5571Z" fill="#A339E7"/>
</g>
<path d="M48.8397 17.3159L38.6296 16.0781H26.8477L16.6442 17.3159L10.75 19.4575V21.9396L15.0921 23.5179L16.6442 22.9547L26.8477 21.7169H38.6296L48.8397 22.9547L50.3853 23.5179L54.7339 21.9396V19.4575L48.8397 17.3159Z" fill="#20206D"/>
<mask id="mask13_5136_28037" style="mask-type:luminance" maskUnits="userSpaceOnUse" x="10" y="16" width="45" height="8">
<path d="M48.8397 17.3159L38.6296 16.0781H26.8477L16.6442 17.3159L10.75 19.4575V21.9396L15.0921 23.5179L16.6442 22.9547L26.8477 21.7169H38.6296L48.8397 22.9547L50.3853 23.5179L54.7339 21.9396V19.4575L48.8397 17.3159Z" fill="white"/>
</mask>
<g mask="url(#mask13_5136_28037)">
<path d="M17.1019 7.91797H2.28125V31.0626H17.1019V7.91797Z" fill="black"/>
<path d="M26.848 21.7175L16.8672 30.5391V7.39453L26.848 16.0787V21.7175Z" fill="#19175C"/>
<path d="M48.8921 7.45312H38.5117V30.5977H48.8921V7.45312Z" fill="#19175C"/>
</g>
<path d="M30.8438 27.1602L39.1546 28.3324L41.1783 34.9602L40.1239 27.1602H30.8438Z" fill="#5865F0"/>
<path d="M1.25391 29.5571L5.58942 23.4402L12.7018 25.4442L5.18993 22.4316" fill="#DEE1FF"/>
<path d="M52.9095 15.9653L40.1257 14.2363H25.364L12.5801 15.9653L5.19922 18.9648V23.3265L12.7111 25.4419L25.364 27.1577H40.1257L52.9095 25.4288L60.2904 22.4293V18.9648L52.9095 15.9653ZM54.7302 21.9315L48.836 24.0731L38.6325 25.3109H26.8506L16.6471 24.0731L10.7529 21.9315V19.456L16.6471 17.3144L26.8506 16.0766H38.6325L48.836 17.3144L54.7302 19.456V21.9315Z" fill="#929BF6"/>
<mask id="mask14_5136_28037" style="mask-type:luminance" maskUnits="userSpaceOnUse" x="5" y="14" width="56" height="14">
<path d="M52.9095 15.9653L40.1257 14.2363H25.364L12.5801 15.9653L5.19922 18.9648V23.3265L12.7111 25.4419L25.364 27.1577H40.1257L52.9095 25.4288L60.2904 22.4293V18.9648L52.9095 15.9653ZM54.7302 21.9315L48.836 24.0731L38.6325 25.3109H26.8506L16.6471 24.0731L10.7529 21.9315V19.456L16.6471 17.3144L26.8506 16.0766H38.6325L48.836 17.3144L54.7302 19.456V21.9315Z" fill="white"/>
</mask>
<g mask="url(#mask14_5136_28037)">
<path d="M33.9403 -26.7559L15.8945 3.27734L69.3874 35.4191L87.4332 5.38585L33.9403 -26.7559Z" fill="#434BBE"/>
<path d="M5.19194 18.9654L12.468 16.0117L6.18741 19.2994L6.35768 22.7049L12.9264 24.8465L25.3632 27.1583L12.5728 25.4293L4 24.4994L5.19194 18.9654Z" fill="#DEE1FF"/>
<path d="M50.0668 23.6366L55.4895 22.1237L55.3127 19.2421L48.9076 17.0089L41.1797 16.3867L48.8422 17.3167L54.7298 19.4583V21.9338L50.0668 23.6366Z" fill="#4A56CC"/>
</g>
<path d="M34.5399 3.5293L50.7359 15.8023L47.7823 16.0119L33.2891 3.5293H34.5399Z" fill="#434BBE"/>
<path d="M30.8511 3.5293L14.1836 15.8023L16.9146 16.2215L32.102 3.5293H30.8511Z" fill="#929BF6"/>
<path d="M33.0439 3.25586L48.3754 24.9465L44.6948 25.4639L32.4414 3.25586H33.0439Z" fill="#929BF6"/>
<path d="M32.5966 3.25586L16.6953 25.3198L20.6903 25.7586L33.2056 3.25586H32.5966Z" fill="#929BF6"/>
<mask id="mask15_5136_28037" style="mask-type:luminance" maskUnits="userSpaceOnUse" x="16" y="3" width="18" height="23">
<path d="M32.5966 3.25586L16.6953 25.3198L20.6903 25.7586L33.2056 3.25586H32.5966Z" fill="white"/>
</mask>
<g mask="url(#mask15_5136_28037)">
<path d="M17.332 24.1681L18.5436 24.3121L30.5613 6.08594L17.332 24.1681Z" fill="#DEE1FF"/>
</g>
<path d="M33.8586 0H31.6319L29.8244 1.30982L29.1367 3.43174L29.8244 5.5471L31.6319 6.85693H33.8586L35.6596 5.5471L36.3473 3.43174L35.6596 1.30982L33.8586 0Z" fill="#929BF6"/>
<mask id="mask16_5136_28037" style="mask-type:luminance" maskUnits="userSpaceOnUse" x="29" y="0" width="8" height="7">
<path d="M33.8586 0H31.6319L29.8244 1.30982L29.1367 3.43174L29.8244 5.5471L31.6319 6.85693H33.8586L35.6596 5.5471L36.3473 3.43174L35.6596 1.30982L33.8586 0Z" fill="white"/>
</mask>
<g mask="url(#mask16_5136_28037)">
<path d="M37.0854 6.14376C37.5177 5.94729 38.1726 3.01328 38.1726 3.01328L37.2426 0.6687L33.8633 -0.00585938L35.1207 1.46769L35.4875 4.3624L34.5182 7.07374L37.092 6.14376H37.0854Z" fill="#434BBE"/>
</g>
<path d="M31.6023 0.503906L30.2859 1.60416L29.7227 2.99912L30.0829 4.49887L31.0849 2.40315L32.7876 0.746224L31.6023 0.503906Z" fill="#DEE1FF"/>
</svg>
