<svg width="25" height="25" viewBox="0 0 25 25" fill="none" xmlns="http://www.w3.org/2000/svg">
<path d="M18.5417 6.47111C17.4299 5.7336 16.6274 4.55346 16.377 3.17786C16.3229 2.8806 16.2933 2.57463 16.2933 2.26172H12.7448L12.7392 16.7309C12.6794 18.3513 11.3688 19.6516 9.762 19.6516C9.26252 19.6516 8.79224 19.5245 8.37841 19.3029C7.42891 18.7945 6.77916 17.7819 6.77916 16.6166C6.77916 14.9432 8.11739 13.5816 9.762 13.5816C10.069 13.5816 10.3635 13.6331 10.6422 13.722V10.0363C10.3539 9.99626 10.061 9.9713 9.762 9.9713C6.16056 9.9713 3.23047 12.9524 3.23047 16.6166C3.23047 18.8648 4.33453 20.8543 6.01885 22.0574C7.0797 22.8151 8.37024 23.2617 9.762 23.2617C13.3634 23.2617 16.2935 20.2808 16.2935 16.6164V9.27935C17.6853 10.2957 19.3904 10.8946 21.2305 10.8946V7.28427C20.2393 7.28427 19.3163 6.98443 18.5419 6.47091L18.5417 6.47111Z" fill="white"/>
</svg>