<svg width="122" height="91" viewBox="0 0 122 91" fill="none" xmlns="http://www.w3.org/2000/svg">
<path d="M31.6027 81.6313L19.9992 74.6016L0 79.334L11.6104 86.3637L31.6027 81.6313Z" fill="black"/>
<path d="M19.2734 60.9074L32.5188 57.7754V72.8213L45.7573 69.6824V84.7215L19.2734 90.9993V60.9074Z" fill="#68BBFF"/>
<mask id="mask0_5136_28034" style="mask-type:luminance" maskUnits="userSpaceOnUse" x="19" y="57" width="27" height="34">
<path d="M19.2734 60.9074L32.5188 57.7754V72.8213L45.7573 69.6824V84.7215L19.2734 90.9993V60.9074Z" fill="white"/>
</mask>
<g mask="url(#mask0_5136_28034)">
<path d="M-68.2354 120.794L70.5033 -17.9448L117.945 -30.0312L-69.9531 157.867L-68.2354 120.794Z" fill="#BBE0FF"/>
<path d="M-11.4667 129.582L58.8719 59.2432L82.9274 53.1172L-12.3359 148.381L-11.4667 129.582Z" fill="#4292F3"/>
<path d="M18.5859 91.8686V60.3625L33.2111 56.9062V71.9522L46.4565 68.8133V85.2735L18.5859 91.8755V91.8686ZM19.9657 61.4525V90.1232L45.0767 84.1766V70.5518L31.8313 73.6906V58.6447L19.9657 61.4525Z" fill="#68BBFF"/>
<path d="M19.2734 90.9985L19.9633 90.1224L45.0675 84.1758L45.7573 84.7208L19.2734 90.9985Z" fill="#55A7F9"/>
</g>
<path d="M32.6574 57.7416L24.9999 53.0781L11.582 56.2515L19.274 60.9081L32.6574 57.7416Z" fill="#471C61"/>
<path d="M32.5194 32.6507L24.8274 27.9941L11.582 31.1468L19.274 35.8034L32.5194 32.6507Z" fill="#3B1850"/>
<path d="M45.7586 14.5062L38.0735 9.84961L24.8281 12.9816L32.5201 17.6382L45.7586 14.5062Z" fill="#BB3D99"/>
<mask id="mask1_5136_28034" style="mask-type:luminance" maskUnits="userSpaceOnUse" x="24" y="9" width="22" height="9">
<path d="M45.7586 14.5062L38.0735 9.84961L24.8281 12.9816L32.5201 17.6382L45.7586 14.5062Z" fill="white"/>
</mask>
<g mask="url(#mask1_5136_28034)">
<path d="M38.0729 9.84961L43.6332 14.1406L32.5195 17.6382L46.5514 14.6028L38.0729 9.84961Z" fill="white"/>
</g>
<path d="M45.7586 54.6449L38.0735 49.9883L24.8281 53.1272L32.5201 57.7769L45.7586 54.6449Z" fill="#3B1850"/>
<path d="M11.582 56.25V86.3419L19.274 90.9985V60.9066L11.582 56.25Z" fill="#531F72"/>
<mask id="mask2_5136_28034" style="mask-type:luminance" maskUnits="userSpaceOnUse" x="11" y="56" width="9" height="35">
<path d="M11.582 56.25V86.3419L19.274 90.9985V60.9066L11.582 56.25Z" fill="white"/>
</mask>
<g mask="url(#mask2_5136_28034)">
<path d="M-1.91093 64.7695L28.243 82.5542V101.049L-7.51953 78.9807L-1.91093 64.7695Z" fill="#531F72"/>
<path d="M-0.207809 59.0312L29.9462 76.8091V95.3112L-5.81641 73.2356L-0.207809 59.0312Z" fill="black"/>
<path d="M7.99738 60.0039L20.3115 67.2613V76.4779L5.70703 67.4613L7.99738 60.0039Z" fill="#3B1850"/>
<path d="M9.73957 48.9238L22.0467 56.1881V63.7421L7.44922 54.7256L9.73957 48.9238Z" fill="#6A2792"/>
</g>
<path d="M32.5195 57.7767L59.0034 51.5059V81.5908L45.758 84.7228V69.6838L32.5195 72.8227V57.7767Z" fill="#A339E7"/>
<mask id="mask3_5136_28034" style="mask-type:luminance" maskUnits="userSpaceOnUse" x="32" y="51" width="28" height="34">
<path d="M32.5195 57.7767L59.0034 51.5059V81.5908L45.758 84.7228V69.6838L32.5195 72.8227V57.7767Z" fill="white"/>
</mask>
<g mask="url(#mask3_5136_28034)">
<path d="M-2.81494 91.6554L79.6031 9.23734L107.784 -0.972656L-3.83594 110.647L-2.81494 91.6554Z" fill="#AF58EC"/>
<path d="M14.8657 113.179L97.2837 30.7539L125.472 20.5508L13.8516 132.171L14.8657 113.179Z" fill="#802EB4"/>
<path d="M45.0696 85.5981V70.5522L31.8242 73.6911V57.2309L59.6947 50.6289V82.135L45.0696 85.5981ZM46.4493 68.8137V83.8597L58.315 81.0519V52.3812L33.2039 58.3278V71.9526L46.4493 68.8137Z" fill="#B567EF"/>
<path d="M32.5195 57.7767L33.2094 58.3217L58.3136 52.3751L59.0034 51.5059L32.5195 57.7767Z" fill="#D9C3FF"/>
<path d="M32.5195 57.7754L33.2094 58.3204V71.9452L46.4479 68.8063V83.8523L58.3136 81.0445L59.0034 81.5895L45.758 84.7215V69.6824L32.5195 72.8213V57.7754Z" fill="#6A2792"/>
<path d="M45.7578 84.7219L46.4477 83.8527L58.3133 81.0449L59.0032 81.5899L45.7578 84.7219Z" fill="#531F72"/>
</g>
<path d="M45.7578 54.6438V24.5519L59.0032 21.4199V51.5049L45.7578 54.6438Z" fill="#5865F0"/>
<mask id="mask4_5136_28034" style="mask-type:luminance" maskUnits="userSpaceOnUse" x="45" y="21" width="15" height="34">
<path d="M45.7578 54.6438V24.5519L59.0032 21.4199V51.5049L45.7578 54.6438Z" fill="white"/>
</mask>
<g mask="url(#mask4_5136_28034)">
<path d="M18.4244 51.2161L67.3772 2.26336L84.1202 -2L17.8242 64.296L18.4244 51.2161Z" fill="#7680F3"/>
<path d="M13.2799 89.5736L62.2326 40.6208L78.9757 36.3574L12.6797 102.653L13.2799 89.5736Z" fill="#0A55E0"/>
<path d="M45.0703 55.52V24.0139L59.6954 20.5508V52.0569L45.0703 55.5269V55.52ZM46.45 25.097V53.7677L58.3157 50.9531V22.2823L46.45 25.0901V25.097Z" fill="#8390F2"/>
<path d="M45.7578 24.5527L46.4477 25.0977L46.4684 53.7064L45.7578 54.6446V24.5527Z" fill="#4A54CF"/>
<path d="M45.7578 24.5519L46.4339 25.1107L58.3133 22.2892L59.0032 21.4199L45.7578 24.5519Z" fill="#B1B7F9"/>
</g>
<path d="M38.0742 49.9873V19.9023L45.7593 24.552V54.6439L38.0742 49.9873Z" fill="black"/>
<path d="M19.274 35.8031L11.582 31.1465V46.2062L19.274 50.8559V35.8031Z" fill="#531F72"/>
<mask id="mask5_5136_28034" style="mask-type:luminance" maskUnits="userSpaceOnUse" x="11" y="31" width="9" height="20">
<path d="M19.274 35.8031L11.582 31.1465V46.2062L19.274 50.8559V35.8031Z" fill="white"/>
</mask>
<g mask="url(#mask5_5136_28034)">
<path d="M-1.18461 26.6426L28.9694 44.4273L28.6658 67.6274L-7.08984 45.5587L-1.18461 26.6426Z" fill="#3B1850"/>
<path d="M2.3556 34.3828L32.5165 52.1606V70.6628L-3.24609 48.5871L2.3556 34.3828Z" fill="black"/>
</g>
<path d="M32.5201 17.6262L24.8281 12.9766V28.0294L32.5201 32.6791V17.6262Z" fill="black"/>
<path d="M38.0703 19.9026L51.3157 16.7637L59.0008 21.4203L45.7554 24.5522L38.0703 19.9026Z" fill="#B1B7F9"/>
<mask id="mask6_5136_28034" style="mask-type:luminance" maskUnits="userSpaceOnUse" x="38" y="16" width="21" height="9">
<path d="M38.0703 19.9026L51.3157 16.7637L59.0008 21.4203L45.7554 24.5522L38.0703 19.9026Z" fill="white"/>
</mask>
<g mask="url(#mask6_5136_28034)">
<path d="M51.3181 16.7637L56.8784 21.0546L45.7578 24.5522L60.0035 21.6548L51.3181 16.7637Z" fill="white"/>
</g>
<path d="M45.7573 14.5078V44.5859L19.2734 50.8568V35.8039L32.5188 32.6719V17.6467L45.7573 14.5078Z" fill="#FF4CD0"/>
<mask id="mask7_5136_28034" style="mask-type:luminance" maskUnits="userSpaceOnUse" x="19" y="14" width="27" height="37">
<path d="M45.7573 14.5078V44.5859L19.2734 50.8568V35.8039L32.5188 32.6719V17.6467L45.7573 14.5078Z" fill="white"/>
</mask>
<g mask="url(#mask7_5136_28034)">
<path d="M23.9313 53.7204L72.8841 4.76758L89.6202 19.5928L23.3242 85.8887L23.9313 53.7204Z" fill="#E747BE"/>
<path d="M-10.4945 45.0973L38.4583 -3.85547L55.1944 10.9697L-11.1016 77.2657L-10.4945 45.0973Z" fill="#FC67DA"/>
<path d="M18.582 51.7261V35.259L31.8274 31.9891V17.0949L46.4526 13.6387V45.131L18.582 51.733V51.7261ZM19.9618 36.3421V49.9876L45.0728 44.041V15.3771L33.2072 18.1849V33.0722L19.9618 36.3421Z" fill="#FF85EE"/>
</g>
<path d="M11.582 46.2072L11.6027 45.8278L12.603 31.7684L24.8274 28.0293L11.582 31.1475" fill="#D142AB"/>
<path d="M11.582 86.3441L12.5478 56.8386L38.0728 49.9883L11.582 56.2523V86.3441Z" fill="#D142AB"/>
<path d="M19.2734 91.0005L19.9633 90.1244L45.0675 84.1777L45.7573 84.7227L19.2734 91.0005Z" fill="#307EEC"/>
<path d="M19.9633 90.124V61.4532L19.2734 60.9082V91.0001L19.9633 90.124Z" fill="#55A7F9"/>
<path d="M19.2734 60.9074L19.9633 61.4524L31.829 58.6446L32.5188 57.7754L19.2734 60.9074Z" fill="#BBE0FF"/>
<path d="M32.5219 72.8225L31.832 73.6917L45.0705 70.5528L45.7604 69.6836L32.5219 72.8225Z" fill="#BBE0FF"/>
<path d="M58.3133 50.9609L59.0032 51.5059L45.7578 54.6448L46.4684 53.7066L58.3133 50.9609Z" fill="#434BBE"/>
<path d="M45.758 14.5078L45.0682 15.377L33.2094 18.1848L32.5195 17.6398L45.758 14.5078Z" fill="#F4B9FA"/>
<path d="M32.5195 17.6406L33.2094 18.1856V33.0729L32.5195 32.6728V17.6406Z" fill="#FF4CD0"/>
<path d="M32.5188 32.6719L33.2087 33.072L19.9633 36.342L19.2734 35.8039L32.5188 32.6719Z" fill="#F4B9FA"/>
<path d="M19.2734 35.8047L19.9633 36.3428V49.9883L19.2734 50.8575V35.8047Z" fill="#FF4CD0"/>
<path d="M19.9633 49.9876L19.2734 50.8569L45.7573 44.586L45.0675 44.041L19.9633 49.9876Z" fill="#BB3D99"/>
<path d="M32.5194 4.65658L24.8274 0L11.582 3.13888L19.274 7.78857L32.5194 4.65658Z" fill="#A6FBD4"/>
<path d="M19.274 7.79526L11.582 3.13867V18.1984L19.274 22.8481V7.79526Z" fill="#531F72"/>
<mask id="mask8_5136_28034" style="mask-type:luminance" maskUnits="userSpaceOnUse" x="11" y="3" width="9" height="20">
<path d="M19.274 7.79526L11.582 3.13867V18.1984L19.274 22.8481V7.79526Z" fill="white"/>
</mask>
<g mask="url(#mask8_5136_28034)">
<path d="M1.44545 3.62891L31.5994 21.4136V39.9089L-4.15625 17.8332L1.44545 3.62891Z" fill="black"/>
<path d="M1.44545 -1.14453L31.5994 16.6333V22.0694L-4.15625 0.000643492L1.44545 -1.14453Z" fill="#3B1850"/>
</g>
<path d="M32.5188 4.62305L19.2734 7.78263V22.8148L32.5188 19.6552V4.62305Z" fill="#35EB7E"/>
<mask id="mask9_5136_28034" style="mask-type:luminance" maskUnits="userSpaceOnUse" x="19" y="4" width="14" height="19">
<path d="M32.5188 4.62305L19.2734 7.78263V22.8148L32.5188 19.6552V4.62305Z" fill="white"/>
</mask>
<g mask="url(#mask9_5136_28034)">
<path d="M18.7661 23.4302L39.6689 2.52734L46.8159 8.8603L18.5039 37.1654L18.7661 23.4302Z" fill="#29BF69"/>
<path d="M15.2704 7.85315L36.1733 -13.0566L40.0503 -6.42015L11.7383 21.885L15.2704 7.85315Z" fill="#C6FFED"/>
<path d="M18.582 23.692V7.23876L33.2141 3.74805V20.1944L18.582 23.6851V23.692ZM19.9618 8.32875V21.9398L31.8343 19.1113V5.5003L19.9618 8.32875Z" fill="#65F2A3"/>
<path d="M19.2734 7.79148L19.9633 8.32957L31.829 5.50113L32.5188 4.625L19.2734 7.79148Z" fill="#A6FBD4"/>
</g>
<path d="M24.8268 0L30.3941 4.29096L19.2734 7.78857L32.5188 4.62209L24.8268 0Z" fill="white"/>
<path d="M11.582 18.1984L12.5478 3.72506L11.582 3.13867" fill="#D142AB"/>
<path d="M19.9633 8.32716L19.2734 7.78906V22.8143L19.9633 21.9382V8.32716Z" fill="#29BF69"/>
<path d="M19.9633 21.9378L19.2734 22.8139L32.5188 19.6544L31.829 19.1094L19.9633 21.9378Z" fill="#1D9454"/>
</svg>
