<svg width="122" height="91" viewBox="0 0 122 91" fill="none" xmlns="http://www.w3.org/2000/svg">
<path d="M28.2056 13.397L30.8444 7.71539L27.7613 5.85742L26.5226 8.42896L23.8636 7.36534L23.0625 11.0005L28.2056 13.397Z" fill="#FF4CD0"/>
<path d="M51.4777 13.3962L49.6602 4.81321L51.269 1.21845L54.0627 0L56.54 1.96568L57.2132 4.43623L60.3704 3.21778L63.7767 4.34872L64.3758 8.46856L60.9359 11.0872L51.4777 13.3962Z" fill="#FF4CD0"/>
<path d="M0 67.8573C0.316393 69.0959 4.08618 70.9135 4.08618 70.9135L10.3804 70.5971L11.996 63.4076L32.6289 45.5011C32.6289 45.5011 33.0732 41.2331 32.0769 41.462C8.02426 47.0224 3.46013 58.4934 0 67.8573Z" fill="#AF58EC"/>
<mask id="mask0_5136_28036" style="mask-type:luminance" maskUnits="userSpaceOnUse" x="0" y="41" width="33" height="30">
<path d="M0 67.8573C0.316393 69.0959 4.08618 70.9135 4.08618 70.9135L10.3804 70.5971L11.996 63.4076L32.6289 45.5011C32.6289 45.5011 33.0732 41.2331 32.0769 41.462C8.02426 47.0224 3.46013 58.4934 0 67.8573Z" fill="white"/>
</mask>
<g mask="url(#mask0_5136_28036)">
<path d="M32.0782 42.2969C32.0782 42.2969 23.8856 45.9455 21.065 47.5746C18.3992 49.1094 12.3406 52.9129 10.8664 55.6123C8.11983 60.6409 3.68359 72.1724 3.68359 72.1724L12.2733 73.1284L15.8344 57.4837L23.9933 48.9344L32.6302 43.6163L32.0782 42.3036" fill="#8B32C5"/>
<path d="M21.1719 37.8008C21.1719 37.8008 12.9794 41.4494 10.1588 43.0785C7.49298 44.6133 1.43439 48.4168 -0.0398626 51.1162C-2.78642 56.1448 -7.22266 67.6764 -7.22266 67.6764L1.1382 69.1708C1.1382 69.1708 3.95881 57.9018 10.7579 51.85C18.9235 44.5864 30.8859 42.4794 30.8859 42.4794L21.7239 39.1135L21.1719 37.8008Z" fill="#CDA4FA"/>
<path d="M26.3829 42.1971L24.875 47.8181C24.875 47.8181 26.154 48.2019 26.0867 47.771C26.0194 47.3402 27.6216 41.7461 27.6216 41.7461L26.3896 42.1971H26.3829Z" fill="black"/>
<path d="M19.0252 44.3436C19.0252 44.3436 18.3117 46.3968 18.2645 47.871C18.2107 49.8098 18.379 52.1322 18.379 52.1322C18.379 52.1322 19.5099 52.691 19.4426 52.2534C19.4089 52.0312 19.1868 49.5741 19.3012 47.6691C19.4022 46.0198 20.0956 43.9531 20.0956 43.9531L19.0185 44.3436H19.0252Z" fill="black"/>
<path d="M10.3822 47.9258C10.3822 47.9258 9.84368 51.9514 10.6986 55.0143C11.0083 56.1318 12.6441 59.1409 12.6441 59.1409C12.6441 59.1409 13.775 59.6996 13.7077 59.2621C13.6741 59.0399 11.9507 55.6404 11.6411 54.3412C11.0756 51.9985 11.2035 48.4172 11.2035 48.4172L10.3822 47.9258Z" fill="black"/>
<path d="M4.05957 55.1152C4.05957 55.1152 3.94513 60.4333 6.19354 63.6511C8.43522 66.8622 9.58635 67.9056 9.58635 67.9056C9.58635 67.9056 10.5086 67.8046 10.4413 67.3738C10.4076 67.1516 8.13902 65.085 6.79267 62.7221C5.31841 60.1371 4.88085 55.6067 4.88085 55.6067L4.05957 55.1152Z" fill="black"/>
</g>
<path d="M70.8328 87.985L67.5611 89.7622L58.6752 91.0009H21.5091L12.6299 89.7622L9.35156 87.985L11.1086 86.3021L18.4529 84.6191H61.7314L69.0758 86.3021L70.8328 87.985Z" fill="black"/>
<path d="M71.9979 72.3338L69.6014 78.0558L60.2712 85.3664L52.6239 87.3658H28.9752L18.339 84.3836L10.584 78.0558L8.1875 72.3338L11.7823 56.366L15.5049 51.8423L33.5999 40.405L32.3074 32.9529L40.0961 30.2266L47.878 32.9529L46.5855 40.405L64.6805 51.8423L68.4031 56.366" fill="#A2A9F7"/>
<mask id="mask1_5136_28036" style="mask-type:luminance" maskUnits="userSpaceOnUse" x="8" y="30" width="64" height="58">
<path d="M71.9979 72.3338L69.6014 78.0558L60.2712 85.3664L52.6239 87.3658H28.9752L18.339 84.3836L10.584 78.0558L8.1875 72.3338L11.7823 56.366L15.5049 51.8423L33.5999 40.405L32.3074 32.9529L40.0961 30.2266L47.878 32.9529L46.5855 40.405L64.6805 51.8423L68.4031 56.366L71.9979 72.3338Z" fill="white"/>
</mask>
<g mask="url(#mask1_5136_28036)">
<path d="M60.7495 43.7568L68.5853 49.1624L57.4712 56.6952L47.9727 51.8349L60.487 42.9961" fill="white"/>
<path d="M22.4175 43.7431L30.2466 49.1487L19.1391 56.6816L9.64062 51.8212L22.155 42.9824" fill="white"/>
</g>
<path d="M45.3933 36.9249L43.8113 41.4756L36.0833 41.2669L33.5117 34.2793L45.3933 36.9249Z" fill="#3C42AD"/>
<path d="M43.0687 37.0596L42.1464 41.4218L37.4477 41.3478L35.832 34.791L43.0687 37.0596Z" fill="black"/>
<path d="M48.3734 44.5255L45.6537 46.0603L40.0933 46.8412L34.5261 46.0603L31.0323 44.0879L18.1208 52.7786L14.1289 57.5649L13.4961 61.2875L66.7847 61.402L65.9231 56.8244L63.19 53.196L48.3734 44.5255Z" fill="#5865F0"/>
<mask id="mask2_5136_28036" style="mask-type:luminance" maskUnits="userSpaceOnUse" x="13" y="44" width="54" height="18">
<path d="M48.3734 44.5255L45.6537 46.0603L40.0933 46.8412L34.5261 46.0603L31.0323 44.0879L18.1208 52.7786L14.1289 57.5649L13.4961 61.2875L66.7847 61.402L65.9231 56.8244L63.19 53.196L48.3734 44.5255Z" fill="white"/>
</mask>
<g mask="url(#mask2_5136_28036)">
<path d="M39.4748 46.4107L48.3742 44.5258L50.0571 45.5356L58.1689 42.4727L58.4314 44.3912L61.905 45.7914L58.5122 50.4565L65.0757 52.7453L67.9299 54.334L70.8313 63.3546L59.5624 60.2512L12.6016 65.2866L14.1297 57.5653L18.1216 52.779L31.0331 44.0883L39.4748 46.4107Z" fill="black"/>
<path d="M31.7055 42.1562L32.3316 43.6776L34.4723 44.7884L29.76 50.0257L28.0434 51.7557L23.5534 54.1859L22.2272 57.5653L16.108 59.5309L13.4961 61.2879L14.1289 57.5653L18.1208 52.779L31.7055 42.1562Z" fill="#5865F0"/>
<path d="M33.5092 45.5078L34.9565 45.9454L31.1329 50.0518L27.0601 53.7946L26.3802 58.4934L18.2617 59.8397L21.6478 53.9158L33.5092 45.5078Z" fill="#3C42AD"/>
<path d="M50.9057 44.6466L48.59 44.0879L46.0117 45.4342L50.7643 50.6783L52.8377 52.7584L58.2501 55.6867L59.8455 59.7594L67.2168 62.1223L70.3605 64.2495L69.6066 59.7594L64.8001 53.9903L50.9057 44.6466Z" fill="#5865F0"/>
<path d="M45.6353 43.954L41.7578 42.998L48.2876 49.6356L54.2385 55.6403L55.5512 60.9719L62.0945 61.4027L59.5431 55.4047L49.9504 48.0334L45.6353 43.954Z" fill="#3C42AD"/>
<path d="M30.2734 44.2973L31.1351 47.1919L33.5114 48.5787L39.8595 49.3596L47.0625 47.9997L49.3849 45.1118L47.5943 42.998L30.6841 43.099L30.2734 44.2973Z" fill="black"/>
</g>
<path d="M11.0742 72.0781L12.8043 76.2182L19.0985 81.8257L28.9067 84.6194L52.3669 84.4848L59.6102 82.1623L67.3787 76.2182L69.1088 72.0781L66.7863 61.4015L13.4977 61.2871L11.0742 72.0781Z" fill="#FF4CD0"/>
<mask id="mask3_5136_28036" style="mask-type:luminance" maskUnits="userSpaceOnUse" x="11" y="61" width="59" height="24">
<path d="M11.0742 72.0781L12.8043 76.2182L19.0985 81.8257L28.9067 84.6194L52.3669 84.4848L59.6102 82.1623L67.3787 76.2182L69.1088 72.0781L66.7863 61.4015L13.4977 61.2871L11.0742 72.0781Z" fill="white"/>
</mask>
<g mask="url(#mask3_5136_28036)">
<path d="M32.0845 69.9859L32.8586 75.0482L37.2343 80.2653L52.6365 85.1997L29.3716 85.8661L18.7354 83.7725L12.8047 76.2195L14.9925 67.3066L23.8313 69.9859H32.0845Z" fill="#D142AB"/>
</g>
<path d="M13.4961 61.2871L14.9905 67.3053L23.8294 69.9846H32.0825L39.4942 68.1266L52.6346 66.2282L62.6447 65.8041L66.7847 61.4016L61.3186 59.6715L54.5195 59.1801L46.5154 59.5301H42.8264L30.9718 57.5645H22.2272L16.108 59.5301L13.4961 61.2871Z" fill="#F3C7FF"/>
<path d="M42.2687 17.6384L40.5454 17.4297L39.125 17.7461L40.3569 18.4395C40.3569 18.4395 42.2485 18.5876 42.3024 18.5539C42.3562 18.5202 43.0698 17.948 43.0698 17.948L42.262 17.6384H42.2687Z" fill="#3B1850"/>
<path d="M24.0169 58.7969L25.1479 59.5306L20.954 61.9204L23.4447 64.916L27.1674 65.7777L30.2708 67.9117H25.3094L18.2344 66.1614L15.8984 62.1897L19.2239 60.4731L24.0169 58.7969Z" fill="white"/>
<path d="M26.3828 58.4941L28.3283 60.5339L30.2738 60.2915L31.4182 58.9721L26.3828 58.4941Z" fill="white"/>
<path d="M46.2812 50.9882L47.2776 49.7967L50.7915 49.0898L56.904 54.381L54.5142 55.8283L46.2812 50.9882Z" fill="white"/>
<path d="M49.1211 25.8982L53.1736 27.433L49.8616 24.3027L49.1211 25.8982Z" fill="#1A1A1A"/>
<path d="M53.8013 29.8502L51.5731 34.8789L43.771 37.41H36.4535L28.5572 35.1279L26.3828 29.8502L27.1637 26.168L30.3613 24.3033L49.6949 24.1484L52.9531 26.168L53.8013 29.8502Z" fill="#A2A9F7"/>
<mask id="mask4_5136_28036" style="mask-type:luminance" maskUnits="userSpaceOnUse" x="26" y="24" width="28" height="14">
<path d="M53.8013 29.8502L51.5731 34.8789L43.771 37.41H36.4535L28.5572 35.1279L26.3828 29.8502L27.1637 26.168L30.3613 24.3033L49.6949 24.1484L52.9531 26.168L53.8013 29.8502Z" fill="white"/>
</mask>
<g mask="url(#mask4_5136_28036)">
<path d="M43.9441 27.9297L46.354 32.6823L34.082 32.2582L36.6738 29.8011" fill="#A2A9F7"/>
<path d="M36.6757 29.8018L34.2051 32.2926L26.3828 29.8624L30.7585 27.5332" fill="#2E318C"/>
<path d="M46.862 26.1738L53.8024 29.8494L46.2696 32.3805L43.4961 28.9406" fill="white"/>
<path d="M36.4515 37.4091L34.2031 32.293L46.2664 32.3805L43.769 37.4091H36.4515Z" fill="#5865F0"/>
<path d="M43.7695 37.4094L46.267 32.3808L53.7999 29.8496L51.5716 34.8782" fill="#A2A9F7"/>
<path d="M36.4535 37.4094L34.2051 32.2932L26.3828 29.8496L28.4225 35.7197" fill="black"/>
<path d="M44.25 28.4617L47.4812 28.778L49.9518 27.8087V26.4017L48.6324 25.668L44.25 28.4617Z" fill="black"/>
<path d="M36.4584 28.1863L32.5068 28.2065L30.6085 27.6141L30.3594 26.1263L31.773 25.3926L36.4584 28.1863Z" fill="black"/>
</g>
<path d="M32.5062 28.2072C32.5937 27.6754 28.9922 17.4297 28.9922 17.4297L36.7674 21.287L44.381 21.9198L53.1727 18.7962L47.4709 28.7727L42.7923 30.22L36.6731 29.7959L32.5062 28.2005V28.2072Z" fill="#FF4CD0"/>
<path d="M28.9922 17.43L35.9663 14.5488H40.1131H43.9098L43.3847 15.3768L45.1888 14.8585L47.3228 14.9931L53.1727 18.7966L46.6631 21.5229L44.381 21.9201L36.7674 21.2873L28.9922 17.43Z" fill="#F3C7FF"/>
<path d="M36.8383 15.9013L33.2031 17.4833L38.5212 19.9875L45.354 20.4722L48.8747 18.5738L46.2897 16.3456L40.1974 15.5176L36.8383 15.9013Z" fill="#3B1850"/>
<path d="M44.1083 17.1468L40.0289 16.6621L36.6562 17.4161L39.5846 19.0586C39.5846 19.0586 44.0612 19.4154 44.1958 19.3279C44.3305 19.2404 46.0134 17.8873 46.0134 17.8873L44.1083 17.1535V17.1468Z" fill="#F3C7FF"/>
<path d="M36.7674 21.287L36.6731 29.8027L32.5062 28.2072L28.9922 17.4297L36.7674 21.287Z" fill="#3B1850"/>
<path d="M44.3836 21.9198L44.6192 28.1332C44.6192 28.1332 46.8676 21.5158 46.6656 21.5158C46.4637 21.5158 42.2227 20.8359 42.2227 20.8359L44.3836 21.913V21.9198Z" fill="#3B1850"/>
<path d="M31.7474 18.7969L35.1469 18.918L32.9053 19.7393L31.0742 19.3354L31.7474 18.7969Z" fill="#3B1850"/>
<path d="M59.4766 61.4022L63.2598 60.2578L65.1245 63.7785L65.8919 67.8041L63.8186 68.4369L62.2097 64.3507L59.4766 61.4022Z" fill="white"/>
<path d="M43.4924 17.9952L41.6882 17.4297L39.5273 17.5239L40.3621 18.4395L43.4924 17.9952Z" fill="#3B1850"/>
<path d="M26.3828 29.8496L29.8901 34.2589L36.4535 37.4094L28.5572 35.1273L26.3828 29.8496Z" fill="#3B1850"/>
<path d="M50.7916 42.9548L50.1857 44.9272L45.6552 46.462L40.0948 47.2429L34.5276 46.462L30.6097 44.9003L29.3711 43.15L29.6942 39.9726L31.0473 38.1483L33.1072 37.6973L33.4034 39.2792L35.4835 40.6189L40.0611 40.915H40.1217L44.7061 40.6189L46.7794 39.2792L47.0824 37.6973L49.1356 38.1483L50.4886 39.9726L50.7916 42.9548Z" fill="#8B32C5"/>
<mask id="mask5_5136_28036" style="mask-type:luminance" maskUnits="userSpaceOnUse" x="29" y="37" width="22" height="11">
<path d="M50.7916 42.9548L50.1857 44.9272L45.6552 46.462L40.0948 47.2429L34.5276 46.462L30.6097 44.9003L29.3711 43.15L29.6942 39.9726L31.0473 38.1483L33.1072 37.6973L33.4034 39.2792L35.4835 40.6189L40.0611 40.915H40.1217L44.7061 40.6189L46.7794 39.2792L47.0824 37.6973L49.1356 38.1483L50.4886 39.9726L50.7916 42.9548Z" fill="white"/>
</mask>
<g mask="url(#mask5_5136_28036)">
<path d="M50.7916 39.5144L49.6741 41.4667L46.867 43.6276L40.0948 45.021L33.7737 44.0045L30.6838 42.739L29.3711 39.7164L29.6942 36.539L31.0473 34.7147L33.1072 34.2637L33.4034 35.8456L35.4835 37.1853L40.0611 37.4747H40.1217L44.7061 37.1853L46.7794 35.8456L47.0824 34.2637L49.1356 34.7147L50.4886 36.539L50.7916 39.5144Z" fill="#AF58EC"/>
<path d="M32.9579 36.969C32.5944 37.2854 31.625 39.1905 31.625 39.1905L32.5809 40.5974L34.9909 42.0111L40.0801 42.6102L46.3541 41.5062L48.5285 39.7829L48.34 38.2144L46.933 36.2285L33.1329 36.7536" fill="black"/>
<path d="M36.1616 40.6053L34.6537 42.6652L34.2969 44.4962L34.6537 45.9907L35.1316 46.7514L36.2962 46.8119L35.8183 46.0378L35.4749 44.5568L35.7173 42.8065C35.7173 42.8065 36.3703 41.7564 37.205 40.8409L36.1548 40.5918L36.1616 40.6053Z" fill="black"/>
<path d="M43.0094 40.1465L44.6789 42.4353L45.0693 44.4683L44.6789 46.131L44.1471 46.9792L42.8546 47.0465L43.3864 46.1916L43.7701 44.5491L43.5008 42.6103C43.5008 42.6103 42.7738 41.4457 41.8516 40.4359L43.0162 40.1599L43.0094 40.1465Z" fill="black"/>
<path d="M46.3906 39.07C46.8282 39.1979 48.1005 39.5143 48.8814 40.0259C49.4199 40.376 49.6084 41.0021 49.6084 41.0021L49.8238 43.4591L49.3795 45.344L50.046 45.1959L50.4297 43.2909L50.3085 40.3827L49.3257 39.4201L46.6599 38.4844L46.3974 39.0768L46.3906 39.07Z" fill="black"/>
<path d="M34.2188 38.8552C33.7813 38.9831 31.7281 39.8111 31.7281 39.8111L31.001 40.7872L30.6577 42.7865L31.277 45.2638L30.725 45.1831L30.0586 42.6182L30.3077 40.1679L31.2905 39.2052L33.9563 38.2695L34.2188 38.8619V38.8552Z" fill="black"/>
</g>
</svg>
