<svg width="120" height="120" viewBox="0 0 120 120" fill="none" xmlns="http://www.w3.org/2000/svg">
<rect width="120" height="120" rx="60" fill="url(#paint0_linear_5855_225147)"/>
<g clip-path="url(#clip0_5855_225147)">
<path d="M59.9996 31.7636C44.4309 31.7636 31.7646 44.43 31.7646 59.9986C31.7646 75.5672 44.4309 88.2336 59.9996 88.2336C75.5682 88.2336 88.2346 75.5672 88.2346 59.9986C88.2346 44.43 75.5682 31.7636 59.9996 31.7636ZM85.3912 58.5965H68.8747C68.8383 58.361 68.7906 58.1282 68.7345 57.8983L83.9947 51.5777C84.7742 53.793 85.2565 56.1513 85.3912 58.5965ZM59.9996 66.1817C56.5925 66.1817 53.8192 63.4084 53.8192 60.0014C53.8192 56.5944 56.5925 53.8211 59.9996 53.8211C63.4066 53.8211 66.1799 56.5944 66.1799 60.0014C66.1799 63.4084 63.4066 66.1817 59.9996 66.1817ZM82.9207 48.9867L67.6605 55.3073C67.5371 55.1054 67.4025 54.9091 67.2623 54.7184L78.936 43.0447C80.5259 44.8197 81.8747 46.8191 82.9207 48.9867ZM76.9563 41.0622L65.2826 52.7358C65.0919 52.5956 64.8956 52.4638 64.6937 52.3377L71.0143 37.0775C73.1847 38.1234 75.1812 39.4694 76.9563 41.0622ZM68.4232 36.0035L62.1027 51.2637C61.8727 51.2076 61.64 51.1599 61.4045 51.1235V34.607C63.8525 34.7416 66.208 35.2239 68.4232 36.0035ZM58.5975 34.607V51.1235C58.3619 51.1599 58.1292 51.2076 57.8993 51.2637L51.5787 36.0035C53.7968 35.2239 56.1523 34.7416 58.5975 34.607ZM48.9877 37.0775L55.3082 52.3377C55.1063 52.461 54.91 52.5956 54.7194 52.7358L43.0457 41.0622C44.8207 39.4722 46.8201 38.1234 48.9877 37.0775ZM41.0631 43.0447L52.7368 54.7184C52.5966 54.9091 52.4648 55.1054 52.3386 55.3073L37.0785 48.9867C38.1244 46.8163 39.4704 44.8197 41.0631 43.0447ZM36.0045 51.5777L51.2646 57.8983C51.2086 58.1282 51.1609 58.361 51.1244 58.5965H34.608C34.7426 56.1485 35.2249 53.793 36.0045 51.5777ZM34.608 61.4007H51.1244C51.1609 61.6362 51.2086 61.869 51.2646 62.0989L36.0045 68.4195C35.2249 66.2042 34.7426 63.8459 34.608 61.4007ZM37.0785 71.0105L52.3386 64.6899C52.462 64.8918 52.5966 65.0881 52.7368 65.2788L41.0631 76.9525C39.4732 75.1775 38.1244 73.1781 37.0785 71.0105ZM43.0457 78.9378L54.7194 67.2641C54.91 67.4044 55.1063 67.5362 55.3082 67.6623L48.9877 82.9225C46.8173 81.8766 44.8207 80.5306 43.0457 78.9378ZM51.5787 83.9965L57.8993 68.7363C58.1292 68.7924 58.3619 68.8401 58.5975 68.8765V85.393C56.1495 85.2584 53.794 84.7761 51.5787 83.9965ZM61.4016 85.3902V68.8737C61.6372 68.8373 61.8699 68.7896 62.0999 68.7335L68.4204 83.9937C66.2052 84.7733 63.8469 85.2556 61.4016 85.3902ZM71.0115 82.9197L64.6909 67.6595C64.8928 67.5362 65.0891 67.4016 65.2798 67.2613L76.9535 78.935C75.1784 80.525 73.1791 81.8738 71.0115 82.9197ZM78.9388 76.9553L67.2651 65.2816C67.4053 65.0909 67.5371 64.8946 67.6633 64.6899L82.9235 71.0105C81.8775 73.1809 80.5316 75.1775 78.9388 76.9525V76.9553ZM83.9975 68.4223L68.7373 62.1017C68.7934 61.8718 68.8411 61.639 68.8775 61.4035H85.394C85.2594 63.8515 84.777 66.207 83.9975 68.4223ZM59.9996 25C40.6706 25 25.001 40.6696 25.001 59.9986C25.001 79.3276 40.6706 94.9972 59.9996 94.9972C79.3286 94.9972 94.9982 79.3276 94.9982 59.9986C94.9982 40.6696 79.3314 25 59.9996 25ZM81.3784 81.3774C75.6692 87.0867 68.0755 90.2329 59.9996 90.2329C51.9236 90.2329 44.3328 87.0895 38.6207 81.3774C32.9115 75.6682 29.7652 68.0745 29.7652 59.9986C29.7652 51.9226 32.9087 44.3318 38.6207 38.6198C44.33 32.9105 51.9236 29.7643 59.9996 29.7643C68.0755 29.7643 75.6664 32.9077 81.3784 38.6198C87.0877 44.329 90.2339 51.9226 90.2339 59.9986C90.2339 68.0745 87.0905 75.6654 81.3784 81.3774ZM59.9996 55.1138C57.3048 55.1138 55.1147 57.3066 55.1147 59.9986C55.1147 62.6906 57.3076 64.8834 59.9996 64.8834C62.6916 64.8834 64.8844 62.6906 64.8844 59.9986C64.8844 57.3066 62.6916 55.1138 59.9996 55.1138ZM59.9996 62.9233C58.3872 62.9233 57.0776 61.611 57.0776 60.0014C57.0776 58.3918 58.3872 57.0795 59.9996 57.0795C61.612 57.0795 62.9215 58.3918 62.9215 60.0014C62.9215 61.611 61.6092 62.9233 59.9996 62.9233Z" fill="#C8FFEF"/>
</g>
<defs>
<linearGradient id="paint0_linear_5855_225147" x1="60" y1="-16" x2="60" y2="139" gradientUnits="userSpaceOnUse">
<stop offset="0.125806" stop-color="#002920"/>
<stop offset="1" stop-color="#35ED7E"/>
</linearGradient>
<clipPath id="clip0_5855_225147">
<rect width="70" height="70" fill="white" transform="translate(25 25)"/>
</clipPath>
</defs>
</svg>
