<svg width="120" height="120" viewBox="0 0 120 120" fill="none" xmlns="http://www.w3.org/2000/svg">
<rect width="120" height="120" rx="60" fill="url(#paint0_linear_5855_225137)"/>
<g clip-path="url(#clip0_5855_225137)">
<path d="M94.2083 39.6271L60.775 20.617C60.2946 20.3438 59.7044 20.3438 59.224 20.617L25.7938 39.6271C25.3041 39.9065 24.9995 40.4277 24.9995 40.9928V79.0099C24.9995 79.5751 25.3041 80.0962 25.7938 80.3757L59.224 99.3858C59.4658 99.5239 59.7326 99.5899 59.9995 99.5899C60.2664 99.5899 60.5364 99.5208 60.775 99.3858L94.2052 80.3757C94.695 80.0962 94.9995 79.5751 94.9995 79.0099V40.9928C94.9995 40.4277 94.695 39.9065 94.2052 39.6271H94.2083ZM42.6753 50.6125H77.7224L60.0152 81.8481L42.6753 50.6125ZM43.1211 47.4729L60.0121 24.6074L77.264 47.4729H43.1211ZM57.0201 82.9187L29.7309 77.9864L40.217 52.6469L57.0201 82.9187ZM80.2309 52.5527L91.2038 77.8169L63.0198 82.9124L80.2309 52.5527ZM80.8086 46.9549L65.8328 27.1065L90.3561 41.0525L80.8086 46.958V46.9549ZM39.5923 46.9643L29.6806 41.0274L54.3357 27.0091L39.5954 46.9612L39.5923 46.9643ZM38.0413 49.6926L28.1391 73.6224V43.7619L38.0413 49.6926ZM58.4297 86.366V95.32L35.3381 82.1903L58.4297 86.366ZM61.5693 86.366L84.6609 82.1903L61.5693 95.32V86.366ZM82.3973 49.6612L91.8599 43.8059V71.453L82.3973 49.6612Z" fill="#E0E3FF"/>
</g>
<defs>
<linearGradient id="paint0_linear_5855_225137" x1="60" y1="-19" x2="60" y2="137.5" gradientUnits="userSpaceOnUse">
<stop offset="0.207668" stop-color="#1F1D5D"/>
<stop offset="1" stop-color="#5865F2"/>
</linearGradient>
<clipPath id="clip0_5855_225137">
<rect width="70" height="79.1738" fill="white" transform="translate(25 20.4131)"/>
</clipPath>
</defs>
</svg>
