<svg width="120" height="120" viewBox="0 0 120 120" fill="none" xmlns="http://www.w3.org/2000/svg">
<rect width="120" height="120" rx="60" fill="url(#paint0_linear_5855_225128)"/>
<g clip-path="url(#clip0_5855_225128)">
<path d="M58.8815 47.4101C51.9061 47.4101 46.2307 53.0855 46.2307 60.0609C46.2307 67.0362 51.9061 72.7116 58.8815 72.7116C65.8568 72.7116 71.5322 67.0362 71.5322 60.0609C71.5322 53.0855 65.8568 47.4101 58.8815 47.4101ZM58.8815 70.3904C53.1857 70.3904 48.5519 65.7566 48.5519 60.0609C48.5519 54.3651 53.1857 49.7313 58.8815 49.7313C64.5772 49.7313 69.211 54.3651 69.211 60.0609C69.211 65.7566 64.5772 70.3904 58.8815 70.3904ZM93.5492 32.0928H26.4508C25.6499 32.0928 25 32.7427 25 33.5436V86.4563C25 87.2571 25.6499 87.9071 26.4508 87.9071H93.5492C94.3501 87.9071 95 87.2571 95 86.4563V33.5436C95 32.7427 94.3501 32.0928 93.5492 32.0928ZM92.0984 34.9943V58.1429H77.2715C77.55 57.1593 77.5762 56.1844 77.3411 55.2559C76.9726 53.7993 75.9919 52.5661 74.4918 51.6551C73.7461 48.2167 71.8253 45.3819 69.0282 43.6206C66.1702 41.8188 62.6593 41.3255 59.0875 42.2047C57.2537 41.2356 55.4083 40.9802 53.7196 41.4706C52.1005 41.9406 50.7455 43.0636 49.7706 44.729C46.5731 45.5908 43.9791 47.5087 42.4209 50.1811C41.0572 52.5197 40.5871 55.2878 41.034 58.14H27.9016V34.9943H92.0984ZM73.5662 60.3713C74.4019 62.1616 74.5469 63.888 73.9898 65.3649C73.4531 66.7809 72.2866 67.9183 70.6095 68.6495C70.2323 68.8148 69.9422 69.134 69.8116 69.5257C69.0804 71.7541 67.7167 73.4022 65.8684 74.2988C63.9679 75.2186 61.725 75.2534 59.3805 74.3945C59.0497 74.2727 58.687 74.2756 58.3592 74.4032C56.154 75.2563 54.0388 75.2737 52.2398 74.4526C50.4989 73.6575 49.1816 72.1371 48.4359 70.0567C48.2966 69.6708 48.0035 69.3632 47.6234 69.2066C45.8129 68.4609 44.5304 67.2567 43.9094 65.7247C43.2682 64.1346 43.3726 62.2747 44.2141 60.3394C44.3534 60.0202 44.3737 59.6633 44.2692 59.3326C43.4133 56.5616 43.6425 53.8341 44.9192 51.6493C46.1697 49.505 48.3459 47.9991 51.0444 47.4101C51.4767 47.3143 51.8423 47.03 52.0367 46.6325C52.6547 45.3761 53.5165 44.5549 54.5233 44.2619C54.8135 44.1777 55.1181 44.1342 55.4315 44.1342C56.2671 44.1342 57.1811 44.4273 58.127 45.0018C58.4752 45.2136 58.8931 45.2687 59.2848 45.1556C62.2589 44.2967 65.1662 44.6246 67.4759 46.0783C69.7507 47.5116 71.274 49.9112 71.7585 52.836C71.834 53.2944 72.127 53.689 72.542 53.898C73.3022 54.2752 74.2626 54.9425 74.5237 55.9697C74.7965 57.0461 74.222 58.1719 73.691 58.9234C73.3921 59.3471 73.3428 59.9013 73.5633 60.3713H73.5662ZM27.9016 85.0055V61.0445H40.9121C40.3985 63.064 40.4972 65.0283 41.2197 66.8128C42.0669 68.9048 43.6889 70.5616 45.9347 71.6294C46.9822 74.1334 48.7753 76.06 51.0356 77.093C52.3036 77.6733 53.6674 77.9634 55.0833 77.9634C56.3223 77.9634 57.6048 77.74 58.8989 77.2961C61.7888 78.2275 64.6933 78.094 67.1364 76.9102C69.4953 75.767 71.332 73.6953 72.3563 71.0345C74.457 69.9726 75.9542 68.3767 76.7057 66.392C77.3324 64.7295 77.3934 62.9102 76.8914 61.0474H92.0984V85.0084H27.9016V85.0055ZM57.1492 57.9543V58.9147C57.1492 59.2339 56.8881 59.4951 56.5689 59.4951H55.4315V63.8445C55.4315 64.1637 55.1704 64.4248 54.8512 64.4248H53.766C53.4468 64.4248 53.1857 64.1637 53.1857 63.8445V59.4951H52.057C51.7378 59.4951 51.4767 59.2339 51.4767 58.9147V57.9543C51.4767 57.6352 51.7378 57.374 52.057 57.374H56.566C56.8852 57.374 57.1463 57.6352 57.1463 57.9543H57.1492ZM65.7146 57.9543V63.8445C65.7146 64.1637 65.4535 64.4248 65.1343 64.4248H64.0665C63.7474 64.4248 63.4862 64.1637 63.4862 63.8445V62.443L62.9407 64.0331C62.8595 64.2681 62.639 64.4248 62.3923 64.4248H61.3333C61.0837 64.4248 60.8603 64.2652 60.782 64.0244L60.2974 62.5533V63.8445C60.2974 64.1637 60.0363 64.4248 59.7171 64.4248H58.6987C58.3795 64.4248 58.1183 64.1637 58.1183 63.8445V57.9543C58.1183 57.6352 58.3795 57.374 58.6987 57.374H60.4483C60.6978 57.374 60.9183 57.5336 60.9996 57.7715L61.9223 60.5367L62.8711 57.7686C62.9523 57.5336 63.1729 57.3769 63.4195 57.3769H65.1372C65.4564 57.3769 65.7175 57.6381 65.7175 57.9572L65.7146 57.9543Z" fill="#F5C9FF"/>
</g>
<defs>
<linearGradient id="paint0_linear_5855_225128" x1="60" y1="-11" x2="60" y2="133.5" gradientUnits="userSpaceOnUse">
<stop offset="0.17301" stop-color="#381F2C"/>
<stop offset="1" stop-color="#FF4CD2"/>
</linearGradient>
<clipPath id="clip0_5855_225128">
<rect width="70" height="55.8143" fill="white" transform="translate(25 32.0928)"/>
</clipPath>
</defs>
</svg>
