<svg width="120" height="120" viewBox="0 0 120 120" fill="none" xmlns="http://www.w3.org/2000/svg">
<rect width="120" height="120" rx="60" fill="url(#paint0_linear_5855_225109)"/>
<g clip-path="url(#clip0_5855_225109)">
<path d="M39.01 50.9779C40.1992 51.9226 41.9235 52.5139 43.8394 52.5139C45.7554 52.5139 47.3046 51.9788 48.4839 51.1199C48.7151 50.9515 49.1545 51.0737 49.095 51.295C48.5533 53.3629 46.4061 54.9089 43.8394 54.9089C41.2727 54.9089 38.9967 53.2737 38.5409 51.1133C38.5045 50.9416 38.8415 50.8458 39.01 50.9812V50.9779ZM54.9848 53.0458C52.3191 55.8569 48.3055 57.6473 43.8196 57.6473C39.3337 57.6473 35.3234 55.8602 32.6543 53.0458C32.3637 52.7386 31.8351 52.9896 31.8979 53.4091C32.7865 59.55 37.7844 64.254 43.8196 64.254C49.8548 64.254 54.8527 59.55 55.7413 53.4091C55.8008 52.9896 55.2755 52.7386 54.9848 53.0458ZM40.0505 42.6271C40.3082 42.9244 40.8004 42.7097 40.7343 42.3199C40.1298 38.6763 37.725 35.9511 34.8511 35.9511C31.9772 35.9511 29.4303 38.8349 28.9183 42.6403C28.8786 42.9409 29.2552 43.1127 29.4435 42.8748C30.7748 41.2133 32.7039 40.1661 34.8511 40.1661C36.9982 40.1661 38.7292 41.1075 40.0505 42.6238V42.6271ZM48.3022 42.5049C49.6136 41.058 51.4106 40.1694 53.3926 40.1694C55.3746 40.1694 57.1717 41.0613 58.4831 42.5049C58.7837 42.8352 59.3221 42.5577 59.2395 42.1184C58.5822 38.5772 56.2137 35.9544 53.3926 35.9544C50.5716 35.9544 48.2031 38.5772 47.5458 42.1184C47.4632 42.5577 48.0016 42.8385 48.3022 42.5049ZM75.1252 81.722C73.685 81.9664 71.9739 81.7088 70.3453 80.8961C68.6276 80.0406 67.3525 78.7391 66.7084 77.3649C66.6159 77.17 66.2723 77.1039 66.2294 77.2724C65.6744 79.4096 66.9132 81.8541 69.2784 83.0334C71.5775 84.1797 74.1871 83.7568 75.5943 82.1481C75.743 81.9763 75.406 81.6724 75.1252 81.7187V81.722ZM68.3699 84.8139C63.7155 82.4916 58.0536 84.1962 55.008 88.5896C54.7999 88.8902 55.1104 89.2866 55.4506 89.1611C58.5888 88.0181 62.3678 88.1833 65.8297 89.9076C69.2883 91.632 71.6931 94.5554 72.6676 97.7497C72.7733 98.0999 73.2787 98.1065 73.391 97.7596C75.0691 92.6824 73.0243 87.1328 68.3699 84.8139ZM98.2419 69.7012L97.2807 74.4348C96.5605 77.976 95.0608 81.3685 92.9368 84.2457C89.7986 88.4971 84.8635 94.4596 79.1652 98.711C74.4415 102.236 69.9952 104.006 65.8825 104.006C63.7122 104.006 61.6344 103.514 59.6558 102.526C53.4059 99.408 50.0695 93.2704 49.7359 84.2821C49.5971 80.5724 50.0001 76.7736 50.6245 73.2621C48.7283 74.1805 46.7001 74.6429 44.5496 74.6429C37.5664 74.6429 31.8384 70.6393 27.5309 62.7444C24.0888 56.4383 22.2819 48.9133 21.3735 43.7106C20.7326 40.0472 20.9209 36.2318 21.9218 32.6775L23.3687 27.5309C23.6759 26.4342 24.3531 25.4663 25.2747 24.799C26.5828 23.8543 28.3633 23.7386 29.8135 24.4984C31.5709 25.42 36.5457 27.5606 44.9394 27.4813C52.7683 27.4119 56.1212 25.6083 57.1981 24.8353C58.5624 23.8576 60.3759 23.775 61.8227 24.6272C63.1143 25.387 64.0393 26.6026 64.4291 28.0495L65.681 32.7138C66.6192 36.2021 66.7876 39.9084 66.1732 43.4298C65.8693 45.164 65.4696 47.1592 64.9576 49.28C66.4507 49.1478 67.9504 49.8316 68.8456 51.0737C70.0051 52.6824 73.5198 56.8215 81.0514 60.4948C88.0875 63.9269 91.8929 63.808 93.2011 63.5999C94.8593 63.3356 96.5209 64.0723 97.4326 65.4762C98.2485 66.7348 98.5359 68.2345 98.2353 69.7012H98.2419ZM44.5496 71.3363C56.6365 71.3363 61.423 51.4205 62.9194 42.8583C63.4513 39.806 63.3059 36.5952 62.49 33.566L61.238 28.9017C61.0762 28.2972 60.6897 27.7885 60.148 27.4714C59.8341 27.2864 59.4212 27.3062 59.1206 27.5177C57.4656 28.7035 53.4257 30.7054 44.9692 30.7813C35.8421 30.8573 30.2528 28.4591 28.2774 27.4219C27.9273 27.2369 27.5078 27.26 27.2072 27.4747C26.8867 27.7059 26.6522 28.0429 26.5465 28.4228L25.0996 33.5694C24.2342 36.6514 24.069 39.9613 24.624 43.1424C25.4894 48.0974 27.2006 55.2491 30.4279 61.1588C34.1144 67.9108 38.8646 71.3363 44.5496 71.3363ZM94.6677 67.2732C94.4695 66.9693 94.0897 66.8008 93.7263 66.8603C91.7146 67.1807 87.2055 67.1675 79.6046 63.4645C71.3991 59.4641 67.4747 54.8197 66.1666 53.0094C65.9354 52.689 65.5489 52.5205 65.1855 52.58C64.7957 52.6428 64.4357 52.841 64.1714 53.1317L63.8047 53.5347C62.893 56.5572 61.7468 59.659 60.3032 62.5197C58.5987 65.899 56.6729 68.5747 54.5422 70.5468C53.5975 74.6859 52.8641 79.522 53.0359 84.1565C53.32 91.8434 56.0452 97.0296 61.129 99.5666C62.6684 100.333 64.254 100.673 65.8561 100.673C75.5282 100.673 85.8478 88.2791 90.2743 82.2802C92.1143 79.7895 93.4158 76.8463 94.0368 73.7742L94.9981 69.0405C95.1236 68.4261 95.0047 67.7984 94.6611 67.2732H94.6677ZM60.3131 67.3558C62.2456 66.4606 64.439 66.3879 66.3615 67.3459C68.185 68.2543 69.4138 69.9192 69.9159 71.8648C70.015 72.248 70.5501 72.2745 70.6658 71.8979C71.7525 68.3666 70.8144 64.8552 68.2411 63.5735C65.5918 62.2522 62.1035 63.7353 59.9464 66.9132C59.7747 67.1642 60.0356 67.4846 60.3131 67.3558ZM84.837 71.8483C82.3133 70.5898 79.0232 71.8781 76.8529 74.7553C76.582 75.112 76.9421 75.6042 77.3583 75.439C79.1784 74.7321 81.1835 74.7354 82.9574 75.6207C84.7313 76.506 85.9403 78.1048 86.4689 79.9844C86.5911 80.4172 87.1956 80.4072 87.3211 79.9745C88.3121 76.5093 87.3641 73.1069 84.8403 71.8483H84.837Z" fill="#C8FFEF"/>
</g>
<defs>
<linearGradient id="paint0_linear_5855_225109" x1="60" y1="-16" x2="60" y2="139" gradientUnits="userSpaceOnUse">
<stop offset="0.125806" stop-color="#002920"/>
<stop offset="1" stop-color="#35ED7E"/>
</linearGradient>
<clipPath id="clip0_5855_225109">
<rect width="77.3573" height="80" fill="white" transform="translate(21 24)"/>
</clipPath>
</defs>
</svg>
