<svg width="122" height="91" viewBox="0 0 122 91" fill="none" xmlns="http://www.w3.org/2000/svg">
<path d="M58.293 83.1566L59.9564 69.8715L65.2867 58.2645L76.8937 37.5864L83.259 31.1989L90.3119 29.7129" fill="#23272A"/>
<path d="M24.8125 55.9281L30.0615 56.8079L32.93 55.0557L38.1716 49.0157L41.6759 41.4601L43.6646 32.3667L41.6759 26.9551" fill="#DEE1FF"/>
<path d="M21.9481 26.1423L17.7341 32.4337L15.457 39.2278L15.8267 47.3453L18.5769 53.7033L24.8091 55.9285L30.8566 52.5943L35.9725 44.9574L38.9667 38.3555L41.6725 26.9555L38.3309 20.3018L33.1632 17.877L21.9481 26.1423Z" fill="#5865F0"/>
<path d="M23.0381 24.9955L22.4023 26.511V28.6624L24.7385 30.7989L29.1891 30.1114L32.9004 26.4297L35.4435 22.6075L35.9758 18.9554L34.8077 16.464L33.1665 15.5103L30.8895 15.2441L23.0381 24.9955Z" fill="#DEE1FF"/>
<path d="M28.4995 12.5391L24.7291 13.3597L21.5279 15.8215L18.5781 21.6472L19.1696 25.5137L21.5501 26.9553L25.0544 26.4304L28.9726 23.8873L31.575 20.0651L32.1146 15.8215L31.0501 13.441L28.4995 12.5391Z" fill="#DEE1FF"/>
<path d="M67.9923 23.3021L64.2293 22.5628L62.8468 26.4367L60.7251 20.7072L55.4243 19.1547L52.3488 18.748L50.6484 23.7827L51.6539 26.4367L63.8375 34.0293L66.9499 31.2052L68.7242 27.5974L67.9775 23.3021H67.9923ZM60.9173 30.111L53.5834 24.8029L53.9975 20.8846L59.5496 23.376L62.2702 30.806L60.9173 30.1184V30.111ZM64.2293 31.1978L64.732 27.8562L66.5581 24.5146L67.7484 27.1391L64.2219 31.1978H64.2293Z" fill="white"/>
<path d="M64.2316 35.975V34.3781L62.1098 32.3672H59.2487L53.9997 34.3337L47.6935 41.0613L46.6289 45.9407L49.4974 47.7372L64.2316 35.975Z" fill="#DEE1FF"/>
<path d="M67.3071 39.2049V37.7189L65.8211 36.6026L64.2316 35.9668L59.3522 37.9777L54.9017 42.7757L49.3717 47.2411L48.832 53.1924L51.3013 55.048L54.7982 52.4014L60.7865 46.6718L66.7748 41.0532L67.3071 39.1975V39.2049Z" fill="#DEE1FF"/>
<path d="M70.2985 37.9551L59.564 44.4757L52.8807 52.5931L51.2912 55.055L50.8477 62.4628L51.8531 74.1436L55.4313 81.3L83.2584 39.552L70.2985 37.9551Z" fill="#5865F0"/>
<path d="M93.2858 26.4293L88.3547 25.6309L80.7178 28.1001L71.7353 35.0125L68.3789 39.0121L70.7816 37.9549L73.4061 39.2265L78.2559 33.3491L82.2629 30.1554L87.2975 27.5752L93.2858 26.4293Z" fill="white"/>
<path d="M93.2826 26.4297L87.2943 27.5756L82.2597 30.1557L75.6726 35.4047L65.4998 53.3623L58.2547 69.0649L55.4306 81.3003L55.1719 82.0913L58.0625 87.3921L63.2746 90.9998L70.8006 89.6174L83.2577 78.9123L95.8258 62.3743L102.509 47.2113V35.3382L99.5371 30.4589L93.2826 26.4297Z" fill="#DEE1FF"/>
<mask id="mask0_5136_28040" style="mask-type:luminance" maskUnits="userSpaceOnUse" x="55" y="26" width="48" height="65">
<path d="M93.2826 26.4297L87.2943 27.5756L82.2597 30.1557L75.6726 35.4047L65.4998 53.3623L58.2547 69.0649L55.4306 81.3003L55.1719 82.0913L58.0625 87.3921L63.2746 90.9998L70.8006 89.6174L83.2577 78.9123L95.8258 62.3743L102.509 47.2113V35.3382L99.5371 30.4589L93.2826 26.4297Z" fill="white"/>
</mask>
<g mask="url(#mask0_5136_28040)">
<path d="M58.2562 69.0645L60.9103 70.7722L61.9971 91.576L50.6562 85.4325L58.2562 69.0645Z" fill="#CDA4FA"/>
<path d="M55.1719 82.0918L58.2917 83.1564L59.8812 88.6567L56.8575 87.947L55.1719 82.0918Z" fill="#C186F4"/>
<path d="M87.2969 27.5757L99.51 22.9551L103.133 31.7157L90.3132 29.7122L87.2969 27.5757Z" fill="#D9C3FF"/>
<path d="M75.6758 35.4053L82.2629 30.1562L85.4345 31.731L79.6088 37.4531L75.6758 35.4053Z" fill="#DEE1FF"/>
</g>
<path d="M99.5383 30.4586L95.5092 28.9727L90.3119 29.712L85.4325 31.7302L79.6069 37.4524L66.9575 58.7146L61.5754 70.4324L58.293 83.1557L59.6976 88.523L63.2758 90.9996L70.8019 89.6171L83.259 78.9121L95.827 62.3741L102.51 47.2111V35.338L99.5383 30.4586Z" fill="#000066"/>
<path d="M99.5383 30.4586L95.5092 28.9727L90.3119 29.712L85.4325 31.7302L79.6069 37.4524L66.9575 58.7146L60.9101 70.7725L58.293 83.1557L59.6976 88.523L63.2758 90.9996L70.8019 89.6171L83.259 78.9121L95.827 62.3741L102.51 47.2111V35.338L99.5383 30.4586Z" fill="black"/>
<path d="M62.8906 86.1288L61.9961 82.728L64.9976 71.0915L70.1949 59.7876L82.5338 39.0356L87.6201 34.0379L92.7065 31.9383L95.538 31.8496L97.7485 32.6628L99.6632 35.8122V46.1106L93.4088 60.3051L81.2843 76.2665L69.7439 86.1879L64.384 87.1712L62.8906 86.1288Z" fill="#3B1850"/>
<path d="M27.5694 14.6973L25.1298 15.2222L23.0671 16.819L21.1523 20.5821L21.6846 22.593L23.0671 23.5984L25.2407 23.0217L27.5694 21.3509L29.9056 16.819L29.2107 15.2739L27.5694 14.6973Z" fill="black"/>
<path d="M18.3188 11.2154L15.2951 10.9492L13.8091 13.6033V17.529L11.1032 16.3091L9.13672 18.2683L11.8425 23.1698L19.0507 24.8036C19.0507 24.8036 17.9935 22.5636 17.9417 22.2161C17.89 21.8686 19.376 15.4072 19.4277 15.2445C19.4795 15.0893 18.3188 11.2154 18.3188 11.2154ZM15.8274 23.0219L11.6355 20.597L11.9017 18.7414H13.6021L15.8274 21.9204V23.0219ZM17.2098 21.9204L15.4577 15.8212L16.5149 12.7457L17.4168 14.971L17.2024 21.913L17.2098 21.9204Z" fill="white"/>
<path d="M15.8267 38.1259L19.9593 36.5586L26.8792 37.3422L33.6363 40.743L35.5955 45.5115L30.8566 52.5939L24.8091 55.9282L18.5769 53.7029L15.8267 47.3449L15.457 39.2275L15.8267 38.1259Z" fill="white"/>
<path d="M83.2585 5.91406C81.7726 6.33546 70.2617 18.9553 70.2617 18.9553L87.0733 9.12261L83.2585 5.91406Z" fill="#FF4CD0"/>
<path d="M41.6758 0L46.6291 19.1478L47.7898 1.70038L41.6758 0Z" fill="#FF4CD0"/>
<path d="M3.17188 34.2363L3.18666 28.248L13.7364 32.3659L3.17188 34.2363Z" fill="#FF4CD0"/>
<path d="M20.3085 59.5059L0 64.0156L3.17158 68.5179L20.3085 59.5059Z" fill="#FF4CD0"/>
<path d="M39.6479 58.7598L25.5273 75.357C25.5273 75.357 34.118 75.5714 34.4359 75.6749C34.7538 75.7784 39.6553 58.7598 39.6553 58.7598H39.6479Z" fill="#FF4CD0"/>
<path d="M53.9997 34.332L48.9355 41.8802L48.8246 44.416L50.8503 46.0499L50.6581 50.5374L52.8834 52.5927L51.2939 55.0545L48.8246 53.1989L49.1721 47.5359L46.6289 45.939L47.6935 41.0596L53.9997 34.332Z" fill="#D9C3FF"/>
<path d="M28.5 12.5391L30.5331 14.2912L31.3315 17.8768L32.921 16.6495L34.2369 17.3371L35.649 21.1888L35.9743 18.9562L34.8062 16.4647L33.165 15.511L31.9082 15.3632L31.0506 13.441L28.5 12.5391Z" fill="#D9C3FF"/>
<path d="M64.2319 34.377L63.5 36.5579L65.9988 37.4302L65.6514 40.7867L67.5366 39.6407L67.1669 36.5579L64.5424 36.0995L64.2319 34.377Z" fill="#D9C3FF"/>
<path d="M52.8807 52.5938C52.8807 52.5938 53.206 65.731 58.0632 69.9007L55.4239 81.3006L51.8457 74.1442L50.8477 62.4634L51.2912 55.0556L52.8807 52.5938Z" fill="#6A2792"/>
<path d="M24.7366 30.7996L21.6981 33.0693L19.9608 36.5588L15.8281 38.1261L17.7355 32.4335L20.9736 26.9553L22.4005 26.5117V28.6631L24.7366 30.7996Z" fill="#6A2792"/>
<path d="M19.9593 36.5586L17.7119 45.5115L18.5769 53.7029L15.8267 47.3449L15.457 39.2275L15.8267 38.1259L19.9593 36.5586Z" fill="#D9C3FF"/>
<path d="M18.5781 21.6465L20.2785 24.8033L24.8104 26.4076L21.3505 26.8363L19.1696 25.513L18.5781 21.6465Z" fill="#D9C3FF"/>
<path d="M35.6484 21.1878L37.8368 21.6461L41.6737 26.9543L38.3321 20.3006L35.9737 18.9551L35.6484 21.1878Z" fill="#6A2792"/>
<path d="M56.1862 78.0394L55.4321 81.2997L51.8539 74.1433L50.6562 63.1204L51.292 55.0547L51.4917 64.015L52.8372 73.4484" fill="#FF4CD0"/>
<path d="M20.6691 27.4648L18.3846 33.0687L17.0687 37.7115L15.8267 47.3445L15.457 39.227L17.7341 32.4329L20.6691 27.4648Z" fill="#FF4CD0"/>
<path d="M23.223 26.7039L24.051 28.2491L26.3354 29.358L29.1891 30.1121L24.7385 30.7996L22.4023 28.6631V26.5117L23.223 26.7039Z" fill="#D9C3FF"/>
<path d="M102.51 35.3383L99.5376 30.459L101.6 35.6562L101.571 46.8344L94.9983 61.8125L82.4524 78.528L71.2891 89.2035L83.2583 78.9125L95.8263 62.3744L102.51 47.2114V35.3383Z" fill="#FF4CD0"/>
</svg>
