<svg width="120" height="120" viewBox="0 0 120 120" fill="none" xmlns="http://www.w3.org/2000/svg">
<rect width="120" height="120" rx="60" fill="url(#paint0_linear_5855_225243)"/>
<g clip-path="url(#clip0_5855_225243)">
<path d="M86.9393 23.4329C86.8103 21.4958 84.3135 20.3951 78.1594 19.5366C73.2978 18.8605 66.8481 18.4863 60.0022 18.4863C53.1563 18.4863 46.7066 18.8605 41.8418 19.5366C35.6846 20.3951 33.1877 21.4958 33.0619 23.4329L24.999 76.8259L39.2569 98.4171L39.5147 98.5932C42.694 100.747 52.5368 101.515 59.999 101.515C67.4613 101.515 77.3041 100.75 80.4833 98.5932L80.7412 98.4171L94.999 76.8259L86.9393 23.4329ZM30.0997 64.1121C31.7726 64.9643 34.3638 65.6593 38.0179 66.2662C43.9047 67.2473 51.7097 67.7851 60.0022 67.7851C63.8921 67.7851 67.6751 67.6656 71.2034 67.436L72.7506 76.7159C72.8795 77.4863 73.5462 78.0303 74.3009 78.0303C74.3858 78.0303 74.4739 78.0241 74.5619 78.0083C75.4173 77.8668 75.9959 77.0555 75.8544 76.2002L74.3544 67.2002C77.1311 66.958 79.7034 66.6467 81.9864 66.2662C85.6374 65.6593 88.2317 64.9612 89.9047 64.1121L91.65 75.6624C85.9298 78.9517 73.6437 82.1184 60.0053 82.1184C46.3669 82.1184 33.4833 79.6561 28.3386 75.8008L30.1028 64.109L30.0997 64.1121ZM35.8009 26.3511C37.2003 26.8605 39.1751 27.2788 41.8418 27.6498C46.7034 28.326 53.1531 28.7002 60.0022 28.7002C66.8512 28.7002 73.2978 28.326 78.1594 27.6498C80.8261 27.2788 82.8009 26.8605 84.2003 26.3511L88.9267 57.6467C87.2789 56.9895 84.9896 56.4297 81.9864 55.9297C79.15 55.458 75.8607 55.087 72.2915 54.8322L70.3669 43.2851C70.2254 42.4297 69.411 41.848 68.5588 41.9926C67.7034 42.1341 67.1248 42.9454 67.2663 43.8008L69.0713 54.6341C66.1688 54.4863 63.1185 54.4109 60.0022 54.4109C51.7129 54.4109 43.9047 54.9517 38.0179 55.9297C35.0116 56.4297 32.7254 56.9895 31.0776 57.6467L35.8041 26.3511H35.8009ZM72.8198 58.0178C82.0179 58.7348 87.3984 60.131 88.8795 61.0995C87.4519 62.0335 82.4141 63.3605 73.8324 64.0995L72.8198 58.0178ZM70.6846 64.3291C67.521 64.5272 63.9613 64.6436 59.999 64.6436C42.889 64.6436 33.1908 62.4517 31.1185 61.0964C33.1908 59.741 42.889 57.5492 59.999 57.5492C63.5147 57.5492 66.7097 57.6436 69.5965 57.8008L70.6846 64.3259V64.3291ZM59.999 21.6341C71.9204 21.6341 79.4644 22.7033 82.543 23.5932C79.4676 24.4832 71.9204 25.5524 59.999 25.5524C48.0776 25.5524 40.5305 24.4832 37.455 23.5932C40.5305 22.7033 48.0776 21.6341 59.999 21.6341ZM78.4833 96.131C76.4298 97.241 69.477 98.3668 59.999 98.3668C50.521 98.3668 43.5682 97.241 41.5147 96.131L31.5493 81.0429C38.26 83.7096 48.4047 85.2662 59.9959 85.2662C66.7978 85.2662 73.7758 84.4926 80.1783 83.0303C83.4015 82.2945 86.3355 81.4109 88.8449 80.4329L78.477 96.131H78.4833ZM38.9833 48.8826L42.0525 32.5964C42.2129 31.7442 43.0368 31.1782 43.889 31.3417C44.7412 31.5021 45.3041 32.3228 45.1437 33.1782L42.0745 49.4643C41.933 50.219 41.2726 50.7473 40.5305 50.7473C40.433 50.7473 40.3355 50.7379 40.238 50.719C39.3858 50.5587 38.8229 49.7379 38.9833 48.8826Z" fill="#F5C9FF"/>
</g>
<defs>
<linearGradient id="paint0_linear_5855_225243" x1="60" y1="-11" x2="60" y2="133.5" gradientUnits="userSpaceOnUse">
<stop offset="0.17301" stop-color="#381F2C"/>
<stop offset="1" stop-color="#FF4CD2"/>
</linearGradient>
<clipPath id="clip0_5855_225243">
<rect width="70" height="83.022" fill="white" transform="translate(25 18.4893)"/>
</clipPath>
</defs>
</svg>
